; NON-PLATED HOLES START AT T1
; THROUGH (PLATED) HOLES START AT T100
M48
INCH
T1C0.086614
T100C0.027559
T101C0.015748
T102C0.035000
T103C0.031497
%
T1
X003266Y001908
T100
X000423Y008454
X003334Y005672
X000422Y001479
X000423Y006454
X000422Y002479
X000422Y003479
X000422Y000479
X000423Y007454
X003334Y000464
X003334Y006672
T101
X001603Y001980
X001158Y007188
X002626Y007526
X002524Y004607
X002097Y005945
T102
X000454Y004445
X000454Y005445
T103
X001498Y001305
X001498Y000320
T00
M30
