G04 MADE WITH FRITZING*
G04 WWW.FRITZING.ORG*
G04 DOUBLE SIDED*
G04 HOLES PLATED*
G04 CONTOUR ON CENTER OF CONTOUR VECTOR*
%ASAXBY*%
%FSLAX23Y23*%
%MOIN*%
%OFA0B0*%
%SFA1.0B1.0*%
%ADD10R,0.001000X0.001000*%
%LNSILK0*%
G90*
G70*
G54D10*
X0Y892D02*
X380Y892D01*
X0Y891D02*
X380Y891D01*
X0Y890D02*
X380Y890D01*
X0Y889D02*
X380Y889D01*
X0Y888D02*
X380Y888D01*
X0Y887D02*
X380Y887D01*
X0Y886D02*
X380Y886D01*
X0Y885D02*
X380Y885D01*
X0Y884D02*
X7Y884D01*
X373Y884D02*
X380Y884D01*
X0Y883D02*
X7Y883D01*
X373Y883D02*
X380Y883D01*
X0Y882D02*
X7Y882D01*
X373Y882D02*
X380Y882D01*
X0Y881D02*
X7Y881D01*
X373Y881D02*
X380Y881D01*
X0Y880D02*
X7Y880D01*
X373Y880D02*
X380Y880D01*
X0Y879D02*
X7Y879D01*
X373Y879D02*
X380Y879D01*
X0Y878D02*
X7Y878D01*
X373Y878D02*
X380Y878D01*
X0Y877D02*
X7Y877D01*
X373Y877D02*
X380Y877D01*
X0Y876D02*
X7Y876D01*
X373Y876D02*
X380Y876D01*
X0Y875D02*
X7Y875D01*
X373Y875D02*
X380Y875D01*
X0Y874D02*
X7Y874D01*
X373Y874D02*
X380Y874D01*
X0Y873D02*
X7Y873D01*
X373Y873D02*
X380Y873D01*
X0Y872D02*
X7Y872D01*
X373Y872D02*
X380Y872D01*
X0Y871D02*
X7Y871D01*
X373Y871D02*
X380Y871D01*
X0Y870D02*
X7Y870D01*
X373Y870D02*
X380Y870D01*
X0Y869D02*
X7Y869D01*
X373Y869D02*
X380Y869D01*
X0Y868D02*
X7Y868D01*
X373Y868D02*
X380Y868D01*
X0Y867D02*
X7Y867D01*
X373Y867D02*
X380Y867D01*
X0Y866D02*
X7Y866D01*
X373Y866D02*
X380Y866D01*
X0Y865D02*
X7Y865D01*
X373Y865D02*
X380Y865D01*
X0Y864D02*
X7Y864D01*
X373Y864D02*
X380Y864D01*
X0Y863D02*
X7Y863D01*
X373Y863D02*
X380Y863D01*
X0Y862D02*
X6Y862D01*
X373Y862D02*
X380Y862D01*
X0Y861D02*
X6Y861D01*
X373Y861D02*
X380Y861D01*
X0Y860D02*
X5Y860D01*
X373Y860D02*
X380Y860D01*
X0Y859D02*
X5Y859D01*
X373Y859D02*
X380Y859D01*
X0Y858D02*
X4Y858D01*
X373Y858D02*
X380Y858D01*
X0Y857D02*
X4Y857D01*
X373Y857D02*
X380Y857D01*
X0Y856D02*
X4Y856D01*
X373Y856D02*
X380Y856D01*
X0Y855D02*
X4Y855D01*
X373Y855D02*
X380Y855D01*
X0Y854D02*
X3Y854D01*
X373Y854D02*
X380Y854D01*
X0Y853D02*
X3Y853D01*
X373Y853D02*
X380Y853D01*
X0Y852D02*
X3Y852D01*
X373Y852D02*
X380Y852D01*
X0Y851D02*
X3Y851D01*
X373Y851D02*
X380Y851D01*
X0Y850D02*
X3Y850D01*
X373Y850D02*
X380Y850D01*
X0Y849D02*
X3Y849D01*
X373Y849D02*
X380Y849D01*
X0Y848D02*
X3Y848D01*
X373Y848D02*
X380Y848D01*
X0Y847D02*
X3Y847D01*
X373Y847D02*
X380Y847D01*
X0Y846D02*
X3Y846D01*
X373Y846D02*
X380Y846D01*
X0Y845D02*
X3Y845D01*
X373Y845D02*
X380Y845D01*
X0Y844D02*
X3Y844D01*
X373Y844D02*
X380Y844D01*
X0Y843D02*
X3Y843D01*
X373Y843D02*
X380Y843D01*
X0Y842D02*
X3Y842D01*
X373Y842D02*
X380Y842D01*
X0Y841D02*
X3Y841D01*
X373Y841D02*
X380Y841D01*
X0Y840D02*
X3Y840D01*
X373Y840D02*
X380Y840D01*
X0Y839D02*
X3Y839D01*
X373Y839D02*
X380Y839D01*
X0Y838D02*
X3Y838D01*
X373Y838D02*
X380Y838D01*
X0Y837D02*
X4Y837D01*
X373Y837D02*
X380Y837D01*
X0Y836D02*
X4Y836D01*
X373Y836D02*
X380Y836D01*
X0Y835D02*
X4Y835D01*
X373Y835D02*
X380Y835D01*
X0Y834D02*
X5Y834D01*
X373Y834D02*
X380Y834D01*
X0Y833D02*
X5Y833D01*
X373Y833D02*
X380Y833D01*
X0Y832D02*
X5Y832D01*
X373Y832D02*
X380Y832D01*
X0Y831D02*
X6Y831D01*
X373Y831D02*
X380Y831D01*
X0Y830D02*
X6Y830D01*
X373Y830D02*
X380Y830D01*
X0Y829D02*
X7Y829D01*
X373Y829D02*
X380Y829D01*
X0Y828D02*
X7Y828D01*
X373Y828D02*
X380Y828D01*
X0Y827D02*
X7Y827D01*
X373Y827D02*
X380Y827D01*
X0Y826D02*
X7Y826D01*
X373Y826D02*
X380Y826D01*
X0Y825D02*
X7Y825D01*
X373Y825D02*
X380Y825D01*
X0Y824D02*
X7Y824D01*
X373Y824D02*
X380Y824D01*
X0Y823D02*
X7Y823D01*
X373Y823D02*
X380Y823D01*
X0Y822D02*
X7Y822D01*
X373Y822D02*
X380Y822D01*
X0Y821D02*
X7Y821D01*
X373Y821D02*
X380Y821D01*
X0Y820D02*
X7Y820D01*
X373Y820D02*
X380Y820D01*
X0Y819D02*
X7Y819D01*
X373Y819D02*
X380Y819D01*
X0Y818D02*
X7Y818D01*
X373Y818D02*
X380Y818D01*
X0Y817D02*
X7Y817D01*
X373Y817D02*
X380Y817D01*
X0Y816D02*
X7Y816D01*
X373Y816D02*
X380Y816D01*
X0Y815D02*
X7Y815D01*
X373Y815D02*
X380Y815D01*
X0Y814D02*
X7Y814D01*
X373Y814D02*
X380Y814D01*
X0Y813D02*
X7Y813D01*
X373Y813D02*
X380Y813D01*
X0Y812D02*
X7Y812D01*
X373Y812D02*
X380Y812D01*
X0Y811D02*
X7Y811D01*
X373Y811D02*
X380Y811D01*
X0Y810D02*
X7Y810D01*
X373Y810D02*
X380Y810D01*
X0Y809D02*
X7Y809D01*
X373Y809D02*
X380Y809D01*
X0Y808D02*
X7Y808D01*
X373Y808D02*
X380Y808D01*
X0Y807D02*
X7Y807D01*
X373Y807D02*
X380Y807D01*
X0Y806D02*
X7Y806D01*
X373Y806D02*
X380Y806D01*
X0Y805D02*
X7Y805D01*
X373Y805D02*
X380Y805D01*
X0Y804D02*
X7Y804D01*
X373Y804D02*
X380Y804D01*
X0Y803D02*
X7Y803D01*
X373Y803D02*
X380Y803D01*
X0Y802D02*
X7Y802D01*
X373Y802D02*
X380Y802D01*
X0Y801D02*
X7Y801D01*
X373Y801D02*
X380Y801D01*
X0Y800D02*
X7Y800D01*
X373Y800D02*
X380Y800D01*
X0Y799D02*
X7Y799D01*
X373Y799D02*
X380Y799D01*
X0Y798D02*
X7Y798D01*
X373Y798D02*
X380Y798D01*
X0Y797D02*
X7Y797D01*
X373Y797D02*
X380Y797D01*
X0Y796D02*
X7Y796D01*
X373Y796D02*
X380Y796D01*
X0Y795D02*
X7Y795D01*
X373Y795D02*
X380Y795D01*
X0Y794D02*
X7Y794D01*
X373Y794D02*
X380Y794D01*
X0Y793D02*
X7Y793D01*
X373Y793D02*
X380Y793D01*
X0Y792D02*
X7Y792D01*
X373Y792D02*
X380Y792D01*
X0Y791D02*
X7Y791D01*
X373Y791D02*
X380Y791D01*
X0Y790D02*
X7Y790D01*
X373Y790D02*
X380Y790D01*
X0Y789D02*
X7Y789D01*
X373Y789D02*
X380Y789D01*
X0Y788D02*
X7Y788D01*
X373Y788D02*
X380Y788D01*
X0Y787D02*
X7Y787D01*
X373Y787D02*
X380Y787D01*
X0Y786D02*
X7Y786D01*
X373Y786D02*
X380Y786D01*
X0Y785D02*
X7Y785D01*
X373Y785D02*
X380Y785D01*
X0Y784D02*
X7Y784D01*
X373Y784D02*
X380Y784D01*
X0Y783D02*
X7Y783D01*
X373Y783D02*
X380Y783D01*
X0Y782D02*
X7Y782D01*
X373Y782D02*
X380Y782D01*
X0Y781D02*
X7Y781D01*
X373Y781D02*
X380Y781D01*
X0Y780D02*
X7Y780D01*
X373Y780D02*
X380Y780D01*
X0Y779D02*
X7Y779D01*
X373Y779D02*
X380Y779D01*
X0Y778D02*
X7Y778D01*
X373Y778D02*
X380Y778D01*
X0Y777D02*
X7Y777D01*
X373Y777D02*
X380Y777D01*
X0Y776D02*
X7Y776D01*
X373Y776D02*
X380Y776D01*
X0Y775D02*
X7Y775D01*
X373Y775D02*
X380Y775D01*
X0Y774D02*
X7Y774D01*
X373Y774D02*
X380Y774D01*
X0Y773D02*
X7Y773D01*
X373Y773D02*
X380Y773D01*
X0Y772D02*
X7Y772D01*
X373Y772D02*
X380Y772D01*
X0Y771D02*
X7Y771D01*
X373Y771D02*
X380Y771D01*
X0Y770D02*
X7Y770D01*
X373Y770D02*
X380Y770D01*
X0Y769D02*
X7Y769D01*
X373Y769D02*
X380Y769D01*
X0Y768D02*
X7Y768D01*
X373Y768D02*
X380Y768D01*
X0Y767D02*
X7Y767D01*
X373Y767D02*
X380Y767D01*
X0Y766D02*
X7Y766D01*
X373Y766D02*
X380Y766D01*
X0Y765D02*
X7Y765D01*
X373Y765D02*
X380Y765D01*
X0Y764D02*
X7Y764D01*
X373Y764D02*
X380Y764D01*
X0Y763D02*
X6Y763D01*
X373Y763D02*
X380Y763D01*
X0Y762D02*
X6Y762D01*
X373Y762D02*
X380Y762D01*
X0Y761D02*
X6Y761D01*
X373Y761D02*
X380Y761D01*
X0Y760D02*
X5Y760D01*
X373Y760D02*
X380Y760D01*
X0Y759D02*
X5Y759D01*
X373Y759D02*
X380Y759D01*
X0Y758D02*
X4Y758D01*
X373Y758D02*
X380Y758D01*
X0Y757D02*
X4Y757D01*
X373Y757D02*
X380Y757D01*
X0Y756D02*
X4Y756D01*
X373Y756D02*
X380Y756D01*
X0Y755D02*
X4Y755D01*
X373Y755D02*
X380Y755D01*
X0Y754D02*
X3Y754D01*
X373Y754D02*
X380Y754D01*
X0Y753D02*
X3Y753D01*
X373Y753D02*
X380Y753D01*
X0Y752D02*
X3Y752D01*
X373Y752D02*
X380Y752D01*
X0Y751D02*
X3Y751D01*
X373Y751D02*
X380Y751D01*
X0Y750D02*
X3Y750D01*
X373Y750D02*
X380Y750D01*
X0Y749D02*
X3Y749D01*
X373Y749D02*
X380Y749D01*
X0Y748D02*
X3Y748D01*
X373Y748D02*
X380Y748D01*
X0Y747D02*
X3Y747D01*
X373Y747D02*
X380Y747D01*
X0Y746D02*
X3Y746D01*
X373Y746D02*
X380Y746D01*
X0Y745D02*
X3Y745D01*
X373Y745D02*
X380Y745D01*
X0Y744D02*
X3Y744D01*
X373Y744D02*
X380Y744D01*
X0Y743D02*
X3Y743D01*
X373Y743D02*
X380Y743D01*
X0Y742D02*
X3Y742D01*
X373Y742D02*
X380Y742D01*
X0Y741D02*
X3Y741D01*
X373Y741D02*
X380Y741D01*
X0Y740D02*
X3Y740D01*
X373Y740D02*
X380Y740D01*
X0Y739D02*
X3Y739D01*
X373Y739D02*
X380Y739D01*
X0Y738D02*
X4Y738D01*
X373Y738D02*
X380Y738D01*
X0Y737D02*
X4Y737D01*
X373Y737D02*
X380Y737D01*
X0Y736D02*
X4Y736D01*
X373Y736D02*
X380Y736D01*
X0Y735D02*
X4Y735D01*
X373Y735D02*
X380Y735D01*
X0Y734D02*
X5Y734D01*
X373Y734D02*
X380Y734D01*
X0Y733D02*
X5Y733D01*
X373Y733D02*
X380Y733D01*
X0Y732D02*
X5Y732D01*
X373Y732D02*
X380Y732D01*
X0Y731D02*
X6Y731D01*
X373Y731D02*
X380Y731D01*
X0Y730D02*
X6Y730D01*
X373Y730D02*
X380Y730D01*
X0Y729D02*
X7Y729D01*
X373Y729D02*
X380Y729D01*
X0Y728D02*
X7Y728D01*
X373Y728D02*
X380Y728D01*
X0Y727D02*
X7Y727D01*
X373Y727D02*
X380Y727D01*
X0Y726D02*
X7Y726D01*
X373Y726D02*
X380Y726D01*
X0Y725D02*
X7Y725D01*
X373Y725D02*
X380Y725D01*
X0Y724D02*
X7Y724D01*
X373Y724D02*
X380Y724D01*
X0Y723D02*
X7Y723D01*
X373Y723D02*
X380Y723D01*
X0Y722D02*
X7Y722D01*
X373Y722D02*
X380Y722D01*
X0Y721D02*
X7Y721D01*
X373Y721D02*
X380Y721D01*
X0Y720D02*
X7Y720D01*
X373Y720D02*
X380Y720D01*
X0Y719D02*
X7Y719D01*
X373Y719D02*
X380Y719D01*
X0Y718D02*
X7Y718D01*
X373Y718D02*
X380Y718D01*
X0Y717D02*
X7Y717D01*
X373Y717D02*
X380Y717D01*
X0Y716D02*
X7Y716D01*
X373Y716D02*
X380Y716D01*
X0Y715D02*
X7Y715D01*
X373Y715D02*
X380Y715D01*
X0Y714D02*
X7Y714D01*
X373Y714D02*
X380Y714D01*
X0Y713D02*
X7Y713D01*
X373Y713D02*
X380Y713D01*
X0Y712D02*
X7Y712D01*
X373Y712D02*
X380Y712D01*
X0Y711D02*
X7Y711D01*
X373Y711D02*
X380Y711D01*
X0Y710D02*
X7Y710D01*
X373Y710D02*
X380Y710D01*
X0Y709D02*
X7Y709D01*
X373Y709D02*
X380Y709D01*
X0Y708D02*
X7Y708D01*
X373Y708D02*
X380Y708D01*
X0Y707D02*
X7Y707D01*
X373Y707D02*
X380Y707D01*
X0Y706D02*
X7Y706D01*
X373Y706D02*
X380Y706D01*
X0Y705D02*
X7Y705D01*
X373Y705D02*
X380Y705D01*
X0Y704D02*
X7Y704D01*
X373Y704D02*
X380Y704D01*
X0Y703D02*
X7Y703D01*
X373Y703D02*
X380Y703D01*
X0Y702D02*
X7Y702D01*
X373Y702D02*
X380Y702D01*
X0Y701D02*
X7Y701D01*
X373Y701D02*
X380Y701D01*
X0Y700D02*
X7Y700D01*
X373Y700D02*
X380Y700D01*
X0Y699D02*
X7Y699D01*
X373Y699D02*
X380Y699D01*
X0Y698D02*
X7Y698D01*
X373Y698D02*
X380Y698D01*
X0Y697D02*
X7Y697D01*
X373Y697D02*
X380Y697D01*
X0Y696D02*
X7Y696D01*
X373Y696D02*
X380Y696D01*
X0Y695D02*
X7Y695D01*
X373Y695D02*
X380Y695D01*
X0Y694D02*
X7Y694D01*
X373Y694D02*
X380Y694D01*
X0Y693D02*
X7Y693D01*
X373Y693D02*
X380Y693D01*
X0Y692D02*
X7Y692D01*
X373Y692D02*
X380Y692D01*
X0Y691D02*
X7Y691D01*
X373Y691D02*
X380Y691D01*
X0Y690D02*
X7Y690D01*
X373Y690D02*
X380Y690D01*
X0Y689D02*
X7Y689D01*
X373Y689D02*
X380Y689D01*
X0Y688D02*
X7Y688D01*
X373Y688D02*
X380Y688D01*
X0Y687D02*
X7Y687D01*
X373Y687D02*
X380Y687D01*
X0Y686D02*
X7Y686D01*
X373Y686D02*
X380Y686D01*
X0Y685D02*
X7Y685D01*
X373Y685D02*
X380Y685D01*
X0Y684D02*
X7Y684D01*
X373Y684D02*
X380Y684D01*
X0Y683D02*
X7Y683D01*
X373Y683D02*
X380Y683D01*
X0Y682D02*
X7Y682D01*
X373Y682D02*
X380Y682D01*
X0Y681D02*
X7Y681D01*
X373Y681D02*
X380Y681D01*
X0Y680D02*
X7Y680D01*
X373Y680D02*
X380Y680D01*
X0Y679D02*
X7Y679D01*
X373Y679D02*
X380Y679D01*
X0Y678D02*
X7Y678D01*
X373Y678D02*
X380Y678D01*
X0Y677D02*
X7Y677D01*
X373Y677D02*
X380Y677D01*
X0Y676D02*
X7Y676D01*
X373Y676D02*
X380Y676D01*
X0Y675D02*
X7Y675D01*
X373Y675D02*
X380Y675D01*
X0Y674D02*
X7Y674D01*
X373Y674D02*
X380Y674D01*
X0Y673D02*
X7Y673D01*
X373Y673D02*
X380Y673D01*
X0Y672D02*
X7Y672D01*
X373Y672D02*
X380Y672D01*
X0Y671D02*
X7Y671D01*
X373Y671D02*
X380Y671D01*
X0Y670D02*
X7Y670D01*
X373Y670D02*
X380Y670D01*
X0Y669D02*
X7Y669D01*
X373Y669D02*
X380Y669D01*
X0Y668D02*
X7Y668D01*
X373Y668D02*
X380Y668D01*
X0Y667D02*
X7Y667D01*
X373Y667D02*
X380Y667D01*
X0Y666D02*
X7Y666D01*
X373Y666D02*
X380Y666D01*
X0Y665D02*
X7Y665D01*
X373Y665D02*
X380Y665D01*
X0Y664D02*
X7Y664D01*
X373Y664D02*
X380Y664D01*
X0Y663D02*
X6Y663D01*
X373Y663D02*
X380Y663D01*
X0Y662D02*
X6Y662D01*
X373Y662D02*
X380Y662D01*
X0Y661D02*
X5Y661D01*
X373Y661D02*
X380Y661D01*
X0Y660D02*
X5Y660D01*
X373Y660D02*
X380Y660D01*
X0Y659D02*
X5Y659D01*
X373Y659D02*
X380Y659D01*
X0Y658D02*
X4Y658D01*
X373Y658D02*
X380Y658D01*
X0Y657D02*
X4Y657D01*
X373Y657D02*
X380Y657D01*
X0Y656D02*
X4Y656D01*
X373Y656D02*
X380Y656D01*
X0Y655D02*
X4Y655D01*
X373Y655D02*
X380Y655D01*
X0Y654D02*
X3Y654D01*
X373Y654D02*
X380Y654D01*
X0Y653D02*
X3Y653D01*
X373Y653D02*
X380Y653D01*
X0Y652D02*
X3Y652D01*
X373Y652D02*
X380Y652D01*
X0Y651D02*
X3Y651D01*
X373Y651D02*
X380Y651D01*
X0Y650D02*
X3Y650D01*
X373Y650D02*
X380Y650D01*
X0Y649D02*
X3Y649D01*
X373Y649D02*
X380Y649D01*
X0Y648D02*
X3Y648D01*
X373Y648D02*
X380Y648D01*
X0Y647D02*
X3Y647D01*
X373Y647D02*
X380Y647D01*
X0Y646D02*
X3Y646D01*
X373Y646D02*
X380Y646D01*
X0Y645D02*
X3Y645D01*
X373Y645D02*
X380Y645D01*
X0Y644D02*
X3Y644D01*
X373Y644D02*
X380Y644D01*
X0Y643D02*
X3Y643D01*
X373Y643D02*
X380Y643D01*
X0Y642D02*
X3Y642D01*
X373Y642D02*
X380Y642D01*
X0Y641D02*
X3Y641D01*
X373Y641D02*
X380Y641D01*
X0Y640D02*
X3Y640D01*
X373Y640D02*
X380Y640D01*
X0Y639D02*
X3Y639D01*
X373Y639D02*
X380Y639D01*
X0Y638D02*
X4Y638D01*
X373Y638D02*
X380Y638D01*
X0Y637D02*
X4Y637D01*
X373Y637D02*
X380Y637D01*
X0Y636D02*
X4Y636D01*
X373Y636D02*
X380Y636D01*
X0Y635D02*
X4Y635D01*
X373Y635D02*
X380Y635D01*
X0Y634D02*
X5Y634D01*
X373Y634D02*
X380Y634D01*
X0Y633D02*
X5Y633D01*
X373Y633D02*
X380Y633D01*
X0Y632D02*
X5Y632D01*
X373Y632D02*
X380Y632D01*
X0Y631D02*
X6Y631D01*
X373Y631D02*
X380Y631D01*
X0Y630D02*
X6Y630D01*
X373Y630D02*
X380Y630D01*
X0Y629D02*
X7Y629D01*
X373Y629D02*
X380Y629D01*
X0Y628D02*
X7Y628D01*
X373Y628D02*
X380Y628D01*
X0Y627D02*
X7Y627D01*
X373Y627D02*
X380Y627D01*
X0Y626D02*
X7Y626D01*
X373Y626D02*
X380Y626D01*
X0Y625D02*
X7Y625D01*
X373Y625D02*
X380Y625D01*
X0Y624D02*
X7Y624D01*
X373Y624D02*
X380Y624D01*
X0Y623D02*
X7Y623D01*
X373Y623D02*
X380Y623D01*
X0Y622D02*
X7Y622D01*
X373Y622D02*
X380Y622D01*
X0Y621D02*
X7Y621D01*
X373Y621D02*
X380Y621D01*
X0Y620D02*
X7Y620D01*
X373Y620D02*
X380Y620D01*
X0Y619D02*
X7Y619D01*
X373Y619D02*
X380Y619D01*
X0Y618D02*
X7Y618D01*
X373Y618D02*
X380Y618D01*
X0Y617D02*
X7Y617D01*
X373Y617D02*
X380Y617D01*
X0Y616D02*
X7Y616D01*
X373Y616D02*
X380Y616D01*
X0Y615D02*
X7Y615D01*
X373Y615D02*
X380Y615D01*
X0Y614D02*
X7Y614D01*
X373Y614D02*
X380Y614D01*
X0Y613D02*
X7Y613D01*
X373Y613D02*
X380Y613D01*
X0Y612D02*
X7Y612D01*
X373Y612D02*
X380Y612D01*
X0Y611D02*
X7Y611D01*
X373Y611D02*
X380Y611D01*
X0Y610D02*
X7Y610D01*
X373Y610D02*
X380Y610D01*
X0Y609D02*
X7Y609D01*
X373Y609D02*
X380Y609D01*
X0Y608D02*
X7Y608D01*
X373Y608D02*
X380Y608D01*
X0Y607D02*
X7Y607D01*
X373Y607D02*
X380Y607D01*
X0Y606D02*
X7Y606D01*
X373Y606D02*
X380Y606D01*
X0Y605D02*
X7Y605D01*
X373Y605D02*
X380Y605D01*
X0Y604D02*
X7Y604D01*
X373Y604D02*
X380Y604D01*
X0Y603D02*
X7Y603D01*
X373Y603D02*
X380Y603D01*
X0Y602D02*
X7Y602D01*
X373Y602D02*
X380Y602D01*
X0Y601D02*
X7Y601D01*
X373Y601D02*
X380Y601D01*
X0Y600D02*
X7Y600D01*
X373Y600D02*
X380Y600D01*
X0Y599D02*
X7Y599D01*
X373Y599D02*
X380Y599D01*
X0Y598D02*
X7Y598D01*
X373Y598D02*
X380Y598D01*
X0Y597D02*
X7Y597D01*
X373Y597D02*
X380Y597D01*
X0Y596D02*
X7Y596D01*
X373Y596D02*
X380Y596D01*
X0Y595D02*
X7Y595D01*
X373Y595D02*
X380Y595D01*
X0Y594D02*
X7Y594D01*
X373Y594D02*
X380Y594D01*
X0Y593D02*
X7Y593D01*
X373Y593D02*
X380Y593D01*
X0Y592D02*
X7Y592D01*
X373Y592D02*
X380Y592D01*
X0Y591D02*
X7Y591D01*
X373Y591D02*
X380Y591D01*
X0Y590D02*
X7Y590D01*
X373Y590D02*
X380Y590D01*
X0Y589D02*
X7Y589D01*
X373Y589D02*
X380Y589D01*
X0Y588D02*
X7Y588D01*
X373Y588D02*
X380Y588D01*
X0Y587D02*
X2Y587D01*
X373Y587D02*
X380Y587D01*
X0Y586D02*
X2Y586D01*
X373Y586D02*
X380Y586D01*
X0Y585D02*
X2Y585D01*
X373Y585D02*
X380Y585D01*
X0Y584D02*
X2Y584D01*
X373Y584D02*
X380Y584D01*
X0Y583D02*
X2Y583D01*
X373Y583D02*
X380Y583D01*
X0Y582D02*
X2Y582D01*
X373Y582D02*
X380Y582D01*
X0Y581D02*
X2Y581D01*
X373Y581D02*
X380Y581D01*
X0Y580D02*
X2Y580D01*
X373Y580D02*
X380Y580D01*
X0Y579D02*
X2Y579D01*
X373Y579D02*
X380Y579D01*
X0Y578D02*
X2Y578D01*
X373Y578D02*
X380Y578D01*
X0Y577D02*
X2Y577D01*
X373Y577D02*
X380Y577D01*
X0Y576D02*
X2Y576D01*
X373Y576D02*
X380Y576D01*
X0Y575D02*
X2Y575D01*
X373Y575D02*
X380Y575D01*
X0Y574D02*
X2Y574D01*
X373Y574D02*
X380Y574D01*
X0Y573D02*
X2Y573D01*
X373Y573D02*
X380Y573D01*
X0Y572D02*
X2Y572D01*
X373Y572D02*
X380Y572D01*
X0Y571D02*
X2Y571D01*
X373Y571D02*
X380Y571D01*
X0Y570D02*
X2Y570D01*
X373Y570D02*
X380Y570D01*
X0Y569D02*
X2Y569D01*
X373Y569D02*
X380Y569D01*
X0Y568D02*
X2Y568D01*
X373Y568D02*
X380Y568D01*
X0Y567D02*
X2Y567D01*
X373Y567D02*
X380Y567D01*
X0Y566D02*
X2Y566D01*
X373Y566D02*
X380Y566D01*
X0Y565D02*
X2Y565D01*
X373Y565D02*
X380Y565D01*
X0Y564D02*
X2Y564D01*
X373Y564D02*
X380Y564D01*
X0Y563D02*
X2Y563D01*
X373Y563D02*
X380Y563D01*
X0Y562D02*
X2Y562D01*
X373Y562D02*
X380Y562D01*
X0Y561D02*
X2Y561D01*
X373Y561D02*
X380Y561D01*
X0Y560D02*
X2Y560D01*
X373Y560D02*
X380Y560D01*
X0Y559D02*
X2Y559D01*
X373Y559D02*
X380Y559D01*
X0Y558D02*
X2Y558D01*
X373Y558D02*
X380Y558D01*
X0Y557D02*
X2Y557D01*
X373Y557D02*
X380Y557D01*
X0Y556D02*
X2Y556D01*
X373Y556D02*
X380Y556D01*
X0Y555D02*
X2Y555D01*
X373Y555D02*
X380Y555D01*
X0Y554D02*
X2Y554D01*
X373Y554D02*
X380Y554D01*
X0Y553D02*
X2Y553D01*
X373Y553D02*
X380Y553D01*
X0Y552D02*
X2Y552D01*
X373Y552D02*
X380Y552D01*
X0Y551D02*
X2Y551D01*
X373Y551D02*
X380Y551D01*
X0Y550D02*
X2Y550D01*
X373Y550D02*
X380Y550D01*
X0Y549D02*
X2Y549D01*
X373Y549D02*
X380Y549D01*
X0Y548D02*
X2Y548D01*
X373Y548D02*
X380Y548D01*
X0Y547D02*
X2Y547D01*
X373Y547D02*
X380Y547D01*
X0Y546D02*
X2Y546D01*
X373Y546D02*
X380Y546D01*
X0Y545D02*
X2Y545D01*
X373Y545D02*
X380Y545D01*
X0Y544D02*
X2Y544D01*
X373Y544D02*
X380Y544D01*
X0Y543D02*
X2Y543D01*
X373Y543D02*
X380Y543D01*
X0Y542D02*
X2Y542D01*
X373Y542D02*
X380Y542D01*
X0Y541D02*
X2Y541D01*
X373Y541D02*
X380Y541D01*
X0Y540D02*
X2Y540D01*
X373Y540D02*
X380Y540D01*
X0Y539D02*
X2Y539D01*
X373Y539D02*
X380Y539D01*
X0Y538D02*
X2Y538D01*
X373Y538D02*
X380Y538D01*
X0Y537D02*
X2Y537D01*
X373Y537D02*
X380Y537D01*
X0Y536D02*
X2Y536D01*
X373Y536D02*
X380Y536D01*
X0Y535D02*
X2Y535D01*
X373Y535D02*
X380Y535D01*
X0Y534D02*
X2Y534D01*
X373Y534D02*
X380Y534D01*
X0Y533D02*
X2Y533D01*
X373Y533D02*
X380Y533D01*
X0Y532D02*
X2Y532D01*
X373Y532D02*
X380Y532D01*
X0Y531D02*
X2Y531D01*
X373Y531D02*
X380Y531D01*
X0Y530D02*
X2Y530D01*
X373Y530D02*
X380Y530D01*
X0Y529D02*
X2Y529D01*
X373Y529D02*
X380Y529D01*
X0Y528D02*
X2Y528D01*
X373Y528D02*
X380Y528D01*
X0Y527D02*
X2Y527D01*
X373Y527D02*
X380Y527D01*
X0Y526D02*
X2Y526D01*
X373Y526D02*
X380Y526D01*
X0Y525D02*
X2Y525D01*
X373Y525D02*
X380Y525D01*
X0Y524D02*
X2Y524D01*
X373Y524D02*
X380Y524D01*
X0Y523D02*
X2Y523D01*
X373Y523D02*
X380Y523D01*
X0Y522D02*
X2Y522D01*
X373Y522D02*
X380Y522D01*
X0Y521D02*
X2Y521D01*
X373Y521D02*
X380Y521D01*
X0Y520D02*
X2Y520D01*
X373Y520D02*
X380Y520D01*
X0Y519D02*
X2Y519D01*
X373Y519D02*
X380Y519D01*
X0Y518D02*
X2Y518D01*
X373Y518D02*
X380Y518D01*
X0Y517D02*
X2Y517D01*
X373Y517D02*
X380Y517D01*
X0Y516D02*
X2Y516D01*
X373Y516D02*
X380Y516D01*
X0Y515D02*
X2Y515D01*
X373Y515D02*
X380Y515D01*
X0Y514D02*
X2Y514D01*
X373Y514D02*
X380Y514D01*
X0Y513D02*
X2Y513D01*
X373Y513D02*
X380Y513D01*
X0Y512D02*
X2Y512D01*
X373Y512D02*
X380Y512D01*
X0Y511D02*
X2Y511D01*
X373Y511D02*
X380Y511D01*
X0Y510D02*
X2Y510D01*
X373Y510D02*
X380Y510D01*
X0Y509D02*
X2Y509D01*
X373Y509D02*
X380Y509D01*
X0Y508D02*
X2Y508D01*
X373Y508D02*
X380Y508D01*
X0Y507D02*
X2Y507D01*
X373Y507D02*
X380Y507D01*
X0Y506D02*
X2Y506D01*
X373Y506D02*
X380Y506D01*
X0Y505D02*
X2Y505D01*
X373Y505D02*
X380Y505D01*
X0Y504D02*
X2Y504D01*
X373Y504D02*
X380Y504D01*
X0Y503D02*
X7Y503D01*
X373Y503D02*
X380Y503D01*
X0Y502D02*
X7Y502D01*
X373Y502D02*
X380Y502D01*
X0Y501D02*
X7Y501D01*
X373Y501D02*
X380Y501D01*
X0Y500D02*
X7Y500D01*
X373Y500D02*
X380Y500D01*
X0Y499D02*
X7Y499D01*
X373Y499D02*
X380Y499D01*
X0Y498D02*
X7Y498D01*
X373Y498D02*
X380Y498D01*
X0Y497D02*
X7Y497D01*
X373Y497D02*
X380Y497D01*
X0Y496D02*
X7Y496D01*
X373Y496D02*
X380Y496D01*
X0Y495D02*
X7Y495D01*
X373Y495D02*
X380Y495D01*
X0Y494D02*
X7Y494D01*
X373Y494D02*
X380Y494D01*
X0Y493D02*
X7Y493D01*
X373Y493D02*
X380Y493D01*
X0Y492D02*
X7Y492D01*
X373Y492D02*
X380Y492D01*
X0Y491D02*
X7Y491D01*
X373Y491D02*
X380Y491D01*
X0Y490D02*
X7Y490D01*
X373Y490D02*
X380Y490D01*
X0Y489D02*
X7Y489D01*
X373Y489D02*
X380Y489D01*
X0Y488D02*
X7Y488D01*
X373Y488D02*
X380Y488D01*
X0Y487D02*
X7Y487D01*
X373Y487D02*
X380Y487D01*
X0Y486D02*
X7Y486D01*
X373Y486D02*
X380Y486D01*
X0Y485D02*
X7Y485D01*
X373Y485D02*
X380Y485D01*
X0Y484D02*
X7Y484D01*
X373Y484D02*
X380Y484D01*
X0Y483D02*
X7Y483D01*
X373Y483D02*
X380Y483D01*
X0Y482D02*
X7Y482D01*
X373Y482D02*
X380Y482D01*
X0Y481D02*
X7Y481D01*
X373Y481D02*
X380Y481D01*
X0Y480D02*
X7Y480D01*
X373Y480D02*
X380Y480D01*
X0Y479D02*
X7Y479D01*
X373Y479D02*
X380Y479D01*
X0Y478D02*
X7Y478D01*
X373Y478D02*
X380Y478D01*
X0Y477D02*
X7Y477D01*
X373Y477D02*
X380Y477D01*
X0Y476D02*
X7Y476D01*
X373Y476D02*
X380Y476D01*
X0Y475D02*
X7Y475D01*
X373Y475D02*
X380Y475D01*
X0Y474D02*
X7Y474D01*
X373Y474D02*
X380Y474D01*
X0Y473D02*
X7Y473D01*
X373Y473D02*
X380Y473D01*
X0Y472D02*
X7Y472D01*
X373Y472D02*
X380Y472D01*
X0Y471D02*
X7Y471D01*
X373Y471D02*
X380Y471D01*
X0Y470D02*
X7Y470D01*
X373Y470D02*
X380Y470D01*
X0Y469D02*
X7Y469D01*
X373Y469D02*
X380Y469D01*
X0Y468D02*
X7Y468D01*
X373Y468D02*
X380Y468D01*
X0Y467D02*
X7Y467D01*
X373Y467D02*
X380Y467D01*
X0Y466D02*
X7Y466D01*
X373Y466D02*
X380Y466D01*
X0Y465D02*
X7Y465D01*
X373Y465D02*
X380Y465D01*
X0Y464D02*
X6Y464D01*
X373Y464D02*
X380Y464D01*
X0Y463D02*
X6Y463D01*
X373Y463D02*
X380Y463D01*
X0Y462D02*
X5Y462D01*
X373Y462D02*
X380Y462D01*
X0Y461D02*
X5Y461D01*
X373Y461D02*
X380Y461D01*
X0Y460D02*
X5Y460D01*
X373Y460D02*
X380Y460D01*
X0Y459D02*
X4Y459D01*
X373Y459D02*
X380Y459D01*
X0Y458D02*
X4Y458D01*
X373Y458D02*
X380Y458D01*
X0Y457D02*
X4Y457D01*
X373Y457D02*
X380Y457D01*
X0Y456D02*
X3Y456D01*
X373Y456D02*
X380Y456D01*
X0Y455D02*
X3Y455D01*
X373Y455D02*
X380Y455D01*
X0Y454D02*
X3Y454D01*
X373Y454D02*
X380Y454D01*
X0Y453D02*
X3Y453D01*
X373Y453D02*
X380Y453D01*
X0Y452D02*
X3Y452D01*
X373Y452D02*
X380Y452D01*
X0Y451D02*
X2Y451D01*
X373Y451D02*
X380Y451D01*
X0Y450D02*
X2Y450D01*
X373Y450D02*
X380Y450D01*
X0Y449D02*
X2Y449D01*
X373Y449D02*
X380Y449D01*
X0Y448D02*
X2Y448D01*
X373Y448D02*
X380Y448D01*
X0Y447D02*
X2Y447D01*
X373Y447D02*
X380Y447D01*
X0Y446D02*
X2Y446D01*
X373Y446D02*
X380Y446D01*
X0Y445D02*
X2Y445D01*
X373Y445D02*
X380Y445D01*
X0Y444D02*
X2Y444D01*
X373Y444D02*
X380Y444D01*
X0Y443D02*
X2Y443D01*
X373Y443D02*
X380Y443D01*
X0Y442D02*
X2Y442D01*
X373Y442D02*
X380Y442D01*
X0Y441D02*
X2Y441D01*
X373Y441D02*
X380Y441D01*
X0Y440D02*
X2Y440D01*
X373Y440D02*
X380Y440D01*
X0Y439D02*
X3Y439D01*
X373Y439D02*
X380Y439D01*
X0Y438D02*
X3Y438D01*
X373Y438D02*
X380Y438D01*
X0Y437D02*
X3Y437D01*
X373Y437D02*
X380Y437D01*
X0Y436D02*
X3Y436D01*
X373Y436D02*
X380Y436D01*
X0Y435D02*
X3Y435D01*
X373Y435D02*
X380Y435D01*
X0Y434D02*
X4Y434D01*
X373Y434D02*
X380Y434D01*
X0Y433D02*
X4Y433D01*
X373Y433D02*
X380Y433D01*
X0Y432D02*
X4Y432D01*
X373Y432D02*
X380Y432D01*
X0Y431D02*
X5Y431D01*
X373Y431D02*
X380Y431D01*
X0Y430D02*
X5Y430D01*
X373Y430D02*
X380Y430D01*
X0Y429D02*
X5Y429D01*
X373Y429D02*
X380Y429D01*
X0Y428D02*
X6Y428D01*
X373Y428D02*
X380Y428D01*
X0Y427D02*
X6Y427D01*
X373Y427D02*
X380Y427D01*
X0Y426D02*
X7Y426D01*
X373Y426D02*
X380Y426D01*
X0Y425D02*
X7Y425D01*
X373Y425D02*
X380Y425D01*
X0Y424D02*
X7Y424D01*
X373Y424D02*
X380Y424D01*
X0Y423D02*
X7Y423D01*
X373Y423D02*
X380Y423D01*
X0Y422D02*
X7Y422D01*
X373Y422D02*
X380Y422D01*
X0Y421D02*
X7Y421D01*
X373Y421D02*
X380Y421D01*
X0Y420D02*
X7Y420D01*
X373Y420D02*
X380Y420D01*
X0Y419D02*
X7Y419D01*
X373Y419D02*
X380Y419D01*
X0Y418D02*
X7Y418D01*
X373Y418D02*
X380Y418D01*
X0Y417D02*
X7Y417D01*
X373Y417D02*
X380Y417D01*
X0Y416D02*
X7Y416D01*
X373Y416D02*
X380Y416D01*
X0Y415D02*
X7Y415D01*
X373Y415D02*
X380Y415D01*
X0Y414D02*
X7Y414D01*
X373Y414D02*
X380Y414D01*
X0Y413D02*
X7Y413D01*
X373Y413D02*
X380Y413D01*
X0Y412D02*
X7Y412D01*
X373Y412D02*
X380Y412D01*
X0Y411D02*
X7Y411D01*
X373Y411D02*
X380Y411D01*
X0Y410D02*
X7Y410D01*
X373Y410D02*
X380Y410D01*
X0Y409D02*
X7Y409D01*
X373Y409D02*
X380Y409D01*
X0Y408D02*
X7Y408D01*
X373Y408D02*
X380Y408D01*
X0Y407D02*
X7Y407D01*
X373Y407D02*
X380Y407D01*
X0Y406D02*
X7Y406D01*
X373Y406D02*
X380Y406D01*
X0Y405D02*
X7Y405D01*
X373Y405D02*
X380Y405D01*
X0Y404D02*
X7Y404D01*
X373Y404D02*
X380Y404D01*
X0Y403D02*
X7Y403D01*
X373Y403D02*
X380Y403D01*
X0Y402D02*
X7Y402D01*
X373Y402D02*
X380Y402D01*
X0Y401D02*
X7Y401D01*
X373Y401D02*
X380Y401D01*
X0Y400D02*
X7Y400D01*
X373Y400D02*
X380Y400D01*
X0Y399D02*
X7Y399D01*
X373Y399D02*
X380Y399D01*
X0Y398D02*
X7Y398D01*
X373Y398D02*
X380Y398D01*
X0Y397D02*
X7Y397D01*
X373Y397D02*
X380Y397D01*
X0Y396D02*
X7Y396D01*
X373Y396D02*
X380Y396D01*
X0Y395D02*
X7Y395D01*
X373Y395D02*
X380Y395D01*
X0Y394D02*
X7Y394D01*
X373Y394D02*
X380Y394D01*
X0Y393D02*
X7Y393D01*
X373Y393D02*
X380Y393D01*
X0Y392D02*
X7Y392D01*
X373Y392D02*
X380Y392D01*
X0Y391D02*
X7Y391D01*
X373Y391D02*
X380Y391D01*
X0Y390D02*
X7Y390D01*
X373Y390D02*
X380Y390D01*
X0Y389D02*
X7Y389D01*
X373Y389D02*
X380Y389D01*
X0Y388D02*
X7Y388D01*
X373Y388D02*
X380Y388D01*
X0Y387D02*
X7Y387D01*
X373Y387D02*
X380Y387D01*
X0Y386D02*
X7Y386D01*
X373Y386D02*
X380Y386D01*
X0Y385D02*
X7Y385D01*
X373Y385D02*
X380Y385D01*
X0Y384D02*
X7Y384D01*
X373Y384D02*
X380Y384D01*
X0Y383D02*
X7Y383D01*
X373Y383D02*
X380Y383D01*
X0Y382D02*
X7Y382D01*
X373Y382D02*
X380Y382D01*
X0Y381D02*
X7Y381D01*
X373Y381D02*
X380Y381D01*
X0Y380D02*
X7Y380D01*
X373Y380D02*
X380Y380D01*
X0Y379D02*
X7Y379D01*
X373Y379D02*
X380Y379D01*
X0Y378D02*
X7Y378D01*
X373Y378D02*
X380Y378D01*
X0Y377D02*
X7Y377D01*
X373Y377D02*
X380Y377D01*
X0Y376D02*
X7Y376D01*
X373Y376D02*
X380Y376D01*
X0Y375D02*
X7Y375D01*
X373Y375D02*
X380Y375D01*
X0Y374D02*
X7Y374D01*
X373Y374D02*
X380Y374D01*
X0Y373D02*
X7Y373D01*
X373Y373D02*
X380Y373D01*
X0Y372D02*
X7Y372D01*
X373Y372D02*
X380Y372D01*
X0Y371D02*
X7Y371D01*
X373Y371D02*
X380Y371D01*
X0Y370D02*
X7Y370D01*
X373Y370D02*
X380Y370D01*
X0Y369D02*
X7Y369D01*
X373Y369D02*
X380Y369D01*
X0Y368D02*
X7Y368D01*
X373Y368D02*
X380Y368D01*
X0Y367D02*
X7Y367D01*
X373Y367D02*
X380Y367D01*
X0Y366D02*
X6Y366D01*
X373Y366D02*
X380Y366D01*
X0Y365D02*
X6Y365D01*
X373Y365D02*
X380Y365D01*
X0Y364D02*
X5Y364D01*
X373Y364D02*
X380Y364D01*
X0Y363D02*
X5Y363D01*
X373Y363D02*
X380Y363D01*
X0Y362D02*
X5Y362D01*
X373Y362D02*
X380Y362D01*
X0Y361D02*
X4Y361D01*
X373Y361D02*
X380Y361D01*
X0Y360D02*
X4Y360D01*
X373Y360D02*
X380Y360D01*
X0Y359D02*
X4Y359D01*
X373Y359D02*
X380Y359D01*
X0Y358D02*
X4Y358D01*
X373Y358D02*
X380Y358D01*
X0Y357D02*
X3Y357D01*
X373Y357D02*
X380Y357D01*
X0Y356D02*
X3Y356D01*
X373Y356D02*
X380Y356D01*
X0Y355D02*
X3Y355D01*
X373Y355D02*
X380Y355D01*
X0Y354D02*
X3Y354D01*
X373Y354D02*
X380Y354D01*
X0Y353D02*
X3Y353D01*
X373Y353D02*
X380Y353D01*
X0Y352D02*
X3Y352D01*
X373Y352D02*
X380Y352D01*
X0Y351D02*
X3Y351D01*
X373Y351D02*
X380Y351D01*
X0Y350D02*
X3Y350D01*
X373Y350D02*
X380Y350D01*
X0Y349D02*
X3Y349D01*
X373Y349D02*
X380Y349D01*
X0Y348D02*
X3Y348D01*
X373Y348D02*
X380Y348D01*
X0Y347D02*
X3Y347D01*
X373Y347D02*
X380Y347D01*
X0Y346D02*
X3Y346D01*
X373Y346D02*
X380Y346D01*
X0Y345D02*
X3Y345D01*
X373Y345D02*
X380Y345D01*
X0Y344D02*
X3Y344D01*
X373Y344D02*
X380Y344D01*
X0Y343D02*
X3Y343D01*
X373Y343D02*
X380Y343D01*
X0Y342D02*
X3Y342D01*
X373Y342D02*
X380Y342D01*
X0Y341D02*
X3Y341D01*
X373Y341D02*
X380Y341D01*
X0Y340D02*
X4Y340D01*
X373Y340D02*
X380Y340D01*
X0Y339D02*
X4Y339D01*
X373Y339D02*
X380Y339D01*
X0Y338D02*
X4Y338D01*
X373Y338D02*
X380Y338D01*
X0Y337D02*
X4Y337D01*
X373Y337D02*
X380Y337D01*
X0Y336D02*
X5Y336D01*
X373Y336D02*
X380Y336D01*
X0Y335D02*
X5Y335D01*
X373Y335D02*
X380Y335D01*
X0Y334D02*
X6Y334D01*
X373Y334D02*
X380Y334D01*
X0Y333D02*
X6Y333D01*
X373Y333D02*
X380Y333D01*
X0Y332D02*
X7Y332D01*
X373Y332D02*
X380Y332D01*
X0Y331D02*
X7Y331D01*
X373Y331D02*
X380Y331D01*
X0Y330D02*
X7Y330D01*
X373Y330D02*
X380Y330D01*
X0Y329D02*
X7Y329D01*
X373Y329D02*
X380Y329D01*
X0Y328D02*
X7Y328D01*
X373Y328D02*
X380Y328D01*
X0Y327D02*
X7Y327D01*
X373Y327D02*
X380Y327D01*
X0Y326D02*
X7Y326D01*
X373Y326D02*
X380Y326D01*
X0Y325D02*
X7Y325D01*
X373Y325D02*
X380Y325D01*
X0Y324D02*
X7Y324D01*
X373Y324D02*
X380Y324D01*
X0Y323D02*
X7Y323D01*
X373Y323D02*
X380Y323D01*
X0Y322D02*
X7Y322D01*
X373Y322D02*
X380Y322D01*
X0Y321D02*
X7Y321D01*
X373Y321D02*
X380Y321D01*
X0Y320D02*
X7Y320D01*
X373Y320D02*
X380Y320D01*
X0Y319D02*
X7Y319D01*
X373Y319D02*
X380Y319D01*
X0Y318D02*
X7Y318D01*
X373Y318D02*
X380Y318D01*
X0Y317D02*
X7Y317D01*
X373Y317D02*
X380Y317D01*
X0Y316D02*
X7Y316D01*
X373Y316D02*
X380Y316D01*
X0Y315D02*
X7Y315D01*
X373Y315D02*
X380Y315D01*
X0Y314D02*
X7Y314D01*
X373Y314D02*
X380Y314D01*
X0Y313D02*
X7Y313D01*
X373Y313D02*
X380Y313D01*
X0Y312D02*
X7Y312D01*
X373Y312D02*
X380Y312D01*
X0Y311D02*
X7Y311D01*
X373Y311D02*
X380Y311D01*
X0Y310D02*
X7Y310D01*
X373Y310D02*
X380Y310D01*
X0Y309D02*
X7Y309D01*
X373Y309D02*
X380Y309D01*
X0Y308D02*
X7Y308D01*
X373Y308D02*
X380Y308D01*
X0Y307D02*
X7Y307D01*
X373Y307D02*
X380Y307D01*
X0Y306D02*
X7Y306D01*
X373Y306D02*
X380Y306D01*
X0Y305D02*
X7Y305D01*
X373Y305D02*
X380Y305D01*
X0Y304D02*
X7Y304D01*
X373Y304D02*
X380Y304D01*
X0Y303D02*
X7Y303D01*
X373Y303D02*
X380Y303D01*
X0Y302D02*
X7Y302D01*
X373Y302D02*
X380Y302D01*
X0Y301D02*
X7Y301D01*
X373Y301D02*
X380Y301D01*
X0Y300D02*
X7Y300D01*
X373Y300D02*
X380Y300D01*
X0Y299D02*
X7Y299D01*
X373Y299D02*
X380Y299D01*
X0Y298D02*
X7Y298D01*
X373Y298D02*
X380Y298D01*
X0Y297D02*
X7Y297D01*
X373Y297D02*
X380Y297D01*
X0Y296D02*
X7Y296D01*
X373Y296D02*
X380Y296D01*
X0Y295D02*
X7Y295D01*
X373Y295D02*
X380Y295D01*
X0Y294D02*
X7Y294D01*
X373Y294D02*
X380Y294D01*
X0Y293D02*
X7Y293D01*
X373Y293D02*
X380Y293D01*
X0Y292D02*
X7Y292D01*
X373Y292D02*
X380Y292D01*
X0Y291D02*
X7Y291D01*
X373Y291D02*
X380Y291D01*
X0Y290D02*
X7Y290D01*
X373Y290D02*
X380Y290D01*
X0Y289D02*
X7Y289D01*
X373Y289D02*
X380Y289D01*
X0Y288D02*
X7Y288D01*
X373Y288D02*
X380Y288D01*
X0Y287D02*
X7Y287D01*
X373Y287D02*
X380Y287D01*
X0Y286D02*
X7Y286D01*
X373Y286D02*
X380Y286D01*
X0Y285D02*
X7Y285D01*
X373Y285D02*
X380Y285D01*
X0Y284D02*
X7Y284D01*
X373Y284D02*
X380Y284D01*
X0Y283D02*
X7Y283D01*
X373Y283D02*
X380Y283D01*
X0Y282D02*
X7Y282D01*
X373Y282D02*
X380Y282D01*
X0Y281D02*
X7Y281D01*
X373Y281D02*
X380Y281D01*
X0Y280D02*
X7Y280D01*
X373Y280D02*
X380Y280D01*
X0Y279D02*
X7Y279D01*
X373Y279D02*
X380Y279D01*
X0Y278D02*
X7Y278D01*
X373Y278D02*
X380Y278D01*
X0Y277D02*
X7Y277D01*
X373Y277D02*
X380Y277D01*
X0Y276D02*
X7Y276D01*
X373Y276D02*
X380Y276D01*
X0Y275D02*
X7Y275D01*
X373Y275D02*
X380Y275D01*
X0Y274D02*
X7Y274D01*
X373Y274D02*
X380Y274D01*
X0Y273D02*
X7Y273D01*
X373Y273D02*
X380Y273D01*
X0Y272D02*
X7Y272D01*
X373Y272D02*
X380Y272D01*
X0Y271D02*
X7Y271D01*
X373Y271D02*
X380Y271D01*
X0Y270D02*
X7Y270D01*
X373Y270D02*
X380Y270D01*
X0Y269D02*
X7Y269D01*
X373Y269D02*
X380Y269D01*
X0Y268D02*
X7Y268D01*
X373Y268D02*
X380Y268D01*
X0Y267D02*
X7Y267D01*
X373Y267D02*
X380Y267D01*
X0Y266D02*
X6Y266D01*
X373Y266D02*
X380Y266D01*
X0Y265D02*
X6Y265D01*
X373Y265D02*
X380Y265D01*
X0Y264D02*
X5Y264D01*
X373Y264D02*
X380Y264D01*
X0Y263D02*
X5Y263D01*
X373Y263D02*
X380Y263D01*
X0Y262D02*
X5Y262D01*
X373Y262D02*
X380Y262D01*
X0Y261D02*
X4Y261D01*
X373Y261D02*
X380Y261D01*
X0Y260D02*
X4Y260D01*
X373Y260D02*
X380Y260D01*
X0Y259D02*
X4Y259D01*
X373Y259D02*
X380Y259D01*
X0Y258D02*
X4Y258D01*
X373Y258D02*
X380Y258D01*
X0Y257D02*
X3Y257D01*
X373Y257D02*
X380Y257D01*
X0Y256D02*
X3Y256D01*
X373Y256D02*
X380Y256D01*
X0Y255D02*
X3Y255D01*
X373Y255D02*
X380Y255D01*
X0Y254D02*
X3Y254D01*
X373Y254D02*
X380Y254D01*
X0Y253D02*
X3Y253D01*
X373Y253D02*
X380Y253D01*
X0Y252D02*
X3Y252D01*
X373Y252D02*
X380Y252D01*
X0Y251D02*
X3Y251D01*
X373Y251D02*
X380Y251D01*
X0Y250D02*
X3Y250D01*
X373Y250D02*
X380Y250D01*
X0Y249D02*
X3Y249D01*
X373Y249D02*
X380Y249D01*
X0Y248D02*
X3Y248D01*
X373Y248D02*
X380Y248D01*
X0Y247D02*
X3Y247D01*
X373Y247D02*
X380Y247D01*
X0Y246D02*
X3Y246D01*
X373Y246D02*
X380Y246D01*
X0Y245D02*
X3Y245D01*
X373Y245D02*
X380Y245D01*
X0Y244D02*
X3Y244D01*
X373Y244D02*
X380Y244D01*
X0Y243D02*
X3Y243D01*
X373Y243D02*
X380Y243D01*
X0Y242D02*
X3Y242D01*
X373Y242D02*
X380Y242D01*
X0Y241D02*
X3Y241D01*
X373Y241D02*
X380Y241D01*
X0Y240D02*
X4Y240D01*
X373Y240D02*
X380Y240D01*
X0Y239D02*
X4Y239D01*
X373Y239D02*
X380Y239D01*
X0Y238D02*
X4Y238D01*
X373Y238D02*
X380Y238D01*
X0Y237D02*
X5Y237D01*
X373Y237D02*
X380Y237D01*
X0Y236D02*
X5Y236D01*
X373Y236D02*
X380Y236D01*
X0Y235D02*
X5Y235D01*
X373Y235D02*
X380Y235D01*
X0Y234D02*
X6Y234D01*
X373Y234D02*
X380Y234D01*
X0Y233D02*
X6Y233D01*
X373Y233D02*
X380Y233D01*
X0Y232D02*
X7Y232D01*
X373Y232D02*
X380Y232D01*
X0Y231D02*
X7Y231D01*
X373Y231D02*
X380Y231D01*
X0Y230D02*
X7Y230D01*
X373Y230D02*
X380Y230D01*
X0Y229D02*
X7Y229D01*
X373Y229D02*
X380Y229D01*
X0Y228D02*
X7Y228D01*
X373Y228D02*
X380Y228D01*
X0Y227D02*
X7Y227D01*
X373Y227D02*
X380Y227D01*
X0Y226D02*
X7Y226D01*
X373Y226D02*
X380Y226D01*
X0Y225D02*
X7Y225D01*
X373Y225D02*
X380Y225D01*
X0Y224D02*
X7Y224D01*
X373Y224D02*
X380Y224D01*
X0Y223D02*
X7Y223D01*
X373Y223D02*
X380Y223D01*
X0Y222D02*
X7Y222D01*
X373Y222D02*
X380Y222D01*
X0Y221D02*
X7Y221D01*
X373Y221D02*
X380Y221D01*
X0Y220D02*
X7Y220D01*
X373Y220D02*
X380Y220D01*
X0Y219D02*
X7Y219D01*
X373Y219D02*
X380Y219D01*
X0Y218D02*
X7Y218D01*
X373Y218D02*
X380Y218D01*
X0Y217D02*
X7Y217D01*
X373Y217D02*
X380Y217D01*
X0Y216D02*
X7Y216D01*
X373Y216D02*
X380Y216D01*
X0Y215D02*
X7Y215D01*
X373Y215D02*
X380Y215D01*
X0Y214D02*
X7Y214D01*
X373Y214D02*
X380Y214D01*
X0Y213D02*
X7Y213D01*
X373Y213D02*
X380Y213D01*
X0Y212D02*
X7Y212D01*
X373Y212D02*
X380Y212D01*
X0Y211D02*
X7Y211D01*
X373Y211D02*
X380Y211D01*
X0Y210D02*
X7Y210D01*
X373Y210D02*
X380Y210D01*
X0Y209D02*
X7Y209D01*
X373Y209D02*
X380Y209D01*
X0Y208D02*
X7Y208D01*
X373Y208D02*
X380Y208D01*
X0Y207D02*
X7Y207D01*
X373Y207D02*
X380Y207D01*
X0Y206D02*
X7Y206D01*
X373Y206D02*
X380Y206D01*
X0Y205D02*
X7Y205D01*
X373Y205D02*
X380Y205D01*
X0Y204D02*
X7Y204D01*
X373Y204D02*
X380Y204D01*
X0Y203D02*
X7Y203D01*
X373Y203D02*
X380Y203D01*
X0Y202D02*
X7Y202D01*
X373Y202D02*
X380Y202D01*
X0Y201D02*
X7Y201D01*
X373Y201D02*
X380Y201D01*
X0Y200D02*
X7Y200D01*
X373Y200D02*
X380Y200D01*
X0Y199D02*
X7Y199D01*
X373Y199D02*
X380Y199D01*
X0Y198D02*
X7Y198D01*
X374Y198D02*
X380Y198D01*
X0Y197D02*
X7Y197D01*
X374Y197D02*
X380Y197D01*
X0Y196D02*
X7Y196D01*
X374Y196D02*
X380Y196D01*
X0Y195D02*
X7Y195D01*
X374Y195D02*
X380Y195D01*
X0Y194D02*
X7Y194D01*
X374Y194D02*
X380Y194D01*
X0Y193D02*
X7Y193D01*
X374Y193D02*
X380Y193D01*
X0Y192D02*
X7Y192D01*
X374Y192D02*
X380Y192D01*
X0Y191D02*
X7Y191D01*
X374Y191D02*
X380Y191D01*
X0Y190D02*
X7Y190D01*
X374Y190D02*
X380Y190D01*
X0Y189D02*
X7Y189D01*
X374Y189D02*
X380Y189D01*
X0Y188D02*
X7Y188D01*
X374Y188D02*
X380Y188D01*
X0Y187D02*
X7Y187D01*
X374Y187D02*
X380Y187D01*
X0Y186D02*
X7Y186D01*
X374Y186D02*
X380Y186D01*
X0Y185D02*
X7Y185D01*
X373Y185D02*
X380Y185D01*
X0Y184D02*
X7Y184D01*
X373Y184D02*
X380Y184D01*
X0Y183D02*
X7Y183D01*
X373Y183D02*
X380Y183D01*
X0Y182D02*
X7Y182D01*
X373Y182D02*
X380Y182D01*
X0Y181D02*
X7Y181D01*
X373Y181D02*
X380Y181D01*
X0Y180D02*
X7Y180D01*
X373Y180D02*
X380Y180D01*
X0Y179D02*
X7Y179D01*
X373Y179D02*
X380Y179D01*
X0Y178D02*
X7Y178D01*
X373Y178D02*
X380Y178D01*
X0Y177D02*
X7Y177D01*
X373Y177D02*
X380Y177D01*
X0Y176D02*
X7Y176D01*
X373Y176D02*
X380Y176D01*
X0Y175D02*
X7Y175D01*
X373Y175D02*
X380Y175D01*
X0Y174D02*
X7Y174D01*
X373Y174D02*
X380Y174D01*
X0Y173D02*
X7Y173D01*
X373Y173D02*
X380Y173D01*
X0Y172D02*
X7Y172D01*
X373Y172D02*
X380Y172D01*
X0Y171D02*
X7Y171D01*
X373Y171D02*
X380Y171D01*
X0Y170D02*
X7Y170D01*
X373Y170D02*
X380Y170D01*
X0Y169D02*
X7Y169D01*
X373Y169D02*
X380Y169D01*
X0Y168D02*
X7Y168D01*
X373Y168D02*
X380Y168D01*
X0Y167D02*
X7Y167D01*
X373Y167D02*
X380Y167D01*
X0Y166D02*
X6Y166D01*
X373Y166D02*
X380Y166D01*
X0Y165D02*
X6Y165D01*
X373Y165D02*
X380Y165D01*
X0Y164D02*
X5Y164D01*
X373Y164D02*
X380Y164D01*
X0Y163D02*
X5Y163D01*
X373Y163D02*
X380Y163D01*
X0Y162D02*
X5Y162D01*
X373Y162D02*
X380Y162D01*
X0Y161D02*
X4Y161D01*
X373Y161D02*
X380Y161D01*
X0Y160D02*
X4Y160D01*
X373Y160D02*
X380Y160D01*
X0Y159D02*
X4Y159D01*
X373Y159D02*
X380Y159D01*
X0Y158D02*
X4Y158D01*
X373Y158D02*
X380Y158D01*
X0Y157D02*
X3Y157D01*
X373Y157D02*
X380Y157D01*
X0Y156D02*
X3Y156D01*
X373Y156D02*
X380Y156D01*
X0Y155D02*
X3Y155D01*
X373Y155D02*
X380Y155D01*
X0Y154D02*
X3Y154D01*
X373Y154D02*
X380Y154D01*
X0Y153D02*
X3Y153D01*
X373Y153D02*
X380Y153D01*
X0Y152D02*
X3Y152D01*
X373Y152D02*
X380Y152D01*
X0Y151D02*
X3Y151D01*
X373Y151D02*
X380Y151D01*
X0Y150D02*
X3Y150D01*
X373Y150D02*
X380Y150D01*
X0Y149D02*
X3Y149D01*
X373Y149D02*
X380Y149D01*
X0Y148D02*
X3Y148D01*
X373Y148D02*
X380Y148D01*
X0Y147D02*
X3Y147D01*
X373Y147D02*
X380Y147D01*
X0Y146D02*
X3Y146D01*
X373Y146D02*
X380Y146D01*
X0Y145D02*
X3Y145D01*
X373Y145D02*
X380Y145D01*
X0Y144D02*
X3Y144D01*
X373Y144D02*
X380Y144D01*
X0Y143D02*
X3Y143D01*
X373Y143D02*
X380Y143D01*
X0Y142D02*
X3Y142D01*
X373Y142D02*
X380Y142D01*
X0Y141D02*
X4Y141D01*
X373Y141D02*
X380Y141D01*
X0Y140D02*
X4Y140D01*
X373Y140D02*
X380Y140D01*
X0Y139D02*
X4Y139D01*
X373Y139D02*
X380Y139D01*
X0Y138D02*
X4Y138D01*
X373Y138D02*
X380Y138D01*
X0Y137D02*
X5Y137D01*
X373Y137D02*
X380Y137D01*
X0Y136D02*
X5Y136D01*
X373Y136D02*
X380Y136D01*
X0Y135D02*
X5Y135D01*
X373Y135D02*
X380Y135D01*
X0Y134D02*
X6Y134D01*
X373Y134D02*
X380Y134D01*
X0Y133D02*
X6Y133D01*
X373Y133D02*
X380Y133D01*
X0Y132D02*
X7Y132D01*
X373Y132D02*
X380Y132D01*
X0Y131D02*
X7Y131D01*
X373Y131D02*
X380Y131D01*
X0Y130D02*
X7Y130D01*
X373Y130D02*
X380Y130D01*
X0Y129D02*
X7Y129D01*
X373Y129D02*
X380Y129D01*
X0Y128D02*
X7Y128D01*
X373Y128D02*
X380Y128D01*
X0Y127D02*
X7Y127D01*
X373Y127D02*
X380Y127D01*
X0Y126D02*
X7Y126D01*
X373Y126D02*
X380Y126D01*
X0Y125D02*
X7Y125D01*
X373Y125D02*
X380Y125D01*
X0Y124D02*
X7Y124D01*
X373Y124D02*
X380Y124D01*
X0Y123D02*
X7Y123D01*
X373Y123D02*
X380Y123D01*
X0Y122D02*
X7Y122D01*
X373Y122D02*
X380Y122D01*
X0Y121D02*
X7Y121D01*
X373Y121D02*
X380Y121D01*
X0Y120D02*
X7Y120D01*
X373Y120D02*
X380Y120D01*
X0Y119D02*
X7Y119D01*
X373Y119D02*
X380Y119D01*
X0Y118D02*
X7Y118D01*
X373Y118D02*
X380Y118D01*
X0Y117D02*
X7Y117D01*
X373Y117D02*
X380Y117D01*
X0Y116D02*
X7Y116D01*
X373Y116D02*
X380Y116D01*
X0Y115D02*
X7Y115D01*
X373Y115D02*
X380Y115D01*
X0Y114D02*
X7Y114D01*
X373Y114D02*
X380Y114D01*
X0Y113D02*
X7Y113D01*
X373Y113D02*
X380Y113D01*
X0Y112D02*
X7Y112D01*
X373Y112D02*
X380Y112D01*
X0Y111D02*
X7Y111D01*
X373Y111D02*
X380Y111D01*
X0Y110D02*
X7Y110D01*
X373Y110D02*
X380Y110D01*
X0Y109D02*
X7Y109D01*
X373Y109D02*
X380Y109D01*
X0Y108D02*
X7Y108D01*
X373Y108D02*
X380Y108D01*
X0Y107D02*
X7Y107D01*
X373Y107D02*
X380Y107D01*
X0Y106D02*
X7Y106D01*
X373Y106D02*
X380Y106D01*
X0Y105D02*
X7Y105D01*
X373Y105D02*
X380Y105D01*
X0Y104D02*
X7Y104D01*
X373Y104D02*
X380Y104D01*
X0Y103D02*
X7Y103D01*
X373Y103D02*
X380Y103D01*
X0Y102D02*
X7Y102D01*
X373Y102D02*
X380Y102D01*
X0Y101D02*
X7Y101D01*
X373Y101D02*
X380Y101D01*
X0Y100D02*
X7Y100D01*
X373Y100D02*
X380Y100D01*
X0Y99D02*
X7Y99D01*
X373Y99D02*
X380Y99D01*
X0Y98D02*
X7Y98D01*
X373Y98D02*
X380Y98D01*
X0Y97D02*
X7Y97D01*
X373Y97D02*
X380Y97D01*
X0Y96D02*
X7Y96D01*
X373Y96D02*
X380Y96D01*
X0Y95D02*
X7Y95D01*
X373Y95D02*
X380Y95D01*
X0Y94D02*
X7Y94D01*
X373Y94D02*
X380Y94D01*
X0Y93D02*
X7Y93D01*
X373Y93D02*
X380Y93D01*
X0Y92D02*
X7Y92D01*
X373Y92D02*
X380Y92D01*
X0Y91D02*
X7Y91D01*
X373Y91D02*
X380Y91D01*
X0Y90D02*
X7Y90D01*
X373Y90D02*
X380Y90D01*
X0Y89D02*
X7Y89D01*
X373Y89D02*
X380Y89D01*
X0Y88D02*
X7Y88D01*
X373Y88D02*
X380Y88D01*
X0Y87D02*
X7Y87D01*
X373Y87D02*
X380Y87D01*
X0Y86D02*
X7Y86D01*
X373Y86D02*
X380Y86D01*
X0Y85D02*
X7Y85D01*
X373Y85D02*
X380Y85D01*
X0Y84D02*
X7Y84D01*
X373Y84D02*
X380Y84D01*
X0Y83D02*
X7Y83D01*
X373Y83D02*
X380Y83D01*
X0Y82D02*
X7Y82D01*
X373Y82D02*
X380Y82D01*
X0Y81D02*
X7Y81D01*
X373Y81D02*
X380Y81D01*
X0Y80D02*
X7Y80D01*
X373Y80D02*
X380Y80D01*
X0Y79D02*
X7Y79D01*
X373Y79D02*
X380Y79D01*
X0Y78D02*
X7Y78D01*
X373Y78D02*
X380Y78D01*
X0Y77D02*
X7Y77D01*
X373Y77D02*
X380Y77D01*
X0Y76D02*
X7Y76D01*
X373Y76D02*
X380Y76D01*
X0Y75D02*
X7Y75D01*
X373Y75D02*
X380Y75D01*
X0Y74D02*
X7Y74D01*
X373Y74D02*
X380Y74D01*
X0Y73D02*
X7Y73D01*
X373Y73D02*
X380Y73D01*
X0Y72D02*
X7Y72D01*
X373Y72D02*
X380Y72D01*
X0Y71D02*
X7Y71D01*
X373Y71D02*
X380Y71D01*
X0Y70D02*
X7Y70D01*
X373Y70D02*
X380Y70D01*
X0Y69D02*
X7Y69D01*
X373Y69D02*
X380Y69D01*
X0Y68D02*
X7Y68D01*
X373Y68D02*
X380Y68D01*
X0Y67D02*
X7Y67D01*
X373Y67D02*
X380Y67D01*
X0Y66D02*
X6Y66D01*
X373Y66D02*
X380Y66D01*
X0Y65D02*
X6Y65D01*
X373Y65D02*
X380Y65D01*
X0Y64D02*
X5Y64D01*
X373Y64D02*
X380Y64D01*
X0Y63D02*
X5Y63D01*
X373Y63D02*
X380Y63D01*
X0Y62D02*
X5Y62D01*
X373Y62D02*
X380Y62D01*
X0Y61D02*
X4Y61D01*
X373Y61D02*
X380Y61D01*
X0Y60D02*
X4Y60D01*
X373Y60D02*
X380Y60D01*
X0Y59D02*
X4Y59D01*
X373Y59D02*
X380Y59D01*
X0Y58D02*
X4Y58D01*
X373Y58D02*
X380Y58D01*
X0Y57D02*
X3Y57D01*
X373Y57D02*
X380Y57D01*
X0Y56D02*
X3Y56D01*
X373Y56D02*
X380Y56D01*
X0Y55D02*
X3Y55D01*
X373Y55D02*
X380Y55D01*
X0Y54D02*
X3Y54D01*
X373Y54D02*
X380Y54D01*
X0Y53D02*
X3Y53D01*
X373Y53D02*
X380Y53D01*
X0Y52D02*
X3Y52D01*
X373Y52D02*
X380Y52D01*
X0Y51D02*
X3Y51D01*
X373Y51D02*
X380Y51D01*
X0Y50D02*
X3Y50D01*
X373Y50D02*
X380Y50D01*
X0Y49D02*
X3Y49D01*
X373Y49D02*
X380Y49D01*
X0Y48D02*
X3Y48D01*
X373Y48D02*
X380Y48D01*
X0Y47D02*
X3Y47D01*
X373Y47D02*
X380Y47D01*
X0Y46D02*
X3Y46D01*
X373Y46D02*
X380Y46D01*
X0Y45D02*
X3Y45D01*
X373Y45D02*
X380Y45D01*
X0Y44D02*
X3Y44D01*
X373Y44D02*
X380Y44D01*
X0Y43D02*
X3Y43D01*
X373Y43D02*
X380Y43D01*
X0Y42D02*
X3Y42D01*
X373Y42D02*
X380Y42D01*
X0Y41D02*
X4Y41D01*
X373Y41D02*
X380Y41D01*
X0Y40D02*
X4Y40D01*
X373Y40D02*
X380Y40D01*
X0Y39D02*
X4Y39D01*
X373Y39D02*
X380Y39D01*
X0Y38D02*
X4Y38D01*
X373Y38D02*
X380Y38D01*
X0Y37D02*
X5Y37D01*
X373Y37D02*
X380Y37D01*
X0Y36D02*
X5Y36D01*
X373Y36D02*
X380Y36D01*
X0Y35D02*
X5Y35D01*
X373Y35D02*
X380Y35D01*
X0Y34D02*
X6Y34D01*
X373Y34D02*
X380Y34D01*
X0Y33D02*
X6Y33D01*
X373Y33D02*
X380Y33D01*
X0Y32D02*
X7Y32D01*
X373Y32D02*
X380Y32D01*
X0Y31D02*
X7Y31D01*
X373Y31D02*
X380Y31D01*
X0Y30D02*
X7Y30D01*
X373Y30D02*
X380Y30D01*
X0Y29D02*
X7Y29D01*
X373Y29D02*
X380Y29D01*
X0Y28D02*
X7Y28D01*
X373Y28D02*
X380Y28D01*
X0Y27D02*
X7Y27D01*
X373Y27D02*
X380Y27D01*
X0Y26D02*
X7Y26D01*
X373Y26D02*
X380Y26D01*
X0Y25D02*
X7Y25D01*
X373Y25D02*
X380Y25D01*
X0Y24D02*
X7Y24D01*
X373Y24D02*
X380Y24D01*
X0Y23D02*
X7Y23D01*
X373Y23D02*
X380Y23D01*
X0Y22D02*
X7Y22D01*
X373Y22D02*
X380Y22D01*
X0Y21D02*
X7Y21D01*
X373Y21D02*
X380Y21D01*
X0Y20D02*
X7Y20D01*
X373Y20D02*
X380Y20D01*
X0Y19D02*
X7Y19D01*
X373Y19D02*
X380Y19D01*
X0Y18D02*
X7Y18D01*
X373Y18D02*
X380Y18D01*
X0Y17D02*
X7Y17D01*
X373Y17D02*
X380Y17D01*
X0Y16D02*
X7Y16D01*
X373Y16D02*
X380Y16D01*
X0Y15D02*
X7Y15D01*
X373Y15D02*
X380Y15D01*
X0Y14D02*
X7Y14D01*
X373Y14D02*
X380Y14D01*
X0Y13D02*
X7Y13D01*
X373Y13D02*
X380Y13D01*
X0Y12D02*
X7Y12D01*
X373Y12D02*
X380Y12D01*
X0Y11D02*
X7Y11D01*
X373Y11D02*
X380Y11D01*
X0Y10D02*
X7Y10D01*
X373Y10D02*
X380Y10D01*
X0Y9D02*
X112Y9D01*
X186Y9D02*
X380Y9D01*
X0Y8D02*
X112Y8D01*
X186Y8D02*
X380Y8D01*
X0Y7D02*
X112Y7D01*
X186Y7D02*
X380Y7D01*
X0Y6D02*
X112Y6D01*
X186Y6D02*
X380Y6D01*
X0Y5D02*
X112Y5D01*
X186Y5D02*
X380Y5D01*
X0Y4D02*
X112Y4D01*
X186Y4D02*
X380Y4D01*
X0Y3D02*
X112Y3D01*
X186Y3D02*
X380Y3D01*
X0Y2D02*
X112Y2D01*
X186Y2D02*
X380Y2D01*
D02*
G04 End of Silk0*
M02*