G04 MADE WITH FRITZING*
G04 WWW.FRITZING.ORG*
G04 DOUBLE SIDED*
G04 HOLES PLATED*
G04 CONTOUR ON CENTER OF CONTOUR VECTOR*
%ASAXBY*%
%FSLAX23Y23*%
%MOIN*%
%OFA0B0*%
%SFA1.0B1.0*%
%ADD10R,0.007611X0.078250*%
%ADD11R,0.007625X0.078250*%
%ADD12C,0.008000*%
%ADD13R,0.001000X0.001000*%
%LNSILK1*%
G90*
G70*
G54D10*
X296Y845D03*
G54D11*
X273Y845D03*
G54D12*
X328Y494D02*
X328Y479D01*
D02*
X328Y479D02*
X328Y423D01*
D02*
X276Y325D02*
X276Y340D01*
D02*
X276Y340D02*
X276Y395D01*
D02*
X183Y677D02*
X183Y701D01*
D02*
X183Y701D02*
X151Y701D01*
G54D13*
X0Y892D02*
X380Y892D01*
X0Y891D02*
X380Y891D01*
X0Y890D02*
X175Y890D01*
X234Y890D02*
X302Y890D01*
X362Y890D02*
X380Y890D01*
X0Y889D02*
X174Y889D01*
X235Y889D02*
X302Y889D01*
X362Y889D02*
X380Y889D01*
X0Y888D02*
X174Y888D01*
X235Y888D02*
X302Y888D01*
X362Y888D02*
X380Y888D01*
X0Y887D02*
X174Y887D01*
X235Y887D02*
X302Y887D01*
X362Y887D02*
X380Y887D01*
X0Y886D02*
X174Y886D01*
X235Y886D02*
X302Y886D01*
X362Y886D02*
X380Y886D01*
X0Y885D02*
X174Y885D01*
X235Y885D02*
X302Y885D01*
X362Y885D02*
X380Y885D01*
X0Y884D02*
X7Y884D01*
X13Y884D02*
X14Y884D01*
X172Y884D02*
X174Y884D01*
X362Y884D02*
X364Y884D01*
X373Y884D02*
X380Y884D01*
X0Y883D02*
X7Y883D01*
X13Y883D02*
X15Y883D01*
X172Y883D02*
X174Y883D01*
X362Y883D02*
X364Y883D01*
X373Y883D02*
X380Y883D01*
X0Y882D02*
X7Y882D01*
X13Y882D02*
X15Y882D01*
X172Y882D02*
X174Y882D01*
X235Y882D02*
X235Y882D01*
X262Y882D02*
X263Y882D01*
X362Y882D02*
X364Y882D01*
X373Y882D02*
X380Y882D01*
X0Y881D02*
X7Y881D01*
X13Y881D02*
X15Y881D01*
X172Y881D02*
X174Y881D01*
X235Y881D02*
X236Y881D01*
X261Y881D02*
X264Y881D01*
X362Y881D02*
X364Y881D01*
X373Y881D02*
X380Y881D01*
X0Y880D02*
X7Y880D01*
X13Y880D02*
X15Y880D01*
X172Y880D02*
X174Y880D01*
X235Y880D02*
X236Y880D01*
X261Y880D02*
X264Y880D01*
X362Y880D02*
X364Y880D01*
X373Y880D02*
X380Y880D01*
X0Y879D02*
X7Y879D01*
X12Y879D02*
X15Y879D01*
X172Y879D02*
X174Y879D01*
X235Y879D02*
X236Y879D01*
X261Y879D02*
X264Y879D01*
X362Y879D02*
X364Y879D01*
X373Y879D02*
X380Y879D01*
X0Y878D02*
X20Y878D01*
X172Y878D02*
X174Y878D01*
X235Y878D02*
X264Y878D01*
X362Y878D02*
X364Y878D01*
X373Y878D02*
X380Y878D01*
X0Y877D02*
X18Y877D01*
X91Y877D02*
X149Y877D01*
X172Y877D02*
X174Y877D01*
X235Y877D02*
X264Y877D01*
X362Y877D02*
X364Y877D01*
X373Y877D02*
X380Y877D01*
X0Y876D02*
X17Y876D01*
X91Y876D02*
X149Y876D01*
X172Y876D02*
X174Y876D01*
X235Y876D02*
X264Y876D01*
X362Y876D02*
X364Y876D01*
X373Y876D02*
X380Y876D01*
X0Y875D02*
X7Y875D01*
X13Y875D02*
X15Y875D01*
X91Y875D02*
X149Y875D01*
X172Y875D02*
X174Y875D01*
X235Y875D02*
X264Y875D01*
X362Y875D02*
X364Y875D01*
X373Y875D02*
X380Y875D01*
X0Y874D02*
X7Y874D01*
X13Y874D02*
X15Y874D01*
X91Y874D02*
X93Y874D01*
X147Y874D02*
X149Y874D01*
X172Y874D02*
X174Y874D01*
X235Y874D02*
X236Y874D01*
X261Y874D02*
X264Y874D01*
X362Y874D02*
X364Y874D01*
X373Y874D02*
X380Y874D01*
X0Y873D02*
X7Y873D01*
X13Y873D02*
X13Y873D01*
X91Y873D02*
X93Y873D01*
X147Y873D02*
X149Y873D01*
X172Y873D02*
X174Y873D01*
X235Y873D02*
X236Y873D01*
X261Y873D02*
X264Y873D01*
X362Y873D02*
X364Y873D01*
X373Y873D02*
X380Y873D01*
X0Y872D02*
X7Y872D01*
X13Y872D02*
X13Y872D01*
X91Y872D02*
X93Y872D01*
X147Y872D02*
X149Y872D01*
X172Y872D02*
X174Y872D01*
X235Y872D02*
X236Y872D01*
X261Y872D02*
X264Y872D01*
X362Y872D02*
X364Y872D01*
X373Y872D02*
X380Y872D01*
X0Y871D02*
X7Y871D01*
X91Y871D02*
X93Y871D01*
X147Y871D02*
X149Y871D01*
X172Y871D02*
X174Y871D01*
X235Y871D02*
X237Y871D01*
X260Y871D02*
X264Y871D01*
X362Y871D02*
X364Y871D01*
X373Y871D02*
X380Y871D01*
X0Y870D02*
X7Y870D01*
X91Y870D02*
X93Y870D01*
X147Y870D02*
X149Y870D01*
X172Y870D02*
X174Y870D01*
X235Y870D02*
X239Y870D01*
X258Y870D02*
X264Y870D01*
X362Y870D02*
X364Y870D01*
X373Y870D02*
X380Y870D01*
X0Y869D02*
X7Y869D01*
X91Y869D02*
X93Y869D01*
X147Y869D02*
X149Y869D01*
X172Y869D02*
X174Y869D01*
X235Y869D02*
X241Y869D01*
X256Y869D02*
X263Y869D01*
X362Y869D02*
X364Y869D01*
X373Y869D02*
X380Y869D01*
X0Y868D02*
X7Y868D01*
X91Y868D02*
X93Y868D01*
X147Y868D02*
X149Y868D01*
X172Y868D02*
X174Y868D01*
X235Y868D02*
X243Y868D01*
X254Y868D02*
X262Y868D01*
X362Y868D02*
X364Y868D01*
X373Y868D02*
X380Y868D01*
X0Y867D02*
X7Y867D01*
X91Y867D02*
X93Y867D01*
X147Y867D02*
X149Y867D01*
X172Y867D02*
X174Y867D01*
X236Y867D02*
X245Y867D01*
X252Y867D02*
X261Y867D01*
X362Y867D02*
X364Y867D01*
X373Y867D02*
X380Y867D01*
X0Y866D02*
X7Y866D01*
X91Y866D02*
X93Y866D01*
X147Y866D02*
X149Y866D01*
X172Y866D02*
X174Y866D01*
X238Y866D02*
X259Y866D01*
X362Y866D02*
X364Y866D01*
X373Y866D02*
X380Y866D01*
X0Y865D02*
X7Y865D01*
X91Y865D02*
X93Y865D01*
X147Y865D02*
X149Y865D01*
X172Y865D02*
X174Y865D01*
X240Y865D02*
X257Y865D01*
X362Y865D02*
X364Y865D01*
X373Y865D02*
X380Y865D01*
X0Y864D02*
X7Y864D01*
X91Y864D02*
X93Y864D01*
X147Y864D02*
X149Y864D01*
X172Y864D02*
X174Y864D01*
X242Y864D02*
X255Y864D01*
X362Y864D02*
X364Y864D01*
X373Y864D02*
X380Y864D01*
X0Y863D02*
X7Y863D01*
X91Y863D02*
X93Y863D01*
X147Y863D02*
X149Y863D01*
X172Y863D02*
X174Y863D01*
X244Y863D02*
X253Y863D01*
X362Y863D02*
X364Y863D01*
X373Y863D02*
X380Y863D01*
X0Y862D02*
X6Y862D01*
X91Y862D02*
X93Y862D01*
X147Y862D02*
X149Y862D01*
X172Y862D02*
X174Y862D01*
X247Y862D02*
X250Y862D01*
X362Y862D02*
X364Y862D01*
X373Y862D02*
X380Y862D01*
X0Y861D02*
X6Y861D01*
X91Y861D02*
X93Y861D01*
X147Y861D02*
X149Y861D01*
X172Y861D02*
X174Y861D01*
X362Y861D02*
X364Y861D01*
X373Y861D02*
X380Y861D01*
X0Y860D02*
X5Y860D01*
X91Y860D02*
X93Y860D01*
X147Y860D02*
X149Y860D01*
X172Y860D02*
X174Y860D01*
X362Y860D02*
X364Y860D01*
X373Y860D02*
X380Y860D01*
X0Y859D02*
X5Y859D01*
X91Y859D02*
X93Y859D01*
X147Y859D02*
X149Y859D01*
X172Y859D02*
X174Y859D01*
X362Y859D02*
X364Y859D01*
X373Y859D02*
X380Y859D01*
X0Y858D02*
X4Y858D01*
X91Y858D02*
X93Y858D01*
X147Y858D02*
X149Y858D01*
X172Y858D02*
X174Y858D01*
X362Y858D02*
X364Y858D01*
X373Y858D02*
X380Y858D01*
X0Y857D02*
X4Y857D01*
X91Y857D02*
X93Y857D01*
X147Y857D02*
X149Y857D01*
X172Y857D02*
X174Y857D01*
X362Y857D02*
X364Y857D01*
X373Y857D02*
X380Y857D01*
X0Y856D02*
X4Y856D01*
X91Y856D02*
X93Y856D01*
X147Y856D02*
X149Y856D01*
X172Y856D02*
X174Y856D01*
X362Y856D02*
X364Y856D01*
X373Y856D02*
X380Y856D01*
X0Y855D02*
X4Y855D01*
X91Y855D02*
X93Y855D01*
X147Y855D02*
X149Y855D01*
X172Y855D02*
X174Y855D01*
X362Y855D02*
X364Y855D01*
X373Y855D02*
X380Y855D01*
X0Y854D02*
X3Y854D01*
X91Y854D02*
X93Y854D01*
X147Y854D02*
X149Y854D01*
X172Y854D02*
X174Y854D01*
X362Y854D02*
X364Y854D01*
X373Y854D02*
X380Y854D01*
X0Y853D02*
X3Y853D01*
X91Y853D02*
X93Y853D01*
X147Y853D02*
X149Y853D01*
X172Y853D02*
X174Y853D01*
X362Y853D02*
X364Y853D01*
X373Y853D02*
X380Y853D01*
X0Y852D02*
X3Y852D01*
X91Y852D02*
X93Y852D01*
X147Y852D02*
X149Y852D01*
X172Y852D02*
X174Y852D01*
X235Y852D02*
X248Y852D01*
X262Y852D02*
X263Y852D01*
X362Y852D02*
X364Y852D01*
X373Y852D02*
X380Y852D01*
X0Y851D02*
X3Y851D01*
X91Y851D02*
X93Y851D01*
X147Y851D02*
X149Y851D01*
X172Y851D02*
X174Y851D01*
X235Y851D02*
X249Y851D01*
X261Y851D02*
X264Y851D01*
X362Y851D02*
X364Y851D01*
X373Y851D02*
X380Y851D01*
X0Y850D02*
X3Y850D01*
X91Y850D02*
X93Y850D01*
X147Y850D02*
X149Y850D01*
X172Y850D02*
X174Y850D01*
X235Y850D02*
X250Y850D01*
X261Y850D02*
X264Y850D01*
X362Y850D02*
X364Y850D01*
X373Y850D02*
X380Y850D01*
X0Y849D02*
X3Y849D01*
X91Y849D02*
X93Y849D01*
X147Y849D02*
X149Y849D01*
X172Y849D02*
X174Y849D01*
X235Y849D02*
X250Y849D01*
X261Y849D02*
X264Y849D01*
X362Y849D02*
X364Y849D01*
X373Y849D02*
X380Y849D01*
X0Y848D02*
X3Y848D01*
X91Y848D02*
X93Y848D01*
X147Y848D02*
X149Y848D01*
X172Y848D02*
X174Y848D01*
X235Y848D02*
X236Y848D01*
X247Y848D02*
X250Y848D01*
X261Y848D02*
X264Y848D01*
X362Y848D02*
X364Y848D01*
X373Y848D02*
X380Y848D01*
X0Y847D02*
X3Y847D01*
X91Y847D02*
X93Y847D01*
X147Y847D02*
X149Y847D01*
X172Y847D02*
X174Y847D01*
X235Y847D02*
X236Y847D01*
X247Y847D02*
X250Y847D01*
X261Y847D02*
X264Y847D01*
X362Y847D02*
X364Y847D01*
X373Y847D02*
X380Y847D01*
X0Y846D02*
X3Y846D01*
X91Y846D02*
X93Y846D01*
X147Y846D02*
X149Y846D01*
X172Y846D02*
X174Y846D01*
X235Y846D02*
X236Y846D01*
X247Y846D02*
X250Y846D01*
X261Y846D02*
X264Y846D01*
X362Y846D02*
X364Y846D01*
X373Y846D02*
X380Y846D01*
X0Y845D02*
X3Y845D01*
X91Y845D02*
X93Y845D01*
X147Y845D02*
X149Y845D01*
X172Y845D02*
X174Y845D01*
X235Y845D02*
X236Y845D01*
X247Y845D02*
X250Y845D01*
X261Y845D02*
X264Y845D01*
X362Y845D02*
X364Y845D01*
X373Y845D02*
X380Y845D01*
X0Y844D02*
X3Y844D01*
X91Y844D02*
X93Y844D01*
X147Y844D02*
X149Y844D01*
X172Y844D02*
X174Y844D01*
X235Y844D02*
X236Y844D01*
X247Y844D02*
X250Y844D01*
X261Y844D02*
X264Y844D01*
X362Y844D02*
X364Y844D01*
X373Y844D02*
X380Y844D01*
X0Y843D02*
X3Y843D01*
X91Y843D02*
X93Y843D01*
X147Y843D02*
X149Y843D01*
X172Y843D02*
X174Y843D01*
X235Y843D02*
X236Y843D01*
X247Y843D02*
X250Y843D01*
X261Y843D02*
X264Y843D01*
X362Y843D02*
X364Y843D01*
X373Y843D02*
X380Y843D01*
X0Y842D02*
X3Y842D01*
X91Y842D02*
X93Y842D01*
X147Y842D02*
X149Y842D01*
X172Y842D02*
X174Y842D01*
X235Y842D02*
X236Y842D01*
X247Y842D02*
X250Y842D01*
X261Y842D02*
X264Y842D01*
X362Y842D02*
X364Y842D01*
X373Y842D02*
X380Y842D01*
X0Y841D02*
X3Y841D01*
X91Y841D02*
X93Y841D01*
X147Y841D02*
X149Y841D01*
X172Y841D02*
X174Y841D01*
X235Y841D02*
X236Y841D01*
X247Y841D02*
X250Y841D01*
X261Y841D02*
X264Y841D01*
X362Y841D02*
X364Y841D01*
X373Y841D02*
X380Y841D01*
X0Y840D02*
X3Y840D01*
X91Y840D02*
X93Y840D01*
X147Y840D02*
X149Y840D01*
X172Y840D02*
X174Y840D01*
X235Y840D02*
X236Y840D01*
X247Y840D02*
X250Y840D01*
X261Y840D02*
X264Y840D01*
X362Y840D02*
X364Y840D01*
X373Y840D02*
X380Y840D01*
X0Y839D02*
X3Y839D01*
X91Y839D02*
X93Y839D01*
X147Y839D02*
X149Y839D01*
X172Y839D02*
X174Y839D01*
X235Y839D02*
X236Y839D01*
X247Y839D02*
X250Y839D01*
X261Y839D02*
X264Y839D01*
X362Y839D02*
X364Y839D01*
X373Y839D02*
X380Y839D01*
X0Y838D02*
X3Y838D01*
X91Y838D02*
X93Y838D01*
X147Y838D02*
X149Y838D01*
X172Y838D02*
X174Y838D01*
X235Y838D02*
X236Y838D01*
X247Y838D02*
X250Y838D01*
X261Y838D02*
X264Y838D01*
X362Y838D02*
X364Y838D01*
X373Y838D02*
X380Y838D01*
X0Y837D02*
X4Y837D01*
X91Y837D02*
X93Y837D01*
X147Y837D02*
X149Y837D01*
X172Y837D02*
X174Y837D01*
X235Y837D02*
X236Y837D01*
X247Y837D02*
X250Y837D01*
X261Y837D02*
X264Y837D01*
X362Y837D02*
X364Y837D01*
X373Y837D02*
X380Y837D01*
X0Y836D02*
X4Y836D01*
X91Y836D02*
X93Y836D01*
X147Y836D02*
X149Y836D01*
X172Y836D02*
X174Y836D01*
X235Y836D02*
X236Y836D01*
X247Y836D02*
X264Y836D01*
X362Y836D02*
X364Y836D01*
X373Y836D02*
X380Y836D01*
X0Y835D02*
X4Y835D01*
X91Y835D02*
X93Y835D01*
X147Y835D02*
X149Y835D01*
X172Y835D02*
X174Y835D01*
X235Y835D02*
X236Y835D01*
X247Y835D02*
X264Y835D01*
X362Y835D02*
X364Y835D01*
X373Y835D02*
X380Y835D01*
X0Y834D02*
X5Y834D01*
X91Y834D02*
X93Y834D01*
X147Y834D02*
X149Y834D01*
X172Y834D02*
X174Y834D01*
X235Y834D02*
X236Y834D01*
X248Y834D02*
X264Y834D01*
X362Y834D02*
X364Y834D01*
X373Y834D02*
X380Y834D01*
X0Y833D02*
X5Y833D01*
X91Y833D02*
X93Y833D01*
X147Y833D02*
X149Y833D01*
X172Y833D02*
X174Y833D01*
X235Y833D02*
X236Y833D01*
X248Y833D02*
X263Y833D01*
X362Y833D02*
X364Y833D01*
X373Y833D02*
X380Y833D01*
X0Y832D02*
X5Y832D01*
X91Y832D02*
X93Y832D01*
X147Y832D02*
X149Y832D01*
X172Y832D02*
X174Y832D01*
X235Y832D02*
X235Y832D01*
X250Y832D02*
X261Y832D01*
X362Y832D02*
X364Y832D01*
X373Y832D02*
X380Y832D01*
X0Y831D02*
X6Y831D01*
X91Y831D02*
X93Y831D01*
X147Y831D02*
X149Y831D01*
X172Y831D02*
X174Y831D01*
X362Y831D02*
X364Y831D01*
X373Y831D02*
X380Y831D01*
X0Y830D02*
X6Y830D01*
X91Y830D02*
X93Y830D01*
X147Y830D02*
X149Y830D01*
X172Y830D02*
X174Y830D01*
X362Y830D02*
X364Y830D01*
X373Y830D02*
X380Y830D01*
X0Y829D02*
X7Y829D01*
X91Y829D02*
X93Y829D01*
X147Y829D02*
X149Y829D01*
X172Y829D02*
X174Y829D01*
X362Y829D02*
X364Y829D01*
X373Y829D02*
X380Y829D01*
X0Y828D02*
X7Y828D01*
X91Y828D02*
X93Y828D01*
X147Y828D02*
X149Y828D01*
X172Y828D02*
X174Y828D01*
X362Y828D02*
X364Y828D01*
X373Y828D02*
X380Y828D01*
X0Y827D02*
X7Y827D01*
X81Y827D02*
X93Y827D01*
X147Y827D02*
X149Y827D01*
X172Y827D02*
X174Y827D01*
X362Y827D02*
X364Y827D01*
X373Y827D02*
X380Y827D01*
X0Y826D02*
X7Y826D01*
X79Y826D02*
X93Y826D01*
X147Y826D02*
X149Y826D01*
X172Y826D02*
X174Y826D01*
X362Y826D02*
X364Y826D01*
X373Y826D02*
X380Y826D01*
X0Y825D02*
X7Y825D01*
X79Y825D02*
X93Y825D01*
X147Y825D02*
X149Y825D01*
X172Y825D02*
X174Y825D01*
X362Y825D02*
X364Y825D01*
X373Y825D02*
X380Y825D01*
X0Y824D02*
X7Y824D01*
X79Y824D02*
X93Y824D01*
X147Y824D02*
X149Y824D01*
X172Y824D02*
X174Y824D01*
X362Y824D02*
X364Y824D01*
X373Y824D02*
X380Y824D01*
X0Y823D02*
X7Y823D01*
X81Y823D02*
X93Y823D01*
X147Y823D02*
X149Y823D01*
X172Y823D02*
X174Y823D01*
X362Y823D02*
X364Y823D01*
X373Y823D02*
X380Y823D01*
X0Y822D02*
X7Y822D01*
X90Y822D02*
X93Y822D01*
X147Y822D02*
X149Y822D01*
X172Y822D02*
X174Y822D01*
X362Y822D02*
X364Y822D01*
X373Y822D02*
X380Y822D01*
X0Y821D02*
X7Y821D01*
X90Y821D02*
X93Y821D01*
X147Y821D02*
X149Y821D01*
X172Y821D02*
X174Y821D01*
X362Y821D02*
X364Y821D01*
X373Y821D02*
X380Y821D01*
X0Y820D02*
X7Y820D01*
X90Y820D02*
X93Y820D01*
X147Y820D02*
X149Y820D01*
X172Y820D02*
X174Y820D01*
X362Y820D02*
X364Y820D01*
X373Y820D02*
X380Y820D01*
X0Y819D02*
X7Y819D01*
X89Y819D02*
X93Y819D01*
X147Y819D02*
X149Y819D01*
X172Y819D02*
X174Y819D01*
X362Y819D02*
X364Y819D01*
X373Y819D02*
X380Y819D01*
X0Y818D02*
X7Y818D01*
X69Y818D02*
X93Y818D01*
X147Y818D02*
X149Y818D01*
X172Y818D02*
X174Y818D01*
X362Y818D02*
X364Y818D01*
X373Y818D02*
X380Y818D01*
X0Y817D02*
X7Y817D01*
X68Y817D02*
X94Y817D01*
X146Y817D02*
X149Y817D01*
X172Y817D02*
X174Y817D01*
X362Y817D02*
X364Y817D01*
X373Y817D02*
X380Y817D01*
X0Y816D02*
X7Y816D01*
X67Y816D02*
X94Y816D01*
X146Y816D02*
X149Y816D01*
X172Y816D02*
X174Y816D01*
X362Y816D02*
X364Y816D01*
X373Y816D02*
X380Y816D01*
X0Y815D02*
X7Y815D01*
X65Y815D02*
X94Y815D01*
X146Y815D02*
X149Y815D01*
X172Y815D02*
X174Y815D01*
X362Y815D02*
X364Y815D01*
X373Y815D02*
X380Y815D01*
X0Y814D02*
X7Y814D01*
X64Y814D02*
X65Y814D01*
X90Y814D02*
X94Y814D01*
X146Y814D02*
X149Y814D01*
X172Y814D02*
X174Y814D01*
X362Y814D02*
X364Y814D01*
X373Y814D02*
X380Y814D01*
X0Y813D02*
X7Y813D01*
X62Y813D02*
X65Y813D01*
X90Y813D02*
X94Y813D01*
X146Y813D02*
X149Y813D01*
X172Y813D02*
X174Y813D01*
X362Y813D02*
X364Y813D01*
X373Y813D02*
X380Y813D01*
X0Y812D02*
X7Y812D01*
X61Y812D02*
X65Y812D01*
X90Y812D02*
X94Y812D01*
X146Y812D02*
X149Y812D01*
X172Y812D02*
X174Y812D01*
X362Y812D02*
X364Y812D01*
X373Y812D02*
X380Y812D01*
X0Y811D02*
X7Y811D01*
X61Y811D02*
X65Y811D01*
X90Y811D02*
X94Y811D01*
X146Y811D02*
X149Y811D01*
X172Y811D02*
X174Y811D01*
X362Y811D02*
X364Y811D01*
X373Y811D02*
X380Y811D01*
X0Y810D02*
X7Y810D01*
X61Y810D02*
X65Y810D01*
X90Y810D02*
X94Y810D01*
X146Y810D02*
X149Y810D01*
X172Y810D02*
X174Y810D01*
X362Y810D02*
X364Y810D01*
X373Y810D02*
X380Y810D01*
X0Y809D02*
X7Y809D01*
X61Y809D02*
X65Y809D01*
X90Y809D02*
X94Y809D01*
X146Y809D02*
X149Y809D01*
X172Y809D02*
X174Y809D01*
X362Y809D02*
X364Y809D01*
X373Y809D02*
X380Y809D01*
X0Y808D02*
X7Y808D01*
X19Y808D02*
X20Y808D01*
X33Y808D02*
X34Y808D01*
X49Y808D02*
X49Y808D01*
X62Y808D02*
X65Y808D01*
X90Y808D02*
X93Y808D01*
X147Y808D02*
X149Y808D01*
X172Y808D02*
X174Y808D01*
X362Y808D02*
X364Y808D01*
X373Y808D02*
X380Y808D01*
X0Y807D02*
X7Y807D01*
X18Y807D02*
X21Y807D01*
X33Y807D02*
X51Y807D01*
X62Y807D02*
X64Y807D01*
X90Y807D02*
X93Y807D01*
X147Y807D02*
X149Y807D01*
X172Y807D02*
X174Y807D01*
X362Y807D02*
X364Y807D01*
X373Y807D02*
X380Y807D01*
X0Y806D02*
X7Y806D01*
X18Y806D02*
X21Y806D01*
X33Y806D02*
X52Y806D01*
X91Y806D02*
X93Y806D01*
X147Y806D02*
X149Y806D01*
X172Y806D02*
X174Y806D01*
X362Y806D02*
X364Y806D01*
X373Y806D02*
X380Y806D01*
X0Y805D02*
X7Y805D01*
X18Y805D02*
X21Y805D01*
X33Y805D02*
X52Y805D01*
X91Y805D02*
X93Y805D01*
X147Y805D02*
X149Y805D01*
X172Y805D02*
X174Y805D01*
X362Y805D02*
X364Y805D01*
X373Y805D02*
X380Y805D01*
X0Y804D02*
X7Y804D01*
X18Y804D02*
X21Y804D01*
X33Y804D02*
X37Y804D01*
X49Y804D02*
X53Y804D01*
X91Y804D02*
X93Y804D01*
X147Y804D02*
X149Y804D01*
X172Y804D02*
X174Y804D01*
X362Y804D02*
X364Y804D01*
X373Y804D02*
X380Y804D01*
X0Y803D02*
X7Y803D01*
X18Y803D02*
X21Y803D01*
X33Y803D02*
X37Y803D01*
X50Y803D02*
X53Y803D01*
X91Y803D02*
X93Y803D01*
X147Y803D02*
X149Y803D01*
X172Y803D02*
X174Y803D01*
X362Y803D02*
X364Y803D01*
X373Y803D02*
X380Y803D01*
X0Y802D02*
X7Y802D01*
X18Y802D02*
X21Y802D01*
X33Y802D02*
X37Y802D01*
X50Y802D02*
X53Y802D01*
X91Y802D02*
X93Y802D01*
X147Y802D02*
X149Y802D01*
X172Y802D02*
X174Y802D01*
X235Y802D02*
X302Y802D01*
X362Y802D02*
X364Y802D01*
X373Y802D02*
X380Y802D01*
X0Y801D02*
X7Y801D01*
X18Y801D02*
X21Y801D01*
X33Y801D02*
X37Y801D01*
X50Y801D02*
X53Y801D01*
X91Y801D02*
X93Y801D01*
X147Y801D02*
X149Y801D01*
X172Y801D02*
X364Y801D01*
X373Y801D02*
X380Y801D01*
X0Y800D02*
X7Y800D01*
X18Y800D02*
X21Y800D01*
X33Y800D02*
X37Y800D01*
X50Y800D02*
X53Y800D01*
X91Y800D02*
X93Y800D01*
X147Y800D02*
X149Y800D01*
X172Y800D02*
X364Y800D01*
X373Y800D02*
X380Y800D01*
X0Y799D02*
X7Y799D01*
X18Y799D02*
X21Y799D01*
X33Y799D02*
X37Y799D01*
X50Y799D02*
X53Y799D01*
X91Y799D02*
X93Y799D01*
X147Y799D02*
X149Y799D01*
X172Y799D02*
X364Y799D01*
X373Y799D02*
X380Y799D01*
X0Y798D02*
X7Y798D01*
X18Y798D02*
X21Y798D01*
X33Y798D02*
X37Y798D01*
X50Y798D02*
X53Y798D01*
X91Y798D02*
X93Y798D01*
X147Y798D02*
X149Y798D01*
X172Y798D02*
X174Y798D01*
X234Y798D02*
X302Y798D01*
X362Y798D02*
X364Y798D01*
X373Y798D02*
X380Y798D01*
X0Y797D02*
X7Y797D01*
X18Y797D02*
X21Y797D01*
X33Y797D02*
X37Y797D01*
X50Y797D02*
X53Y797D01*
X66Y797D02*
X70Y797D01*
X91Y797D02*
X93Y797D01*
X147Y797D02*
X149Y797D01*
X172Y797D02*
X174Y797D01*
X362Y797D02*
X364Y797D01*
X373Y797D02*
X380Y797D01*
X0Y796D02*
X7Y796D01*
X18Y796D02*
X21Y796D01*
X33Y796D02*
X37Y796D01*
X50Y796D02*
X53Y796D01*
X64Y796D02*
X72Y796D01*
X89Y796D02*
X93Y796D01*
X147Y796D02*
X149Y796D01*
X172Y796D02*
X174Y796D01*
X362Y796D02*
X364Y796D01*
X373Y796D02*
X380Y796D01*
X0Y795D02*
X7Y795D01*
X18Y795D02*
X21Y795D01*
X33Y795D02*
X37Y795D01*
X50Y795D02*
X53Y795D01*
X63Y795D02*
X74Y795D01*
X88Y795D02*
X93Y795D01*
X147Y795D02*
X149Y795D01*
X172Y795D02*
X174Y795D01*
X362Y795D02*
X364Y795D01*
X373Y795D02*
X380Y795D01*
X0Y794D02*
X7Y794D01*
X18Y794D02*
X21Y794D01*
X33Y794D02*
X37Y794D01*
X50Y794D02*
X53Y794D01*
X62Y794D02*
X74Y794D01*
X86Y794D02*
X93Y794D01*
X147Y794D02*
X149Y794D01*
X172Y794D02*
X174Y794D01*
X277Y794D02*
X279Y794D01*
X362Y794D02*
X364Y794D01*
X373Y794D02*
X380Y794D01*
X0Y793D02*
X7Y793D01*
X18Y793D02*
X21Y793D01*
X33Y793D02*
X37Y793D01*
X49Y793D02*
X53Y793D01*
X62Y793D02*
X75Y793D01*
X84Y793D02*
X93Y793D01*
X147Y793D02*
X149Y793D01*
X172Y793D02*
X174Y793D01*
X238Y793D02*
X245Y793D01*
X261Y793D02*
X267Y793D01*
X277Y793D02*
X280Y793D01*
X362Y793D02*
X364Y793D01*
X373Y793D02*
X380Y793D01*
X0Y792D02*
X7Y792D01*
X18Y792D02*
X21Y792D01*
X33Y792D02*
X52Y792D01*
X62Y792D02*
X65Y792D01*
X72Y792D02*
X75Y792D01*
X82Y792D02*
X93Y792D01*
X147Y792D02*
X149Y792D01*
X172Y792D02*
X174Y792D01*
X238Y792D02*
X245Y792D01*
X261Y792D02*
X267Y792D01*
X277Y792D02*
X280Y792D01*
X362Y792D02*
X364Y792D01*
X373Y792D02*
X380Y792D01*
X0Y791D02*
X7Y791D01*
X18Y791D02*
X21Y791D01*
X33Y791D02*
X52Y791D01*
X62Y791D02*
X65Y791D01*
X72Y791D02*
X75Y791D01*
X81Y791D02*
X88Y791D01*
X91Y791D02*
X93Y791D01*
X147Y791D02*
X149Y791D01*
X172Y791D02*
X174Y791D01*
X238Y791D02*
X245Y791D01*
X261Y791D02*
X267Y791D01*
X277Y791D02*
X280Y791D01*
X362Y791D02*
X364Y791D01*
X373Y791D02*
X380Y791D01*
X0Y790D02*
X8Y790D01*
X18Y790D02*
X21Y790D01*
X33Y790D02*
X51Y790D01*
X61Y790D02*
X65Y790D01*
X72Y790D02*
X75Y790D01*
X79Y790D02*
X86Y790D01*
X91Y790D02*
X93Y790D01*
X147Y790D02*
X149Y790D01*
X172Y790D02*
X174Y790D01*
X238Y790D02*
X245Y790D01*
X261Y790D02*
X267Y790D01*
X277Y790D02*
X302Y790D01*
X362Y790D02*
X364Y790D01*
X373Y790D02*
X380Y790D01*
X0Y789D02*
X9Y789D01*
X18Y789D02*
X21Y789D01*
X33Y789D02*
X49Y789D01*
X61Y789D02*
X65Y789D01*
X72Y789D02*
X75Y789D01*
X77Y789D02*
X85Y789D01*
X91Y789D02*
X93Y789D01*
X147Y789D02*
X149Y789D01*
X172Y789D02*
X174Y789D01*
X238Y789D02*
X245Y789D01*
X261Y789D02*
X267Y789D01*
X277Y789D02*
X302Y789D01*
X362Y789D02*
X364Y789D01*
X373Y789D02*
X380Y789D01*
X0Y788D02*
X9Y788D01*
X18Y788D02*
X21Y788D01*
X33Y788D02*
X37Y788D01*
X61Y788D02*
X65Y788D01*
X72Y788D02*
X83Y788D01*
X91Y788D02*
X93Y788D01*
X147Y788D02*
X149Y788D01*
X172Y788D02*
X174Y788D01*
X238Y788D02*
X245Y788D01*
X261Y788D02*
X267Y788D01*
X277Y788D02*
X302Y788D01*
X362Y788D02*
X364Y788D01*
X373Y788D02*
X380Y788D01*
X0Y787D02*
X9Y787D01*
X18Y787D02*
X21Y787D01*
X33Y787D02*
X37Y787D01*
X61Y787D02*
X65Y787D01*
X72Y787D02*
X81Y787D01*
X91Y787D02*
X93Y787D01*
X147Y787D02*
X149Y787D01*
X172Y787D02*
X174Y787D01*
X238Y787D02*
X245Y787D01*
X261Y787D02*
X267Y787D01*
X277Y787D02*
X302Y787D01*
X362Y787D02*
X364Y787D01*
X373Y787D02*
X380Y787D01*
X0Y786D02*
X9Y786D01*
X18Y786D02*
X21Y786D01*
X33Y786D02*
X37Y786D01*
X61Y786D02*
X65Y786D01*
X72Y786D02*
X80Y786D01*
X91Y786D02*
X93Y786D01*
X147Y786D02*
X149Y786D01*
X172Y786D02*
X174Y786D01*
X238Y786D02*
X245Y786D01*
X261Y786D02*
X267Y786D01*
X277Y786D02*
X280Y786D01*
X362Y786D02*
X364Y786D01*
X373Y786D02*
X380Y786D01*
X0Y785D02*
X9Y785D01*
X18Y785D02*
X21Y785D01*
X33Y785D02*
X37Y785D01*
X61Y785D02*
X65Y785D01*
X72Y785D02*
X78Y785D01*
X91Y785D02*
X93Y785D01*
X147Y785D02*
X149Y785D01*
X172Y785D02*
X174Y785D01*
X238Y785D02*
X245Y785D01*
X261Y785D02*
X267Y785D01*
X277Y785D02*
X280Y785D01*
X362Y785D02*
X364Y785D01*
X373Y785D02*
X380Y785D01*
X0Y784D02*
X9Y784D01*
X18Y784D02*
X21Y784D01*
X33Y784D02*
X33Y784D01*
X61Y784D02*
X65Y784D01*
X72Y784D02*
X76Y784D01*
X91Y784D02*
X93Y784D01*
X147Y784D02*
X149Y784D01*
X172Y784D02*
X174Y784D01*
X238Y784D02*
X245Y784D01*
X261Y784D02*
X267Y784D01*
X277Y784D02*
X280Y784D01*
X362Y784D02*
X364Y784D01*
X373Y784D02*
X380Y784D01*
X0Y783D02*
X9Y783D01*
X18Y783D02*
X21Y783D01*
X61Y783D02*
X65Y783D01*
X72Y783D02*
X75Y783D01*
X91Y783D02*
X93Y783D01*
X147Y783D02*
X149Y783D01*
X172Y783D02*
X174Y783D01*
X238Y783D02*
X245Y783D01*
X261Y783D02*
X267Y783D01*
X277Y783D02*
X282Y783D01*
X362Y783D02*
X364Y783D01*
X373Y783D02*
X380Y783D01*
X0Y782D02*
X9Y782D01*
X18Y782D02*
X21Y782D01*
X61Y782D02*
X65Y782D01*
X72Y782D02*
X75Y782D01*
X91Y782D02*
X93Y782D01*
X147Y782D02*
X149Y782D01*
X172Y782D02*
X174Y782D01*
X238Y782D02*
X245Y782D01*
X261Y782D02*
X267Y782D01*
X277Y782D02*
X284Y782D01*
X301Y782D02*
X302Y782D01*
X362Y782D02*
X364Y782D01*
X373Y782D02*
X380Y782D01*
X0Y781D02*
X9Y781D01*
X17Y781D02*
X21Y781D01*
X61Y781D02*
X65Y781D01*
X72Y781D02*
X75Y781D01*
X91Y781D02*
X93Y781D01*
X147Y781D02*
X149Y781D01*
X172Y781D02*
X174Y781D01*
X238Y781D02*
X245Y781D01*
X261Y781D02*
X267Y781D01*
X278Y781D02*
X286Y781D01*
X299Y781D02*
X302Y781D01*
X362Y781D02*
X364Y781D01*
X373Y781D02*
X380Y781D01*
X0Y780D02*
X21Y780D01*
X61Y780D02*
X93Y780D01*
X147Y780D02*
X149Y780D01*
X172Y780D02*
X174Y780D01*
X238Y780D02*
X245Y780D01*
X261Y780D02*
X267Y780D01*
X279Y780D02*
X288Y780D01*
X297Y780D02*
X302Y780D01*
X362Y780D02*
X364Y780D01*
X373Y780D02*
X380Y780D01*
X0Y779D02*
X20Y779D01*
X63Y779D02*
X93Y779D01*
X147Y779D02*
X149Y779D01*
X172Y779D02*
X174Y779D01*
X238Y779D02*
X245Y779D01*
X261Y779D02*
X267Y779D01*
X281Y779D02*
X290Y779D01*
X295Y779D02*
X302Y779D01*
X362Y779D02*
X364Y779D01*
X373Y779D02*
X380Y779D01*
X0Y778D02*
X19Y778D01*
X64Y778D02*
X93Y778D01*
X147Y778D02*
X149Y778D01*
X172Y778D02*
X174Y778D01*
X238Y778D02*
X245Y778D01*
X263Y778D02*
X267Y778D01*
X283Y778D02*
X301Y778D01*
X362Y778D02*
X364Y778D01*
X373Y778D02*
X380Y778D01*
X0Y777D02*
X7Y777D01*
X9Y777D02*
X18Y777D01*
X65Y777D02*
X93Y777D01*
X147Y777D02*
X149Y777D01*
X172Y777D02*
X174Y777D01*
X238Y777D02*
X245Y777D01*
X285Y777D02*
X299Y777D01*
X362Y777D02*
X364Y777D01*
X373Y777D02*
X380Y777D01*
X0Y776D02*
X7Y776D01*
X11Y776D02*
X15Y776D01*
X91Y776D02*
X93Y776D01*
X147Y776D02*
X149Y776D01*
X172Y776D02*
X174Y776D01*
X238Y776D02*
X245Y776D01*
X287Y776D02*
X297Y776D01*
X362Y776D02*
X364Y776D01*
X373Y776D02*
X380Y776D01*
X0Y775D02*
X7Y775D01*
X91Y775D02*
X93Y775D01*
X147Y775D02*
X149Y775D01*
X172Y775D02*
X174Y775D01*
X238Y775D02*
X245Y775D01*
X289Y775D02*
X295Y775D01*
X362Y775D02*
X364Y775D01*
X373Y775D02*
X380Y775D01*
X0Y774D02*
X7Y774D01*
X91Y774D02*
X93Y774D01*
X147Y774D02*
X149Y774D01*
X172Y774D02*
X174Y774D01*
X238Y774D02*
X245Y774D01*
X362Y774D02*
X364Y774D01*
X373Y774D02*
X380Y774D01*
X0Y773D02*
X7Y773D01*
X91Y773D02*
X93Y773D01*
X147Y773D02*
X149Y773D01*
X172Y773D02*
X174Y773D01*
X238Y773D02*
X245Y773D01*
X362Y773D02*
X364Y773D01*
X373Y773D02*
X380Y773D01*
X0Y772D02*
X7Y772D01*
X91Y772D02*
X93Y772D01*
X147Y772D02*
X149Y772D01*
X172Y772D02*
X174Y772D01*
X238Y772D02*
X245Y772D01*
X362Y772D02*
X364Y772D01*
X373Y772D02*
X380Y772D01*
X0Y771D02*
X7Y771D01*
X91Y771D02*
X93Y771D01*
X147Y771D02*
X149Y771D01*
X172Y771D02*
X174Y771D01*
X238Y771D02*
X244Y771D01*
X362Y771D02*
X364Y771D01*
X373Y771D02*
X380Y771D01*
X0Y770D02*
X7Y770D01*
X91Y770D02*
X93Y770D01*
X147Y770D02*
X149Y770D01*
X172Y770D02*
X174Y770D01*
X238Y770D02*
X243Y770D01*
X362Y770D02*
X364Y770D01*
X373Y770D02*
X380Y770D01*
X0Y769D02*
X7Y769D01*
X91Y769D02*
X93Y769D01*
X147Y769D02*
X149Y769D01*
X172Y769D02*
X174Y769D01*
X238Y769D02*
X242Y769D01*
X362Y769D02*
X364Y769D01*
X373Y769D02*
X380Y769D01*
X0Y768D02*
X7Y768D01*
X91Y768D02*
X93Y768D01*
X147Y768D02*
X149Y768D01*
X172Y768D02*
X174Y768D01*
X238Y768D02*
X241Y768D01*
X362Y768D02*
X364Y768D01*
X373Y768D02*
X380Y768D01*
X0Y767D02*
X7Y767D01*
X91Y767D02*
X93Y767D01*
X147Y767D02*
X149Y767D01*
X172Y767D02*
X174Y767D01*
X238Y767D02*
X241Y767D01*
X362Y767D02*
X364Y767D01*
X373Y767D02*
X380Y767D01*
X0Y766D02*
X7Y766D01*
X91Y766D02*
X93Y766D01*
X147Y766D02*
X149Y766D01*
X172Y766D02*
X174Y766D01*
X238Y766D02*
X240Y766D01*
X362Y766D02*
X364Y766D01*
X373Y766D02*
X380Y766D01*
X0Y765D02*
X7Y765D01*
X91Y765D02*
X93Y765D01*
X147Y765D02*
X149Y765D01*
X172Y765D02*
X174Y765D01*
X238Y765D02*
X240Y765D01*
X362Y765D02*
X364Y765D01*
X373Y765D02*
X380Y765D01*
X0Y764D02*
X7Y764D01*
X91Y764D02*
X93Y764D01*
X147Y764D02*
X149Y764D01*
X172Y764D02*
X174Y764D01*
X238Y764D02*
X239Y764D01*
X362Y764D02*
X364Y764D01*
X373Y764D02*
X380Y764D01*
X0Y763D02*
X6Y763D01*
X91Y763D02*
X93Y763D01*
X147Y763D02*
X149Y763D01*
X172Y763D02*
X174Y763D01*
X238Y763D02*
X239Y763D01*
X362Y763D02*
X364Y763D01*
X373Y763D02*
X380Y763D01*
X0Y762D02*
X6Y762D01*
X91Y762D02*
X93Y762D01*
X147Y762D02*
X149Y762D01*
X172Y762D02*
X174Y762D01*
X238Y762D02*
X238Y762D01*
X362Y762D02*
X364Y762D01*
X373Y762D02*
X380Y762D01*
X0Y761D02*
X6Y761D01*
X91Y761D02*
X93Y761D01*
X147Y761D02*
X149Y761D01*
X172Y761D02*
X174Y761D01*
X238Y761D02*
X238Y761D01*
X362Y761D02*
X364Y761D01*
X373Y761D02*
X380Y761D01*
X0Y760D02*
X5Y760D01*
X91Y760D02*
X93Y760D01*
X147Y760D02*
X149Y760D01*
X172Y760D02*
X174Y760D01*
X238Y760D02*
X238Y760D01*
X362Y760D02*
X364Y760D01*
X373Y760D02*
X380Y760D01*
X0Y759D02*
X5Y759D01*
X91Y759D02*
X93Y759D01*
X147Y759D02*
X149Y759D01*
X172Y759D02*
X174Y759D01*
X362Y759D02*
X364Y759D01*
X373Y759D02*
X380Y759D01*
X0Y758D02*
X4Y758D01*
X91Y758D02*
X93Y758D01*
X147Y758D02*
X149Y758D01*
X172Y758D02*
X174Y758D01*
X362Y758D02*
X364Y758D01*
X373Y758D02*
X380Y758D01*
X0Y757D02*
X4Y757D01*
X91Y757D02*
X93Y757D01*
X147Y757D02*
X149Y757D01*
X172Y757D02*
X174Y757D01*
X362Y757D02*
X364Y757D01*
X373Y757D02*
X380Y757D01*
X0Y756D02*
X4Y756D01*
X91Y756D02*
X93Y756D01*
X147Y756D02*
X149Y756D01*
X172Y756D02*
X174Y756D01*
X286Y756D02*
X302Y756D01*
X362Y756D02*
X364Y756D01*
X373Y756D02*
X380Y756D01*
X0Y755D02*
X4Y755D01*
X91Y755D02*
X93Y755D01*
X147Y755D02*
X149Y755D01*
X172Y755D02*
X174Y755D01*
X286Y755D02*
X302Y755D01*
X362Y755D02*
X364Y755D01*
X373Y755D02*
X380Y755D01*
X0Y754D02*
X3Y754D01*
X91Y754D02*
X93Y754D01*
X147Y754D02*
X149Y754D01*
X172Y754D02*
X174Y754D01*
X287Y754D02*
X302Y754D01*
X362Y754D02*
X364Y754D01*
X373Y754D02*
X380Y754D01*
X0Y753D02*
X3Y753D01*
X91Y753D02*
X93Y753D01*
X147Y753D02*
X149Y753D01*
X172Y753D02*
X174Y753D01*
X287Y753D02*
X302Y753D01*
X362Y753D02*
X364Y753D01*
X373Y753D02*
X380Y753D01*
X0Y752D02*
X3Y752D01*
X91Y752D02*
X93Y752D01*
X147Y752D02*
X149Y752D01*
X172Y752D02*
X174Y752D01*
X362Y752D02*
X364Y752D01*
X373Y752D02*
X380Y752D01*
X0Y751D02*
X3Y751D01*
X91Y751D02*
X93Y751D01*
X147Y751D02*
X149Y751D01*
X172Y751D02*
X174Y751D01*
X362Y751D02*
X364Y751D01*
X373Y751D02*
X380Y751D01*
X0Y750D02*
X3Y750D01*
X91Y750D02*
X149Y750D01*
X172Y750D02*
X174Y750D01*
X362Y750D02*
X364Y750D01*
X373Y750D02*
X380Y750D01*
X0Y749D02*
X3Y749D01*
X91Y749D02*
X149Y749D01*
X172Y749D02*
X174Y749D01*
X362Y749D02*
X364Y749D01*
X373Y749D02*
X380Y749D01*
X0Y748D02*
X3Y748D01*
X172Y748D02*
X174Y748D01*
X286Y748D02*
X290Y748D01*
X362Y748D02*
X364Y748D01*
X373Y748D02*
X380Y748D01*
X0Y747D02*
X3Y747D01*
X172Y747D02*
X174Y747D01*
X285Y747D02*
X290Y747D01*
X362Y747D02*
X364Y747D01*
X373Y747D02*
X380Y747D01*
X0Y746D02*
X3Y746D01*
X172Y746D02*
X174Y746D01*
X238Y746D02*
X238Y746D01*
X285Y746D02*
X290Y746D01*
X362Y746D02*
X364Y746D01*
X373Y746D02*
X380Y746D01*
X0Y745D02*
X3Y745D01*
X172Y745D02*
X174Y745D01*
X238Y745D02*
X238Y745D01*
X285Y745D02*
X290Y745D01*
X362Y745D02*
X364Y745D01*
X373Y745D02*
X380Y745D01*
X0Y744D02*
X3Y744D01*
X172Y744D02*
X174Y744D01*
X238Y744D02*
X238Y744D01*
X362Y744D02*
X364Y744D01*
X373Y744D02*
X380Y744D01*
X0Y743D02*
X3Y743D01*
X172Y743D02*
X174Y743D01*
X238Y743D02*
X239Y743D01*
X362Y743D02*
X364Y743D01*
X373Y743D02*
X380Y743D01*
X0Y742D02*
X3Y742D01*
X172Y742D02*
X174Y742D01*
X238Y742D02*
X239Y742D01*
X362Y742D02*
X364Y742D01*
X373Y742D02*
X380Y742D01*
X0Y741D02*
X3Y741D01*
X172Y741D02*
X174Y741D01*
X238Y741D02*
X240Y741D01*
X362Y741D02*
X364Y741D01*
X373Y741D02*
X380Y741D01*
X0Y740D02*
X3Y740D01*
X172Y740D02*
X174Y740D01*
X238Y740D02*
X241Y740D01*
X362Y740D02*
X364Y740D01*
X373Y740D02*
X380Y740D01*
X0Y739D02*
X3Y739D01*
X172Y739D02*
X174Y739D01*
X238Y739D02*
X241Y739D01*
X362Y739D02*
X364Y739D01*
X373Y739D02*
X380Y739D01*
X0Y738D02*
X4Y738D01*
X172Y738D02*
X174Y738D01*
X238Y738D02*
X242Y738D01*
X362Y738D02*
X364Y738D01*
X373Y738D02*
X380Y738D01*
X0Y737D02*
X4Y737D01*
X172Y737D02*
X174Y737D01*
X238Y737D02*
X243Y737D01*
X362Y737D02*
X364Y737D01*
X373Y737D02*
X380Y737D01*
X0Y736D02*
X4Y736D01*
X172Y736D02*
X174Y736D01*
X238Y736D02*
X244Y736D01*
X362Y736D02*
X364Y736D01*
X373Y736D02*
X380Y736D01*
X0Y735D02*
X4Y735D01*
X172Y735D02*
X174Y735D01*
X238Y735D02*
X245Y735D01*
X362Y735D02*
X364Y735D01*
X373Y735D02*
X380Y735D01*
X0Y734D02*
X5Y734D01*
X172Y734D02*
X174Y734D01*
X238Y734D02*
X245Y734D01*
X362Y734D02*
X364Y734D01*
X373Y734D02*
X380Y734D01*
X0Y733D02*
X5Y733D01*
X172Y733D02*
X174Y733D01*
X238Y733D02*
X245Y733D01*
X362Y733D02*
X364Y733D01*
X373Y733D02*
X380Y733D01*
X0Y732D02*
X5Y732D01*
X172Y732D02*
X174Y732D01*
X238Y732D02*
X245Y732D01*
X362Y732D02*
X364Y732D01*
X373Y732D02*
X380Y732D01*
X0Y731D02*
X6Y731D01*
X172Y731D02*
X174Y731D01*
X238Y731D02*
X245Y731D01*
X362Y731D02*
X364Y731D01*
X373Y731D02*
X380Y731D01*
X0Y730D02*
X6Y730D01*
X172Y730D02*
X174Y730D01*
X238Y730D02*
X245Y730D01*
X362Y730D02*
X364Y730D01*
X373Y730D02*
X380Y730D01*
X0Y729D02*
X7Y729D01*
X172Y729D02*
X174Y729D01*
X238Y729D02*
X245Y729D01*
X265Y729D02*
X267Y729D01*
X362Y729D02*
X364Y729D01*
X373Y729D02*
X380Y729D01*
X0Y728D02*
X7Y728D01*
X172Y728D02*
X174Y728D01*
X238Y728D02*
X245Y728D01*
X261Y728D02*
X267Y728D01*
X362Y728D02*
X364Y728D01*
X373Y728D02*
X380Y728D01*
X0Y727D02*
X7Y727D01*
X172Y727D02*
X174Y727D01*
X238Y727D02*
X245Y727D01*
X261Y727D02*
X267Y727D01*
X362Y727D02*
X364Y727D01*
X373Y727D02*
X380Y727D01*
X0Y726D02*
X7Y726D01*
X172Y726D02*
X174Y726D01*
X238Y726D02*
X245Y726D01*
X261Y726D02*
X267Y726D01*
X362Y726D02*
X364Y726D01*
X373Y726D02*
X380Y726D01*
X0Y725D02*
X7Y725D01*
X172Y725D02*
X174Y725D01*
X238Y725D02*
X245Y725D01*
X261Y725D02*
X267Y725D01*
X362Y725D02*
X364Y725D01*
X373Y725D02*
X380Y725D01*
X0Y724D02*
X7Y724D01*
X172Y724D02*
X174Y724D01*
X238Y724D02*
X245Y724D01*
X261Y724D02*
X267Y724D01*
X362Y724D02*
X364Y724D01*
X373Y724D02*
X380Y724D01*
X0Y723D02*
X7Y723D01*
X172Y723D02*
X174Y723D01*
X238Y723D02*
X245Y723D01*
X261Y723D02*
X267Y723D01*
X362Y723D02*
X364Y723D01*
X373Y723D02*
X380Y723D01*
X0Y722D02*
X7Y722D01*
X172Y722D02*
X174Y722D01*
X238Y722D02*
X245Y722D01*
X261Y722D02*
X267Y722D01*
X362Y722D02*
X364Y722D01*
X373Y722D02*
X380Y722D01*
X0Y721D02*
X7Y721D01*
X172Y721D02*
X174Y721D01*
X238Y721D02*
X245Y721D01*
X261Y721D02*
X267Y721D01*
X362Y721D02*
X364Y721D01*
X373Y721D02*
X380Y721D01*
X0Y720D02*
X7Y720D01*
X172Y720D02*
X174Y720D01*
X238Y720D02*
X245Y720D01*
X261Y720D02*
X267Y720D01*
X362Y720D02*
X364Y720D01*
X373Y720D02*
X380Y720D01*
X0Y719D02*
X7Y719D01*
X172Y719D02*
X174Y719D01*
X238Y719D02*
X245Y719D01*
X261Y719D02*
X267Y719D01*
X362Y719D02*
X364Y719D01*
X373Y719D02*
X380Y719D01*
X0Y718D02*
X7Y718D01*
X172Y718D02*
X174Y718D01*
X238Y718D02*
X245Y718D01*
X261Y718D02*
X267Y718D01*
X362Y718D02*
X364Y718D01*
X373Y718D02*
X380Y718D01*
X0Y717D02*
X7Y717D01*
X172Y717D02*
X174Y717D01*
X238Y717D02*
X245Y717D01*
X261Y717D02*
X267Y717D01*
X362Y717D02*
X364Y717D01*
X373Y717D02*
X380Y717D01*
X0Y716D02*
X7Y716D01*
X172Y716D02*
X174Y716D01*
X238Y716D02*
X245Y716D01*
X261Y716D02*
X267Y716D01*
X362Y716D02*
X364Y716D01*
X373Y716D02*
X380Y716D01*
X0Y715D02*
X7Y715D01*
X172Y715D02*
X174Y715D01*
X362Y715D02*
X364Y715D01*
X373Y715D02*
X380Y715D01*
X0Y714D02*
X7Y714D01*
X172Y714D02*
X174Y714D01*
X362Y714D02*
X364Y714D01*
X373Y714D02*
X380Y714D01*
X0Y713D02*
X7Y713D01*
X172Y713D02*
X174Y713D01*
X362Y713D02*
X364Y713D01*
X373Y713D02*
X380Y713D01*
X0Y712D02*
X7Y712D01*
X172Y712D02*
X174Y712D01*
X362Y712D02*
X364Y712D01*
X373Y712D02*
X380Y712D01*
X0Y711D02*
X7Y711D01*
X172Y711D02*
X174Y711D01*
X362Y711D02*
X364Y711D01*
X373Y711D02*
X380Y711D01*
X0Y710D02*
X7Y710D01*
X172Y710D02*
X175Y710D01*
X235Y710D02*
X292Y710D01*
X361Y710D02*
X364Y710D01*
X373Y710D02*
X380Y710D01*
X0Y709D02*
X7Y709D01*
X172Y709D02*
X175Y709D01*
X234Y709D02*
X292Y709D01*
X361Y709D02*
X364Y709D01*
X373Y709D02*
X380Y709D01*
X0Y708D02*
X7Y708D01*
X172Y708D02*
X364Y708D01*
X373Y708D02*
X380Y708D01*
X0Y707D02*
X7Y707D01*
X172Y707D02*
X236Y707D01*
X290Y707D02*
X364Y707D01*
X373Y707D02*
X380Y707D01*
X0Y706D02*
X7Y706D01*
X172Y706D02*
X236Y706D01*
X290Y706D02*
X325Y706D01*
X340Y706D02*
X364Y706D01*
X373Y706D02*
X380Y706D01*
X0Y705D02*
X7Y705D01*
X234Y705D02*
X236Y705D01*
X290Y705D02*
X292Y705D01*
X373Y705D02*
X380Y705D01*
X0Y704D02*
X7Y704D01*
X27Y704D02*
X35Y704D01*
X49Y704D02*
X55Y704D01*
X234Y704D02*
X236Y704D01*
X290Y704D02*
X292Y704D01*
X373Y704D02*
X380Y704D01*
X0Y703D02*
X7Y703D01*
X27Y703D02*
X37Y703D01*
X48Y703D02*
X55Y703D01*
X234Y703D02*
X236Y703D01*
X290Y703D02*
X292Y703D01*
X373Y703D02*
X380Y703D01*
X0Y702D02*
X7Y702D01*
X27Y702D02*
X28Y702D01*
X35Y702D02*
X37Y702D01*
X47Y702D02*
X49Y702D01*
X234Y702D02*
X236Y702D01*
X290Y702D02*
X292Y702D01*
X373Y702D02*
X380Y702D01*
X0Y701D02*
X7Y701D01*
X27Y701D02*
X28Y701D01*
X36Y701D02*
X37Y701D01*
X46Y701D02*
X48Y701D01*
X234Y701D02*
X236Y701D01*
X290Y701D02*
X292Y701D01*
X373Y701D02*
X380Y701D01*
X0Y700D02*
X7Y700D01*
X27Y700D02*
X28Y700D01*
X36Y700D02*
X38Y700D01*
X46Y700D02*
X48Y700D01*
X195Y700D02*
X206Y700D01*
X218Y700D02*
X228Y700D01*
X234Y700D02*
X236Y700D01*
X290Y700D02*
X292Y700D01*
X373Y700D02*
X380Y700D01*
X0Y699D02*
X7Y699D01*
X27Y699D02*
X28Y699D01*
X36Y699D02*
X38Y699D01*
X45Y699D02*
X47Y699D01*
X194Y699D02*
X206Y699D01*
X217Y699D02*
X228Y699D01*
X234Y699D02*
X236Y699D01*
X290Y699D02*
X292Y699D01*
X373Y699D02*
X380Y699D01*
X0Y698D02*
X7Y698D01*
X27Y698D02*
X28Y698D01*
X36Y698D02*
X37Y698D01*
X44Y698D02*
X46Y698D01*
X193Y698D02*
X206Y698D01*
X217Y698D02*
X228Y698D01*
X234Y698D02*
X236Y698D01*
X290Y698D02*
X292Y698D01*
X373Y698D02*
X380Y698D01*
X0Y697D02*
X7Y697D01*
X27Y697D02*
X28Y697D01*
X35Y697D02*
X37Y697D01*
X44Y697D02*
X46Y697D01*
X192Y697D02*
X206Y697D01*
X217Y697D02*
X228Y697D01*
X234Y697D02*
X236Y697D01*
X290Y697D02*
X292Y697D01*
X373Y697D02*
X380Y697D01*
X0Y696D02*
X7Y696D01*
X27Y696D02*
X36Y696D01*
X44Y696D02*
X46Y696D01*
X192Y696D02*
X196Y696D01*
X225Y696D02*
X228Y696D01*
X234Y696D02*
X236Y696D01*
X290Y696D02*
X292Y696D01*
X373Y696D02*
X380Y696D01*
X0Y695D02*
X7Y695D01*
X27Y695D02*
X36Y695D01*
X44Y695D02*
X46Y695D01*
X191Y695D02*
X195Y695D01*
X225Y695D02*
X228Y695D01*
X234Y695D02*
X236Y695D01*
X290Y695D02*
X292Y695D01*
X373Y695D02*
X380Y695D01*
X0Y694D02*
X7Y694D01*
X27Y694D02*
X28Y694D01*
X35Y694D02*
X37Y694D01*
X44Y694D02*
X46Y694D01*
X50Y694D02*
X55Y694D01*
X191Y694D02*
X194Y694D01*
X225Y694D02*
X228Y694D01*
X234Y694D02*
X236Y694D01*
X290Y694D02*
X292Y694D01*
X373Y694D02*
X380Y694D01*
X0Y693D02*
X7Y693D01*
X27Y693D02*
X28Y693D01*
X36Y693D02*
X37Y693D01*
X44Y693D02*
X46Y693D01*
X50Y693D02*
X55Y693D01*
X190Y693D02*
X194Y693D01*
X225Y693D02*
X228Y693D01*
X234Y693D02*
X236Y693D01*
X290Y693D02*
X292Y693D01*
X373Y693D02*
X380Y693D01*
X0Y692D02*
X7Y692D01*
X27Y692D02*
X28Y692D01*
X36Y692D02*
X38Y692D01*
X44Y692D02*
X46Y692D01*
X54Y692D02*
X55Y692D01*
X190Y692D02*
X193Y692D01*
X225Y692D02*
X228Y692D01*
X234Y692D02*
X236Y692D01*
X290Y692D02*
X292Y692D01*
X373Y692D02*
X380Y692D01*
X0Y691D02*
X7Y691D01*
X27Y691D02*
X28Y691D01*
X36Y691D02*
X38Y691D01*
X44Y691D02*
X46Y691D01*
X54Y691D02*
X55Y691D01*
X189Y691D02*
X193Y691D01*
X225Y691D02*
X228Y691D01*
X234Y691D02*
X236Y691D01*
X290Y691D02*
X292Y691D01*
X373Y691D02*
X380Y691D01*
X0Y690D02*
X7Y690D01*
X27Y690D02*
X28Y690D01*
X36Y690D02*
X37Y690D01*
X44Y690D02*
X46Y690D01*
X54Y690D02*
X55Y690D01*
X189Y690D02*
X192Y690D01*
X225Y690D02*
X228Y690D01*
X234Y690D02*
X236Y690D01*
X290Y690D02*
X292Y690D01*
X373Y690D02*
X380Y690D01*
X0Y689D02*
X7Y689D01*
X27Y689D02*
X28Y689D01*
X35Y689D02*
X37Y689D01*
X44Y689D02*
X46Y689D01*
X53Y689D02*
X55Y689D01*
X188Y689D02*
X192Y689D01*
X225Y689D02*
X228Y689D01*
X234Y689D02*
X236Y689D01*
X290Y689D02*
X292Y689D01*
X373Y689D02*
X380Y689D01*
X0Y688D02*
X7Y688D01*
X27Y688D02*
X36Y688D01*
X45Y688D02*
X54Y688D01*
X188Y688D02*
X191Y688D01*
X225Y688D02*
X228Y688D01*
X234Y688D02*
X236Y688D01*
X290Y688D02*
X292Y688D01*
X373Y688D02*
X380Y688D01*
X0Y687D02*
X7Y687D01*
X27Y687D02*
X35Y687D01*
X46Y687D02*
X54Y687D01*
X187Y687D02*
X191Y687D01*
X225Y687D02*
X228Y687D01*
X234Y687D02*
X236Y687D01*
X290Y687D02*
X292Y687D01*
X373Y687D02*
X380Y687D01*
X0Y686D02*
X7Y686D01*
X187Y686D02*
X190Y686D01*
X225Y686D02*
X228Y686D01*
X234Y686D02*
X236Y686D01*
X290Y686D02*
X292Y686D01*
X373Y686D02*
X380Y686D01*
X0Y685D02*
X7Y685D01*
X187Y685D02*
X190Y685D01*
X225Y685D02*
X228Y685D01*
X234Y685D02*
X236Y685D01*
X290Y685D02*
X292Y685D01*
X373Y685D02*
X380Y685D01*
X0Y684D02*
X7Y684D01*
X187Y684D02*
X190Y684D01*
X225Y684D02*
X228Y684D01*
X234Y684D02*
X236Y684D01*
X290Y684D02*
X292Y684D01*
X373Y684D02*
X380Y684D01*
X0Y683D02*
X7Y683D01*
X187Y683D02*
X190Y683D01*
X225Y683D02*
X228Y683D01*
X234Y683D02*
X236Y683D01*
X290Y683D02*
X292Y683D01*
X373Y683D02*
X380Y683D01*
X0Y682D02*
X7Y682D01*
X187Y682D02*
X191Y682D01*
X225Y682D02*
X228Y682D01*
X234Y682D02*
X236Y682D01*
X290Y682D02*
X292Y682D01*
X373Y682D02*
X380Y682D01*
X0Y681D02*
X7Y681D01*
X187Y681D02*
X191Y681D01*
X225Y681D02*
X228Y681D01*
X233Y681D02*
X236Y681D01*
X290Y681D02*
X292Y681D01*
X373Y681D02*
X380Y681D01*
X0Y680D02*
X7Y680D01*
X188Y680D02*
X191Y680D01*
X225Y680D02*
X228Y680D01*
X233Y680D02*
X236Y680D01*
X290Y680D02*
X292Y680D01*
X373Y680D02*
X380Y680D01*
X0Y679D02*
X7Y679D01*
X188Y679D02*
X192Y679D01*
X225Y679D02*
X228Y679D01*
X233Y679D02*
X236Y679D01*
X290Y679D02*
X292Y679D01*
X373Y679D02*
X380Y679D01*
X0Y678D02*
X7Y678D01*
X189Y678D02*
X193Y678D01*
X225Y678D02*
X228Y678D01*
X233Y678D02*
X236Y678D01*
X290Y678D02*
X292Y678D01*
X373Y678D02*
X380Y678D01*
X0Y677D02*
X7Y677D01*
X189Y677D02*
X193Y677D01*
X225Y677D02*
X228Y677D01*
X233Y677D02*
X236Y677D01*
X290Y677D02*
X292Y677D01*
X373Y677D02*
X380Y677D01*
X0Y676D02*
X7Y676D01*
X190Y676D02*
X194Y676D01*
X225Y676D02*
X228Y676D01*
X233Y676D02*
X236Y676D01*
X290Y676D02*
X292Y676D01*
X373Y676D02*
X380Y676D01*
X0Y675D02*
X7Y675D01*
X190Y675D02*
X194Y675D01*
X225Y675D02*
X228Y675D01*
X233Y675D02*
X236Y675D01*
X290Y675D02*
X292Y675D01*
X373Y675D02*
X380Y675D01*
X0Y674D02*
X7Y674D01*
X191Y674D02*
X195Y674D01*
X225Y674D02*
X228Y674D01*
X233Y674D02*
X236Y674D01*
X290Y674D02*
X292Y674D01*
X373Y674D02*
X380Y674D01*
X0Y673D02*
X7Y673D01*
X191Y673D02*
X195Y673D01*
X225Y673D02*
X228Y673D01*
X233Y673D02*
X236Y673D01*
X290Y673D02*
X292Y673D01*
X373Y673D02*
X380Y673D01*
X0Y672D02*
X7Y672D01*
X192Y672D02*
X205Y672D01*
X218Y672D02*
X236Y672D01*
X290Y672D02*
X292Y672D01*
X373Y672D02*
X380Y672D01*
X0Y671D02*
X7Y671D01*
X192Y671D02*
X206Y671D01*
X217Y671D02*
X236Y671D01*
X290Y671D02*
X292Y671D01*
X373Y671D02*
X380Y671D01*
X0Y670D02*
X7Y670D01*
X193Y670D02*
X206Y670D01*
X217Y670D02*
X236Y670D01*
X290Y670D02*
X292Y670D01*
X373Y670D02*
X380Y670D01*
X0Y669D02*
X7Y669D01*
X140Y669D02*
X167Y669D01*
X194Y669D02*
X206Y669D01*
X217Y669D02*
X236Y669D01*
X290Y669D02*
X292Y669D01*
X373Y669D02*
X380Y669D01*
X0Y668D02*
X7Y668D01*
X139Y668D02*
X168Y668D01*
X198Y668D02*
X204Y668D01*
X219Y668D02*
X236Y668D01*
X290Y668D02*
X292Y668D01*
X373Y668D02*
X380Y668D01*
X0Y667D02*
X7Y667D01*
X138Y667D02*
X168Y667D01*
X234Y667D02*
X236Y667D01*
X290Y667D02*
X292Y667D01*
X373Y667D02*
X380Y667D01*
X0Y666D02*
X7Y666D01*
X138Y666D02*
X167Y666D01*
X234Y666D02*
X236Y666D01*
X290Y666D02*
X292Y666D01*
X373Y666D02*
X380Y666D01*
X0Y665D02*
X7Y665D01*
X138Y665D02*
X141Y665D01*
X234Y665D02*
X236Y665D01*
X290Y665D02*
X292Y665D01*
X373Y665D02*
X380Y665D01*
X0Y664D02*
X7Y664D01*
X138Y664D02*
X140Y664D01*
X234Y664D02*
X236Y664D01*
X290Y664D02*
X292Y664D01*
X373Y664D02*
X380Y664D01*
X0Y663D02*
X6Y663D01*
X136Y663D02*
X140Y663D01*
X234Y663D02*
X236Y663D01*
X290Y663D02*
X292Y663D01*
X373Y663D02*
X380Y663D01*
X0Y662D02*
X6Y662D01*
X136Y662D02*
X140Y662D01*
X234Y662D02*
X236Y662D01*
X290Y662D02*
X292Y662D01*
X373Y662D02*
X380Y662D01*
X0Y661D02*
X5Y661D01*
X136Y661D02*
X140Y661D01*
X234Y661D02*
X236Y661D01*
X290Y661D02*
X292Y661D01*
X373Y661D02*
X380Y661D01*
X0Y660D02*
X5Y660D01*
X136Y660D02*
X140Y660D01*
X234Y660D02*
X236Y660D01*
X290Y660D02*
X292Y660D01*
X373Y660D02*
X380Y660D01*
X0Y659D02*
X5Y659D01*
X136Y659D02*
X140Y659D01*
X234Y659D02*
X236Y659D01*
X290Y659D02*
X292Y659D01*
X373Y659D02*
X380Y659D01*
X0Y658D02*
X4Y658D01*
X136Y658D02*
X140Y658D01*
X234Y658D02*
X236Y658D01*
X290Y658D02*
X292Y658D01*
X373Y658D02*
X380Y658D01*
X0Y657D02*
X4Y657D01*
X136Y657D02*
X140Y657D01*
X234Y657D02*
X236Y657D01*
X290Y657D02*
X292Y657D01*
X373Y657D02*
X380Y657D01*
X0Y656D02*
X4Y656D01*
X136Y656D02*
X140Y656D01*
X234Y656D02*
X236Y656D01*
X290Y656D02*
X292Y656D01*
X373Y656D02*
X380Y656D01*
X0Y655D02*
X4Y655D01*
X136Y655D02*
X140Y655D01*
X234Y655D02*
X236Y655D01*
X290Y655D02*
X292Y655D01*
X373Y655D02*
X380Y655D01*
X0Y654D02*
X3Y654D01*
X136Y654D02*
X140Y654D01*
X234Y654D02*
X236Y654D01*
X290Y654D02*
X292Y654D01*
X373Y654D02*
X380Y654D01*
X0Y653D02*
X3Y653D01*
X137Y653D02*
X141Y653D01*
X234Y653D02*
X236Y653D01*
X290Y653D02*
X292Y653D01*
X373Y653D02*
X380Y653D01*
X0Y652D02*
X3Y652D01*
X137Y652D02*
X167Y652D01*
X234Y652D02*
X236Y652D01*
X290Y652D02*
X292Y652D01*
X373Y652D02*
X380Y652D01*
X0Y651D02*
X3Y651D01*
X138Y651D02*
X168Y651D01*
X234Y651D02*
X236Y651D01*
X290Y651D02*
X292Y651D01*
X373Y651D02*
X380Y651D01*
X0Y650D02*
X3Y650D01*
X139Y650D02*
X168Y650D01*
X234Y650D02*
X237Y650D01*
X289Y650D02*
X292Y650D01*
X373Y650D02*
X380Y650D01*
X0Y649D02*
X3Y649D01*
X141Y649D02*
X167Y649D01*
X234Y649D02*
X237Y649D01*
X289Y649D02*
X292Y649D01*
X373Y649D02*
X380Y649D01*
X0Y648D02*
X3Y648D01*
X234Y648D02*
X237Y648D01*
X289Y648D02*
X292Y648D01*
X373Y648D02*
X380Y648D01*
X0Y647D02*
X3Y647D01*
X234Y647D02*
X237Y647D01*
X289Y647D02*
X292Y647D01*
X373Y647D02*
X380Y647D01*
X0Y646D02*
X3Y646D01*
X234Y646D02*
X237Y646D01*
X289Y646D02*
X292Y646D01*
X373Y646D02*
X380Y646D01*
X0Y645D02*
X3Y645D01*
X234Y645D02*
X237Y645D01*
X289Y645D02*
X292Y645D01*
X373Y645D02*
X380Y645D01*
X0Y644D02*
X3Y644D01*
X234Y644D02*
X237Y644D01*
X289Y644D02*
X292Y644D01*
X373Y644D02*
X380Y644D01*
X0Y643D02*
X3Y643D01*
X234Y643D02*
X237Y643D01*
X289Y643D02*
X292Y643D01*
X373Y643D02*
X380Y643D01*
X0Y642D02*
X3Y642D01*
X234Y642D02*
X237Y642D01*
X289Y642D02*
X292Y642D01*
X373Y642D02*
X380Y642D01*
X0Y641D02*
X3Y641D01*
X234Y641D02*
X237Y641D01*
X289Y641D02*
X292Y641D01*
X373Y641D02*
X380Y641D01*
X0Y640D02*
X3Y640D01*
X234Y640D02*
X236Y640D01*
X290Y640D02*
X292Y640D01*
X373Y640D02*
X380Y640D01*
X0Y639D02*
X3Y639D01*
X137Y639D02*
X139Y639D01*
X165Y639D02*
X167Y639D01*
X234Y639D02*
X236Y639D01*
X290Y639D02*
X292Y639D01*
X373Y639D02*
X380Y639D01*
X0Y638D02*
X4Y638D01*
X136Y638D02*
X139Y638D01*
X165Y638D02*
X168Y638D01*
X234Y638D02*
X236Y638D01*
X290Y638D02*
X292Y638D01*
X373Y638D02*
X380Y638D01*
X0Y637D02*
X4Y637D01*
X136Y637D02*
X140Y637D01*
X165Y637D02*
X168Y637D01*
X234Y637D02*
X236Y637D01*
X290Y637D02*
X292Y637D01*
X373Y637D02*
X380Y637D01*
X0Y636D02*
X4Y636D01*
X136Y636D02*
X140Y636D01*
X165Y636D02*
X168Y636D01*
X234Y636D02*
X236Y636D01*
X290Y636D02*
X292Y636D01*
X373Y636D02*
X380Y636D01*
X0Y635D02*
X4Y635D01*
X136Y635D02*
X140Y635D01*
X152Y635D02*
X153Y635D01*
X165Y635D02*
X168Y635D01*
X234Y635D02*
X236Y635D01*
X290Y635D02*
X292Y635D01*
X373Y635D02*
X380Y635D01*
X0Y634D02*
X5Y634D01*
X136Y634D02*
X140Y634D01*
X151Y634D02*
X153Y634D01*
X165Y634D02*
X168Y634D01*
X234Y634D02*
X236Y634D01*
X290Y634D02*
X292Y634D01*
X373Y634D02*
X380Y634D01*
X0Y633D02*
X5Y633D01*
X136Y633D02*
X140Y633D01*
X150Y633D02*
X154Y633D01*
X165Y633D02*
X168Y633D01*
X234Y633D02*
X236Y633D01*
X290Y633D02*
X292Y633D01*
X373Y633D02*
X380Y633D01*
X0Y632D02*
X5Y632D01*
X136Y632D02*
X140Y632D01*
X150Y632D02*
X154Y632D01*
X165Y632D02*
X168Y632D01*
X234Y632D02*
X236Y632D01*
X290Y632D02*
X292Y632D01*
X373Y632D02*
X380Y632D01*
X0Y631D02*
X6Y631D01*
X136Y631D02*
X140Y631D01*
X150Y631D02*
X154Y631D01*
X165Y631D02*
X168Y631D01*
X234Y631D02*
X236Y631D01*
X290Y631D02*
X292Y631D01*
X344Y631D02*
X344Y631D01*
X354Y631D02*
X359Y631D01*
X373Y631D02*
X380Y631D01*
X0Y630D02*
X6Y630D01*
X136Y630D02*
X140Y630D01*
X150Y630D02*
X154Y630D01*
X165Y630D02*
X168Y630D01*
X234Y630D02*
X236Y630D01*
X290Y630D02*
X292Y630D01*
X324Y630D02*
X325Y630D01*
X340Y630D02*
X345Y630D01*
X353Y630D02*
X359Y630D01*
X373Y630D02*
X380Y630D01*
X0Y629D02*
X7Y629D01*
X138Y629D02*
X140Y629D01*
X150Y629D02*
X154Y629D01*
X165Y629D02*
X168Y629D01*
X234Y629D02*
X236Y629D01*
X290Y629D02*
X292Y629D01*
X324Y629D02*
X327Y629D01*
X339Y629D02*
X346Y629D01*
X353Y629D02*
X359Y629D01*
X373Y629D02*
X380Y629D01*
X0Y628D02*
X7Y628D01*
X138Y628D02*
X140Y628D01*
X150Y628D02*
X154Y628D01*
X165Y628D02*
X168Y628D01*
X234Y628D02*
X236Y628D01*
X290Y628D02*
X292Y628D01*
X324Y628D02*
X327Y628D01*
X339Y628D02*
X346Y628D01*
X352Y628D02*
X359Y628D01*
X373Y628D02*
X380Y628D01*
X0Y627D02*
X7Y627D01*
X138Y627D02*
X140Y627D01*
X150Y627D02*
X154Y627D01*
X165Y627D02*
X168Y627D01*
X234Y627D02*
X236Y627D01*
X290Y627D02*
X292Y627D01*
X324Y627D02*
X327Y627D01*
X339Y627D02*
X347Y627D01*
X351Y627D02*
X359Y627D01*
X373Y627D02*
X380Y627D01*
X0Y626D02*
X7Y626D01*
X138Y626D02*
X140Y626D01*
X150Y626D02*
X154Y626D01*
X165Y626D02*
X168Y626D01*
X234Y626D02*
X236Y626D01*
X290Y626D02*
X292Y626D01*
X324Y626D02*
X327Y626D01*
X339Y626D02*
X348Y626D01*
X351Y626D02*
X359Y626D01*
X373Y626D02*
X380Y626D01*
X0Y625D02*
X7Y625D01*
X138Y625D02*
X140Y625D01*
X150Y625D02*
X154Y625D01*
X165Y625D02*
X168Y625D01*
X234Y625D02*
X236Y625D01*
X290Y625D02*
X292Y625D01*
X324Y625D02*
X327Y625D01*
X339Y625D02*
X354Y625D01*
X356Y625D02*
X359Y625D01*
X373Y625D02*
X380Y625D01*
X0Y624D02*
X7Y624D01*
X138Y624D02*
X140Y624D01*
X150Y624D02*
X154Y624D01*
X165Y624D02*
X168Y624D01*
X234Y624D02*
X236Y624D01*
X290Y624D02*
X292Y624D01*
X324Y624D02*
X327Y624D01*
X339Y624D02*
X343Y624D01*
X345Y624D02*
X353Y624D01*
X356Y624D02*
X359Y624D01*
X373Y624D02*
X380Y624D01*
X0Y623D02*
X7Y623D01*
X138Y623D02*
X140Y623D01*
X149Y623D02*
X155Y623D01*
X164Y623D02*
X168Y623D01*
X234Y623D02*
X236Y623D01*
X290Y623D02*
X292Y623D01*
X324Y623D02*
X327Y623D01*
X339Y623D02*
X343Y623D01*
X346Y623D02*
X353Y623D01*
X356Y623D02*
X359Y623D01*
X373Y623D02*
X380Y623D01*
X0Y622D02*
X7Y622D01*
X138Y622D02*
X168Y622D01*
X234Y622D02*
X236Y622D01*
X290Y622D02*
X292Y622D01*
X324Y622D02*
X327Y622D01*
X339Y622D02*
X343Y622D01*
X346Y622D02*
X352Y622D01*
X356Y622D02*
X359Y622D01*
X373Y622D02*
X380Y622D01*
X0Y621D02*
X7Y621D01*
X138Y621D02*
X167Y621D01*
X234Y621D02*
X236Y621D01*
X290Y621D02*
X292Y621D01*
X324Y621D02*
X327Y621D01*
X339Y621D02*
X343Y621D01*
X347Y621D02*
X351Y621D01*
X356Y621D02*
X359Y621D01*
X373Y621D02*
X380Y621D01*
X0Y620D02*
X7Y620D01*
X138Y620D02*
X151Y620D01*
X153Y620D02*
X166Y620D01*
X234Y620D02*
X236Y620D01*
X290Y620D02*
X292Y620D01*
X324Y620D02*
X327Y620D01*
X339Y620D02*
X343Y620D01*
X348Y620D02*
X351Y620D01*
X356Y620D02*
X359Y620D01*
X373Y620D02*
X380Y620D01*
X0Y619D02*
X7Y619D01*
X139Y619D02*
X149Y619D01*
X155Y619D02*
X165Y619D01*
X182Y619D02*
X182Y619D01*
X234Y619D02*
X236Y619D01*
X290Y619D02*
X292Y619D01*
X324Y619D02*
X327Y619D01*
X339Y619D02*
X343Y619D01*
X348Y619D02*
X351Y619D01*
X356Y619D02*
X359Y619D01*
X373Y619D02*
X380Y619D01*
X0Y618D02*
X7Y618D01*
X180Y618D02*
X184Y618D01*
X234Y618D02*
X236Y618D01*
X290Y618D02*
X292Y618D01*
X324Y618D02*
X327Y618D01*
X339Y618D02*
X343Y618D01*
X348Y618D02*
X350Y618D01*
X356Y618D02*
X359Y618D01*
X373Y618D02*
X380Y618D01*
X0Y617D02*
X7Y617D01*
X179Y617D02*
X185Y617D01*
X234Y617D02*
X236Y617D01*
X290Y617D02*
X292Y617D01*
X324Y617D02*
X327Y617D01*
X339Y617D02*
X343Y617D01*
X356Y617D02*
X359Y617D01*
X373Y617D02*
X380Y617D01*
X0Y616D02*
X7Y616D01*
X178Y616D02*
X185Y616D01*
X234Y616D02*
X236Y616D01*
X290Y616D02*
X292Y616D01*
X324Y616D02*
X327Y616D01*
X339Y616D02*
X343Y616D01*
X356Y616D02*
X359Y616D01*
X373Y616D02*
X380Y616D01*
X0Y615D02*
X7Y615D01*
X178Y615D02*
X185Y615D01*
X234Y615D02*
X236Y615D01*
X290Y615D02*
X292Y615D01*
X324Y615D02*
X327Y615D01*
X339Y615D02*
X343Y615D01*
X356Y615D02*
X359Y615D01*
X373Y615D02*
X380Y615D01*
X0Y614D02*
X7Y614D01*
X178Y614D02*
X185Y614D01*
X234Y614D02*
X236Y614D01*
X290Y614D02*
X292Y614D01*
X313Y614D02*
X314Y614D01*
X324Y614D02*
X327Y614D01*
X339Y614D02*
X343Y614D01*
X356Y614D02*
X359Y614D01*
X373Y614D02*
X380Y614D01*
X0Y613D02*
X7Y613D01*
X178Y613D02*
X185Y613D01*
X234Y613D02*
X236Y613D01*
X290Y613D02*
X292Y613D01*
X312Y613D02*
X314Y613D01*
X324Y613D02*
X327Y613D01*
X339Y613D02*
X343Y613D01*
X356Y613D02*
X359Y613D01*
X373Y613D02*
X380Y613D01*
X0Y612D02*
X7Y612D01*
X178Y612D02*
X185Y612D01*
X234Y612D02*
X236Y612D01*
X290Y612D02*
X292Y612D01*
X312Y612D02*
X315Y612D01*
X324Y612D02*
X327Y612D01*
X339Y612D02*
X343Y612D01*
X356Y612D02*
X359Y612D01*
X373Y612D02*
X380Y612D01*
X0Y611D02*
X7Y611D01*
X178Y611D02*
X185Y611D01*
X234Y611D02*
X236Y611D01*
X290Y611D02*
X292Y611D01*
X311Y611D02*
X315Y611D01*
X324Y611D02*
X327Y611D01*
X339Y611D02*
X343Y611D01*
X356Y611D02*
X359Y611D01*
X373Y611D02*
X380Y611D01*
X0Y610D02*
X7Y610D01*
X178Y610D02*
X185Y610D01*
X234Y610D02*
X236Y610D01*
X290Y610D02*
X292Y610D01*
X311Y610D02*
X315Y610D01*
X324Y610D02*
X327Y610D01*
X339Y610D02*
X343Y610D01*
X356Y610D02*
X359Y610D01*
X373Y610D02*
X380Y610D01*
X0Y609D02*
X7Y609D01*
X178Y609D02*
X185Y609D01*
X234Y609D02*
X236Y609D01*
X290Y609D02*
X292Y609D01*
X311Y609D02*
X315Y609D01*
X324Y609D02*
X327Y609D01*
X339Y609D02*
X343Y609D01*
X356Y609D02*
X359Y609D01*
X373Y609D02*
X380Y609D01*
X0Y608D02*
X7Y608D01*
X178Y608D02*
X185Y608D01*
X234Y608D02*
X236Y608D01*
X290Y608D02*
X292Y608D01*
X311Y608D02*
X315Y608D01*
X324Y608D02*
X327Y608D01*
X339Y608D02*
X343Y608D01*
X356Y608D02*
X359Y608D01*
X373Y608D02*
X380Y608D01*
X0Y607D02*
X7Y607D01*
X178Y607D02*
X185Y607D01*
X234Y607D02*
X236Y607D01*
X290Y607D02*
X292Y607D01*
X311Y607D02*
X315Y607D01*
X324Y607D02*
X327Y607D01*
X339Y607D02*
X343Y607D01*
X356Y607D02*
X359Y607D01*
X373Y607D02*
X380Y607D01*
X0Y606D02*
X7Y606D01*
X178Y606D02*
X185Y606D01*
X234Y606D02*
X236Y606D01*
X290Y606D02*
X292Y606D01*
X311Y606D02*
X315Y606D01*
X324Y606D02*
X324Y606D01*
X340Y606D02*
X343Y606D01*
X356Y606D02*
X359Y606D01*
X373Y606D02*
X380Y606D01*
X0Y605D02*
X7Y605D01*
X178Y605D02*
X185Y605D01*
X234Y605D02*
X236Y605D01*
X290Y605D02*
X292Y605D01*
X312Y605D02*
X315Y605D01*
X356Y605D02*
X359Y605D01*
X362Y605D02*
X363Y605D01*
X373Y605D02*
X380Y605D01*
X0Y604D02*
X7Y604D01*
X178Y604D02*
X185Y604D01*
X234Y604D02*
X236Y604D01*
X290Y604D02*
X292Y604D01*
X312Y604D02*
X316Y604D01*
X356Y604D02*
X359Y604D01*
X362Y604D02*
X364Y604D01*
X373Y604D02*
X380Y604D01*
X0Y603D02*
X7Y603D01*
X178Y603D02*
X185Y603D01*
X234Y603D02*
X236Y603D01*
X290Y603D02*
X292Y603D01*
X312Y603D02*
X315Y603D01*
X356Y603D02*
X359Y603D01*
X362Y603D02*
X364Y603D01*
X373Y603D02*
X380Y603D01*
X0Y602D02*
X7Y602D01*
X178Y602D02*
X185Y602D01*
X234Y602D02*
X236Y602D01*
X290Y602D02*
X292Y602D01*
X313Y602D02*
X313Y602D01*
X356Y602D02*
X359Y602D01*
X362Y602D02*
X364Y602D01*
X373Y602D02*
X380Y602D01*
X0Y601D02*
X7Y601D01*
X178Y601D02*
X184Y601D01*
X234Y601D02*
X236Y601D01*
X290Y601D02*
X292Y601D01*
X356Y601D02*
X359Y601D01*
X362Y601D02*
X364Y601D01*
X373Y601D02*
X380Y601D01*
X0Y600D02*
X7Y600D01*
X178Y600D02*
X184Y600D01*
X234Y600D02*
X236Y600D01*
X290Y600D02*
X292Y600D01*
X357Y600D02*
X358Y600D01*
X362Y600D02*
X364Y600D01*
X373Y600D02*
X380Y600D01*
X0Y599D02*
X7Y599D01*
X178Y599D02*
X184Y599D01*
X234Y599D02*
X236Y599D01*
X290Y599D02*
X292Y599D01*
X356Y599D02*
X369Y599D01*
X373Y599D02*
X380Y599D01*
X0Y598D02*
X7Y598D01*
X178Y598D02*
X184Y598D01*
X234Y598D02*
X236Y598D01*
X290Y598D02*
X292Y598D01*
X357Y598D02*
X370Y598D01*
X373Y598D02*
X380Y598D01*
X0Y597D02*
X7Y597D01*
X178Y597D02*
X184Y597D01*
X234Y597D02*
X236Y597D01*
X290Y597D02*
X292Y597D01*
X358Y597D02*
X369Y597D01*
X373Y597D02*
X380Y597D01*
X0Y596D02*
X7Y596D01*
X178Y596D02*
X184Y596D01*
X234Y596D02*
X236Y596D01*
X290Y596D02*
X292Y596D01*
X362Y596D02*
X364Y596D01*
X373Y596D02*
X380Y596D01*
X0Y595D02*
X7Y595D01*
X149Y595D02*
X184Y595D01*
X234Y595D02*
X236Y595D01*
X290Y595D02*
X292Y595D01*
X362Y595D02*
X364Y595D01*
X373Y595D02*
X380Y595D01*
X0Y594D02*
X7Y594D01*
X148Y594D02*
X184Y594D01*
X234Y594D02*
X236Y594D01*
X290Y594D02*
X292Y594D01*
X362Y594D02*
X364Y594D01*
X373Y594D02*
X380Y594D01*
X0Y593D02*
X7Y593D01*
X147Y593D02*
X184Y593D01*
X234Y593D02*
X236Y593D01*
X290Y593D02*
X292Y593D01*
X362Y593D02*
X364Y593D01*
X373Y593D02*
X380Y593D01*
X0Y592D02*
X7Y592D01*
X147Y592D02*
X184Y592D01*
X234Y592D02*
X236Y592D01*
X290Y592D02*
X292Y592D01*
X363Y592D02*
X364Y592D01*
X373Y592D02*
X380Y592D01*
X0Y591D02*
X7Y591D01*
X147Y591D02*
X184Y591D01*
X234Y591D02*
X236Y591D01*
X290Y591D02*
X292Y591D01*
X373Y591D02*
X380Y591D01*
X0Y590D02*
X7Y590D01*
X147Y590D02*
X184Y590D01*
X234Y590D02*
X236Y590D01*
X290Y590D02*
X292Y590D01*
X373Y590D02*
X380Y590D01*
X0Y589D02*
X7Y589D01*
X148Y589D02*
X184Y589D01*
X234Y589D02*
X236Y589D01*
X290Y589D02*
X292Y589D01*
X373Y589D02*
X380Y589D01*
X0Y588D02*
X7Y588D01*
X149Y588D02*
X183Y588D01*
X234Y588D02*
X236Y588D01*
X290Y588D02*
X292Y588D01*
X373Y588D02*
X380Y588D01*
X0Y587D02*
X2Y587D01*
X234Y587D02*
X236Y587D01*
X290Y587D02*
X292Y587D01*
X373Y587D02*
X380Y587D01*
X0Y586D02*
X2Y586D01*
X234Y586D02*
X236Y586D01*
X290Y586D02*
X292Y586D01*
X373Y586D02*
X380Y586D01*
X0Y585D02*
X2Y585D01*
X234Y585D02*
X236Y585D01*
X290Y585D02*
X292Y585D01*
X373Y585D02*
X380Y585D01*
X0Y584D02*
X2Y584D01*
X234Y584D02*
X236Y584D01*
X290Y584D02*
X292Y584D01*
X373Y584D02*
X380Y584D01*
X0Y583D02*
X2Y583D01*
X234Y583D02*
X292Y583D01*
X373Y583D02*
X380Y583D01*
X0Y582D02*
X2Y582D01*
X234Y582D02*
X292Y582D01*
X373Y582D02*
X380Y582D01*
X0Y581D02*
X2Y581D01*
X234Y581D02*
X292Y581D01*
X373Y581D02*
X380Y581D01*
X0Y580D02*
X2Y580D01*
X373Y580D02*
X380Y580D01*
X0Y579D02*
X2Y579D01*
X373Y579D02*
X380Y579D01*
X0Y578D02*
X2Y578D01*
X373Y578D02*
X380Y578D01*
X0Y577D02*
X2Y577D01*
X373Y577D02*
X380Y577D01*
X0Y576D02*
X2Y576D01*
X373Y576D02*
X380Y576D01*
X0Y575D02*
X2Y575D01*
X373Y575D02*
X380Y575D01*
X0Y574D02*
X2Y574D01*
X373Y574D02*
X380Y574D01*
X0Y573D02*
X2Y573D01*
X373Y573D02*
X380Y573D01*
X0Y572D02*
X2Y572D01*
X373Y572D02*
X380Y572D01*
X0Y571D02*
X2Y571D01*
X373Y571D02*
X380Y571D01*
X0Y570D02*
X2Y570D01*
X373Y570D02*
X380Y570D01*
X0Y569D02*
X2Y569D01*
X373Y569D02*
X380Y569D01*
X0Y568D02*
X2Y568D01*
X373Y568D02*
X380Y568D01*
X0Y567D02*
X2Y567D01*
X373Y567D02*
X380Y567D01*
X0Y566D02*
X2Y566D01*
X373Y566D02*
X380Y566D01*
X0Y565D02*
X2Y565D01*
X373Y565D02*
X380Y565D01*
X0Y564D02*
X2Y564D01*
X373Y564D02*
X380Y564D01*
X0Y563D02*
X2Y563D01*
X373Y563D02*
X380Y563D01*
X0Y562D02*
X2Y562D01*
X373Y562D02*
X380Y562D01*
X0Y561D02*
X2Y561D01*
X373Y561D02*
X380Y561D01*
X0Y560D02*
X2Y560D01*
X373Y560D02*
X380Y560D01*
X0Y559D02*
X2Y559D01*
X373Y559D02*
X380Y559D01*
X0Y558D02*
X2Y558D01*
X373Y558D02*
X380Y558D01*
X0Y557D02*
X2Y557D01*
X373Y557D02*
X380Y557D01*
X0Y556D02*
X2Y556D01*
X373Y556D02*
X380Y556D01*
X0Y555D02*
X2Y555D01*
X373Y555D02*
X380Y555D01*
X0Y554D02*
X2Y554D01*
X373Y554D02*
X380Y554D01*
X0Y553D02*
X2Y553D01*
X373Y553D02*
X380Y553D01*
X0Y552D02*
X2Y552D01*
X373Y552D02*
X380Y552D01*
X0Y551D02*
X2Y551D01*
X373Y551D02*
X380Y551D01*
X0Y550D02*
X2Y550D01*
X373Y550D02*
X380Y550D01*
X0Y549D02*
X2Y549D01*
X373Y549D02*
X380Y549D01*
X0Y548D02*
X2Y548D01*
X373Y548D02*
X380Y548D01*
X0Y547D02*
X2Y547D01*
X373Y547D02*
X380Y547D01*
X0Y546D02*
X2Y546D01*
X373Y546D02*
X380Y546D01*
X0Y545D02*
X2Y545D01*
X373Y545D02*
X380Y545D01*
X0Y544D02*
X2Y544D01*
X373Y544D02*
X380Y544D01*
X0Y543D02*
X2Y543D01*
X373Y543D02*
X380Y543D01*
X0Y542D02*
X2Y542D01*
X373Y542D02*
X380Y542D01*
X0Y541D02*
X2Y541D01*
X373Y541D02*
X380Y541D01*
X0Y540D02*
X2Y540D01*
X373Y540D02*
X380Y540D01*
X0Y539D02*
X2Y539D01*
X373Y539D02*
X380Y539D01*
X0Y538D02*
X2Y538D01*
X373Y538D02*
X380Y538D01*
X0Y537D02*
X2Y537D01*
X373Y537D02*
X380Y537D01*
X0Y536D02*
X2Y536D01*
X373Y536D02*
X380Y536D01*
X0Y535D02*
X2Y535D01*
X373Y535D02*
X380Y535D01*
X0Y534D02*
X2Y534D01*
X373Y534D02*
X380Y534D01*
X0Y533D02*
X2Y533D01*
X373Y533D02*
X380Y533D01*
X0Y532D02*
X2Y532D01*
X373Y532D02*
X380Y532D01*
X0Y531D02*
X2Y531D01*
X373Y531D02*
X380Y531D01*
X0Y530D02*
X2Y530D01*
X373Y530D02*
X380Y530D01*
X0Y529D02*
X2Y529D01*
X373Y529D02*
X380Y529D01*
X0Y528D02*
X2Y528D01*
X373Y528D02*
X380Y528D01*
X0Y527D02*
X2Y527D01*
X373Y527D02*
X380Y527D01*
X0Y526D02*
X2Y526D01*
X373Y526D02*
X380Y526D01*
X0Y525D02*
X2Y525D01*
X373Y525D02*
X380Y525D01*
X0Y524D02*
X2Y524D01*
X373Y524D02*
X380Y524D01*
X0Y523D02*
X2Y523D01*
X373Y523D02*
X380Y523D01*
X0Y522D02*
X2Y522D01*
X374Y522D02*
X380Y522D01*
X0Y521D02*
X2Y521D01*
X374Y521D02*
X380Y521D01*
X0Y520D02*
X2Y520D01*
X374Y520D02*
X380Y520D01*
X0Y519D02*
X2Y519D01*
X374Y519D02*
X380Y519D01*
X0Y518D02*
X2Y518D01*
X374Y518D02*
X380Y518D01*
X0Y517D02*
X2Y517D01*
X374Y517D02*
X380Y517D01*
X0Y516D02*
X2Y516D01*
X374Y516D02*
X380Y516D01*
X0Y515D02*
X2Y515D01*
X374Y515D02*
X380Y515D01*
X0Y514D02*
X2Y514D01*
X374Y514D02*
X380Y514D01*
X0Y513D02*
X2Y513D01*
X374Y513D02*
X380Y513D01*
X0Y512D02*
X2Y512D01*
X374Y512D02*
X380Y512D01*
X0Y511D02*
X2Y511D01*
X374Y511D02*
X380Y511D01*
X0Y510D02*
X2Y510D01*
X374Y510D02*
X380Y510D01*
X0Y509D02*
X2Y509D01*
X374Y509D02*
X380Y509D01*
X0Y508D02*
X2Y508D01*
X374Y508D02*
X380Y508D01*
X0Y507D02*
X2Y507D01*
X374Y507D02*
X380Y507D01*
X0Y506D02*
X2Y506D01*
X374Y506D02*
X380Y506D01*
X0Y505D02*
X2Y505D01*
X374Y505D02*
X380Y505D01*
X0Y504D02*
X2Y504D01*
X374Y504D02*
X380Y504D01*
X0Y503D02*
X7Y503D01*
X374Y503D02*
X380Y503D01*
X0Y502D02*
X7Y502D01*
X374Y502D02*
X380Y502D01*
X0Y501D02*
X7Y501D01*
X277Y501D02*
X277Y501D01*
X374Y501D02*
X380Y501D01*
X0Y500D02*
X7Y500D01*
X90Y500D02*
X92Y500D01*
X276Y500D02*
X279Y500D01*
X374Y500D02*
X380Y500D01*
X0Y499D02*
X7Y499D01*
X89Y499D02*
X92Y499D01*
X276Y499D02*
X279Y499D01*
X374Y499D02*
X380Y499D01*
X0Y498D02*
X7Y498D01*
X89Y498D02*
X92Y498D01*
X276Y498D02*
X279Y498D01*
X374Y498D02*
X380Y498D01*
X0Y497D02*
X7Y497D01*
X89Y497D02*
X92Y497D01*
X276Y497D02*
X279Y497D01*
X374Y497D02*
X380Y497D01*
X0Y496D02*
X7Y496D01*
X89Y496D02*
X92Y496D01*
X276Y496D02*
X279Y496D01*
X374Y496D02*
X381Y496D01*
X0Y495D02*
X7Y495D01*
X89Y495D02*
X92Y495D01*
X276Y495D02*
X279Y495D01*
X374Y495D02*
X381Y495D01*
X0Y494D02*
X7Y494D01*
X89Y494D02*
X92Y494D01*
X276Y494D02*
X279Y494D01*
X290Y494D02*
X302Y494D01*
X305Y494D02*
X318Y494D01*
X374Y494D02*
X381Y494D01*
X0Y493D02*
X7Y493D01*
X89Y493D02*
X92Y493D01*
X276Y493D02*
X279Y493D01*
X289Y493D02*
X319Y493D01*
X374Y493D02*
X381Y493D01*
X0Y492D02*
X7Y492D01*
X89Y492D02*
X92Y492D01*
X276Y492D02*
X279Y492D01*
X288Y492D02*
X319Y492D01*
X374Y492D02*
X381Y492D01*
X0Y491D02*
X7Y491D01*
X89Y491D02*
X92Y491D01*
X276Y491D02*
X279Y491D01*
X288Y491D02*
X319Y491D01*
X374Y491D02*
X381Y491D01*
X0Y490D02*
X7Y490D01*
X89Y490D02*
X92Y490D01*
X276Y490D02*
X279Y490D01*
X288Y490D02*
X291Y490D01*
X301Y490D02*
X306Y490D01*
X316Y490D02*
X319Y490D01*
X374Y490D02*
X381Y490D01*
X0Y489D02*
X7Y489D01*
X89Y489D02*
X92Y489D01*
X276Y489D02*
X279Y489D01*
X288Y489D02*
X291Y489D01*
X302Y489D02*
X305Y489D01*
X316Y489D02*
X319Y489D01*
X374Y489D02*
X381Y489D01*
X0Y488D02*
X7Y488D01*
X89Y488D02*
X92Y488D01*
X276Y488D02*
X279Y488D01*
X288Y488D02*
X291Y488D01*
X302Y488D02*
X305Y488D01*
X316Y488D02*
X319Y488D01*
X374Y488D02*
X381Y488D01*
X0Y487D02*
X7Y487D01*
X89Y487D02*
X92Y487D01*
X276Y487D02*
X279Y487D01*
X288Y487D02*
X291Y487D01*
X302Y487D02*
X305Y487D01*
X316Y487D02*
X319Y487D01*
X373Y487D02*
X381Y487D01*
X0Y486D02*
X7Y486D01*
X89Y486D02*
X92Y486D01*
X276Y486D02*
X279Y486D01*
X288Y486D02*
X291Y486D01*
X302Y486D02*
X305Y486D01*
X316Y486D02*
X319Y486D01*
X373Y486D02*
X381Y486D01*
X0Y485D02*
X7Y485D01*
X89Y485D02*
X92Y485D01*
X276Y485D02*
X279Y485D01*
X288Y485D02*
X291Y485D01*
X302Y485D02*
X305Y485D01*
X316Y485D02*
X319Y485D01*
X373Y485D02*
X381Y485D01*
X0Y484D02*
X7Y484D01*
X89Y484D02*
X92Y484D01*
X276Y484D02*
X279Y484D01*
X288Y484D02*
X291Y484D01*
X302Y484D02*
X305Y484D01*
X316Y484D02*
X319Y484D01*
X373Y484D02*
X381Y484D01*
X0Y483D02*
X7Y483D01*
X89Y483D02*
X92Y483D01*
X276Y483D02*
X279Y483D01*
X288Y483D02*
X291Y483D01*
X302Y483D02*
X305Y483D01*
X316Y483D02*
X319Y483D01*
X325Y483D02*
X381Y483D01*
X0Y482D02*
X7Y482D01*
X89Y482D02*
X92Y482D01*
X276Y482D02*
X279Y482D01*
X288Y482D02*
X291Y482D01*
X302Y482D02*
X305Y482D01*
X316Y482D02*
X319Y482D01*
X324Y482D02*
X381Y482D01*
X0Y481D02*
X7Y481D01*
X89Y481D02*
X94Y481D01*
X274Y481D02*
X279Y481D01*
X288Y481D02*
X291Y481D01*
X302Y481D02*
X305Y481D01*
X316Y481D02*
X319Y481D01*
X323Y481D02*
X381Y481D01*
X0Y480D02*
X7Y480D01*
X89Y480D02*
X94Y480D01*
X274Y480D02*
X279Y480D01*
X288Y480D02*
X291Y480D01*
X302Y480D02*
X305Y480D01*
X316Y480D02*
X319Y480D01*
X323Y480D02*
X381Y480D01*
X0Y479D02*
X7Y479D01*
X89Y479D02*
X94Y479D01*
X274Y479D02*
X279Y479D01*
X288Y479D02*
X291Y479D01*
X303Y479D02*
X305Y479D01*
X316Y479D02*
X319Y479D01*
X323Y479D02*
X381Y479D01*
X0Y478D02*
X7Y478D01*
X89Y478D02*
X94Y478D01*
X274Y478D02*
X279Y478D01*
X288Y478D02*
X291Y478D01*
X316Y478D02*
X319Y478D01*
X323Y478D02*
X381Y478D01*
X0Y477D02*
X7Y477D01*
X89Y477D02*
X94Y477D01*
X274Y477D02*
X279Y477D01*
X288Y477D02*
X291Y477D01*
X316Y477D02*
X319Y477D01*
X324Y477D02*
X381Y477D01*
X0Y476D02*
X7Y476D01*
X89Y476D02*
X94Y476D01*
X111Y476D02*
X119Y476D01*
X132Y476D02*
X146Y476D01*
X274Y476D02*
X279Y476D01*
X288Y476D02*
X291Y476D01*
X316Y476D02*
X319Y476D01*
X325Y476D02*
X381Y476D01*
X0Y475D02*
X7Y475D01*
X89Y475D02*
X94Y475D01*
X108Y475D02*
X120Y475D01*
X131Y475D02*
X149Y475D01*
X274Y475D02*
X279Y475D01*
X288Y475D02*
X291Y475D01*
X317Y475D02*
X319Y475D01*
X373Y475D02*
X381Y475D01*
X0Y474D02*
X7Y474D01*
X89Y474D02*
X94Y474D01*
X107Y474D02*
X120Y474D01*
X131Y474D02*
X150Y474D01*
X274Y474D02*
X279Y474D01*
X373Y474D02*
X381Y474D01*
X0Y473D02*
X7Y473D01*
X89Y473D02*
X94Y473D01*
X106Y473D02*
X120Y473D01*
X131Y473D02*
X150Y473D01*
X274Y473D02*
X279Y473D01*
X373Y473D02*
X381Y473D01*
X0Y472D02*
X7Y472D01*
X89Y472D02*
X94Y472D01*
X106Y472D02*
X119Y472D01*
X132Y472D02*
X150Y472D01*
X274Y472D02*
X279Y472D01*
X373Y472D02*
X381Y472D01*
X0Y471D02*
X7Y471D01*
X89Y471D02*
X94Y471D01*
X105Y471D02*
X109Y471D01*
X147Y471D02*
X150Y471D01*
X274Y471D02*
X279Y471D01*
X373Y471D02*
X381Y471D01*
X0Y470D02*
X7Y470D01*
X89Y470D02*
X94Y470D01*
X105Y470D02*
X108Y470D01*
X147Y470D02*
X150Y470D01*
X275Y470D02*
X279Y470D01*
X373Y470D02*
X381Y470D01*
X0Y469D02*
X7Y469D01*
X89Y469D02*
X94Y469D01*
X104Y469D02*
X108Y469D01*
X147Y469D02*
X150Y469D01*
X275Y469D02*
X279Y469D01*
X373Y469D02*
X381Y469D01*
X0Y468D02*
X7Y468D01*
X89Y468D02*
X94Y468D01*
X104Y468D02*
X107Y468D01*
X147Y468D02*
X150Y468D01*
X275Y468D02*
X279Y468D01*
X373Y468D02*
X381Y468D01*
X0Y467D02*
X7Y467D01*
X89Y467D02*
X94Y467D01*
X103Y467D02*
X107Y467D01*
X147Y467D02*
X150Y467D01*
X276Y467D02*
X279Y467D01*
X373Y467D02*
X381Y467D01*
X0Y466D02*
X7Y466D01*
X89Y466D02*
X94Y466D01*
X103Y466D02*
X106Y466D01*
X147Y466D02*
X150Y466D01*
X276Y466D02*
X279Y466D01*
X373Y466D02*
X381Y466D01*
X0Y465D02*
X7Y465D01*
X89Y465D02*
X94Y465D01*
X102Y465D02*
X106Y465D01*
X147Y465D02*
X150Y465D01*
X276Y465D02*
X279Y465D01*
X373Y465D02*
X381Y465D01*
X0Y464D02*
X6Y464D01*
X89Y464D02*
X94Y464D01*
X102Y464D02*
X105Y464D01*
X147Y464D02*
X150Y464D01*
X276Y464D02*
X279Y464D01*
X300Y464D02*
X307Y464D01*
X373Y464D02*
X381Y464D01*
X0Y463D02*
X6Y463D01*
X89Y463D02*
X94Y463D01*
X101Y463D02*
X105Y463D01*
X147Y463D02*
X150Y463D01*
X276Y463D02*
X279Y463D01*
X298Y463D02*
X309Y463D01*
X373Y463D02*
X381Y463D01*
X0Y462D02*
X5Y462D01*
X89Y462D02*
X94Y462D01*
X101Y462D02*
X104Y462D01*
X147Y462D02*
X150Y462D01*
X276Y462D02*
X279Y462D01*
X296Y462D02*
X311Y462D01*
X373Y462D02*
X381Y462D01*
X0Y461D02*
X5Y461D01*
X89Y461D02*
X94Y461D01*
X101Y461D02*
X104Y461D01*
X132Y461D02*
X150Y461D01*
X276Y461D02*
X279Y461D01*
X294Y461D02*
X313Y461D01*
X373Y461D02*
X381Y461D01*
X0Y460D02*
X5Y460D01*
X89Y460D02*
X94Y460D01*
X101Y460D02*
X104Y460D01*
X131Y460D02*
X150Y460D01*
X276Y460D02*
X279Y460D01*
X292Y460D02*
X300Y460D01*
X307Y460D02*
X315Y460D01*
X373Y460D02*
X381Y460D01*
X0Y459D02*
X4Y459D01*
X89Y459D02*
X94Y459D01*
X101Y459D02*
X104Y459D01*
X131Y459D02*
X149Y459D01*
X276Y459D02*
X279Y459D01*
X290Y459D02*
X298Y459D01*
X309Y459D02*
X317Y459D01*
X373Y459D02*
X381Y459D01*
X0Y458D02*
X4Y458D01*
X89Y458D02*
X94Y458D01*
X101Y458D02*
X104Y458D01*
X131Y458D02*
X147Y458D01*
X276Y458D02*
X279Y458D01*
X289Y458D02*
X296Y458D01*
X311Y458D02*
X318Y458D01*
X373Y458D02*
X381Y458D01*
X0Y457D02*
X4Y457D01*
X89Y457D02*
X94Y457D01*
X101Y457D02*
X105Y457D01*
X131Y457D02*
X134Y457D01*
X276Y457D02*
X279Y457D01*
X289Y457D02*
X294Y457D01*
X313Y457D02*
X319Y457D01*
X373Y457D02*
X381Y457D01*
X0Y456D02*
X3Y456D01*
X89Y456D02*
X94Y456D01*
X102Y456D02*
X105Y456D01*
X131Y456D02*
X134Y456D01*
X276Y456D02*
X279Y456D01*
X288Y456D02*
X292Y456D01*
X315Y456D02*
X319Y456D01*
X373Y456D02*
X381Y456D01*
X0Y455D02*
X3Y455D01*
X89Y455D02*
X94Y455D01*
X102Y455D02*
X106Y455D01*
X131Y455D02*
X134Y455D01*
X275Y455D02*
X279Y455D01*
X288Y455D02*
X291Y455D01*
X316Y455D02*
X319Y455D01*
X373Y455D02*
X381Y455D01*
X0Y454D02*
X3Y454D01*
X89Y454D02*
X94Y454D01*
X102Y454D02*
X106Y454D01*
X131Y454D02*
X134Y454D01*
X275Y454D02*
X279Y454D01*
X288Y454D02*
X291Y454D01*
X316Y454D02*
X319Y454D01*
X373Y454D02*
X381Y454D01*
X0Y453D02*
X3Y453D01*
X89Y453D02*
X94Y453D01*
X103Y453D02*
X107Y453D01*
X131Y453D02*
X134Y453D01*
X275Y453D02*
X279Y453D01*
X288Y453D02*
X291Y453D01*
X316Y453D02*
X319Y453D01*
X373Y453D02*
X381Y453D01*
X0Y452D02*
X3Y452D01*
X89Y452D02*
X94Y452D01*
X103Y452D02*
X107Y452D01*
X131Y452D02*
X134Y452D01*
X274Y452D02*
X279Y452D01*
X288Y452D02*
X319Y452D01*
X373Y452D02*
X381Y452D01*
X0Y451D02*
X2Y451D01*
X89Y451D02*
X94Y451D01*
X104Y451D02*
X108Y451D01*
X131Y451D02*
X134Y451D01*
X274Y451D02*
X279Y451D01*
X288Y451D02*
X319Y451D01*
X373Y451D02*
X381Y451D01*
X0Y450D02*
X2Y450D01*
X89Y450D02*
X94Y450D01*
X104Y450D02*
X108Y450D01*
X131Y450D02*
X134Y450D01*
X274Y450D02*
X279Y450D01*
X288Y450D02*
X319Y450D01*
X373Y450D02*
X381Y450D01*
X0Y449D02*
X2Y449D01*
X89Y449D02*
X94Y449D01*
X105Y449D02*
X109Y449D01*
X131Y449D02*
X134Y449D01*
X274Y449D02*
X279Y449D01*
X288Y449D02*
X319Y449D01*
X373Y449D02*
X381Y449D01*
X0Y448D02*
X2Y448D01*
X89Y448D02*
X94Y448D01*
X105Y448D02*
X110Y448D01*
X131Y448D02*
X134Y448D01*
X274Y448D02*
X279Y448D01*
X288Y448D02*
X291Y448D01*
X316Y448D02*
X319Y448D01*
X373Y448D02*
X381Y448D01*
X0Y447D02*
X2Y447D01*
X89Y447D02*
X94Y447D01*
X106Y447D02*
X120Y447D01*
X131Y447D02*
X150Y447D01*
X274Y447D02*
X279Y447D01*
X288Y447D02*
X291Y447D01*
X316Y447D02*
X319Y447D01*
X373Y447D02*
X381Y447D01*
X0Y446D02*
X2Y446D01*
X89Y446D02*
X94Y446D01*
X107Y446D02*
X120Y446D01*
X131Y446D02*
X150Y446D01*
X274Y446D02*
X279Y446D01*
X288Y446D02*
X291Y446D01*
X316Y446D02*
X319Y446D01*
X373Y446D02*
X381Y446D01*
X0Y445D02*
X2Y445D01*
X89Y445D02*
X94Y445D01*
X108Y445D02*
X120Y445D01*
X131Y445D02*
X150Y445D01*
X274Y445D02*
X279Y445D01*
X288Y445D02*
X291Y445D01*
X317Y445D02*
X319Y445D01*
X373Y445D02*
X381Y445D01*
X0Y444D02*
X2Y444D01*
X89Y444D02*
X94Y444D01*
X109Y444D02*
X119Y444D01*
X131Y444D02*
X149Y444D01*
X274Y444D02*
X279Y444D01*
X373Y444D02*
X381Y444D01*
X0Y443D02*
X2Y443D01*
X89Y443D02*
X94Y443D01*
X274Y443D02*
X279Y443D01*
X373Y443D02*
X381Y443D01*
X0Y442D02*
X2Y442D01*
X89Y442D02*
X94Y442D01*
X274Y442D02*
X279Y442D01*
X373Y442D02*
X381Y442D01*
X0Y441D02*
X2Y441D01*
X89Y441D02*
X94Y441D01*
X274Y441D02*
X279Y441D01*
X373Y441D02*
X381Y441D01*
X0Y440D02*
X2Y440D01*
X89Y440D02*
X94Y440D01*
X274Y440D02*
X279Y440D01*
X373Y440D02*
X381Y440D01*
X0Y439D02*
X3Y439D01*
X89Y439D02*
X94Y439D01*
X274Y439D02*
X279Y439D01*
X373Y439D02*
X381Y439D01*
X0Y438D02*
X3Y438D01*
X89Y438D02*
X94Y438D01*
X274Y438D02*
X279Y438D01*
X373Y438D02*
X381Y438D01*
X0Y437D02*
X3Y437D01*
X89Y437D02*
X94Y437D01*
X274Y437D02*
X279Y437D01*
X373Y437D02*
X381Y437D01*
X0Y436D02*
X3Y436D01*
X89Y436D02*
X94Y436D01*
X274Y436D02*
X279Y436D01*
X373Y436D02*
X381Y436D01*
X0Y435D02*
X3Y435D01*
X89Y435D02*
X94Y435D01*
X274Y435D02*
X279Y435D01*
X373Y435D02*
X381Y435D01*
X0Y434D02*
X4Y434D01*
X89Y434D02*
X94Y434D01*
X274Y434D02*
X279Y434D01*
X373Y434D02*
X381Y434D01*
X0Y433D02*
X4Y433D01*
X89Y433D02*
X94Y433D01*
X274Y433D02*
X279Y433D01*
X373Y433D02*
X381Y433D01*
X0Y432D02*
X4Y432D01*
X89Y432D02*
X94Y432D01*
X274Y432D02*
X279Y432D01*
X373Y432D02*
X381Y432D01*
X0Y431D02*
X5Y431D01*
X89Y431D02*
X94Y431D01*
X274Y431D02*
X279Y431D01*
X374Y431D02*
X381Y431D01*
X0Y430D02*
X5Y430D01*
X89Y430D02*
X94Y430D01*
X274Y430D02*
X279Y430D01*
X374Y430D02*
X381Y430D01*
X0Y429D02*
X5Y429D01*
X89Y429D02*
X94Y429D01*
X274Y429D02*
X279Y429D01*
X374Y429D02*
X381Y429D01*
X0Y428D02*
X6Y428D01*
X89Y428D02*
X94Y428D01*
X274Y428D02*
X279Y428D01*
X374Y428D02*
X381Y428D01*
X0Y427D02*
X6Y427D01*
X89Y427D02*
X94Y427D01*
X274Y427D02*
X279Y427D01*
X374Y427D02*
X381Y427D01*
X0Y426D02*
X7Y426D01*
X89Y426D02*
X94Y426D01*
X274Y426D02*
X279Y426D01*
X374Y426D02*
X381Y426D01*
X0Y425D02*
X7Y425D01*
X89Y425D02*
X94Y425D01*
X274Y425D02*
X279Y425D01*
X374Y425D02*
X381Y425D01*
X0Y424D02*
X7Y424D01*
X89Y424D02*
X94Y424D01*
X274Y424D02*
X279Y424D01*
X374Y424D02*
X381Y424D01*
X0Y423D02*
X7Y423D01*
X89Y423D02*
X94Y423D01*
X274Y423D02*
X279Y423D01*
X374Y423D02*
X381Y423D01*
X0Y422D02*
X7Y422D01*
X89Y422D02*
X94Y422D01*
X274Y422D02*
X279Y422D01*
X374Y422D02*
X380Y422D01*
X0Y421D02*
X7Y421D01*
X89Y421D02*
X94Y421D01*
X274Y421D02*
X279Y421D01*
X374Y421D02*
X380Y421D01*
X0Y420D02*
X7Y420D01*
X89Y420D02*
X94Y420D01*
X149Y420D02*
X152Y420D01*
X177Y420D02*
X180Y420D01*
X199Y420D02*
X217Y420D01*
X274Y420D02*
X279Y420D01*
X374Y420D02*
X380Y420D01*
X0Y419D02*
X7Y419D01*
X89Y419D02*
X94Y419D01*
X148Y419D02*
X153Y419D01*
X176Y419D02*
X181Y419D01*
X198Y419D02*
X217Y419D01*
X274Y419D02*
X279Y419D01*
X374Y419D02*
X380Y419D01*
X0Y418D02*
X7Y418D01*
X89Y418D02*
X94Y418D01*
X148Y418D02*
X154Y418D01*
X175Y418D02*
X181Y418D01*
X198Y418D02*
X217Y418D01*
X274Y418D02*
X279Y418D01*
X374Y418D02*
X380Y418D01*
X0Y417D02*
X7Y417D01*
X89Y417D02*
X94Y417D01*
X148Y417D02*
X154Y417D01*
X175Y417D02*
X181Y417D01*
X198Y417D02*
X217Y417D01*
X274Y417D02*
X279Y417D01*
X374Y417D02*
X380Y417D01*
X0Y416D02*
X7Y416D01*
X89Y416D02*
X94Y416D01*
X148Y416D02*
X154Y416D01*
X175Y416D02*
X181Y416D01*
X198Y416D02*
X217Y416D01*
X274Y416D02*
X279Y416D01*
X374Y416D02*
X380Y416D01*
X0Y415D02*
X7Y415D01*
X89Y415D02*
X94Y415D01*
X148Y415D02*
X154Y415D01*
X175Y415D02*
X181Y415D01*
X199Y415D02*
X217Y415D01*
X274Y415D02*
X279Y415D01*
X374Y415D02*
X380Y415D01*
X0Y414D02*
X7Y414D01*
X89Y414D02*
X94Y414D01*
X148Y414D02*
X154Y414D01*
X175Y414D02*
X181Y414D01*
X200Y414D02*
X217Y414D01*
X274Y414D02*
X279Y414D01*
X374Y414D02*
X380Y414D01*
X0Y413D02*
X7Y413D01*
X89Y413D02*
X94Y413D01*
X148Y413D02*
X154Y413D01*
X175Y413D02*
X181Y413D01*
X211Y413D02*
X217Y413D01*
X274Y413D02*
X279Y413D01*
X374Y413D02*
X380Y413D01*
X0Y412D02*
X7Y412D01*
X89Y412D02*
X94Y412D01*
X148Y412D02*
X154Y412D01*
X175Y412D02*
X181Y412D01*
X211Y412D02*
X217Y412D01*
X274Y412D02*
X279Y412D01*
X374Y412D02*
X380Y412D01*
X0Y411D02*
X7Y411D01*
X89Y411D02*
X94Y411D01*
X148Y411D02*
X154Y411D01*
X175Y411D02*
X181Y411D01*
X211Y411D02*
X217Y411D01*
X274Y411D02*
X279Y411D01*
X374Y411D02*
X380Y411D01*
X0Y410D02*
X7Y410D01*
X89Y410D02*
X94Y410D01*
X148Y410D02*
X154Y410D01*
X175Y410D02*
X181Y410D01*
X211Y410D02*
X217Y410D01*
X274Y410D02*
X279Y410D01*
X374Y410D02*
X380Y410D01*
X0Y409D02*
X7Y409D01*
X89Y409D02*
X94Y409D01*
X148Y409D02*
X154Y409D01*
X175Y409D02*
X181Y409D01*
X211Y409D02*
X217Y409D01*
X274Y409D02*
X279Y409D01*
X374Y409D02*
X380Y409D01*
X0Y408D02*
X7Y408D01*
X89Y408D02*
X94Y408D01*
X148Y408D02*
X154Y408D01*
X175Y408D02*
X181Y408D01*
X211Y408D02*
X217Y408D01*
X274Y408D02*
X279Y408D01*
X374Y408D02*
X380Y408D01*
X0Y407D02*
X7Y407D01*
X89Y407D02*
X94Y407D01*
X148Y407D02*
X154Y407D01*
X175Y407D02*
X181Y407D01*
X211Y407D02*
X217Y407D01*
X274Y407D02*
X279Y407D01*
X374Y407D02*
X380Y407D01*
X0Y406D02*
X7Y406D01*
X89Y406D02*
X94Y406D01*
X148Y406D02*
X154Y406D01*
X175Y406D02*
X181Y406D01*
X211Y406D02*
X217Y406D01*
X274Y406D02*
X279Y406D01*
X374Y406D02*
X380Y406D01*
X0Y405D02*
X7Y405D01*
X30Y405D02*
X32Y405D01*
X89Y405D02*
X94Y405D01*
X148Y405D02*
X154Y405D01*
X175Y405D02*
X181Y405D01*
X211Y405D02*
X217Y405D01*
X274Y405D02*
X279Y405D01*
X374Y405D02*
X380Y405D01*
X0Y404D02*
X7Y404D01*
X29Y404D02*
X36Y404D01*
X55Y404D02*
X57Y404D01*
X89Y404D02*
X94Y404D01*
X148Y404D02*
X154Y404D01*
X175Y404D02*
X181Y404D01*
X211Y404D02*
X217Y404D01*
X274Y404D02*
X279Y404D01*
X374Y404D02*
X380Y404D01*
X0Y403D02*
X7Y403D01*
X29Y403D02*
X31Y403D01*
X37Y403D02*
X40Y403D01*
X46Y403D02*
X48Y403D01*
X54Y403D02*
X56Y403D01*
X89Y403D02*
X94Y403D01*
X148Y403D02*
X154Y403D01*
X175Y403D02*
X181Y403D01*
X211Y403D02*
X217Y403D01*
X274Y403D02*
X279Y403D01*
X374Y403D02*
X380Y403D01*
X0Y402D02*
X7Y402D01*
X29Y402D02*
X31Y402D01*
X38Y402D02*
X40Y402D01*
X46Y402D02*
X48Y402D01*
X52Y402D02*
X55Y402D01*
X89Y402D02*
X94Y402D01*
X148Y402D02*
X154Y402D01*
X175Y402D02*
X181Y402D01*
X211Y402D02*
X217Y402D01*
X274Y402D02*
X279Y402D01*
X374Y402D02*
X380Y402D01*
X0Y401D02*
X7Y401D01*
X29Y401D02*
X31Y401D01*
X46Y401D02*
X48Y401D01*
X51Y401D02*
X54Y401D01*
X89Y401D02*
X94Y401D01*
X148Y401D02*
X154Y401D01*
X175Y401D02*
X181Y401D01*
X211Y401D02*
X217Y401D01*
X274Y401D02*
X279Y401D01*
X374Y401D02*
X380Y401D01*
X0Y400D02*
X7Y400D01*
X30Y400D02*
X32Y400D01*
X46Y400D02*
X48Y400D01*
X50Y400D02*
X53Y400D01*
X89Y400D02*
X94Y400D01*
X148Y400D02*
X154Y400D01*
X175Y400D02*
X181Y400D01*
X211Y400D02*
X217Y400D01*
X274Y400D02*
X279Y400D01*
X325Y400D02*
X327Y400D01*
X374Y400D02*
X380Y400D01*
X0Y399D02*
X7Y399D01*
X31Y399D02*
X33Y399D01*
X46Y399D02*
X52Y399D01*
X89Y399D02*
X94Y399D01*
X148Y399D02*
X154Y399D01*
X175Y399D02*
X181Y399D01*
X211Y399D02*
X217Y399D01*
X274Y399D02*
X279Y399D01*
X323Y399D02*
X329Y399D01*
X374Y399D02*
X380Y399D01*
X0Y398D02*
X7Y398D01*
X32Y398D02*
X34Y398D01*
X46Y398D02*
X50Y398D01*
X89Y398D02*
X94Y398D01*
X148Y398D02*
X154Y398D01*
X175Y398D02*
X181Y398D01*
X211Y398D02*
X217Y398D01*
X274Y398D02*
X279Y398D01*
X323Y398D02*
X329Y398D01*
X374Y398D02*
X380Y398D01*
X0Y397D02*
X7Y397D01*
X32Y397D02*
X35Y397D01*
X46Y397D02*
X49Y397D01*
X89Y397D02*
X94Y397D01*
X148Y397D02*
X154Y397D01*
X175Y397D02*
X181Y397D01*
X211Y397D02*
X217Y397D01*
X274Y397D02*
X279Y397D01*
X323Y397D02*
X329Y397D01*
X373Y397D02*
X380Y397D01*
X0Y396D02*
X7Y396D01*
X33Y396D02*
X35Y396D01*
X46Y396D02*
X49Y396D01*
X89Y396D02*
X94Y396D01*
X148Y396D02*
X154Y396D01*
X175Y396D02*
X181Y396D01*
X211Y396D02*
X217Y396D01*
X274Y396D02*
X279Y396D01*
X323Y396D02*
X330Y396D01*
X373Y396D02*
X380Y396D01*
X0Y395D02*
X7Y395D01*
X34Y395D02*
X36Y395D01*
X46Y395D02*
X50Y395D01*
X89Y395D02*
X94Y395D01*
X148Y395D02*
X154Y395D01*
X175Y395D02*
X181Y395D01*
X211Y395D02*
X217Y395D01*
X274Y395D02*
X279Y395D01*
X323Y395D02*
X330Y395D01*
X373Y395D02*
X380Y395D01*
X0Y394D02*
X7Y394D01*
X35Y394D02*
X37Y394D01*
X46Y394D02*
X51Y394D01*
X89Y394D02*
X94Y394D01*
X148Y394D02*
X154Y394D01*
X175Y394D02*
X181Y394D01*
X211Y394D02*
X217Y394D01*
X274Y394D02*
X279Y394D01*
X323Y394D02*
X330Y394D01*
X373Y394D02*
X380Y394D01*
X0Y393D02*
X7Y393D01*
X36Y393D02*
X38Y393D01*
X46Y393D02*
X52Y393D01*
X89Y393D02*
X94Y393D01*
X148Y393D02*
X154Y393D01*
X175Y393D02*
X181Y393D01*
X211Y393D02*
X217Y393D01*
X274Y393D02*
X279Y393D01*
X323Y393D02*
X330Y393D01*
X373Y393D02*
X380Y393D01*
X0Y392D02*
X7Y392D01*
X36Y392D02*
X38Y392D01*
X46Y392D02*
X48Y392D01*
X50Y392D02*
X53Y392D01*
X89Y392D02*
X94Y392D01*
X148Y392D02*
X154Y392D01*
X175Y392D02*
X181Y392D01*
X211Y392D02*
X217Y392D01*
X274Y392D02*
X279Y392D01*
X323Y392D02*
X381Y392D01*
X0Y391D02*
X7Y391D01*
X37Y391D02*
X39Y391D01*
X46Y391D02*
X48Y391D01*
X51Y391D02*
X54Y391D01*
X89Y391D02*
X94Y391D01*
X148Y391D02*
X154Y391D01*
X175Y391D02*
X181Y391D01*
X211Y391D02*
X217Y391D01*
X227Y391D02*
X229Y391D01*
X274Y391D02*
X279Y391D01*
X323Y391D02*
X381Y391D01*
X0Y390D02*
X7Y390D01*
X29Y390D02*
X30Y390D01*
X38Y390D02*
X40Y390D01*
X46Y390D02*
X48Y390D01*
X53Y390D02*
X55Y390D01*
X89Y390D02*
X94Y390D01*
X148Y390D02*
X154Y390D01*
X175Y390D02*
X181Y390D01*
X211Y390D02*
X217Y390D01*
X226Y390D02*
X230Y390D01*
X274Y390D02*
X279Y390D01*
X323Y390D02*
X381Y390D01*
X0Y389D02*
X7Y389D01*
X29Y389D02*
X40Y389D01*
X46Y389D02*
X48Y389D01*
X54Y389D02*
X57Y389D01*
X89Y389D02*
X94Y389D01*
X148Y389D02*
X154Y389D01*
X175Y389D02*
X181Y389D01*
X211Y389D02*
X217Y389D01*
X225Y389D02*
X231Y389D01*
X274Y389D02*
X279Y389D01*
X323Y389D02*
X325Y389D01*
X379Y389D02*
X381Y389D01*
X0Y388D02*
X7Y388D01*
X30Y388D02*
X39Y388D01*
X46Y388D02*
X48Y388D01*
X55Y388D02*
X57Y388D01*
X89Y388D02*
X94Y388D01*
X148Y388D02*
X154Y388D01*
X175Y388D02*
X181Y388D01*
X211Y388D02*
X217Y388D01*
X225Y388D02*
X231Y388D01*
X274Y388D02*
X279Y388D01*
X323Y388D02*
X325Y388D01*
X379Y388D02*
X381Y388D01*
X0Y387D02*
X7Y387D01*
X31Y387D02*
X34Y387D01*
X56Y387D02*
X56Y387D01*
X89Y387D02*
X94Y387D01*
X148Y387D02*
X154Y387D01*
X175Y387D02*
X181Y387D01*
X211Y387D02*
X217Y387D01*
X225Y387D02*
X231Y387D01*
X274Y387D02*
X279Y387D01*
X323Y387D02*
X325Y387D01*
X379Y387D02*
X381Y387D01*
X0Y386D02*
X7Y386D01*
X89Y386D02*
X94Y386D01*
X148Y386D02*
X154Y386D01*
X175Y386D02*
X181Y386D01*
X211Y386D02*
X217Y386D01*
X225Y386D02*
X231Y386D01*
X274Y386D02*
X279Y386D01*
X323Y386D02*
X325Y386D01*
X379Y386D02*
X381Y386D01*
X0Y385D02*
X7Y385D01*
X89Y385D02*
X94Y385D01*
X148Y385D02*
X154Y385D01*
X175Y385D02*
X181Y385D01*
X211Y385D02*
X217Y385D01*
X225Y385D02*
X231Y385D01*
X274Y385D02*
X279Y385D01*
X323Y385D02*
X325Y385D01*
X379Y385D02*
X381Y385D01*
X0Y384D02*
X7Y384D01*
X89Y384D02*
X94Y384D01*
X148Y384D02*
X154Y384D01*
X175Y384D02*
X181Y384D01*
X211Y384D02*
X217Y384D01*
X225Y384D02*
X231Y384D01*
X274Y384D02*
X279Y384D01*
X323Y384D02*
X325Y384D01*
X379Y384D02*
X381Y384D01*
X0Y383D02*
X7Y383D01*
X89Y383D02*
X94Y383D01*
X148Y383D02*
X154Y383D01*
X175Y383D02*
X181Y383D01*
X211Y383D02*
X217Y383D01*
X225Y383D02*
X231Y383D01*
X274Y383D02*
X279Y383D01*
X323Y383D02*
X325Y383D01*
X379Y383D02*
X381Y383D01*
X0Y382D02*
X7Y382D01*
X89Y382D02*
X94Y382D01*
X148Y382D02*
X154Y382D01*
X175Y382D02*
X181Y382D01*
X211Y382D02*
X217Y382D01*
X225Y382D02*
X231Y382D01*
X274Y382D02*
X279Y382D01*
X323Y382D02*
X325Y382D01*
X379Y382D02*
X381Y382D01*
X0Y381D02*
X7Y381D01*
X89Y381D02*
X94Y381D01*
X148Y381D02*
X154Y381D01*
X175Y381D02*
X181Y381D01*
X211Y381D02*
X217Y381D01*
X225Y381D02*
X231Y381D01*
X274Y381D02*
X279Y381D01*
X323Y381D02*
X325Y381D01*
X379Y381D02*
X381Y381D01*
X0Y380D02*
X7Y380D01*
X89Y380D02*
X94Y380D01*
X148Y380D02*
X154Y380D01*
X175Y380D02*
X181Y380D01*
X211Y380D02*
X217Y380D01*
X225Y380D02*
X231Y380D01*
X274Y380D02*
X279Y380D01*
X323Y380D02*
X325Y380D01*
X379Y380D02*
X381Y380D01*
X0Y379D02*
X7Y379D01*
X89Y379D02*
X94Y379D01*
X148Y379D02*
X154Y379D01*
X175Y379D02*
X181Y379D01*
X211Y379D02*
X217Y379D01*
X225Y379D02*
X231Y379D01*
X274Y379D02*
X279Y379D01*
X323Y379D02*
X325Y379D01*
X379Y379D02*
X381Y379D01*
X0Y378D02*
X7Y378D01*
X89Y378D02*
X94Y378D01*
X148Y378D02*
X154Y378D01*
X175Y378D02*
X181Y378D01*
X211Y378D02*
X217Y378D01*
X225Y378D02*
X231Y378D01*
X274Y378D02*
X279Y378D01*
X323Y378D02*
X325Y378D01*
X379Y378D02*
X381Y378D01*
X0Y377D02*
X7Y377D01*
X89Y377D02*
X94Y377D01*
X148Y377D02*
X154Y377D01*
X175Y377D02*
X181Y377D01*
X211Y377D02*
X217Y377D01*
X225Y377D02*
X231Y377D01*
X274Y377D02*
X279Y377D01*
X323Y377D02*
X325Y377D01*
X379Y377D02*
X381Y377D01*
X0Y376D02*
X7Y376D01*
X89Y376D02*
X94Y376D01*
X148Y376D02*
X154Y376D01*
X175Y376D02*
X181Y376D01*
X211Y376D02*
X217Y376D01*
X225Y376D02*
X231Y376D01*
X274Y376D02*
X279Y376D01*
X323Y376D02*
X325Y376D01*
X379Y376D02*
X381Y376D01*
X0Y375D02*
X7Y375D01*
X89Y375D02*
X94Y375D01*
X148Y375D02*
X155Y375D01*
X174Y375D02*
X181Y375D01*
X211Y375D02*
X217Y375D01*
X225Y375D02*
X231Y375D01*
X274Y375D02*
X279Y375D01*
X323Y375D02*
X325Y375D01*
X379Y375D02*
X381Y375D01*
X0Y374D02*
X7Y374D01*
X89Y374D02*
X94Y374D01*
X148Y374D02*
X156Y374D01*
X173Y374D02*
X181Y374D01*
X211Y374D02*
X218Y374D01*
X225Y374D02*
X231Y374D01*
X274Y374D02*
X279Y374D01*
X323Y374D02*
X325Y374D01*
X379Y374D02*
X381Y374D01*
X0Y373D02*
X7Y373D01*
X89Y373D02*
X94Y373D01*
X149Y373D02*
X180Y373D01*
X199Y373D02*
X231Y373D01*
X274Y373D02*
X279Y373D01*
X323Y373D02*
X325Y373D01*
X379Y373D02*
X381Y373D01*
X0Y372D02*
X7Y372D01*
X89Y372D02*
X94Y372D01*
X149Y372D02*
X180Y372D01*
X198Y372D02*
X231Y372D01*
X274Y372D02*
X279Y372D01*
X323Y372D02*
X325Y372D01*
X379Y372D02*
X381Y372D01*
X0Y371D02*
X7Y371D01*
X89Y371D02*
X94Y371D01*
X150Y371D02*
X179Y371D01*
X198Y371D02*
X231Y371D01*
X274Y371D02*
X279Y371D01*
X323Y371D02*
X325Y371D01*
X379Y371D02*
X381Y371D01*
X0Y370D02*
X7Y370D01*
X89Y370D02*
X94Y370D01*
X151Y370D02*
X178Y370D01*
X198Y370D02*
X231Y370D01*
X274Y370D02*
X279Y370D01*
X323Y370D02*
X325Y370D01*
X379Y370D02*
X381Y370D01*
X0Y369D02*
X7Y369D01*
X89Y369D02*
X94Y369D01*
X152Y369D02*
X177Y369D01*
X198Y369D02*
X231Y369D01*
X274Y369D02*
X279Y369D01*
X323Y369D02*
X325Y369D01*
X379Y369D02*
X381Y369D01*
X0Y368D02*
X7Y368D01*
X89Y368D02*
X94Y368D01*
X153Y368D02*
X176Y368D01*
X199Y368D02*
X230Y368D01*
X274Y368D02*
X279Y368D01*
X323Y368D02*
X325Y368D01*
X379Y368D02*
X381Y368D01*
X0Y367D02*
X7Y367D01*
X89Y367D02*
X94Y367D01*
X156Y367D02*
X173Y367D01*
X200Y367D02*
X229Y367D01*
X274Y367D02*
X279Y367D01*
X323Y367D02*
X325Y367D01*
X379Y367D02*
X381Y367D01*
X0Y366D02*
X6Y366D01*
X89Y366D02*
X94Y366D01*
X274Y366D02*
X279Y366D01*
X323Y366D02*
X325Y366D01*
X379Y366D02*
X381Y366D01*
X0Y365D02*
X6Y365D01*
X89Y365D02*
X94Y365D01*
X274Y365D02*
X279Y365D01*
X323Y365D02*
X325Y365D01*
X379Y365D02*
X381Y365D01*
X0Y364D02*
X5Y364D01*
X89Y364D02*
X94Y364D01*
X274Y364D02*
X279Y364D01*
X323Y364D02*
X325Y364D01*
X379Y364D02*
X381Y364D01*
X0Y363D02*
X5Y363D01*
X89Y363D02*
X94Y363D01*
X274Y363D02*
X279Y363D01*
X323Y363D02*
X325Y363D01*
X379Y363D02*
X381Y363D01*
X0Y362D02*
X5Y362D01*
X89Y362D02*
X94Y362D01*
X274Y362D02*
X279Y362D01*
X323Y362D02*
X325Y362D01*
X379Y362D02*
X381Y362D01*
X0Y361D02*
X4Y361D01*
X89Y361D02*
X94Y361D01*
X274Y361D02*
X279Y361D01*
X323Y361D02*
X325Y361D01*
X379Y361D02*
X381Y361D01*
X0Y360D02*
X4Y360D01*
X89Y360D02*
X94Y360D01*
X274Y360D02*
X279Y360D01*
X323Y360D02*
X325Y360D01*
X379Y360D02*
X381Y360D01*
X0Y359D02*
X4Y359D01*
X89Y359D02*
X94Y359D01*
X274Y359D02*
X279Y359D01*
X323Y359D02*
X325Y359D01*
X379Y359D02*
X381Y359D01*
X0Y358D02*
X4Y358D01*
X89Y358D02*
X94Y358D01*
X274Y358D02*
X279Y358D01*
X323Y358D02*
X325Y358D01*
X379Y358D02*
X381Y358D01*
X0Y357D02*
X3Y357D01*
X89Y357D02*
X94Y357D01*
X274Y357D02*
X279Y357D01*
X323Y357D02*
X325Y357D01*
X379Y357D02*
X381Y357D01*
X0Y356D02*
X3Y356D01*
X89Y356D02*
X94Y356D01*
X274Y356D02*
X279Y356D01*
X323Y356D02*
X325Y356D01*
X379Y356D02*
X381Y356D01*
X0Y355D02*
X3Y355D01*
X89Y355D02*
X94Y355D01*
X274Y355D02*
X279Y355D01*
X323Y355D02*
X325Y355D01*
X379Y355D02*
X381Y355D01*
X0Y354D02*
X3Y354D01*
X89Y354D02*
X94Y354D01*
X274Y354D02*
X279Y354D01*
X323Y354D02*
X325Y354D01*
X379Y354D02*
X381Y354D01*
X0Y353D02*
X3Y353D01*
X89Y353D02*
X94Y353D01*
X227Y353D02*
X236Y353D01*
X258Y353D02*
X258Y353D01*
X274Y353D02*
X279Y353D01*
X323Y353D02*
X325Y353D01*
X379Y353D02*
X381Y353D01*
X0Y352D02*
X3Y352D01*
X89Y352D02*
X94Y352D01*
X226Y352D02*
X238Y352D01*
X257Y352D02*
X259Y352D01*
X274Y352D02*
X279Y352D01*
X323Y352D02*
X325Y352D01*
X379Y352D02*
X381Y352D01*
X0Y351D02*
X3Y351D01*
X89Y351D02*
X94Y351D01*
X225Y351D02*
X239Y351D01*
X256Y351D02*
X260Y351D01*
X274Y351D02*
X279Y351D01*
X323Y351D02*
X325Y351D01*
X379Y351D02*
X381Y351D01*
X0Y350D02*
X3Y350D01*
X89Y350D02*
X94Y350D01*
X226Y350D02*
X240Y350D01*
X256Y350D02*
X260Y350D01*
X274Y350D02*
X279Y350D01*
X323Y350D02*
X325Y350D01*
X379Y350D02*
X381Y350D01*
X0Y349D02*
X3Y349D01*
X89Y349D02*
X94Y349D01*
X228Y349D02*
X240Y349D01*
X256Y349D02*
X260Y349D01*
X269Y349D02*
X271Y349D01*
X274Y349D02*
X279Y349D01*
X323Y349D02*
X325Y349D01*
X379Y349D02*
X381Y349D01*
X0Y348D02*
X3Y348D01*
X89Y348D02*
X94Y348D01*
X229Y348D02*
X233Y348D01*
X237Y348D02*
X241Y348D01*
X256Y348D02*
X260Y348D01*
X269Y348D02*
X272Y348D01*
X274Y348D02*
X279Y348D01*
X323Y348D02*
X325Y348D01*
X379Y348D02*
X381Y348D01*
X0Y347D02*
X3Y347D01*
X89Y347D02*
X94Y347D01*
X229Y347D02*
X233Y347D01*
X237Y347D02*
X241Y347D01*
X256Y347D02*
X260Y347D01*
X269Y347D02*
X272Y347D01*
X274Y347D02*
X279Y347D01*
X323Y347D02*
X325Y347D01*
X379Y347D02*
X381Y347D01*
X0Y346D02*
X3Y346D01*
X89Y346D02*
X94Y346D01*
X229Y346D02*
X233Y346D01*
X238Y346D02*
X242Y346D01*
X256Y346D02*
X260Y346D01*
X269Y346D02*
X272Y346D01*
X274Y346D02*
X279Y346D01*
X323Y346D02*
X325Y346D01*
X379Y346D02*
X381Y346D01*
X0Y345D02*
X3Y345D01*
X89Y345D02*
X94Y345D01*
X229Y345D02*
X233Y345D01*
X238Y345D02*
X242Y345D01*
X256Y345D02*
X260Y345D01*
X269Y345D02*
X272Y345D01*
X274Y345D02*
X325Y345D01*
X379Y345D02*
X381Y345D01*
X0Y344D02*
X3Y344D01*
X89Y344D02*
X94Y344D01*
X229Y344D02*
X233Y344D01*
X239Y344D02*
X243Y344D01*
X256Y344D02*
X260Y344D01*
X269Y344D02*
X325Y344D01*
X379Y344D02*
X381Y344D01*
X0Y343D02*
X3Y343D01*
X89Y343D02*
X94Y343D01*
X229Y343D02*
X233Y343D01*
X239Y343D02*
X243Y343D01*
X256Y343D02*
X260Y343D01*
X269Y343D02*
X325Y343D01*
X379Y343D02*
X381Y343D01*
X0Y342D02*
X3Y342D01*
X89Y342D02*
X94Y342D01*
X229Y342D02*
X233Y342D01*
X240Y342D02*
X244Y342D01*
X256Y342D02*
X260Y342D01*
X269Y342D02*
X325Y342D01*
X379Y342D02*
X381Y342D01*
X0Y341D02*
X3Y341D01*
X89Y341D02*
X94Y341D01*
X229Y341D02*
X233Y341D01*
X240Y341D02*
X244Y341D01*
X256Y341D02*
X260Y341D01*
X269Y341D02*
X325Y341D01*
X379Y341D02*
X381Y341D01*
X0Y340D02*
X4Y340D01*
X89Y340D02*
X94Y340D01*
X229Y340D02*
X233Y340D01*
X241Y340D02*
X245Y340D01*
X256Y340D02*
X260Y340D01*
X269Y340D02*
X325Y340D01*
X379Y340D02*
X381Y340D01*
X0Y339D02*
X4Y339D01*
X89Y339D02*
X94Y339D01*
X229Y339D02*
X233Y339D01*
X241Y339D02*
X245Y339D01*
X256Y339D02*
X260Y339D01*
X269Y339D02*
X325Y339D01*
X379Y339D02*
X381Y339D01*
X0Y338D02*
X4Y338D01*
X89Y338D02*
X94Y338D01*
X229Y338D02*
X233Y338D01*
X242Y338D02*
X245Y338D01*
X256Y338D02*
X260Y338D01*
X269Y338D02*
X272Y338D01*
X274Y338D02*
X325Y338D01*
X379Y338D02*
X381Y338D01*
X0Y337D02*
X4Y337D01*
X89Y337D02*
X94Y337D01*
X229Y337D02*
X233Y337D01*
X242Y337D02*
X245Y337D01*
X256Y337D02*
X260Y337D01*
X269Y337D02*
X272Y337D01*
X274Y337D02*
X279Y337D01*
X323Y337D02*
X325Y337D01*
X379Y337D02*
X381Y337D01*
X0Y336D02*
X5Y336D01*
X89Y336D02*
X94Y336D01*
X229Y336D02*
X233Y336D01*
X242Y336D02*
X245Y336D01*
X256Y336D02*
X260Y336D01*
X269Y336D02*
X272Y336D01*
X274Y336D02*
X279Y336D01*
X323Y336D02*
X325Y336D01*
X379Y336D02*
X381Y336D01*
X0Y335D02*
X5Y335D01*
X89Y335D02*
X94Y335D01*
X229Y335D02*
X233Y335D01*
X241Y335D02*
X245Y335D01*
X256Y335D02*
X279Y335D01*
X323Y335D02*
X325Y335D01*
X379Y335D02*
X381Y335D01*
X0Y334D02*
X6Y334D01*
X89Y334D02*
X94Y334D01*
X229Y334D02*
X233Y334D01*
X241Y334D02*
X245Y334D01*
X256Y334D02*
X279Y334D01*
X323Y334D02*
X325Y334D01*
X379Y334D02*
X381Y334D01*
X0Y333D02*
X6Y333D01*
X89Y333D02*
X94Y333D01*
X229Y333D02*
X233Y333D01*
X241Y333D02*
X244Y333D01*
X256Y333D02*
X279Y333D01*
X323Y333D02*
X325Y333D01*
X379Y333D02*
X381Y333D01*
X0Y332D02*
X7Y332D01*
X89Y332D02*
X94Y332D01*
X229Y332D02*
X233Y332D01*
X240Y332D02*
X244Y332D01*
X256Y332D02*
X279Y332D01*
X323Y332D02*
X330Y332D01*
X373Y332D02*
X381Y332D01*
X0Y331D02*
X7Y331D01*
X89Y331D02*
X94Y331D01*
X229Y331D02*
X233Y331D01*
X240Y331D02*
X243Y331D01*
X269Y331D02*
X272Y331D01*
X274Y331D02*
X279Y331D01*
X323Y331D02*
X330Y331D01*
X373Y331D02*
X381Y331D01*
X0Y330D02*
X7Y330D01*
X89Y330D02*
X94Y330D01*
X229Y330D02*
X233Y330D01*
X239Y330D02*
X243Y330D01*
X269Y330D02*
X272Y330D01*
X274Y330D02*
X279Y330D01*
X323Y330D02*
X330Y330D01*
X373Y330D02*
X381Y330D01*
X0Y329D02*
X7Y329D01*
X89Y329D02*
X94Y329D01*
X229Y329D02*
X233Y329D01*
X238Y329D02*
X242Y329D01*
X269Y329D02*
X272Y329D01*
X274Y329D02*
X279Y329D01*
X323Y329D02*
X330Y329D01*
X373Y329D02*
X381Y329D01*
X0Y328D02*
X7Y328D01*
X89Y328D02*
X94Y328D01*
X229Y328D02*
X233Y328D01*
X238Y328D02*
X242Y328D01*
X269Y328D02*
X272Y328D01*
X274Y328D02*
X279Y328D01*
X323Y328D02*
X330Y328D01*
X373Y328D02*
X381Y328D01*
X0Y327D02*
X7Y327D01*
X89Y327D02*
X94Y327D01*
X229Y327D02*
X233Y327D01*
X237Y327D02*
X241Y327D01*
X269Y327D02*
X272Y327D01*
X274Y327D02*
X279Y327D01*
X323Y327D02*
X330Y327D01*
X373Y327D02*
X381Y327D01*
X0Y326D02*
X7Y326D01*
X89Y326D02*
X94Y326D01*
X229Y326D02*
X233Y326D01*
X237Y326D02*
X241Y326D01*
X269Y326D02*
X272Y326D01*
X274Y326D02*
X279Y326D01*
X323Y326D02*
X330Y326D01*
X373Y326D02*
X381Y326D01*
X0Y325D02*
X7Y325D01*
X89Y325D02*
X94Y325D01*
X229Y325D02*
X233Y325D01*
X235Y325D02*
X240Y325D01*
X269Y325D02*
X272Y325D01*
X274Y325D02*
X279Y325D01*
X323Y325D02*
X329Y325D01*
X373Y325D02*
X381Y325D01*
X0Y324D02*
X7Y324D01*
X89Y324D02*
X94Y324D01*
X226Y324D02*
X240Y324D01*
X269Y324D02*
X272Y324D01*
X274Y324D02*
X279Y324D01*
X323Y324D02*
X329Y324D01*
X373Y324D02*
X381Y324D01*
X0Y323D02*
X7Y323D01*
X89Y323D02*
X94Y323D01*
X225Y323D02*
X239Y323D01*
X269Y323D02*
X272Y323D01*
X274Y323D02*
X279Y323D01*
X323Y323D02*
X328Y323D01*
X373Y323D02*
X381Y323D01*
X0Y322D02*
X7Y322D01*
X89Y322D02*
X94Y322D01*
X226Y322D02*
X238Y322D01*
X269Y322D02*
X272Y322D01*
X274Y322D02*
X279Y322D01*
X323Y322D02*
X325Y322D01*
X379Y322D02*
X381Y322D01*
X0Y321D02*
X7Y321D01*
X89Y321D02*
X94Y321D01*
X227Y321D02*
X236Y321D01*
X270Y321D02*
X271Y321D01*
X274Y321D02*
X279Y321D01*
X323Y321D02*
X325Y321D01*
X379Y321D02*
X381Y321D01*
X0Y320D02*
X7Y320D01*
X89Y320D02*
X94Y320D01*
X274Y320D02*
X279Y320D01*
X323Y320D02*
X325Y320D01*
X379Y320D02*
X381Y320D01*
X0Y319D02*
X7Y319D01*
X89Y319D02*
X94Y319D01*
X274Y319D02*
X279Y319D01*
X323Y319D02*
X325Y319D01*
X379Y319D02*
X381Y319D01*
X0Y318D02*
X7Y318D01*
X89Y318D02*
X94Y318D01*
X274Y318D02*
X279Y318D01*
X323Y318D02*
X325Y318D01*
X379Y318D02*
X381Y318D01*
X0Y317D02*
X7Y317D01*
X89Y317D02*
X94Y317D01*
X274Y317D02*
X279Y317D01*
X323Y317D02*
X325Y317D01*
X379Y317D02*
X381Y317D01*
X0Y316D02*
X7Y316D01*
X89Y316D02*
X94Y316D01*
X274Y316D02*
X279Y316D01*
X323Y316D02*
X325Y316D01*
X379Y316D02*
X381Y316D01*
X0Y315D02*
X7Y315D01*
X89Y315D02*
X94Y315D01*
X274Y315D02*
X279Y315D01*
X323Y315D02*
X325Y315D01*
X379Y315D02*
X381Y315D01*
X0Y314D02*
X7Y314D01*
X89Y314D02*
X94Y314D01*
X274Y314D02*
X279Y314D01*
X323Y314D02*
X325Y314D01*
X379Y314D02*
X381Y314D01*
X0Y313D02*
X7Y313D01*
X89Y313D02*
X92Y313D01*
X276Y313D02*
X279Y313D01*
X323Y313D02*
X325Y313D01*
X379Y313D02*
X381Y313D01*
X0Y312D02*
X7Y312D01*
X89Y312D02*
X92Y312D01*
X276Y312D02*
X279Y312D01*
X323Y312D02*
X325Y312D01*
X379Y312D02*
X381Y312D01*
X0Y311D02*
X7Y311D01*
X89Y311D02*
X92Y311D01*
X276Y311D02*
X279Y311D01*
X323Y311D02*
X325Y311D01*
X379Y311D02*
X381Y311D01*
X0Y310D02*
X7Y310D01*
X89Y310D02*
X92Y310D01*
X276Y310D02*
X279Y310D01*
X323Y310D02*
X325Y310D01*
X379Y310D02*
X381Y310D01*
X0Y309D02*
X7Y309D01*
X89Y309D02*
X92Y309D01*
X276Y309D02*
X279Y309D01*
X323Y309D02*
X325Y309D01*
X379Y309D02*
X381Y309D01*
X0Y308D02*
X7Y308D01*
X89Y308D02*
X92Y308D01*
X276Y308D02*
X279Y308D01*
X323Y308D02*
X325Y308D01*
X379Y308D02*
X381Y308D01*
X0Y307D02*
X7Y307D01*
X89Y307D02*
X92Y307D01*
X276Y307D02*
X279Y307D01*
X323Y307D02*
X325Y307D01*
X379Y307D02*
X381Y307D01*
X0Y306D02*
X7Y306D01*
X28Y306D02*
X30Y306D01*
X36Y306D02*
X39Y306D01*
X45Y306D02*
X56Y306D01*
X89Y306D02*
X92Y306D01*
X276Y306D02*
X279Y306D01*
X323Y306D02*
X325Y306D01*
X379Y306D02*
X381Y306D01*
X0Y305D02*
X7Y305D01*
X28Y305D02*
X31Y305D01*
X35Y305D02*
X39Y305D01*
X45Y305D02*
X56Y305D01*
X89Y305D02*
X92Y305D01*
X276Y305D02*
X279Y305D01*
X323Y305D02*
X325Y305D01*
X379Y305D02*
X381Y305D01*
X0Y304D02*
X7Y304D01*
X28Y304D02*
X31Y304D01*
X35Y304D02*
X39Y304D01*
X50Y304D02*
X51Y304D01*
X89Y304D02*
X92Y304D01*
X276Y304D02*
X279Y304D01*
X323Y304D02*
X325Y304D01*
X379Y304D02*
X381Y304D01*
X0Y303D02*
X7Y303D01*
X28Y303D02*
X32Y303D01*
X34Y303D02*
X39Y303D01*
X50Y303D02*
X51Y303D01*
X89Y303D02*
X92Y303D01*
X276Y303D02*
X279Y303D01*
X323Y303D02*
X325Y303D01*
X379Y303D02*
X381Y303D01*
X0Y302D02*
X7Y302D01*
X28Y302D02*
X29Y302D01*
X31Y302D02*
X35Y302D01*
X37Y302D02*
X39Y302D01*
X50Y302D02*
X51Y302D01*
X89Y302D02*
X92Y302D01*
X276Y302D02*
X279Y302D01*
X323Y302D02*
X325Y302D01*
X379Y302D02*
X381Y302D01*
X0Y301D02*
X7Y301D01*
X28Y301D02*
X29Y301D01*
X32Y301D02*
X35Y301D01*
X37Y301D02*
X39Y301D01*
X50Y301D02*
X51Y301D01*
X89Y301D02*
X92Y301D01*
X276Y301D02*
X279Y301D01*
X323Y301D02*
X325Y301D01*
X379Y301D02*
X381Y301D01*
X0Y300D02*
X7Y300D01*
X28Y300D02*
X29Y300D01*
X32Y300D02*
X34Y300D01*
X37Y300D02*
X39Y300D01*
X50Y300D02*
X51Y300D01*
X89Y300D02*
X92Y300D01*
X276Y300D02*
X279Y300D01*
X323Y300D02*
X325Y300D01*
X379Y300D02*
X381Y300D01*
X0Y299D02*
X7Y299D01*
X28Y299D02*
X29Y299D01*
X33Y299D02*
X34Y299D01*
X37Y299D02*
X39Y299D01*
X50Y299D02*
X51Y299D01*
X89Y299D02*
X92Y299D01*
X276Y299D02*
X279Y299D01*
X323Y299D02*
X325Y299D01*
X379Y299D02*
X381Y299D01*
X0Y298D02*
X7Y298D01*
X28Y298D02*
X29Y298D01*
X37Y298D02*
X39Y298D01*
X50Y298D02*
X51Y298D01*
X89Y298D02*
X92Y298D01*
X276Y298D02*
X279Y298D01*
X323Y298D02*
X325Y298D01*
X379Y298D02*
X381Y298D01*
X0Y297D02*
X7Y297D01*
X28Y297D02*
X29Y297D01*
X37Y297D02*
X39Y297D01*
X50Y297D02*
X51Y297D01*
X89Y297D02*
X92Y297D01*
X276Y297D02*
X279Y297D01*
X323Y297D02*
X325Y297D01*
X379Y297D02*
X381Y297D01*
X0Y296D02*
X7Y296D01*
X28Y296D02*
X29Y296D01*
X37Y296D02*
X39Y296D01*
X50Y296D02*
X51Y296D01*
X89Y296D02*
X92Y296D01*
X276Y296D02*
X279Y296D01*
X323Y296D02*
X325Y296D01*
X379Y296D02*
X381Y296D01*
X0Y295D02*
X7Y295D01*
X28Y295D02*
X29Y295D01*
X37Y295D02*
X39Y295D01*
X50Y295D02*
X51Y295D01*
X90Y295D02*
X92Y295D01*
X276Y295D02*
X278Y295D01*
X323Y295D02*
X325Y295D01*
X379Y295D02*
X381Y295D01*
X0Y294D02*
X7Y294D01*
X28Y294D02*
X29Y294D01*
X37Y294D02*
X39Y294D01*
X50Y294D02*
X51Y294D01*
X323Y294D02*
X325Y294D01*
X379Y294D02*
X381Y294D01*
X0Y293D02*
X7Y293D01*
X28Y293D02*
X29Y293D01*
X37Y293D02*
X39Y293D01*
X50Y293D02*
X51Y293D01*
X323Y293D02*
X325Y293D01*
X379Y293D02*
X381Y293D01*
X0Y292D02*
X7Y292D01*
X28Y292D02*
X29Y292D01*
X37Y292D02*
X39Y292D01*
X50Y292D02*
X51Y292D01*
X323Y292D02*
X325Y292D01*
X379Y292D02*
X381Y292D01*
X0Y291D02*
X7Y291D01*
X28Y291D02*
X29Y291D01*
X37Y291D02*
X39Y291D01*
X50Y291D02*
X51Y291D01*
X323Y291D02*
X325Y291D01*
X379Y291D02*
X381Y291D01*
X0Y290D02*
X7Y290D01*
X28Y290D02*
X29Y290D01*
X37Y290D02*
X39Y290D01*
X46Y290D02*
X55Y290D01*
X323Y290D02*
X325Y290D01*
X379Y290D02*
X381Y290D01*
X0Y289D02*
X7Y289D01*
X28Y289D02*
X29Y289D01*
X37Y289D02*
X39Y289D01*
X45Y289D02*
X56Y289D01*
X323Y289D02*
X325Y289D01*
X379Y289D02*
X381Y289D01*
X0Y288D02*
X7Y288D01*
X38Y288D02*
X38Y288D01*
X46Y288D02*
X55Y288D01*
X323Y288D02*
X325Y288D01*
X379Y288D02*
X381Y288D01*
X0Y287D02*
X7Y287D01*
X323Y287D02*
X325Y287D01*
X379Y287D02*
X381Y287D01*
X0Y286D02*
X7Y286D01*
X323Y286D02*
X325Y286D01*
X379Y286D02*
X381Y286D01*
X0Y285D02*
X7Y285D01*
X323Y285D02*
X325Y285D01*
X379Y285D02*
X381Y285D01*
X0Y284D02*
X7Y284D01*
X323Y284D02*
X325Y284D01*
X379Y284D02*
X381Y284D01*
X0Y283D02*
X7Y283D01*
X323Y283D02*
X325Y283D01*
X379Y283D02*
X381Y283D01*
X0Y282D02*
X7Y282D01*
X323Y282D02*
X325Y282D01*
X379Y282D02*
X381Y282D01*
X0Y281D02*
X7Y281D01*
X323Y281D02*
X325Y281D01*
X379Y281D02*
X381Y281D01*
X0Y280D02*
X7Y280D01*
X323Y280D02*
X325Y280D01*
X379Y280D02*
X381Y280D01*
X0Y279D02*
X7Y279D01*
X323Y279D02*
X325Y279D01*
X379Y279D02*
X381Y279D01*
X0Y278D02*
X7Y278D01*
X323Y278D02*
X325Y278D01*
X379Y278D02*
X381Y278D01*
X0Y277D02*
X7Y277D01*
X323Y277D02*
X325Y277D01*
X379Y277D02*
X381Y277D01*
X0Y276D02*
X7Y276D01*
X323Y276D02*
X325Y276D01*
X379Y276D02*
X381Y276D01*
X0Y275D02*
X7Y275D01*
X323Y275D02*
X325Y275D01*
X379Y275D02*
X381Y275D01*
X0Y274D02*
X7Y274D01*
X323Y274D02*
X325Y274D01*
X379Y274D02*
X381Y274D01*
X0Y273D02*
X7Y273D01*
X323Y273D02*
X325Y273D01*
X379Y273D02*
X381Y273D01*
X0Y272D02*
X7Y272D01*
X323Y272D02*
X325Y272D01*
X379Y272D02*
X381Y272D01*
X0Y271D02*
X7Y271D01*
X283Y271D02*
X295Y271D01*
X306Y271D02*
X325Y271D01*
X379Y271D02*
X381Y271D01*
X0Y270D02*
X7Y270D01*
X282Y270D02*
X295Y270D01*
X305Y270D02*
X325Y270D01*
X379Y270D02*
X381Y270D01*
X0Y269D02*
X7Y269D01*
X281Y269D02*
X295Y269D01*
X306Y269D02*
X325Y269D01*
X379Y269D02*
X381Y269D01*
X0Y268D02*
X7Y268D01*
X280Y268D02*
X294Y268D01*
X306Y268D02*
X325Y268D01*
X379Y268D02*
X381Y268D01*
X0Y267D02*
X7Y267D01*
X280Y267D02*
X284Y267D01*
X322Y267D02*
X325Y267D01*
X379Y267D02*
X381Y267D01*
X0Y266D02*
X6Y266D01*
X279Y266D02*
X283Y266D01*
X322Y266D02*
X325Y266D01*
X379Y266D02*
X381Y266D01*
X0Y265D02*
X6Y265D01*
X279Y265D02*
X283Y265D01*
X322Y265D02*
X381Y265D01*
X0Y264D02*
X5Y264D01*
X278Y264D02*
X282Y264D01*
X322Y264D02*
X381Y264D01*
X0Y263D02*
X5Y263D01*
X278Y263D02*
X282Y263D01*
X322Y263D02*
X381Y263D01*
X0Y262D02*
X5Y262D01*
X277Y262D02*
X281Y262D01*
X322Y262D02*
X325Y262D01*
X373Y262D02*
X380Y262D01*
X0Y261D02*
X4Y261D01*
X277Y261D02*
X281Y261D01*
X322Y261D02*
X325Y261D01*
X373Y261D02*
X380Y261D01*
X0Y260D02*
X4Y260D01*
X276Y260D02*
X280Y260D01*
X322Y260D02*
X325Y260D01*
X373Y260D02*
X380Y260D01*
X0Y259D02*
X4Y259D01*
X276Y259D02*
X280Y259D01*
X322Y259D02*
X325Y259D01*
X373Y259D02*
X380Y259D01*
X0Y258D02*
X4Y258D01*
X276Y258D02*
X279Y258D01*
X321Y258D02*
X325Y258D01*
X373Y258D02*
X380Y258D01*
X0Y257D02*
X3Y257D01*
X276Y257D02*
X279Y257D01*
X310Y257D02*
X324Y257D01*
X373Y257D02*
X380Y257D01*
X0Y256D02*
X3Y256D01*
X276Y256D02*
X279Y256D01*
X310Y256D02*
X324Y256D01*
X373Y256D02*
X380Y256D01*
X0Y255D02*
X3Y255D01*
X276Y255D02*
X279Y255D01*
X310Y255D02*
X324Y255D01*
X373Y255D02*
X380Y255D01*
X0Y254D02*
X3Y254D01*
X276Y254D02*
X279Y254D01*
X310Y254D02*
X324Y254D01*
X373Y254D02*
X380Y254D01*
X0Y253D02*
X3Y253D01*
X276Y253D02*
X279Y253D01*
X321Y253D02*
X325Y253D01*
X373Y253D02*
X380Y253D01*
X0Y252D02*
X3Y252D01*
X276Y252D02*
X280Y252D01*
X322Y252D02*
X325Y252D01*
X373Y252D02*
X380Y252D01*
X0Y251D02*
X3Y251D01*
X277Y251D02*
X280Y251D01*
X322Y251D02*
X325Y251D01*
X373Y251D02*
X380Y251D01*
X0Y250D02*
X3Y250D01*
X277Y250D02*
X281Y250D01*
X322Y250D02*
X325Y250D01*
X373Y250D02*
X380Y250D01*
X0Y249D02*
X3Y249D01*
X278Y249D02*
X281Y249D01*
X322Y249D02*
X325Y249D01*
X373Y249D02*
X380Y249D01*
X0Y248D02*
X3Y248D01*
X278Y248D02*
X282Y248D01*
X322Y248D02*
X325Y248D01*
X373Y248D02*
X380Y248D01*
X0Y247D02*
X3Y247D01*
X279Y247D02*
X282Y247D01*
X322Y247D02*
X325Y247D01*
X373Y247D02*
X380Y247D01*
X0Y246D02*
X3Y246D01*
X279Y246D02*
X283Y246D01*
X322Y246D02*
X325Y246D01*
X373Y246D02*
X380Y246D01*
X0Y245D02*
X3Y245D01*
X280Y245D02*
X283Y245D01*
X322Y245D02*
X325Y245D01*
X373Y245D02*
X380Y245D01*
X0Y244D02*
X3Y244D01*
X280Y244D02*
X284Y244D01*
X322Y244D02*
X325Y244D01*
X373Y244D02*
X380Y244D01*
X0Y243D02*
X3Y243D01*
X281Y243D02*
X294Y243D01*
X306Y243D02*
X325Y243D01*
X373Y243D02*
X380Y243D01*
X0Y242D02*
X3Y242D01*
X281Y242D02*
X295Y242D01*
X305Y242D02*
X325Y242D01*
X373Y242D02*
X380Y242D01*
X0Y241D02*
X3Y241D01*
X282Y241D02*
X295Y241D01*
X305Y241D02*
X324Y241D01*
X373Y241D02*
X380Y241D01*
X0Y240D02*
X4Y240D01*
X284Y240D02*
X294Y240D01*
X306Y240D02*
X319Y240D01*
X373Y240D02*
X380Y240D01*
X0Y239D02*
X4Y239D01*
X373Y239D02*
X380Y239D01*
X0Y238D02*
X4Y238D01*
X373Y238D02*
X380Y238D01*
X0Y237D02*
X5Y237D01*
X373Y237D02*
X380Y237D01*
X0Y236D02*
X5Y236D01*
X373Y236D02*
X380Y236D01*
X0Y235D02*
X5Y235D01*
X373Y235D02*
X380Y235D01*
X0Y234D02*
X6Y234D01*
X373Y234D02*
X380Y234D01*
X0Y233D02*
X6Y233D01*
X373Y233D02*
X380Y233D01*
X0Y232D02*
X7Y232D01*
X373Y232D02*
X380Y232D01*
X0Y231D02*
X7Y231D01*
X373Y231D02*
X380Y231D01*
X0Y230D02*
X7Y230D01*
X373Y230D02*
X380Y230D01*
X0Y229D02*
X7Y229D01*
X373Y229D02*
X380Y229D01*
X0Y228D02*
X7Y228D01*
X373Y228D02*
X380Y228D01*
X0Y227D02*
X7Y227D01*
X373Y227D02*
X380Y227D01*
X0Y226D02*
X7Y226D01*
X373Y226D02*
X380Y226D01*
X0Y225D02*
X7Y225D01*
X373Y225D02*
X380Y225D01*
X0Y224D02*
X7Y224D01*
X373Y224D02*
X380Y224D01*
X0Y223D02*
X7Y223D01*
X373Y223D02*
X380Y223D01*
X0Y222D02*
X7Y222D01*
X373Y222D02*
X380Y222D01*
X0Y221D02*
X7Y221D01*
X373Y221D02*
X380Y221D01*
X0Y220D02*
X7Y220D01*
X373Y220D02*
X380Y220D01*
X0Y219D02*
X7Y219D01*
X373Y219D02*
X380Y219D01*
X0Y218D02*
X7Y218D01*
X373Y218D02*
X380Y218D01*
X0Y217D02*
X7Y217D01*
X373Y217D02*
X380Y217D01*
X0Y216D02*
X7Y216D01*
X373Y216D02*
X380Y216D01*
X0Y215D02*
X7Y215D01*
X373Y215D02*
X380Y215D01*
X0Y214D02*
X7Y214D01*
X373Y214D02*
X380Y214D01*
X0Y213D02*
X7Y213D01*
X373Y213D02*
X380Y213D01*
X0Y212D02*
X7Y212D01*
X373Y212D02*
X380Y212D01*
X0Y211D02*
X7Y211D01*
X373Y211D02*
X380Y211D01*
X0Y210D02*
X7Y210D01*
X373Y210D02*
X380Y210D01*
X0Y209D02*
X7Y209D01*
X373Y209D02*
X380Y209D01*
X0Y208D02*
X7Y208D01*
X373Y208D02*
X380Y208D01*
X0Y207D02*
X7Y207D01*
X373Y207D02*
X380Y207D01*
X0Y206D02*
X7Y206D01*
X29Y206D02*
X30Y206D01*
X37Y206D02*
X39Y206D01*
X51Y206D02*
X51Y206D01*
X373Y206D02*
X380Y206D01*
X0Y205D02*
X7Y205D01*
X28Y205D02*
X31Y205D01*
X36Y205D02*
X39Y205D01*
X49Y205D02*
X53Y205D01*
X373Y205D02*
X380Y205D01*
X0Y204D02*
X7Y204D01*
X28Y204D02*
X32Y204D01*
X36Y204D02*
X39Y204D01*
X49Y204D02*
X54Y204D01*
X373Y204D02*
X380Y204D01*
X0Y203D02*
X7Y203D01*
X28Y203D02*
X32Y203D01*
X35Y203D02*
X39Y203D01*
X48Y203D02*
X50Y203D01*
X52Y203D02*
X54Y203D01*
X373Y203D02*
X380Y203D01*
X0Y202D02*
X7Y202D01*
X28Y202D02*
X39Y202D01*
X48Y202D02*
X49Y202D01*
X53Y202D02*
X55Y202D01*
X373Y202D02*
X380Y202D01*
X0Y201D02*
X7Y201D01*
X28Y201D02*
X30Y201D01*
X32Y201D02*
X35Y201D01*
X38Y201D02*
X39Y201D01*
X47Y201D02*
X49Y201D01*
X53Y201D02*
X55Y201D01*
X373Y201D02*
X380Y201D01*
X0Y200D02*
X7Y200D01*
X28Y200D02*
X30Y200D01*
X32Y200D02*
X35Y200D01*
X38Y200D02*
X39Y200D01*
X47Y200D02*
X48Y200D01*
X54Y200D02*
X56Y200D01*
X373Y200D02*
X380Y200D01*
X0Y199D02*
X7Y199D01*
X28Y199D02*
X30Y199D01*
X33Y199D02*
X34Y199D01*
X38Y199D02*
X39Y199D01*
X46Y199D02*
X48Y199D01*
X54Y199D02*
X56Y199D01*
X373Y199D02*
X380Y199D01*
X0Y198D02*
X7Y198D01*
X28Y198D02*
X30Y198D01*
X33Y198D02*
X34Y198D01*
X38Y198D02*
X39Y198D01*
X46Y198D02*
X47Y198D01*
X55Y198D02*
X56Y198D01*
X374Y198D02*
X380Y198D01*
X0Y197D02*
X7Y197D01*
X28Y197D02*
X30Y197D01*
X38Y197D02*
X39Y197D01*
X46Y197D02*
X47Y197D01*
X55Y197D02*
X56Y197D01*
X374Y197D02*
X380Y197D01*
X0Y196D02*
X7Y196D01*
X28Y196D02*
X30Y196D01*
X38Y196D02*
X39Y196D01*
X46Y196D02*
X47Y196D01*
X55Y196D02*
X56Y196D01*
X374Y196D02*
X380Y196D01*
X0Y195D02*
X7Y195D01*
X28Y195D02*
X30Y195D01*
X38Y195D02*
X39Y195D01*
X46Y195D02*
X47Y195D01*
X55Y195D02*
X56Y195D01*
X374Y195D02*
X380Y195D01*
X0Y194D02*
X7Y194D01*
X28Y194D02*
X30Y194D01*
X38Y194D02*
X39Y194D01*
X46Y194D02*
X48Y194D01*
X54Y194D02*
X56Y194D01*
X374Y194D02*
X380Y194D01*
X0Y193D02*
X7Y193D01*
X28Y193D02*
X30Y193D01*
X38Y193D02*
X39Y193D01*
X47Y193D02*
X48Y193D01*
X54Y193D02*
X55Y193D01*
X374Y193D02*
X380Y193D01*
X0Y192D02*
X7Y192D01*
X28Y192D02*
X30Y192D01*
X38Y192D02*
X39Y192D01*
X47Y192D02*
X49Y192D01*
X53Y192D02*
X55Y192D01*
X374Y192D02*
X380Y192D01*
X0Y191D02*
X7Y191D01*
X28Y191D02*
X30Y191D01*
X38Y191D02*
X39Y191D01*
X48Y191D02*
X50Y191D01*
X53Y191D02*
X54Y191D01*
X374Y191D02*
X380Y191D01*
X0Y190D02*
X7Y190D01*
X28Y190D02*
X30Y190D01*
X38Y190D02*
X39Y190D01*
X48Y190D02*
X50Y190D01*
X52Y190D02*
X54Y190D01*
X374Y190D02*
X380Y190D01*
X0Y189D02*
X7Y189D01*
X28Y189D02*
X30Y189D01*
X38Y189D02*
X39Y189D01*
X49Y189D02*
X53Y189D01*
X374Y189D02*
X380Y189D01*
X0Y188D02*
X7Y188D01*
X28Y188D02*
X29Y188D01*
X38Y188D02*
X39Y188D01*
X50Y188D02*
X52Y188D01*
X374Y188D02*
X380Y188D01*
X0Y187D02*
X7Y187D01*
X374Y187D02*
X380Y187D01*
X0Y186D02*
X7Y186D01*
X374Y186D02*
X380Y186D01*
X0Y185D02*
X7Y185D01*
X373Y185D02*
X380Y185D01*
X0Y184D02*
X7Y184D01*
X373Y184D02*
X380Y184D01*
X0Y183D02*
X7Y183D01*
X373Y183D02*
X380Y183D01*
X0Y182D02*
X7Y182D01*
X373Y182D02*
X380Y182D01*
X0Y181D02*
X7Y181D01*
X373Y181D02*
X380Y181D01*
X0Y180D02*
X7Y180D01*
X373Y180D02*
X380Y180D01*
X0Y179D02*
X7Y179D01*
X373Y179D02*
X380Y179D01*
X0Y178D02*
X7Y178D01*
X373Y178D02*
X380Y178D01*
X0Y177D02*
X7Y177D01*
X373Y177D02*
X380Y177D01*
X0Y176D02*
X7Y176D01*
X373Y176D02*
X380Y176D01*
X0Y175D02*
X7Y175D01*
X373Y175D02*
X380Y175D01*
X0Y174D02*
X7Y174D01*
X373Y174D02*
X380Y174D01*
X0Y173D02*
X7Y173D01*
X373Y173D02*
X380Y173D01*
X0Y172D02*
X7Y172D01*
X373Y172D02*
X380Y172D01*
X0Y171D02*
X7Y171D01*
X373Y171D02*
X380Y171D01*
X0Y170D02*
X7Y170D01*
X373Y170D02*
X380Y170D01*
X0Y169D02*
X7Y169D01*
X373Y169D02*
X380Y169D01*
X0Y168D02*
X7Y168D01*
X373Y168D02*
X380Y168D01*
X0Y167D02*
X7Y167D01*
X373Y167D02*
X380Y167D01*
X0Y166D02*
X6Y166D01*
X373Y166D02*
X380Y166D01*
X0Y165D02*
X6Y165D01*
X235Y165D02*
X251Y165D01*
X266Y165D02*
X283Y165D01*
X373Y165D02*
X380Y165D01*
X0Y164D02*
X5Y164D01*
X235Y164D02*
X253Y164D01*
X265Y164D02*
X284Y164D01*
X373Y164D02*
X380Y164D01*
X0Y163D02*
X5Y163D01*
X235Y163D02*
X254Y163D01*
X265Y163D02*
X285Y163D01*
X373Y163D02*
X380Y163D01*
X0Y162D02*
X5Y162D01*
X235Y162D02*
X254Y162D01*
X266Y162D02*
X285Y162D01*
X373Y162D02*
X380Y162D01*
X0Y161D02*
X4Y161D01*
X235Y161D02*
X239Y161D01*
X251Y161D02*
X255Y161D01*
X282Y161D02*
X285Y161D01*
X373Y161D02*
X380Y161D01*
X0Y160D02*
X4Y160D01*
X235Y160D02*
X239Y160D01*
X252Y160D02*
X255Y160D01*
X282Y160D02*
X285Y160D01*
X373Y160D02*
X380Y160D01*
X0Y159D02*
X4Y159D01*
X235Y159D02*
X239Y159D01*
X252Y159D02*
X255Y159D01*
X282Y159D02*
X285Y159D01*
X373Y159D02*
X380Y159D01*
X0Y158D02*
X4Y158D01*
X235Y158D02*
X239Y158D01*
X252Y158D02*
X255Y158D01*
X282Y158D02*
X285Y158D01*
X373Y158D02*
X380Y158D01*
X0Y157D02*
X3Y157D01*
X235Y157D02*
X239Y157D01*
X252Y157D02*
X255Y157D01*
X282Y157D02*
X285Y157D01*
X373Y157D02*
X380Y157D01*
X0Y156D02*
X3Y156D01*
X235Y156D02*
X239Y156D01*
X251Y156D02*
X255Y156D01*
X282Y156D02*
X285Y156D01*
X373Y156D02*
X380Y156D01*
X0Y155D02*
X3Y155D01*
X235Y155D02*
X239Y155D01*
X250Y155D02*
X255Y155D01*
X282Y155D02*
X285Y155D01*
X373Y155D02*
X380Y155D01*
X0Y154D02*
X3Y154D01*
X235Y154D02*
X254Y154D01*
X282Y154D02*
X285Y154D01*
X373Y154D02*
X380Y154D01*
X0Y153D02*
X3Y153D01*
X235Y153D02*
X253Y153D01*
X282Y153D02*
X285Y153D01*
X373Y153D02*
X380Y153D01*
X0Y152D02*
X3Y152D01*
X235Y152D02*
X252Y152D01*
X282Y152D02*
X285Y152D01*
X373Y152D02*
X380Y152D01*
X0Y151D02*
X3Y151D01*
X235Y151D02*
X251Y151D01*
X268Y151D02*
X285Y151D01*
X373Y151D02*
X380Y151D01*
X0Y150D02*
X3Y150D01*
X102Y150D02*
X117Y150D01*
X181Y150D02*
X196Y150D01*
X235Y150D02*
X239Y150D01*
X243Y150D02*
X247Y150D01*
X266Y150D02*
X285Y150D01*
X373Y150D02*
X380Y150D01*
X0Y149D02*
X3Y149D01*
X101Y149D02*
X117Y149D01*
X181Y149D02*
X197Y149D01*
X235Y149D02*
X239Y149D01*
X243Y149D02*
X247Y149D01*
X266Y149D02*
X284Y149D01*
X373Y149D02*
X380Y149D01*
X0Y148D02*
X3Y148D01*
X99Y148D02*
X116Y148D01*
X182Y148D02*
X198Y148D01*
X235Y148D02*
X239Y148D01*
X244Y148D02*
X248Y148D01*
X265Y148D02*
X283Y148D01*
X373Y148D02*
X380Y148D01*
X0Y147D02*
X3Y147D01*
X98Y147D02*
X116Y147D01*
X182Y147D02*
X200Y147D01*
X235Y147D02*
X239Y147D01*
X245Y147D02*
X248Y147D01*
X265Y147D02*
X269Y147D01*
X373Y147D02*
X380Y147D01*
X0Y146D02*
X3Y146D01*
X97Y146D02*
X115Y146D01*
X183Y146D02*
X201Y146D01*
X235Y146D02*
X239Y146D01*
X245Y146D02*
X249Y146D01*
X265Y146D02*
X268Y146D01*
X373Y146D02*
X380Y146D01*
X0Y145D02*
X3Y145D01*
X96Y145D02*
X103Y145D01*
X195Y145D02*
X202Y145D01*
X235Y145D02*
X239Y145D01*
X246Y145D02*
X250Y145D01*
X265Y145D02*
X268Y145D01*
X373Y145D02*
X380Y145D01*
X0Y144D02*
X3Y144D01*
X95Y144D02*
X102Y144D01*
X196Y144D02*
X203Y144D01*
X235Y144D02*
X239Y144D01*
X246Y144D02*
X250Y144D01*
X265Y144D02*
X268Y144D01*
X373Y144D02*
X380Y144D01*
X0Y143D02*
X3Y143D01*
X94Y143D02*
X100Y143D01*
X197Y143D02*
X204Y143D01*
X235Y143D02*
X239Y143D01*
X247Y143D02*
X251Y143D01*
X265Y143D02*
X268Y143D01*
X373Y143D02*
X380Y143D01*
X0Y142D02*
X3Y142D01*
X93Y142D02*
X99Y142D01*
X199Y142D02*
X205Y142D01*
X235Y142D02*
X239Y142D01*
X247Y142D02*
X251Y142D01*
X265Y142D02*
X268Y142D01*
X373Y142D02*
X380Y142D01*
X0Y141D02*
X4Y141D01*
X92Y141D02*
X98Y141D01*
X200Y141D02*
X206Y141D01*
X235Y141D02*
X239Y141D01*
X248Y141D02*
X252Y141D01*
X265Y141D02*
X268Y141D01*
X373Y141D02*
X380Y141D01*
X0Y140D02*
X4Y140D01*
X91Y140D02*
X97Y140D01*
X201Y140D02*
X207Y140D01*
X235Y140D02*
X239Y140D01*
X249Y140D02*
X253Y140D01*
X265Y140D02*
X268Y140D01*
X373Y140D02*
X380Y140D01*
X0Y139D02*
X4Y139D01*
X90Y139D02*
X96Y139D01*
X202Y139D02*
X208Y139D01*
X235Y139D02*
X239Y139D01*
X249Y139D02*
X253Y139D01*
X265Y139D02*
X268Y139D01*
X373Y139D02*
X380Y139D01*
X0Y138D02*
X4Y138D01*
X89Y138D02*
X95Y138D01*
X203Y138D02*
X209Y138D01*
X235Y138D02*
X239Y138D01*
X250Y138D02*
X254Y138D01*
X265Y138D02*
X268Y138D01*
X373Y138D02*
X380Y138D01*
X0Y137D02*
X5Y137D01*
X88Y137D02*
X94Y137D01*
X204Y137D02*
X209Y137D01*
X235Y137D02*
X239Y137D01*
X250Y137D02*
X254Y137D01*
X265Y137D02*
X284Y137D01*
X373Y137D02*
X380Y137D01*
X0Y136D02*
X5Y136D01*
X88Y136D02*
X93Y136D01*
X205Y136D02*
X210Y136D01*
X235Y136D02*
X239Y136D01*
X251Y136D02*
X255Y136D01*
X265Y136D02*
X285Y136D01*
X373Y136D02*
X380Y136D01*
X0Y135D02*
X5Y135D01*
X87Y135D02*
X92Y135D01*
X206Y135D02*
X211Y135D01*
X235Y135D02*
X238Y135D01*
X252Y135D02*
X255Y135D01*
X265Y135D02*
X285Y135D01*
X373Y135D02*
X380Y135D01*
X0Y134D02*
X6Y134D01*
X86Y134D02*
X92Y134D01*
X206Y134D02*
X212Y134D01*
X236Y134D02*
X238Y134D01*
X252Y134D02*
X255Y134D01*
X265Y134D02*
X285Y134D01*
X373Y134D02*
X380Y134D01*
X0Y133D02*
X6Y133D01*
X85Y133D02*
X91Y133D01*
X207Y133D02*
X213Y133D01*
X373Y133D02*
X380Y133D01*
X0Y132D02*
X7Y132D01*
X85Y132D02*
X90Y132D01*
X208Y132D02*
X213Y132D01*
X373Y132D02*
X380Y132D01*
X0Y131D02*
X7Y131D01*
X84Y131D02*
X89Y131D01*
X209Y131D02*
X214Y131D01*
X229Y131D02*
X287Y131D01*
X373Y131D02*
X380Y131D01*
X0Y130D02*
X7Y130D01*
X83Y130D02*
X89Y130D01*
X210Y130D02*
X215Y130D01*
X229Y130D02*
X287Y130D01*
X373Y130D02*
X380Y130D01*
X0Y129D02*
X7Y129D01*
X83Y129D02*
X88Y129D01*
X210Y129D02*
X215Y129D01*
X229Y129D02*
X287Y129D01*
X373Y129D02*
X380Y129D01*
X0Y128D02*
X7Y128D01*
X82Y128D02*
X87Y128D01*
X211Y128D02*
X216Y128D01*
X229Y128D02*
X231Y128D01*
X285Y128D02*
X287Y128D01*
X373Y128D02*
X380Y128D01*
X0Y127D02*
X7Y127D01*
X81Y127D02*
X86Y127D01*
X212Y127D02*
X216Y127D01*
X229Y127D02*
X231Y127D01*
X285Y127D02*
X287Y127D01*
X373Y127D02*
X380Y127D01*
X0Y126D02*
X7Y126D01*
X81Y126D02*
X86Y126D01*
X212Y126D02*
X217Y126D01*
X229Y126D02*
X231Y126D01*
X285Y126D02*
X287Y126D01*
X373Y126D02*
X380Y126D01*
X0Y125D02*
X7Y125D01*
X80Y125D02*
X85Y125D01*
X213Y125D02*
X218Y125D01*
X229Y125D02*
X231Y125D01*
X285Y125D02*
X287Y125D01*
X373Y125D02*
X380Y125D01*
X0Y124D02*
X7Y124D01*
X80Y124D02*
X85Y124D01*
X214Y124D02*
X218Y124D01*
X229Y124D02*
X231Y124D01*
X285Y124D02*
X287Y124D01*
X373Y124D02*
X380Y124D01*
X0Y123D02*
X7Y123D01*
X79Y123D02*
X84Y123D01*
X214Y123D02*
X219Y123D01*
X229Y123D02*
X231Y123D01*
X285Y123D02*
X287Y123D01*
X373Y123D02*
X380Y123D01*
X0Y122D02*
X7Y122D01*
X79Y122D02*
X83Y122D01*
X215Y122D02*
X219Y122D01*
X229Y122D02*
X231Y122D01*
X285Y122D02*
X287Y122D01*
X373Y122D02*
X380Y122D01*
X0Y121D02*
X7Y121D01*
X78Y121D02*
X83Y121D01*
X215Y121D02*
X220Y121D01*
X229Y121D02*
X231Y121D01*
X285Y121D02*
X287Y121D01*
X373Y121D02*
X380Y121D01*
X0Y120D02*
X7Y120D01*
X78Y120D02*
X82Y120D01*
X216Y120D02*
X220Y120D01*
X229Y120D02*
X231Y120D01*
X285Y120D02*
X287Y120D01*
X373Y120D02*
X380Y120D01*
X0Y119D02*
X7Y119D01*
X77Y119D02*
X82Y119D01*
X216Y119D02*
X221Y119D01*
X229Y119D02*
X231Y119D01*
X285Y119D02*
X287Y119D01*
X373Y119D02*
X380Y119D01*
X0Y118D02*
X7Y118D01*
X77Y118D02*
X81Y118D01*
X217Y118D02*
X221Y118D01*
X229Y118D02*
X231Y118D01*
X285Y118D02*
X287Y118D01*
X373Y118D02*
X380Y118D01*
X0Y117D02*
X7Y117D01*
X77Y117D02*
X81Y117D01*
X217Y117D02*
X221Y117D01*
X229Y117D02*
X231Y117D01*
X285Y117D02*
X287Y117D01*
X373Y117D02*
X380Y117D01*
X0Y116D02*
X7Y116D01*
X76Y116D02*
X81Y116D01*
X218Y116D02*
X222Y116D01*
X229Y116D02*
X231Y116D01*
X285Y116D02*
X287Y116D01*
X373Y116D02*
X380Y116D01*
X0Y115D02*
X7Y115D01*
X76Y115D02*
X80Y115D01*
X218Y115D02*
X222Y115D01*
X229Y115D02*
X231Y115D01*
X285Y115D02*
X287Y115D01*
X373Y115D02*
X380Y115D01*
X0Y114D02*
X7Y114D01*
X75Y114D02*
X80Y114D01*
X218Y114D02*
X223Y114D01*
X229Y114D02*
X231Y114D01*
X285Y114D02*
X287Y114D01*
X373Y114D02*
X380Y114D01*
X0Y113D02*
X7Y113D01*
X75Y113D02*
X79Y113D01*
X219Y113D02*
X223Y113D01*
X229Y113D02*
X231Y113D01*
X285Y113D02*
X287Y113D01*
X373Y113D02*
X380Y113D01*
X0Y112D02*
X7Y112D01*
X75Y112D02*
X79Y112D01*
X219Y112D02*
X223Y112D01*
X229Y112D02*
X231Y112D01*
X285Y112D02*
X287Y112D01*
X373Y112D02*
X380Y112D01*
X0Y111D02*
X7Y111D01*
X74Y111D02*
X78Y111D01*
X220Y111D02*
X224Y111D01*
X229Y111D02*
X231Y111D01*
X285Y111D02*
X287Y111D01*
X373Y111D02*
X380Y111D01*
X0Y110D02*
X7Y110D01*
X74Y110D02*
X78Y110D01*
X220Y110D02*
X224Y110D01*
X229Y110D02*
X231Y110D01*
X285Y110D02*
X287Y110D01*
X373Y110D02*
X380Y110D01*
X0Y109D02*
X7Y109D01*
X74Y109D02*
X78Y109D01*
X220Y109D02*
X224Y109D01*
X229Y109D02*
X231Y109D01*
X285Y109D02*
X287Y109D01*
X373Y109D02*
X380Y109D01*
X0Y108D02*
X7Y108D01*
X73Y108D02*
X78Y108D01*
X220Y108D02*
X224Y108D01*
X229Y108D02*
X231Y108D01*
X285Y108D02*
X287Y108D01*
X373Y108D02*
X380Y108D01*
X0Y107D02*
X7Y107D01*
X73Y107D02*
X77Y107D01*
X221Y107D02*
X225Y107D01*
X229Y107D02*
X231Y107D01*
X285Y107D02*
X287Y107D01*
X373Y107D02*
X380Y107D01*
X0Y106D02*
X7Y106D01*
X37Y106D02*
X45Y106D01*
X73Y106D02*
X77Y106D01*
X221Y106D02*
X225Y106D01*
X229Y106D02*
X231Y106D01*
X285Y106D02*
X287Y106D01*
X373Y106D02*
X380Y106D01*
X0Y105D02*
X7Y105D01*
X37Y105D02*
X47Y105D01*
X73Y105D02*
X77Y105D01*
X221Y105D02*
X225Y105D01*
X229Y105D02*
X231Y105D01*
X285Y105D02*
X287Y105D01*
X373Y105D02*
X380Y105D01*
X0Y104D02*
X7Y104D01*
X37Y104D02*
X47Y104D01*
X72Y104D02*
X76Y104D01*
X222Y104D02*
X225Y104D01*
X229Y104D02*
X231Y104D01*
X285Y104D02*
X287Y104D01*
X373Y104D02*
X380Y104D01*
X0Y103D02*
X7Y103D01*
X37Y103D02*
X38Y103D01*
X46Y103D02*
X48Y103D01*
X72Y103D02*
X76Y103D01*
X222Y103D02*
X226Y103D01*
X229Y103D02*
X231Y103D01*
X285Y103D02*
X287Y103D01*
X308Y103D02*
X317Y103D01*
X326Y103D02*
X334Y103D01*
X343Y103D02*
X353Y103D01*
X373Y103D02*
X380Y103D01*
X0Y102D02*
X7Y102D01*
X37Y102D02*
X38Y102D01*
X46Y102D02*
X48Y102D01*
X72Y102D02*
X76Y102D01*
X222Y102D02*
X226Y102D01*
X229Y102D02*
X231Y102D01*
X285Y102D02*
X287Y102D01*
X308Y102D02*
X318Y102D01*
X326Y102D02*
X335Y102D01*
X343Y102D02*
X354Y102D01*
X373Y102D02*
X380Y102D01*
X0Y101D02*
X7Y101D01*
X37Y101D02*
X38Y101D01*
X46Y101D02*
X48Y101D01*
X72Y101D02*
X76Y101D01*
X222Y101D02*
X226Y101D01*
X229Y101D02*
X231Y101D01*
X285Y101D02*
X287Y101D01*
X308Y101D02*
X310Y101D01*
X317Y101D02*
X319Y101D01*
X326Y101D02*
X327Y101D01*
X333Y101D02*
X336Y101D01*
X352Y101D02*
X354Y101D01*
X373Y101D02*
X380Y101D01*
X0Y100D02*
X7Y100D01*
X37Y100D02*
X47Y100D01*
X72Y100D02*
X76Y100D01*
X222Y100D02*
X226Y100D01*
X229Y100D02*
X231Y100D01*
X285Y100D02*
X287Y100D01*
X308Y100D02*
X310Y100D01*
X318Y100D02*
X319Y100D01*
X326Y100D02*
X327Y100D01*
X335Y100D02*
X336Y100D01*
X353Y100D02*
X354Y100D01*
X373Y100D02*
X380Y100D01*
X0Y99D02*
X7Y99D01*
X37Y99D02*
X47Y99D01*
X71Y99D02*
X75Y99D01*
X223Y99D02*
X226Y99D01*
X229Y99D02*
X231Y99D01*
X285Y99D02*
X287Y99D01*
X308Y99D02*
X310Y99D01*
X318Y99D02*
X319Y99D01*
X326Y99D02*
X327Y99D01*
X335Y99D02*
X337Y99D01*
X353Y99D02*
X354Y99D01*
X373Y99D02*
X380Y99D01*
X0Y98D02*
X7Y98D01*
X37Y98D02*
X45Y98D01*
X71Y98D02*
X75Y98D01*
X112Y98D02*
X130Y98D01*
X172Y98D02*
X183Y98D01*
X223Y98D02*
X227Y98D01*
X229Y98D02*
X231Y98D01*
X285Y98D02*
X287Y98D01*
X308Y98D02*
X310Y98D01*
X318Y98D02*
X319Y98D01*
X326Y98D02*
X327Y98D01*
X335Y98D02*
X337Y98D01*
X353Y98D02*
X354Y98D01*
X373Y98D02*
X380Y98D01*
X0Y97D02*
X7Y97D01*
X37Y97D02*
X38Y97D01*
X41Y97D02*
X43Y97D01*
X71Y97D02*
X75Y97D01*
X111Y97D02*
X131Y97D01*
X159Y97D02*
X159Y97D01*
X171Y97D02*
X183Y97D01*
X223Y97D02*
X227Y97D01*
X229Y97D02*
X231Y97D01*
X285Y97D02*
X287Y97D01*
X308Y97D02*
X310Y97D01*
X318Y97D02*
X319Y97D01*
X326Y97D02*
X327Y97D01*
X335Y97D02*
X336Y97D01*
X353Y97D02*
X354Y97D01*
X373Y97D02*
X380Y97D01*
X0Y96D02*
X7Y96D01*
X37Y96D02*
X38Y96D01*
X42Y96D02*
X44Y96D01*
X71Y96D02*
X75Y96D01*
X111Y96D02*
X131Y96D01*
X141Y96D02*
X143Y96D01*
X155Y96D02*
X160Y96D01*
X171Y96D02*
X183Y96D01*
X223Y96D02*
X227Y96D01*
X229Y96D02*
X231Y96D01*
X285Y96D02*
X287Y96D01*
X308Y96D02*
X310Y96D01*
X318Y96D02*
X319Y96D01*
X326Y96D02*
X327Y96D01*
X334Y96D02*
X336Y96D01*
X352Y96D02*
X354Y96D01*
X373Y96D02*
X380Y96D01*
X0Y95D02*
X7Y95D01*
X37Y95D02*
X38Y95D01*
X42Y95D02*
X44Y95D01*
X71Y95D02*
X75Y95D01*
X112Y95D02*
X130Y95D01*
X141Y95D02*
X160Y95D01*
X172Y95D02*
X183Y95D01*
X223Y95D02*
X227Y95D01*
X229Y95D02*
X231Y95D01*
X285Y95D02*
X287Y95D01*
X308Y95D02*
X310Y95D01*
X317Y95D02*
X319Y95D01*
X326Y95D02*
X336Y95D01*
X346Y95D02*
X354Y95D01*
X373Y95D02*
X380Y95D01*
X0Y94D02*
X7Y94D01*
X37Y94D02*
X38Y94D01*
X43Y94D02*
X45Y94D01*
X71Y94D02*
X75Y94D01*
X119Y94D02*
X123Y94D01*
X141Y94D02*
X144Y94D01*
X157Y94D02*
X161Y94D01*
X179Y94D02*
X183Y94D01*
X223Y94D02*
X227Y94D01*
X229Y94D02*
X231Y94D01*
X285Y94D02*
X287Y94D01*
X308Y94D02*
X319Y94D01*
X326Y94D02*
X335Y94D01*
X345Y94D02*
X353Y94D01*
X373Y94D02*
X380Y94D01*
X0Y93D02*
X7Y93D01*
X37Y93D02*
X38Y93D01*
X43Y93D02*
X45Y93D01*
X71Y93D02*
X75Y93D01*
X119Y93D02*
X123Y93D01*
X141Y93D02*
X144Y93D01*
X158Y93D02*
X161Y93D01*
X179Y93D02*
X183Y93D01*
X223Y93D02*
X227Y93D01*
X229Y93D02*
X231Y93D01*
X285Y93D02*
X287Y93D01*
X308Y93D02*
X318Y93D01*
X326Y93D02*
X336Y93D01*
X347Y93D02*
X354Y93D01*
X373Y93D02*
X380Y93D01*
X0Y92D02*
X7Y92D01*
X37Y92D02*
X38Y92D01*
X44Y92D02*
X46Y92D01*
X71Y92D02*
X75Y92D01*
X119Y92D02*
X123Y92D01*
X141Y92D02*
X144Y92D01*
X158Y92D02*
X161Y92D01*
X179Y92D02*
X183Y92D01*
X223Y92D02*
X227Y92D01*
X229Y92D02*
X231Y92D01*
X285Y92D02*
X287Y92D01*
X308Y92D02*
X316Y92D01*
X326Y92D02*
X327Y92D01*
X335Y92D02*
X336Y92D01*
X352Y92D02*
X354Y92D01*
X373Y92D02*
X380Y92D01*
X0Y91D02*
X7Y91D01*
X37Y91D02*
X38Y91D01*
X45Y91D02*
X46Y91D01*
X71Y91D02*
X74Y91D01*
X119Y91D02*
X123Y91D01*
X141Y91D02*
X144Y91D01*
X158Y91D02*
X161Y91D01*
X179Y91D02*
X183Y91D01*
X224Y91D02*
X227Y91D01*
X229Y91D02*
X231Y91D01*
X285Y91D02*
X287Y91D01*
X308Y91D02*
X310Y91D01*
X326Y91D02*
X327Y91D01*
X335Y91D02*
X337Y91D01*
X353Y91D02*
X354Y91D01*
X373Y91D02*
X380Y91D01*
X0Y90D02*
X7Y90D01*
X37Y90D02*
X38Y90D01*
X45Y90D02*
X47Y90D01*
X71Y90D02*
X74Y90D01*
X119Y90D02*
X123Y90D01*
X141Y90D02*
X144Y90D01*
X158Y90D02*
X161Y90D01*
X179Y90D02*
X183Y90D01*
X224Y90D02*
X227Y90D01*
X229Y90D02*
X231Y90D01*
X285Y90D02*
X287Y90D01*
X308Y90D02*
X310Y90D01*
X326Y90D02*
X327Y90D01*
X335Y90D02*
X337Y90D01*
X353Y90D02*
X354Y90D01*
X373Y90D02*
X380Y90D01*
X0Y89D02*
X7Y89D01*
X37Y89D02*
X38Y89D01*
X46Y89D02*
X48Y89D01*
X71Y89D02*
X74Y89D01*
X119Y89D02*
X123Y89D01*
X141Y89D02*
X144Y89D01*
X157Y89D02*
X161Y89D01*
X179Y89D02*
X183Y89D01*
X224Y89D02*
X227Y89D01*
X229Y89D02*
X231Y89D01*
X285Y89D02*
X287Y89D01*
X308Y89D02*
X310Y89D01*
X326Y89D02*
X327Y89D01*
X335Y89D02*
X336Y89D01*
X353Y89D02*
X354Y89D01*
X373Y89D02*
X380Y89D01*
X0Y88D02*
X7Y88D01*
X37Y88D02*
X38Y88D01*
X46Y88D02*
X47Y88D01*
X71Y88D02*
X74Y88D01*
X119Y88D02*
X123Y88D01*
X141Y88D02*
X160Y88D01*
X179Y88D02*
X183Y88D01*
X224Y88D02*
X227Y88D01*
X229Y88D02*
X231Y88D01*
X285Y88D02*
X287Y88D01*
X308Y88D02*
X310Y88D01*
X326Y88D02*
X327Y88D01*
X334Y88D02*
X336Y88D01*
X353Y88D02*
X354Y88D01*
X373Y88D02*
X380Y88D01*
X0Y87D02*
X7Y87D01*
X71Y87D02*
X74Y87D01*
X119Y87D02*
X123Y87D01*
X141Y87D02*
X160Y87D01*
X179Y87D02*
X183Y87D01*
X224Y87D02*
X227Y87D01*
X229Y87D02*
X231Y87D01*
X285Y87D02*
X287Y87D01*
X308Y87D02*
X310Y87D01*
X326Y87D02*
X336Y87D01*
X344Y87D02*
X354Y87D01*
X373Y87D02*
X380Y87D01*
X0Y86D02*
X7Y86D01*
X71Y86D02*
X74Y86D01*
X119Y86D02*
X123Y86D01*
X141Y86D02*
X159Y86D01*
X179Y86D02*
X183Y86D01*
X224Y86D02*
X227Y86D01*
X229Y86D02*
X231Y86D01*
X285Y86D02*
X287Y86D01*
X308Y86D02*
X310Y86D01*
X343Y86D02*
X354Y86D01*
X373Y86D02*
X380Y86D01*
X0Y85D02*
X7Y85D01*
X71Y85D02*
X74Y85D01*
X119Y85D02*
X123Y85D01*
X141Y85D02*
X158Y85D01*
X179Y85D02*
X183Y85D01*
X224Y85D02*
X227Y85D01*
X229Y85D02*
X231Y85D01*
X285Y85D02*
X287Y85D01*
X309Y85D02*
X309Y85D01*
X344Y85D02*
X352Y85D01*
X373Y85D02*
X380Y85D01*
X0Y84D02*
X7Y84D01*
X71Y84D02*
X74Y84D01*
X119Y84D02*
X123Y84D01*
X141Y84D02*
X156Y84D01*
X179Y84D02*
X183Y84D01*
X224Y84D02*
X227Y84D01*
X229Y84D02*
X231Y84D01*
X285Y84D02*
X287Y84D01*
X373Y84D02*
X380Y84D01*
X0Y83D02*
X7Y83D01*
X71Y83D02*
X74Y83D01*
X119Y83D02*
X123Y83D01*
X141Y83D02*
X144Y83D01*
X149Y83D02*
X153Y83D01*
X179Y83D02*
X183Y83D01*
X224Y83D02*
X227Y83D01*
X229Y83D02*
X231Y83D01*
X285Y83D02*
X287Y83D01*
X373Y83D02*
X380Y83D01*
X0Y82D02*
X7Y82D01*
X71Y82D02*
X74Y82D01*
X119Y82D02*
X123Y82D01*
X141Y82D02*
X144Y82D01*
X149Y82D02*
X153Y82D01*
X179Y82D02*
X183Y82D01*
X224Y82D02*
X227Y82D01*
X229Y82D02*
X231Y82D01*
X285Y82D02*
X287Y82D01*
X373Y82D02*
X380Y82D01*
X0Y81D02*
X7Y81D01*
X71Y81D02*
X75Y81D01*
X119Y81D02*
X123Y81D01*
X141Y81D02*
X144Y81D01*
X150Y81D02*
X154Y81D01*
X179Y81D02*
X183Y81D01*
X223Y81D02*
X227Y81D01*
X229Y81D02*
X231Y81D01*
X285Y81D02*
X287Y81D01*
X373Y81D02*
X380Y81D01*
X0Y80D02*
X7Y80D01*
X71Y80D02*
X75Y80D01*
X119Y80D02*
X123Y80D01*
X141Y80D02*
X144Y80D01*
X151Y80D02*
X154Y80D01*
X179Y80D02*
X183Y80D01*
X188Y80D02*
X190Y80D01*
X223Y80D02*
X227Y80D01*
X229Y80D02*
X231Y80D01*
X285Y80D02*
X287Y80D01*
X373Y80D02*
X380Y80D01*
X0Y79D02*
X7Y79D01*
X71Y79D02*
X75Y79D01*
X119Y79D02*
X123Y79D01*
X141Y79D02*
X144Y79D01*
X151Y79D02*
X155Y79D01*
X179Y79D02*
X183Y79D01*
X188Y79D02*
X191Y79D01*
X223Y79D02*
X227Y79D01*
X229Y79D02*
X231Y79D01*
X285Y79D02*
X287Y79D01*
X373Y79D02*
X380Y79D01*
X0Y78D02*
X7Y78D01*
X71Y78D02*
X75Y78D01*
X119Y78D02*
X123Y78D01*
X141Y78D02*
X144Y78D01*
X152Y78D02*
X156Y78D01*
X179Y78D02*
X183Y78D01*
X188Y78D02*
X191Y78D01*
X223Y78D02*
X227Y78D01*
X229Y78D02*
X231Y78D01*
X285Y78D02*
X287Y78D01*
X373Y78D02*
X380Y78D01*
X0Y77D02*
X7Y77D01*
X71Y77D02*
X75Y77D01*
X119Y77D02*
X123Y77D01*
X141Y77D02*
X144Y77D01*
X152Y77D02*
X156Y77D01*
X179Y77D02*
X183Y77D01*
X188Y77D02*
X191Y77D01*
X223Y77D02*
X227Y77D01*
X229Y77D02*
X231Y77D01*
X285Y77D02*
X287Y77D01*
X373Y77D02*
X380Y77D01*
X0Y76D02*
X7Y76D01*
X71Y76D02*
X75Y76D01*
X119Y76D02*
X123Y76D01*
X141Y76D02*
X144Y76D01*
X153Y76D02*
X157Y76D01*
X179Y76D02*
X183Y76D01*
X188Y76D02*
X191Y76D01*
X223Y76D02*
X227Y76D01*
X229Y76D02*
X231Y76D01*
X285Y76D02*
X287Y76D01*
X373Y76D02*
X380Y76D01*
X0Y75D02*
X7Y75D01*
X71Y75D02*
X75Y75D01*
X119Y75D02*
X123Y75D01*
X141Y75D02*
X144Y75D01*
X153Y75D02*
X157Y75D01*
X179Y75D02*
X183Y75D01*
X188Y75D02*
X191Y75D01*
X223Y75D02*
X227Y75D01*
X229Y75D02*
X231Y75D01*
X285Y75D02*
X287Y75D01*
X373Y75D02*
X380Y75D01*
X0Y74D02*
X7Y74D01*
X72Y74D02*
X75Y74D01*
X119Y74D02*
X123Y74D01*
X141Y74D02*
X144Y74D01*
X154Y74D02*
X158Y74D01*
X179Y74D02*
X183Y74D01*
X188Y74D02*
X191Y74D01*
X223Y74D02*
X226Y74D01*
X229Y74D02*
X231Y74D01*
X285Y74D02*
X287Y74D01*
X373Y74D02*
X380Y74D01*
X0Y73D02*
X7Y73D01*
X73Y73D02*
X76Y73D01*
X119Y73D02*
X123Y73D01*
X141Y73D02*
X144Y73D01*
X155Y73D02*
X158Y73D01*
X179Y73D02*
X183Y73D01*
X188Y73D02*
X191Y73D01*
X222Y73D02*
X226Y73D01*
X229Y73D02*
X231Y73D01*
X285Y73D02*
X287Y73D01*
X373Y73D02*
X380Y73D01*
X0Y72D02*
X7Y72D01*
X74Y72D02*
X76Y72D01*
X119Y72D02*
X123Y72D01*
X141Y72D02*
X144Y72D01*
X155Y72D02*
X159Y72D01*
X179Y72D02*
X183Y72D01*
X188Y72D02*
X191Y72D01*
X222Y72D02*
X226Y72D01*
X229Y72D02*
X231Y72D01*
X285Y72D02*
X287Y72D01*
X373Y72D02*
X380Y72D01*
X0Y71D02*
X7Y71D01*
X74Y71D02*
X76Y71D01*
X188Y71D02*
X191Y71D01*
X222Y71D02*
X226Y71D01*
X229Y71D02*
X232Y71D01*
X284Y71D02*
X287Y71D01*
X373Y71D02*
X380Y71D01*
X0Y70D02*
X7Y70D01*
X75Y70D02*
X76Y70D01*
X112Y70D02*
X112Y70D01*
X185Y70D02*
X191Y70D01*
X222Y70D02*
X226Y70D01*
X229Y70D02*
X232Y70D01*
X284Y70D02*
X287Y70D01*
X373Y70D02*
X380Y70D01*
X0Y69D02*
X7Y69D01*
X75Y69D02*
X76Y69D01*
X111Y69D02*
X112Y69D01*
X186Y69D02*
X191Y69D01*
X222Y69D02*
X226Y69D01*
X229Y69D02*
X232Y69D01*
X284Y69D02*
X287Y69D01*
X373Y69D02*
X380Y69D01*
X0Y68D02*
X7Y68D01*
X76Y68D02*
X77Y68D01*
X111Y68D02*
X112Y68D01*
X186Y68D02*
X191Y68D01*
X221Y68D02*
X225Y68D01*
X229Y68D02*
X232Y68D01*
X284Y68D02*
X287Y68D01*
X373Y68D02*
X380Y68D01*
X0Y67D02*
X7Y67D01*
X77Y67D02*
X77Y67D01*
X112Y67D02*
X112Y67D01*
X186Y67D02*
X190Y67D01*
X221Y67D02*
X225Y67D01*
X229Y67D02*
X232Y67D01*
X284Y67D02*
X287Y67D01*
X373Y67D02*
X380Y67D01*
X0Y66D02*
X6Y66D01*
X77Y66D02*
X77Y66D01*
X221Y66D02*
X225Y66D01*
X229Y66D02*
X232Y66D01*
X284Y66D02*
X287Y66D01*
X373Y66D02*
X380Y66D01*
X0Y65D02*
X6Y65D01*
X78Y65D02*
X78Y65D01*
X220Y65D02*
X225Y65D01*
X229Y65D02*
X232Y65D01*
X284Y65D02*
X287Y65D01*
X373Y65D02*
X380Y65D01*
X0Y64D02*
X5Y64D01*
X78Y64D02*
X78Y64D01*
X220Y64D02*
X224Y64D01*
X229Y64D02*
X232Y64D01*
X284Y64D02*
X287Y64D01*
X373Y64D02*
X380Y64D01*
X0Y63D02*
X5Y63D01*
X78Y63D02*
X78Y63D01*
X220Y63D02*
X224Y63D01*
X229Y63D02*
X232Y63D01*
X284Y63D02*
X287Y63D01*
X373Y63D02*
X380Y63D01*
X0Y62D02*
X5Y62D01*
X219Y62D02*
X224Y62D01*
X229Y62D02*
X232Y62D01*
X284Y62D02*
X287Y62D01*
X373Y62D02*
X380Y62D01*
X0Y61D02*
X4Y61D01*
X79Y61D02*
X79Y61D01*
X219Y61D02*
X223Y61D01*
X229Y61D02*
X231Y61D01*
X285Y61D02*
X287Y61D01*
X373Y61D02*
X380Y61D01*
X0Y60D02*
X4Y60D01*
X79Y60D02*
X79Y60D01*
X219Y60D02*
X223Y60D01*
X229Y60D02*
X231Y60D01*
X285Y60D02*
X287Y60D01*
X373Y60D02*
X380Y60D01*
X0Y59D02*
X4Y59D01*
X80Y59D02*
X80Y59D01*
X218Y59D02*
X223Y59D01*
X229Y59D02*
X231Y59D01*
X285Y59D02*
X287Y59D01*
X373Y59D02*
X380Y59D01*
X0Y58D02*
X4Y58D01*
X80Y58D02*
X80Y58D01*
X218Y58D02*
X222Y58D01*
X229Y58D02*
X231Y58D01*
X285Y58D02*
X287Y58D01*
X373Y58D02*
X380Y58D01*
X0Y57D02*
X3Y57D01*
X80Y57D02*
X80Y57D01*
X217Y57D02*
X222Y57D01*
X229Y57D02*
X231Y57D01*
X285Y57D02*
X287Y57D01*
X373Y57D02*
X380Y57D01*
X0Y56D02*
X3Y56D01*
X80Y56D02*
X81Y56D01*
X217Y56D02*
X221Y56D01*
X229Y56D02*
X231Y56D01*
X285Y56D02*
X287Y56D01*
X373Y56D02*
X380Y56D01*
X0Y55D02*
X3Y55D01*
X80Y55D02*
X81Y55D01*
X217Y55D02*
X221Y55D01*
X229Y55D02*
X231Y55D01*
X285Y55D02*
X287Y55D01*
X373Y55D02*
X380Y55D01*
X0Y54D02*
X3Y54D01*
X81Y54D02*
X82Y54D01*
X216Y54D02*
X221Y54D01*
X229Y54D02*
X231Y54D01*
X285Y54D02*
X287Y54D01*
X373Y54D02*
X380Y54D01*
X0Y53D02*
X3Y53D01*
X81Y53D02*
X82Y53D01*
X215Y53D02*
X220Y53D01*
X229Y53D02*
X231Y53D01*
X285Y53D02*
X287Y53D01*
X373Y53D02*
X380Y53D01*
X0Y52D02*
X3Y52D01*
X81Y52D02*
X83Y52D01*
X215Y52D02*
X220Y52D01*
X229Y52D02*
X231Y52D01*
X285Y52D02*
X287Y52D01*
X373Y52D02*
X380Y52D01*
X0Y51D02*
X3Y51D01*
X81Y51D02*
X83Y51D01*
X214Y51D02*
X219Y51D01*
X229Y51D02*
X231Y51D01*
X285Y51D02*
X287Y51D01*
X373Y51D02*
X380Y51D01*
X0Y50D02*
X3Y50D01*
X81Y50D02*
X84Y50D01*
X214Y50D02*
X219Y50D01*
X229Y50D02*
X231Y50D01*
X285Y50D02*
X287Y50D01*
X373Y50D02*
X380Y50D01*
X0Y49D02*
X3Y49D01*
X81Y49D02*
X85Y49D01*
X213Y49D02*
X218Y49D01*
X229Y49D02*
X231Y49D01*
X285Y49D02*
X287Y49D01*
X373Y49D02*
X380Y49D01*
X0Y48D02*
X3Y48D01*
X81Y48D02*
X85Y48D01*
X213Y48D02*
X218Y48D01*
X229Y48D02*
X231Y48D01*
X285Y48D02*
X287Y48D01*
X373Y48D02*
X380Y48D01*
X0Y47D02*
X3Y47D01*
X81Y47D02*
X86Y47D01*
X212Y47D02*
X217Y47D01*
X229Y47D02*
X231Y47D01*
X285Y47D02*
X287Y47D01*
X373Y47D02*
X380Y47D01*
X0Y46D02*
X3Y46D01*
X82Y46D02*
X86Y46D01*
X211Y46D02*
X216Y46D01*
X229Y46D02*
X231Y46D01*
X285Y46D02*
X287Y46D01*
X373Y46D02*
X380Y46D01*
X0Y45D02*
X3Y45D01*
X82Y45D02*
X87Y45D01*
X211Y45D02*
X216Y45D01*
X229Y45D02*
X231Y45D01*
X285Y45D02*
X287Y45D01*
X373Y45D02*
X380Y45D01*
X0Y44D02*
X3Y44D01*
X83Y44D02*
X88Y44D01*
X210Y44D02*
X215Y44D01*
X229Y44D02*
X231Y44D01*
X285Y44D02*
X287Y44D01*
X373Y44D02*
X380Y44D01*
X0Y43D02*
X3Y43D01*
X84Y43D02*
X88Y43D01*
X209Y43D02*
X215Y43D01*
X229Y43D02*
X231Y43D01*
X285Y43D02*
X287Y43D01*
X373Y43D02*
X380Y43D01*
X0Y42D02*
X3Y42D01*
X84Y42D02*
X89Y42D01*
X209Y42D02*
X214Y42D01*
X229Y42D02*
X231Y42D01*
X285Y42D02*
X287Y42D01*
X373Y42D02*
X380Y42D01*
X0Y41D02*
X4Y41D01*
X85Y41D02*
X90Y41D01*
X208Y41D02*
X213Y41D01*
X229Y41D02*
X231Y41D01*
X285Y41D02*
X287Y41D01*
X373Y41D02*
X380Y41D01*
X0Y40D02*
X4Y40D01*
X85Y40D02*
X91Y40D01*
X207Y40D02*
X212Y40D01*
X229Y40D02*
X231Y40D01*
X285Y40D02*
X287Y40D01*
X373Y40D02*
X380Y40D01*
X0Y39D02*
X4Y39D01*
X86Y39D02*
X92Y39D01*
X206Y39D02*
X212Y39D01*
X229Y39D02*
X231Y39D01*
X285Y39D02*
X287Y39D01*
X373Y39D02*
X380Y39D01*
X0Y38D02*
X4Y38D01*
X87Y38D02*
X92Y38D01*
X205Y38D02*
X211Y38D01*
X229Y38D02*
X231Y38D01*
X285Y38D02*
X287Y38D01*
X373Y38D02*
X380Y38D01*
X0Y37D02*
X5Y37D01*
X88Y37D02*
X93Y37D01*
X205Y37D02*
X210Y37D01*
X229Y37D02*
X231Y37D01*
X285Y37D02*
X287Y37D01*
X373Y37D02*
X380Y37D01*
X0Y36D02*
X5Y36D01*
X89Y36D02*
X94Y36D01*
X204Y36D02*
X209Y36D01*
X229Y36D02*
X231Y36D01*
X285Y36D02*
X287Y36D01*
X373Y36D02*
X380Y36D01*
X0Y35D02*
X5Y35D01*
X89Y35D02*
X95Y35D01*
X203Y35D02*
X208Y35D01*
X229Y35D02*
X231Y35D01*
X285Y35D02*
X287Y35D01*
X373Y35D02*
X380Y35D01*
X0Y34D02*
X6Y34D01*
X90Y34D02*
X96Y34D01*
X202Y34D02*
X208Y34D01*
X229Y34D02*
X231Y34D01*
X285Y34D02*
X287Y34D01*
X373Y34D02*
X380Y34D01*
X0Y33D02*
X6Y33D01*
X91Y33D02*
X97Y33D01*
X201Y33D02*
X207Y33D01*
X229Y33D02*
X231Y33D01*
X285Y33D02*
X287Y33D01*
X373Y33D02*
X380Y33D01*
X0Y32D02*
X7Y32D01*
X92Y32D02*
X98Y32D01*
X200Y32D02*
X206Y32D01*
X229Y32D02*
X231Y32D01*
X285Y32D02*
X287Y32D01*
X373Y32D02*
X380Y32D01*
X0Y31D02*
X7Y31D01*
X93Y31D02*
X100Y31D01*
X199Y31D02*
X205Y31D01*
X229Y31D02*
X231Y31D01*
X285Y31D02*
X287Y31D01*
X373Y31D02*
X380Y31D01*
X0Y30D02*
X7Y30D01*
X94Y30D02*
X101Y30D01*
X197Y30D02*
X204Y30D01*
X229Y30D02*
X231Y30D01*
X285Y30D02*
X287Y30D01*
X373Y30D02*
X380Y30D01*
X0Y29D02*
X7Y29D01*
X95Y29D02*
X102Y29D01*
X196Y29D02*
X203Y29D01*
X229Y29D02*
X231Y29D01*
X285Y29D02*
X287Y29D01*
X373Y29D02*
X380Y29D01*
X0Y28D02*
X7Y28D01*
X96Y28D02*
X103Y28D01*
X195Y28D02*
X202Y28D01*
X229Y28D02*
X231Y28D01*
X285Y28D02*
X287Y28D01*
X373Y28D02*
X380Y28D01*
X0Y27D02*
X7Y27D01*
X97Y27D02*
X104Y27D01*
X194Y27D02*
X201Y27D01*
X229Y27D02*
X231Y27D01*
X285Y27D02*
X287Y27D01*
X373Y27D02*
X380Y27D01*
X0Y26D02*
X7Y26D01*
X99Y26D02*
X106Y26D01*
X192Y26D02*
X199Y26D01*
X229Y26D02*
X231Y26D01*
X285Y26D02*
X287Y26D01*
X373Y26D02*
X380Y26D01*
X0Y25D02*
X7Y25D01*
X100Y25D02*
X107Y25D01*
X191Y25D02*
X198Y25D01*
X229Y25D02*
X231Y25D01*
X285Y25D02*
X287Y25D01*
X373Y25D02*
X380Y25D01*
X0Y24D02*
X7Y24D01*
X101Y24D02*
X109Y24D01*
X189Y24D02*
X197Y24D01*
X229Y24D02*
X231Y24D01*
X285Y24D02*
X287Y24D01*
X373Y24D02*
X380Y24D01*
X0Y23D02*
X7Y23D01*
X102Y23D02*
X110Y23D01*
X188Y23D02*
X196Y23D01*
X229Y23D02*
X231Y23D01*
X285Y23D02*
X287Y23D01*
X373Y23D02*
X380Y23D01*
X0Y22D02*
X7Y22D01*
X104Y22D02*
X112Y22D01*
X187Y22D02*
X194Y22D01*
X229Y22D02*
X231Y22D01*
X285Y22D02*
X287Y22D01*
X373Y22D02*
X380Y22D01*
X0Y21D02*
X7Y21D01*
X105Y21D02*
X112Y21D01*
X186Y21D02*
X193Y21D01*
X229Y21D02*
X231Y21D01*
X285Y21D02*
X287Y21D01*
X373Y21D02*
X380Y21D01*
X0Y20D02*
X7Y20D01*
X106Y20D02*
X112Y20D01*
X186Y20D02*
X191Y20D01*
X229Y20D02*
X231Y20D01*
X285Y20D02*
X287Y20D01*
X373Y20D02*
X380Y20D01*
X0Y19D02*
X7Y19D01*
X108Y19D02*
X112Y19D01*
X187Y19D02*
X190Y19D01*
X229Y19D02*
X231Y19D01*
X285Y19D02*
X287Y19D01*
X373Y19D02*
X380Y19D01*
X0Y18D02*
X7Y18D01*
X110Y18D02*
X112Y18D01*
X229Y18D02*
X231Y18D01*
X285Y18D02*
X287Y18D01*
X373Y18D02*
X380Y18D01*
X0Y17D02*
X7Y17D01*
X229Y17D02*
X231Y17D01*
X285Y17D02*
X287Y17D01*
X373Y17D02*
X380Y17D01*
X0Y16D02*
X7Y16D01*
X229Y16D02*
X231Y16D01*
X285Y16D02*
X287Y16D01*
X373Y16D02*
X380Y16D01*
X0Y15D02*
X7Y15D01*
X229Y15D02*
X231Y15D01*
X285Y15D02*
X287Y15D01*
X373Y15D02*
X380Y15D01*
X0Y14D02*
X7Y14D01*
X229Y14D02*
X231Y14D01*
X285Y14D02*
X287Y14D01*
X373Y14D02*
X380Y14D01*
X0Y13D02*
X7Y13D01*
X229Y13D02*
X231Y13D01*
X285Y13D02*
X287Y13D01*
X373Y13D02*
X380Y13D01*
X0Y12D02*
X7Y12D01*
X229Y12D02*
X231Y12D01*
X285Y12D02*
X287Y12D01*
X373Y12D02*
X380Y12D01*
X0Y11D02*
X7Y11D01*
X229Y11D02*
X231Y11D01*
X285Y11D02*
X287Y11D01*
X373Y11D02*
X380Y11D01*
X0Y10D02*
X7Y10D01*
X229Y10D02*
X231Y10D01*
X285Y10D02*
X287Y10D01*
X373Y10D02*
X380Y10D01*
X0Y9D02*
X112Y9D01*
X186Y9D02*
X231Y9D01*
X285Y9D02*
X380Y9D01*
X0Y8D02*
X112Y8D01*
X186Y8D02*
X231Y8D01*
X285Y8D02*
X380Y8D01*
X0Y7D02*
X112Y7D01*
X186Y7D02*
X231Y7D01*
X285Y7D02*
X380Y7D01*
X0Y6D02*
X112Y6D01*
X186Y6D02*
X231Y6D01*
X285Y6D02*
X380Y6D01*
X0Y5D02*
X112Y5D01*
X186Y5D02*
X231Y5D01*
X285Y5D02*
X380Y5D01*
X0Y4D02*
X112Y4D01*
X186Y4D02*
X380Y4D01*
X0Y3D02*
X112Y3D01*
X186Y3D02*
X380Y3D01*
X0Y2D02*
X112Y2D01*
X186Y2D02*
X380Y2D01*
D02*
G04 End of Silk1*
M02*