G04 MADE WITH FRITZING*
G04 WWW.FRITZING.ORG*
G04 DOUBLE SIDED*
G04 HOLES PLATED*
G04 CONTOUR ON CENTER OF CONTOUR VECTOR*
%ASAXBY*%
%FSLAX23Y23*%
%MOIN*%
%OFA0B0*%
%SFA1.0B1.0*%
%ADD10C,0.062992*%
%ADD11C,0.039370*%
%ADD12C,0.067559*%
%ADD13C,0.075000*%
%ADD14R,0.062992X0.062992*%
%ADD15R,0.075000X0.075000*%
%ADD16C,0.032000*%
%ADD17C,0.024000*%
%ADD18C,0.016000*%
%LNCOPPER0*%
G90*
G70*
G54D10*
X150Y32D03*
X150Y131D03*
G54D11*
X263Y753D03*
X116Y719D03*
X160Y198D03*
X252Y461D03*
X210Y595D03*
G54D12*
X333Y46D03*
X42Y845D03*
X42Y745D03*
X42Y645D03*
X333Y667D03*
X333Y567D03*
G54D13*
X45Y545D03*
X45Y445D03*
G54D12*
X42Y348D03*
X42Y248D03*
X42Y148D03*
X42Y48D03*
G54D14*
X150Y32D03*
G54D15*
X45Y545D03*
G54D16*
X262Y636D02*
X263Y728D01*
D02*
X312Y588D02*
X262Y636D01*
G54D17*
D02*
X116Y198D02*
X141Y198D01*
D02*
X116Y700D02*
X116Y198D01*
D02*
X89Y198D02*
X59Y230D01*
D02*
X141Y198D02*
X89Y198D01*
G54D18*
D02*
X253Y80D02*
X254Y225D01*
D02*
X254Y225D02*
X301Y281D01*
D02*
X301Y281D02*
X300Y506D01*
D02*
X300Y506D02*
X219Y585D01*
D02*
X316Y54D02*
X253Y80D01*
D02*
X211Y423D02*
X242Y452D01*
D02*
X211Y82D02*
X211Y423D01*
D02*
X102Y82D02*
X211Y82D01*
D02*
X59Y57D02*
X102Y82D01*
G04 End of Copper0*
M02*