G04 MADE WITH FRITZING*
G04 WWW.FRITZING.ORG*
G04 DOUBLE SIDED*
G04 HOLES PLATED*
G04 CONTOUR ON CENTER OF CONTOUR VECTOR*
%ASAXBY*%
%FSLAX23Y23*%
%MOIN*%
%OFA0B0*%
%SFA1.0B1.0*%
%ADD10C,0.078000*%
%ADD11C,0.079370*%
%ADD12C,0.075000*%
%ADD13C,0.062992*%
%ADD14R,0.031496X0.035433*%
%ADD15R,0.075000X0.075000*%
%ADD16R,0.062992X0.062992*%
%ADD17R,0.049208X0.078736*%
%ADD18R,0.049222X0.078736*%
%ADD19R,0.078736X0.049208*%
%ADD20R,0.078736X0.049222*%
%ADD21R,0.024000X0.087000*%
%ADD22R,0.043307X0.047244*%
%ADD23R,0.024803X0.032677*%
%ADD24R,0.032677X0.024803*%
%ADD25C,0.024000*%
%ADD26C,0.032000*%
%ADD27C,0.016000*%
%ADD28C,0.012000*%
%ADD29R,0.001000X0.001000*%
%LNCOPPER1*%
G90*
G70*
G54D10*
X242Y609D03*
X349Y482D03*
X349Y582D03*
G54D11*
X348Y881D03*
X348Y781D03*
G54D12*
X64Y488D03*
X64Y388D03*
G54D13*
X169Y32D03*
X169Y131D03*
G54D10*
X47Y258D03*
X47Y158D03*
X47Y58D03*
X67Y745D03*
X67Y745D03*
X67Y645D03*
G54D14*
X24Y817D03*
X99Y817D03*
X62Y900D03*
G54D15*
X64Y488D03*
G54D16*
X169Y32D03*
G54D17*
X362Y694D03*
G54D18*
X234Y694D03*
G54D19*
X249Y770D03*
G54D20*
X249Y898D03*
G54D21*
X273Y482D03*
X223Y482D03*
X173Y482D03*
X123Y482D03*
X123Y217D03*
X173Y217D03*
X223Y217D03*
X273Y217D03*
G54D22*
X158Y644D03*
X158Y711D03*
X162Y832D03*
X162Y899D03*
X274Y108D03*
X274Y41D03*
X317Y357D03*
X317Y290D03*
G54D23*
X160Y565D03*
X70Y565D03*
G54D24*
X371Y290D03*
X371Y380D03*
G54D25*
X162Y554D02*
X167Y520D01*
G54D26*
D02*
X354Y746D02*
X357Y728D01*
D02*
X234Y711D02*
X174Y711D01*
D02*
X234Y694D02*
X234Y711D01*
D02*
X123Y488D02*
X98Y488D01*
D02*
X123Y482D02*
X123Y488D01*
D02*
X249Y832D02*
X178Y832D01*
D02*
X249Y789D02*
X249Y832D01*
G54D27*
D02*
X289Y545D02*
X222Y545D01*
D02*
X222Y545D02*
X223Y520D01*
D02*
X328Y569D02*
X289Y545D01*
G54D25*
D02*
X318Y482D02*
X279Y482D01*
D02*
X158Y566D02*
X158Y626D01*
D02*
X160Y565D02*
X158Y566D01*
G54D26*
D02*
X242Y694D02*
X242Y644D01*
D02*
X234Y694D02*
X242Y694D01*
G54D28*
D02*
X173Y284D02*
X51Y284D01*
D02*
X11Y817D02*
X14Y817D01*
D02*
X11Y332D02*
X11Y817D01*
D02*
X51Y284D02*
X11Y332D01*
D02*
X173Y255D02*
X173Y284D01*
G54D25*
D02*
X371Y410D02*
X371Y387D01*
D02*
X353Y410D02*
X371Y410D01*
D02*
X173Y444D02*
X173Y410D01*
D02*
X173Y410D02*
X353Y410D01*
D02*
X273Y325D02*
X273Y290D01*
D02*
X120Y326D02*
X273Y325D01*
D02*
X123Y131D02*
X142Y131D01*
D02*
X123Y158D02*
X123Y131D01*
D02*
X123Y179D02*
X123Y158D01*
D02*
X333Y290D02*
X360Y290D01*
D02*
X274Y126D02*
X273Y179D01*
D02*
X123Y421D02*
X123Y444D01*
D02*
X149Y368D02*
X123Y421D01*
D02*
X317Y368D02*
X149Y368D01*
D02*
X317Y357D02*
X317Y368D01*
D02*
X274Y32D02*
X274Y41D01*
D02*
X196Y32D02*
X274Y32D01*
D02*
X273Y290D02*
X273Y255D01*
D02*
X83Y367D02*
X120Y326D01*
G54D28*
D02*
X51Y284D02*
X50Y282D01*
G54D25*
D02*
X123Y158D02*
X77Y158D01*
D02*
X273Y290D02*
X301Y290D01*
G54D27*
D02*
X101Y80D02*
X223Y81D01*
D02*
X70Y67D02*
X101Y80D01*
D02*
X223Y81D02*
X223Y179D01*
G54D26*
D02*
X282Y897D02*
X306Y897D01*
D02*
X306Y897D02*
X314Y894D01*
D02*
X145Y900D02*
X72Y900D01*
D02*
X178Y899D02*
X249Y899D01*
D02*
X348Y770D02*
X282Y770D01*
D02*
X348Y745D02*
X348Y770D01*
D02*
X249Y899D02*
X249Y898D01*
D02*
X67Y610D02*
X66Y565D01*
D02*
X66Y565D02*
X70Y565D01*
D02*
X66Y488D02*
X66Y565D01*
D02*
X98Y488D02*
X66Y488D01*
D02*
X67Y681D02*
X67Y710D01*
D02*
X82Y778D02*
X94Y805D01*
G54D29*
X324Y102D02*
X326Y102D01*
X354Y102D02*
X382Y102D01*
X323Y101D02*
X327Y101D01*
X354Y101D02*
X382Y101D01*
X322Y100D02*
X327Y100D01*
X353Y100D02*
X382Y100D01*
X322Y99D02*
X328Y99D01*
X353Y99D02*
X382Y99D01*
X322Y98D02*
X328Y98D01*
X354Y98D02*
X381Y98D01*
X322Y97D02*
X328Y97D01*
X355Y97D02*
X381Y97D01*
X321Y96D02*
X329Y96D01*
X374Y96D02*
X380Y96D01*
X321Y95D02*
X329Y95D01*
X373Y95D02*
X379Y95D01*
X321Y94D02*
X329Y94D01*
X373Y94D02*
X379Y94D01*
X320Y93D02*
X329Y93D01*
X372Y93D02*
X378Y93D01*
X320Y92D02*
X330Y92D01*
X372Y92D02*
X378Y92D01*
X320Y91D02*
X330Y91D01*
X371Y91D02*
X377Y91D01*
X319Y90D02*
X330Y90D01*
X371Y90D02*
X376Y90D01*
X319Y89D02*
X331Y89D01*
X370Y89D02*
X376Y89D01*
X319Y88D02*
X324Y88D01*
X326Y88D02*
X331Y88D01*
X369Y88D02*
X375Y88D01*
X319Y87D02*
X324Y87D01*
X326Y87D02*
X331Y87D01*
X369Y87D02*
X375Y87D01*
X318Y86D02*
X324Y86D01*
X326Y86D02*
X332Y86D01*
X368Y86D02*
X374Y86D01*
X318Y85D02*
X323Y85D01*
X327Y85D02*
X332Y85D01*
X368Y85D02*
X374Y85D01*
X318Y84D02*
X323Y84D01*
X327Y84D02*
X332Y84D01*
X367Y84D02*
X373Y84D01*
X317Y83D02*
X323Y83D01*
X327Y83D02*
X332Y83D01*
X366Y83D02*
X372Y83D01*
X317Y82D02*
X322Y82D01*
X327Y82D02*
X333Y82D01*
X366Y82D02*
X372Y82D01*
X317Y81D02*
X322Y81D01*
X328Y81D02*
X333Y81D01*
X365Y81D02*
X371Y81D01*
X317Y80D02*
X322Y80D01*
X328Y80D02*
X333Y80D01*
X365Y80D02*
X371Y80D01*
X316Y79D02*
X321Y79D01*
X328Y79D02*
X334Y79D01*
X364Y79D02*
X370Y79D01*
X316Y78D02*
X321Y78D01*
X329Y78D02*
X334Y78D01*
X364Y78D02*
X369Y78D01*
X316Y77D02*
X321Y77D01*
X329Y77D02*
X334Y77D01*
X363Y77D02*
X369Y77D01*
X315Y76D02*
X321Y76D01*
X329Y76D02*
X334Y76D01*
X362Y76D02*
X368Y76D01*
X315Y75D02*
X320Y75D01*
X330Y75D02*
X335Y75D01*
X362Y75D02*
X368Y75D01*
X315Y74D02*
X320Y74D01*
X330Y74D02*
X335Y74D01*
X361Y74D02*
X367Y74D01*
X315Y73D02*
X320Y73D01*
X330Y73D02*
X335Y73D01*
X361Y73D02*
X367Y73D01*
X314Y72D02*
X336Y72D01*
X360Y72D02*
X366Y72D01*
X314Y71D02*
X336Y71D01*
X359Y71D02*
X365Y71D01*
X314Y70D02*
X336Y70D01*
X359Y70D02*
X365Y70D01*
X313Y69D02*
X337Y69D01*
X358Y69D02*
X364Y69D01*
X313Y68D02*
X337Y68D01*
X358Y68D02*
X364Y68D01*
X313Y67D02*
X337Y67D01*
X357Y67D02*
X363Y67D01*
X312Y66D02*
X318Y66D01*
X332Y66D02*
X337Y66D01*
X356Y66D02*
X362Y66D01*
X312Y65D02*
X317Y65D01*
X333Y65D02*
X338Y65D01*
X356Y65D02*
X362Y65D01*
X312Y64D02*
X317Y64D01*
X333Y64D02*
X338Y64D01*
X355Y64D02*
X361Y64D01*
X312Y63D02*
X317Y63D01*
X333Y63D02*
X338Y63D01*
X355Y63D02*
X361Y63D01*
X311Y62D02*
X316Y62D01*
X333Y62D02*
X339Y62D01*
X354Y62D02*
X380Y62D01*
X311Y61D02*
X316Y61D01*
X334Y61D02*
X339Y61D01*
X354Y61D02*
X381Y61D01*
X311Y60D02*
X316Y60D01*
X334Y60D02*
X339Y60D01*
X353Y60D02*
X382Y60D01*
X311Y59D02*
X316Y59D01*
X334Y59D02*
X339Y59D01*
X353Y59D02*
X382Y59D01*
X311Y58D02*
X315Y58D01*
X335Y58D02*
X339Y58D01*
X353Y58D02*
X381Y58D01*
X312Y57D02*
X314Y57D01*
X336Y57D02*
X338Y57D01*
X353Y57D02*
X380Y57D01*
D02*
G04 End of Copper1*
M02*