G04 MADE WITH FRITZING*
G04 WWW.FRITZING.ORG*
G04 DOUBLE SIDED*
G04 HOLES PLATED*
G04 CONTOUR ON CENTER OF CONTOUR VECTOR*
%ASAXBY*%
%FSLAX23Y23*%
%MOIN*%
%OFA0B0*%
%SFA1.0B1.0*%
%ADD10R,0.001000X0.001000*%
%LNSILK0*%
G90*
G70*
G54D10*
X0Y929D02*
X400Y929D01*
X0Y928D02*
X400Y928D01*
X0Y927D02*
X400Y927D01*
X0Y926D02*
X342Y926D01*
X354Y926D02*
X400Y926D01*
X0Y925D02*
X336Y925D01*
X359Y925D02*
X400Y925D01*
X0Y924D02*
X333Y924D01*
X363Y924D02*
X400Y924D01*
X0Y923D02*
X330Y923D01*
X366Y923D02*
X400Y923D01*
X0Y922D02*
X328Y922D01*
X368Y922D02*
X400Y922D01*
X0Y921D02*
X7Y921D01*
X393Y921D02*
X400Y921D01*
X0Y920D02*
X7Y920D01*
X393Y920D02*
X400Y920D01*
X0Y919D02*
X7Y919D01*
X393Y919D02*
X400Y919D01*
X0Y918D02*
X7Y918D01*
X393Y918D02*
X400Y918D01*
X0Y917D02*
X7Y917D01*
X393Y917D02*
X400Y917D01*
X0Y916D02*
X7Y916D01*
X393Y916D02*
X400Y916D01*
X0Y915D02*
X7Y915D01*
X393Y915D02*
X400Y915D01*
X0Y914D02*
X7Y914D01*
X393Y914D02*
X400Y914D01*
X0Y913D02*
X7Y913D01*
X393Y913D02*
X400Y913D01*
X0Y912D02*
X7Y912D01*
X393Y912D02*
X400Y912D01*
X0Y911D02*
X7Y911D01*
X393Y911D02*
X400Y911D01*
X0Y910D02*
X7Y910D01*
X393Y910D02*
X400Y910D01*
X0Y909D02*
X7Y909D01*
X393Y909D02*
X400Y909D01*
X0Y908D02*
X7Y908D01*
X393Y908D02*
X400Y908D01*
X0Y907D02*
X7Y907D01*
X393Y907D02*
X400Y907D01*
X0Y906D02*
X7Y906D01*
X393Y906D02*
X400Y906D01*
X0Y905D02*
X7Y905D01*
X393Y905D02*
X400Y905D01*
X0Y904D02*
X7Y904D01*
X393Y904D02*
X400Y904D01*
X0Y903D02*
X7Y903D01*
X393Y903D02*
X400Y903D01*
X0Y902D02*
X7Y902D01*
X393Y902D02*
X400Y902D01*
X0Y901D02*
X7Y901D01*
X393Y901D02*
X400Y901D01*
X0Y900D02*
X7Y900D01*
X393Y900D02*
X400Y900D01*
X0Y899D02*
X7Y899D01*
X393Y899D02*
X400Y899D01*
X0Y898D02*
X7Y898D01*
X393Y898D02*
X400Y898D01*
X0Y897D02*
X7Y897D01*
X393Y897D02*
X400Y897D01*
X0Y896D02*
X7Y896D01*
X393Y896D02*
X400Y896D01*
X0Y895D02*
X7Y895D01*
X393Y895D02*
X400Y895D01*
X0Y894D02*
X7Y894D01*
X393Y894D02*
X400Y894D01*
X0Y893D02*
X7Y893D01*
X393Y893D02*
X400Y893D01*
X0Y892D02*
X7Y892D01*
X393Y892D02*
X400Y892D01*
X0Y891D02*
X7Y891D01*
X393Y891D02*
X400Y891D01*
X0Y890D02*
X7Y890D01*
X393Y890D02*
X400Y890D01*
X0Y889D02*
X7Y889D01*
X393Y889D02*
X400Y889D01*
X0Y888D02*
X7Y888D01*
X393Y888D02*
X400Y888D01*
X0Y887D02*
X7Y887D01*
X393Y887D02*
X400Y887D01*
X0Y886D02*
X7Y886D01*
X393Y886D02*
X400Y886D01*
X0Y885D02*
X7Y885D01*
X393Y885D02*
X400Y885D01*
X0Y884D02*
X7Y884D01*
X393Y884D02*
X400Y884D01*
X0Y883D02*
X7Y883D01*
X393Y883D02*
X400Y883D01*
X0Y882D02*
X7Y882D01*
X393Y882D02*
X400Y882D01*
X0Y881D02*
X7Y881D01*
X393Y881D02*
X400Y881D01*
X0Y880D02*
X7Y880D01*
X393Y880D02*
X400Y880D01*
X0Y879D02*
X7Y879D01*
X393Y879D02*
X400Y879D01*
X0Y878D02*
X7Y878D01*
X393Y878D02*
X400Y878D01*
X0Y877D02*
X7Y877D01*
X393Y877D02*
X400Y877D01*
X0Y876D02*
X7Y876D01*
X393Y876D02*
X400Y876D01*
X0Y875D02*
X7Y875D01*
X393Y875D02*
X400Y875D01*
X0Y874D02*
X7Y874D01*
X393Y874D02*
X400Y874D01*
X0Y873D02*
X7Y873D01*
X393Y873D02*
X400Y873D01*
X0Y872D02*
X7Y872D01*
X393Y872D02*
X400Y872D01*
X0Y871D02*
X7Y871D01*
X393Y871D02*
X400Y871D01*
X0Y870D02*
X7Y870D01*
X393Y870D02*
X400Y870D01*
X0Y869D02*
X7Y869D01*
X393Y869D02*
X400Y869D01*
X0Y868D02*
X7Y868D01*
X393Y868D02*
X400Y868D01*
X0Y867D02*
X7Y867D01*
X393Y867D02*
X400Y867D01*
X0Y866D02*
X7Y866D01*
X393Y866D02*
X400Y866D01*
X0Y865D02*
X7Y865D01*
X393Y865D02*
X400Y865D01*
X0Y864D02*
X7Y864D01*
X393Y864D02*
X400Y864D01*
X0Y863D02*
X7Y863D01*
X393Y863D02*
X400Y863D01*
X0Y862D02*
X7Y862D01*
X393Y862D02*
X400Y862D01*
X0Y861D02*
X7Y861D01*
X393Y861D02*
X400Y861D01*
X0Y860D02*
X7Y860D01*
X393Y860D02*
X400Y860D01*
X0Y859D02*
X7Y859D01*
X393Y859D02*
X400Y859D01*
X0Y858D02*
X7Y858D01*
X393Y858D02*
X400Y858D01*
X0Y857D02*
X7Y857D01*
X393Y857D02*
X400Y857D01*
X0Y856D02*
X7Y856D01*
X393Y856D02*
X400Y856D01*
X0Y855D02*
X7Y855D01*
X393Y855D02*
X400Y855D01*
X0Y854D02*
X7Y854D01*
X393Y854D02*
X400Y854D01*
X0Y853D02*
X7Y853D01*
X393Y853D02*
X400Y853D01*
X0Y852D02*
X7Y852D01*
X393Y852D02*
X400Y852D01*
X0Y851D02*
X7Y851D01*
X393Y851D02*
X400Y851D01*
X0Y850D02*
X7Y850D01*
X393Y850D02*
X400Y850D01*
X0Y849D02*
X7Y849D01*
X393Y849D02*
X400Y849D01*
X0Y848D02*
X7Y848D01*
X393Y848D02*
X400Y848D01*
X0Y847D02*
X7Y847D01*
X393Y847D02*
X400Y847D01*
X0Y846D02*
X7Y846D01*
X393Y846D02*
X400Y846D01*
X0Y845D02*
X7Y845D01*
X393Y845D02*
X400Y845D01*
X0Y844D02*
X7Y844D01*
X393Y844D02*
X400Y844D01*
X0Y843D02*
X7Y843D01*
X393Y843D02*
X400Y843D01*
X0Y842D02*
X7Y842D01*
X393Y842D02*
X400Y842D01*
X0Y841D02*
X7Y841D01*
X393Y841D02*
X400Y841D01*
X0Y840D02*
X7Y840D01*
X393Y840D02*
X400Y840D01*
X0Y839D02*
X7Y839D01*
X393Y839D02*
X400Y839D01*
X0Y838D02*
X7Y838D01*
X393Y838D02*
X400Y838D01*
X0Y837D02*
X7Y837D01*
X393Y837D02*
X400Y837D01*
X0Y836D02*
X7Y836D01*
X393Y836D02*
X400Y836D01*
X0Y835D02*
X7Y835D01*
X393Y835D02*
X400Y835D01*
X0Y834D02*
X7Y834D01*
X393Y834D02*
X400Y834D01*
X0Y833D02*
X7Y833D01*
X393Y833D02*
X400Y833D01*
X0Y832D02*
X7Y832D01*
X393Y832D02*
X400Y832D01*
X0Y831D02*
X7Y831D01*
X393Y831D02*
X400Y831D01*
X0Y830D02*
X7Y830D01*
X393Y830D02*
X400Y830D01*
X0Y829D02*
X7Y829D01*
X393Y829D02*
X400Y829D01*
X0Y828D02*
X7Y828D01*
X393Y828D02*
X400Y828D01*
X0Y827D02*
X7Y827D01*
X393Y827D02*
X400Y827D01*
X0Y826D02*
X7Y826D01*
X393Y826D02*
X400Y826D01*
X0Y825D02*
X7Y825D01*
X393Y825D02*
X400Y825D01*
X0Y824D02*
X7Y824D01*
X393Y824D02*
X400Y824D01*
X0Y823D02*
X7Y823D01*
X393Y823D02*
X400Y823D01*
X0Y822D02*
X7Y822D01*
X393Y822D02*
X400Y822D01*
X0Y821D02*
X7Y821D01*
X393Y821D02*
X400Y821D01*
X0Y820D02*
X7Y820D01*
X393Y820D02*
X400Y820D01*
X0Y819D02*
X7Y819D01*
X393Y819D02*
X400Y819D01*
X0Y818D02*
X7Y818D01*
X393Y818D02*
X400Y818D01*
X0Y817D02*
X7Y817D01*
X393Y817D02*
X400Y817D01*
X0Y816D02*
X7Y816D01*
X393Y816D02*
X400Y816D01*
X0Y815D02*
X7Y815D01*
X393Y815D02*
X400Y815D01*
X0Y814D02*
X7Y814D01*
X393Y814D02*
X400Y814D01*
X0Y813D02*
X7Y813D01*
X393Y813D02*
X400Y813D01*
X0Y812D02*
X7Y812D01*
X393Y812D02*
X400Y812D01*
X0Y811D02*
X7Y811D01*
X393Y811D02*
X400Y811D01*
X0Y810D02*
X7Y810D01*
X393Y810D02*
X400Y810D01*
X0Y809D02*
X7Y809D01*
X393Y809D02*
X400Y809D01*
X0Y808D02*
X7Y808D01*
X393Y808D02*
X400Y808D01*
X0Y807D02*
X7Y807D01*
X393Y807D02*
X400Y807D01*
X0Y806D02*
X7Y806D01*
X393Y806D02*
X400Y806D01*
X0Y805D02*
X7Y805D01*
X393Y805D02*
X400Y805D01*
X0Y804D02*
X7Y804D01*
X393Y804D02*
X400Y804D01*
X0Y803D02*
X7Y803D01*
X393Y803D02*
X400Y803D01*
X0Y802D02*
X7Y802D01*
X393Y802D02*
X400Y802D01*
X0Y801D02*
X7Y801D01*
X393Y801D02*
X400Y801D01*
X0Y800D02*
X7Y800D01*
X393Y800D02*
X400Y800D01*
X0Y799D02*
X7Y799D01*
X393Y799D02*
X400Y799D01*
X0Y798D02*
X7Y798D01*
X393Y798D02*
X400Y798D01*
X0Y797D02*
X7Y797D01*
X393Y797D02*
X400Y797D01*
X0Y796D02*
X7Y796D01*
X393Y796D02*
X400Y796D01*
X0Y795D02*
X7Y795D01*
X393Y795D02*
X400Y795D01*
X0Y794D02*
X7Y794D01*
X393Y794D02*
X400Y794D01*
X0Y793D02*
X7Y793D01*
X393Y793D02*
X400Y793D01*
X0Y792D02*
X7Y792D01*
X393Y792D02*
X400Y792D01*
X0Y791D02*
X7Y791D01*
X393Y791D02*
X400Y791D01*
X0Y790D02*
X7Y790D01*
X393Y790D02*
X400Y790D01*
X0Y789D02*
X7Y789D01*
X393Y789D02*
X400Y789D01*
X0Y788D02*
X7Y788D01*
X393Y788D02*
X400Y788D01*
X0Y787D02*
X7Y787D01*
X393Y787D02*
X400Y787D01*
X0Y786D02*
X7Y786D01*
X393Y786D02*
X400Y786D01*
X0Y785D02*
X7Y785D01*
X393Y785D02*
X400Y785D01*
X0Y784D02*
X7Y784D01*
X393Y784D02*
X400Y784D01*
X0Y783D02*
X7Y783D01*
X393Y783D02*
X400Y783D01*
X0Y782D02*
X7Y782D01*
X393Y782D02*
X400Y782D01*
X0Y781D02*
X7Y781D01*
X393Y781D02*
X400Y781D01*
X0Y780D02*
X7Y780D01*
X393Y780D02*
X400Y780D01*
X0Y779D02*
X7Y779D01*
X393Y779D02*
X400Y779D01*
X0Y778D02*
X7Y778D01*
X393Y778D02*
X400Y778D01*
X0Y777D02*
X7Y777D01*
X393Y777D02*
X400Y777D01*
X0Y776D02*
X7Y776D01*
X393Y776D02*
X400Y776D01*
X0Y775D02*
X7Y775D01*
X393Y775D02*
X400Y775D01*
X0Y774D02*
X7Y774D01*
X393Y774D02*
X400Y774D01*
X0Y773D02*
X7Y773D01*
X393Y773D02*
X400Y773D01*
X0Y772D02*
X7Y772D01*
X393Y772D02*
X400Y772D01*
X0Y771D02*
X7Y771D01*
X393Y771D02*
X400Y771D01*
X0Y770D02*
X7Y770D01*
X393Y770D02*
X400Y770D01*
X0Y769D02*
X7Y769D01*
X393Y769D02*
X400Y769D01*
X0Y768D02*
X7Y768D01*
X393Y768D02*
X400Y768D01*
X0Y767D02*
X7Y767D01*
X393Y767D02*
X400Y767D01*
X0Y766D02*
X7Y766D01*
X393Y766D02*
X400Y766D01*
X0Y765D02*
X7Y765D01*
X393Y765D02*
X400Y765D01*
X0Y764D02*
X7Y764D01*
X393Y764D02*
X400Y764D01*
X0Y763D02*
X7Y763D01*
X393Y763D02*
X400Y763D01*
X0Y762D02*
X7Y762D01*
X393Y762D02*
X400Y762D01*
X0Y761D02*
X7Y761D01*
X393Y761D02*
X400Y761D01*
X0Y760D02*
X7Y760D01*
X393Y760D02*
X400Y760D01*
X0Y759D02*
X7Y759D01*
X393Y759D02*
X400Y759D01*
X0Y758D02*
X7Y758D01*
X393Y758D02*
X400Y758D01*
X0Y757D02*
X7Y757D01*
X393Y757D02*
X400Y757D01*
X0Y756D02*
X7Y756D01*
X393Y756D02*
X400Y756D01*
X0Y755D02*
X7Y755D01*
X393Y755D02*
X400Y755D01*
X0Y754D02*
X7Y754D01*
X393Y754D02*
X400Y754D01*
X0Y753D02*
X7Y753D01*
X393Y753D02*
X400Y753D01*
X0Y752D02*
X7Y752D01*
X393Y752D02*
X400Y752D01*
X0Y751D02*
X7Y751D01*
X393Y751D02*
X400Y751D01*
X0Y750D02*
X7Y750D01*
X393Y750D02*
X400Y750D01*
X0Y749D02*
X7Y749D01*
X393Y749D02*
X400Y749D01*
X0Y748D02*
X7Y748D01*
X393Y748D02*
X400Y748D01*
X0Y747D02*
X7Y747D01*
X393Y747D02*
X400Y747D01*
X0Y746D02*
X7Y746D01*
X393Y746D02*
X400Y746D01*
X0Y745D02*
X7Y745D01*
X393Y745D02*
X400Y745D01*
X0Y744D02*
X7Y744D01*
X393Y744D02*
X400Y744D01*
X0Y743D02*
X7Y743D01*
X393Y743D02*
X400Y743D01*
X0Y742D02*
X7Y742D01*
X393Y742D02*
X400Y742D01*
X0Y741D02*
X7Y741D01*
X393Y741D02*
X400Y741D01*
X0Y740D02*
X7Y740D01*
X393Y740D02*
X400Y740D01*
X0Y739D02*
X7Y739D01*
X393Y739D02*
X400Y739D01*
X0Y738D02*
X7Y738D01*
X393Y738D02*
X400Y738D01*
X0Y737D02*
X7Y737D01*
X393Y737D02*
X400Y737D01*
X0Y736D02*
X7Y736D01*
X393Y736D02*
X400Y736D01*
X0Y735D02*
X7Y735D01*
X393Y735D02*
X400Y735D01*
X0Y734D02*
X7Y734D01*
X393Y734D02*
X400Y734D01*
X0Y733D02*
X7Y733D01*
X393Y733D02*
X400Y733D01*
X0Y732D02*
X7Y732D01*
X393Y732D02*
X400Y732D01*
X0Y731D02*
X7Y731D01*
X393Y731D02*
X400Y731D01*
X0Y730D02*
X7Y730D01*
X393Y730D02*
X400Y730D01*
X0Y729D02*
X7Y729D01*
X393Y729D02*
X400Y729D01*
X0Y728D02*
X7Y728D01*
X393Y728D02*
X400Y728D01*
X0Y727D02*
X7Y727D01*
X393Y727D02*
X400Y727D01*
X0Y726D02*
X7Y726D01*
X393Y726D02*
X400Y726D01*
X0Y725D02*
X7Y725D01*
X393Y725D02*
X400Y725D01*
X0Y724D02*
X7Y724D01*
X393Y724D02*
X400Y724D01*
X0Y723D02*
X7Y723D01*
X393Y723D02*
X400Y723D01*
X0Y722D02*
X7Y722D01*
X393Y722D02*
X400Y722D01*
X0Y721D02*
X7Y721D01*
X393Y721D02*
X400Y721D01*
X0Y720D02*
X7Y720D01*
X393Y720D02*
X400Y720D01*
X0Y719D02*
X7Y719D01*
X393Y719D02*
X400Y719D01*
X0Y718D02*
X7Y718D01*
X393Y718D02*
X400Y718D01*
X0Y717D02*
X7Y717D01*
X393Y717D02*
X400Y717D01*
X0Y716D02*
X7Y716D01*
X393Y716D02*
X400Y716D01*
X0Y715D02*
X7Y715D01*
X393Y715D02*
X400Y715D01*
X0Y714D02*
X7Y714D01*
X393Y714D02*
X400Y714D01*
X0Y713D02*
X7Y713D01*
X393Y713D02*
X400Y713D01*
X0Y712D02*
X7Y712D01*
X393Y712D02*
X400Y712D01*
X0Y711D02*
X7Y711D01*
X393Y711D02*
X400Y711D01*
X0Y710D02*
X7Y710D01*
X393Y710D02*
X400Y710D01*
X0Y709D02*
X7Y709D01*
X393Y709D02*
X400Y709D01*
X0Y708D02*
X7Y708D01*
X393Y708D02*
X400Y708D01*
X0Y707D02*
X7Y707D01*
X393Y707D02*
X400Y707D01*
X0Y706D02*
X7Y706D01*
X393Y706D02*
X400Y706D01*
X0Y705D02*
X7Y705D01*
X393Y705D02*
X400Y705D01*
X0Y704D02*
X7Y704D01*
X393Y704D02*
X400Y704D01*
X0Y703D02*
X7Y703D01*
X393Y703D02*
X400Y703D01*
X0Y702D02*
X7Y702D01*
X393Y702D02*
X400Y702D01*
X0Y701D02*
X7Y701D01*
X393Y701D02*
X400Y701D01*
X0Y700D02*
X7Y700D01*
X393Y700D02*
X400Y700D01*
X0Y699D02*
X7Y699D01*
X393Y699D02*
X400Y699D01*
X0Y698D02*
X7Y698D01*
X393Y698D02*
X400Y698D01*
X0Y697D02*
X7Y697D01*
X393Y697D02*
X400Y697D01*
X0Y696D02*
X7Y696D01*
X393Y696D02*
X400Y696D01*
X0Y695D02*
X7Y695D01*
X393Y695D02*
X400Y695D01*
X0Y694D02*
X7Y694D01*
X393Y694D02*
X400Y694D01*
X0Y693D02*
X7Y693D01*
X393Y693D02*
X400Y693D01*
X0Y692D02*
X7Y692D01*
X393Y692D02*
X400Y692D01*
X0Y691D02*
X7Y691D01*
X393Y691D02*
X400Y691D01*
X0Y690D02*
X7Y690D01*
X393Y690D02*
X400Y690D01*
X0Y689D02*
X7Y689D01*
X393Y689D02*
X400Y689D01*
X0Y688D02*
X7Y688D01*
X393Y688D02*
X400Y688D01*
X0Y687D02*
X7Y687D01*
X393Y687D02*
X400Y687D01*
X0Y686D02*
X7Y686D01*
X393Y686D02*
X400Y686D01*
X0Y685D02*
X7Y685D01*
X393Y685D02*
X400Y685D01*
X0Y684D02*
X7Y684D01*
X393Y684D02*
X400Y684D01*
X0Y683D02*
X7Y683D01*
X393Y683D02*
X400Y683D01*
X0Y682D02*
X7Y682D01*
X393Y682D02*
X400Y682D01*
X0Y681D02*
X7Y681D01*
X393Y681D02*
X400Y681D01*
X0Y680D02*
X7Y680D01*
X393Y680D02*
X400Y680D01*
X0Y679D02*
X7Y679D01*
X393Y679D02*
X400Y679D01*
X0Y678D02*
X7Y678D01*
X393Y678D02*
X400Y678D01*
X0Y677D02*
X7Y677D01*
X393Y677D02*
X400Y677D01*
X0Y676D02*
X7Y676D01*
X393Y676D02*
X400Y676D01*
X0Y675D02*
X7Y675D01*
X393Y675D02*
X400Y675D01*
X0Y674D02*
X7Y674D01*
X393Y674D02*
X400Y674D01*
X0Y673D02*
X7Y673D01*
X393Y673D02*
X400Y673D01*
X0Y672D02*
X7Y672D01*
X393Y672D02*
X400Y672D01*
X0Y671D02*
X7Y671D01*
X393Y671D02*
X400Y671D01*
X0Y670D02*
X7Y670D01*
X393Y670D02*
X400Y670D01*
X0Y669D02*
X7Y669D01*
X393Y669D02*
X400Y669D01*
X0Y668D02*
X7Y668D01*
X393Y668D02*
X400Y668D01*
X0Y667D02*
X7Y667D01*
X393Y667D02*
X400Y667D01*
X0Y666D02*
X7Y666D01*
X393Y666D02*
X400Y666D01*
X0Y665D02*
X7Y665D01*
X393Y665D02*
X400Y665D01*
X0Y664D02*
X7Y664D01*
X393Y664D02*
X400Y664D01*
X0Y663D02*
X7Y663D01*
X393Y663D02*
X400Y663D01*
X0Y662D02*
X7Y662D01*
X393Y662D02*
X400Y662D01*
X0Y661D02*
X7Y661D01*
X393Y661D02*
X400Y661D01*
X0Y660D02*
X7Y660D01*
X393Y660D02*
X400Y660D01*
X0Y659D02*
X7Y659D01*
X393Y659D02*
X400Y659D01*
X0Y658D02*
X7Y658D01*
X393Y658D02*
X400Y658D01*
X0Y657D02*
X7Y657D01*
X393Y657D02*
X400Y657D01*
X0Y656D02*
X7Y656D01*
X393Y656D02*
X400Y656D01*
X0Y655D02*
X7Y655D01*
X393Y655D02*
X400Y655D01*
X0Y654D02*
X7Y654D01*
X393Y654D02*
X400Y654D01*
X0Y653D02*
X7Y653D01*
X393Y653D02*
X400Y653D01*
X0Y652D02*
X7Y652D01*
X393Y652D02*
X400Y652D01*
X0Y651D02*
X7Y651D01*
X393Y651D02*
X400Y651D01*
X0Y650D02*
X7Y650D01*
X393Y650D02*
X400Y650D01*
X0Y649D02*
X7Y649D01*
X393Y649D02*
X400Y649D01*
X0Y648D02*
X7Y648D01*
X393Y648D02*
X400Y648D01*
X0Y647D02*
X7Y647D01*
X393Y647D02*
X400Y647D01*
X0Y646D02*
X7Y646D01*
X393Y646D02*
X400Y646D01*
X0Y645D02*
X7Y645D01*
X393Y645D02*
X400Y645D01*
X0Y644D02*
X7Y644D01*
X393Y644D02*
X400Y644D01*
X0Y643D02*
X7Y643D01*
X393Y643D02*
X400Y643D01*
X0Y642D02*
X7Y642D01*
X393Y642D02*
X400Y642D01*
X0Y641D02*
X7Y641D01*
X393Y641D02*
X400Y641D01*
X0Y640D02*
X7Y640D01*
X393Y640D02*
X400Y640D01*
X0Y639D02*
X7Y639D01*
X393Y639D02*
X400Y639D01*
X0Y638D02*
X7Y638D01*
X393Y638D02*
X400Y638D01*
X0Y637D02*
X7Y637D01*
X393Y637D02*
X400Y637D01*
X0Y636D02*
X7Y636D01*
X393Y636D02*
X400Y636D01*
X0Y635D02*
X7Y635D01*
X393Y635D02*
X400Y635D01*
X0Y634D02*
X7Y634D01*
X393Y634D02*
X400Y634D01*
X0Y633D02*
X7Y633D01*
X393Y633D02*
X400Y633D01*
X0Y632D02*
X7Y632D01*
X393Y632D02*
X400Y632D01*
X0Y631D02*
X7Y631D01*
X393Y631D02*
X400Y631D01*
X0Y630D02*
X7Y630D01*
X393Y630D02*
X400Y630D01*
X0Y629D02*
X7Y629D01*
X393Y629D02*
X400Y629D01*
X0Y628D02*
X7Y628D01*
X393Y628D02*
X400Y628D01*
X0Y627D02*
X7Y627D01*
X393Y627D02*
X400Y627D01*
X0Y626D02*
X7Y626D01*
X393Y626D02*
X400Y626D01*
X0Y625D02*
X7Y625D01*
X393Y625D02*
X400Y625D01*
X0Y624D02*
X7Y624D01*
X393Y624D02*
X400Y624D01*
X0Y623D02*
X7Y623D01*
X393Y623D02*
X400Y623D01*
X0Y622D02*
X7Y622D01*
X393Y622D02*
X400Y622D01*
X0Y621D02*
X7Y621D01*
X393Y621D02*
X400Y621D01*
X0Y620D02*
X7Y620D01*
X393Y620D02*
X400Y620D01*
X0Y619D02*
X7Y619D01*
X393Y619D02*
X400Y619D01*
X0Y618D02*
X7Y618D01*
X393Y618D02*
X400Y618D01*
X0Y617D02*
X7Y617D01*
X393Y617D02*
X400Y617D01*
X0Y616D02*
X7Y616D01*
X393Y616D02*
X400Y616D01*
X0Y615D02*
X7Y615D01*
X393Y615D02*
X400Y615D01*
X0Y614D02*
X7Y614D01*
X393Y614D02*
X400Y614D01*
X0Y613D02*
X7Y613D01*
X393Y613D02*
X400Y613D01*
X0Y612D02*
X7Y612D01*
X393Y612D02*
X400Y612D01*
X0Y611D02*
X7Y611D01*
X393Y611D02*
X400Y611D01*
X0Y610D02*
X7Y610D01*
X393Y610D02*
X400Y610D01*
X0Y609D02*
X7Y609D01*
X393Y609D02*
X400Y609D01*
X0Y608D02*
X7Y608D01*
X393Y608D02*
X400Y608D01*
X0Y607D02*
X7Y607D01*
X393Y607D02*
X400Y607D01*
X0Y606D02*
X7Y606D01*
X393Y606D02*
X400Y606D01*
X0Y605D02*
X7Y605D01*
X393Y605D02*
X400Y605D01*
X0Y604D02*
X7Y604D01*
X393Y604D02*
X400Y604D01*
X0Y603D02*
X7Y603D01*
X393Y603D02*
X400Y603D01*
X0Y602D02*
X7Y602D01*
X393Y602D02*
X400Y602D01*
X0Y601D02*
X7Y601D01*
X393Y601D02*
X400Y601D01*
X0Y600D02*
X7Y600D01*
X393Y600D02*
X400Y600D01*
X0Y599D02*
X7Y599D01*
X393Y599D02*
X400Y599D01*
X0Y598D02*
X7Y598D01*
X393Y598D02*
X400Y598D01*
X0Y597D02*
X7Y597D01*
X393Y597D02*
X400Y597D01*
X0Y596D02*
X7Y596D01*
X393Y596D02*
X400Y596D01*
X0Y595D02*
X7Y595D01*
X393Y595D02*
X400Y595D01*
X0Y594D02*
X7Y594D01*
X393Y594D02*
X400Y594D01*
X0Y593D02*
X7Y593D01*
X393Y593D02*
X400Y593D01*
X0Y592D02*
X7Y592D01*
X393Y592D02*
X400Y592D01*
X0Y591D02*
X7Y591D01*
X393Y591D02*
X400Y591D01*
X0Y590D02*
X7Y590D01*
X393Y590D02*
X400Y590D01*
X0Y589D02*
X7Y589D01*
X393Y589D02*
X400Y589D01*
X0Y588D02*
X7Y588D01*
X393Y588D02*
X400Y588D01*
X0Y587D02*
X7Y587D01*
X393Y587D02*
X400Y587D01*
X0Y586D02*
X7Y586D01*
X393Y586D02*
X400Y586D01*
X0Y585D02*
X7Y585D01*
X393Y585D02*
X400Y585D01*
X0Y584D02*
X7Y584D01*
X393Y584D02*
X400Y584D01*
X0Y583D02*
X7Y583D01*
X393Y583D02*
X400Y583D01*
X0Y582D02*
X7Y582D01*
X393Y582D02*
X400Y582D01*
X0Y581D02*
X7Y581D01*
X393Y581D02*
X400Y581D01*
X0Y580D02*
X7Y580D01*
X393Y580D02*
X400Y580D01*
X0Y579D02*
X7Y579D01*
X393Y579D02*
X400Y579D01*
X0Y578D02*
X7Y578D01*
X393Y578D02*
X400Y578D01*
X0Y577D02*
X7Y577D01*
X393Y577D02*
X400Y577D01*
X0Y576D02*
X7Y576D01*
X393Y576D02*
X400Y576D01*
X0Y575D02*
X7Y575D01*
X393Y575D02*
X400Y575D01*
X0Y574D02*
X7Y574D01*
X393Y574D02*
X400Y574D01*
X0Y573D02*
X7Y573D01*
X393Y573D02*
X400Y573D01*
X0Y572D02*
X7Y572D01*
X393Y572D02*
X400Y572D01*
X0Y571D02*
X7Y571D01*
X393Y571D02*
X400Y571D01*
X0Y570D02*
X7Y570D01*
X393Y570D02*
X400Y570D01*
X0Y569D02*
X7Y569D01*
X393Y569D02*
X400Y569D01*
X0Y568D02*
X7Y568D01*
X393Y568D02*
X400Y568D01*
X0Y567D02*
X7Y567D01*
X393Y567D02*
X400Y567D01*
X0Y566D02*
X7Y566D01*
X393Y566D02*
X400Y566D01*
X0Y565D02*
X7Y565D01*
X393Y565D02*
X400Y565D01*
X0Y564D02*
X7Y564D01*
X393Y564D02*
X400Y564D01*
X0Y563D02*
X7Y563D01*
X393Y563D02*
X400Y563D01*
X0Y562D02*
X7Y562D01*
X393Y562D02*
X400Y562D01*
X0Y561D02*
X7Y561D01*
X393Y561D02*
X400Y561D01*
X0Y560D02*
X7Y560D01*
X393Y560D02*
X400Y560D01*
X0Y559D02*
X7Y559D01*
X393Y559D02*
X400Y559D01*
X0Y558D02*
X7Y558D01*
X393Y558D02*
X400Y558D01*
X0Y557D02*
X7Y557D01*
X393Y557D02*
X400Y557D01*
X0Y556D02*
X7Y556D01*
X393Y556D02*
X400Y556D01*
X0Y555D02*
X7Y555D01*
X393Y555D02*
X400Y555D01*
X0Y554D02*
X7Y554D01*
X393Y554D02*
X400Y554D01*
X0Y553D02*
X7Y553D01*
X393Y553D02*
X400Y553D01*
X0Y552D02*
X7Y552D01*
X393Y552D02*
X400Y552D01*
X0Y551D02*
X7Y551D01*
X393Y551D02*
X400Y551D01*
X0Y550D02*
X7Y550D01*
X393Y550D02*
X400Y550D01*
X0Y549D02*
X7Y549D01*
X393Y549D02*
X400Y549D01*
X0Y548D02*
X7Y548D01*
X393Y548D02*
X400Y548D01*
X0Y547D02*
X7Y547D01*
X393Y547D02*
X400Y547D01*
X0Y546D02*
X7Y546D01*
X393Y546D02*
X400Y546D01*
X0Y545D02*
X7Y545D01*
X393Y545D02*
X400Y545D01*
X0Y544D02*
X7Y544D01*
X393Y544D02*
X400Y544D01*
X0Y543D02*
X7Y543D01*
X393Y543D02*
X400Y543D01*
X0Y542D02*
X7Y542D01*
X393Y542D02*
X400Y542D01*
X0Y541D02*
X7Y541D01*
X393Y541D02*
X400Y541D01*
X0Y540D02*
X7Y540D01*
X393Y540D02*
X400Y540D01*
X0Y539D02*
X7Y539D01*
X393Y539D02*
X400Y539D01*
X0Y538D02*
X7Y538D01*
X393Y538D02*
X400Y538D01*
X0Y537D02*
X7Y537D01*
X393Y537D02*
X400Y537D01*
X0Y536D02*
X7Y536D01*
X393Y536D02*
X400Y536D01*
X0Y535D02*
X7Y535D01*
X393Y535D02*
X400Y535D01*
X0Y534D02*
X7Y534D01*
X393Y534D02*
X400Y534D01*
X0Y533D02*
X7Y533D01*
X393Y533D02*
X400Y533D01*
X0Y532D02*
X7Y532D01*
X393Y532D02*
X400Y532D01*
X0Y531D02*
X7Y531D01*
X393Y531D02*
X400Y531D01*
X0Y530D02*
X7Y530D01*
X393Y530D02*
X400Y530D01*
X0Y529D02*
X7Y529D01*
X393Y529D02*
X400Y529D01*
X0Y528D02*
X7Y528D01*
X393Y528D02*
X400Y528D01*
X0Y527D02*
X7Y527D01*
X393Y527D02*
X400Y527D01*
X0Y526D02*
X7Y526D01*
X393Y526D02*
X400Y526D01*
X0Y525D02*
X7Y525D01*
X393Y525D02*
X400Y525D01*
X0Y524D02*
X7Y524D01*
X393Y524D02*
X400Y524D01*
X0Y523D02*
X7Y523D01*
X393Y523D02*
X400Y523D01*
X0Y522D02*
X7Y522D01*
X393Y522D02*
X400Y522D01*
X0Y521D02*
X7Y521D01*
X393Y521D02*
X400Y521D01*
X0Y520D02*
X7Y520D01*
X393Y520D02*
X400Y520D01*
X0Y519D02*
X7Y519D01*
X393Y519D02*
X400Y519D01*
X0Y518D02*
X7Y518D01*
X393Y518D02*
X400Y518D01*
X0Y517D02*
X7Y517D01*
X393Y517D02*
X400Y517D01*
X0Y516D02*
X7Y516D01*
X393Y516D02*
X400Y516D01*
X0Y515D02*
X7Y515D01*
X393Y515D02*
X400Y515D01*
X0Y514D02*
X7Y514D01*
X393Y514D02*
X400Y514D01*
X0Y513D02*
X7Y513D01*
X393Y513D02*
X400Y513D01*
X0Y512D02*
X7Y512D01*
X393Y512D02*
X400Y512D01*
X0Y511D02*
X7Y511D01*
X393Y511D02*
X400Y511D01*
X0Y510D02*
X7Y510D01*
X393Y510D02*
X400Y510D01*
X0Y509D02*
X7Y509D01*
X393Y509D02*
X400Y509D01*
X0Y508D02*
X7Y508D01*
X393Y508D02*
X400Y508D01*
X0Y507D02*
X7Y507D01*
X393Y507D02*
X400Y507D01*
X0Y506D02*
X7Y506D01*
X393Y506D02*
X400Y506D01*
X0Y505D02*
X7Y505D01*
X393Y505D02*
X400Y505D01*
X0Y504D02*
X7Y504D01*
X393Y504D02*
X400Y504D01*
X0Y503D02*
X7Y503D01*
X393Y503D02*
X400Y503D01*
X0Y502D02*
X7Y502D01*
X393Y502D02*
X400Y502D01*
X0Y501D02*
X7Y501D01*
X393Y501D02*
X400Y501D01*
X0Y500D02*
X7Y500D01*
X393Y500D02*
X400Y500D01*
X0Y499D02*
X7Y499D01*
X393Y499D02*
X400Y499D01*
X0Y498D02*
X7Y498D01*
X393Y498D02*
X400Y498D01*
X0Y497D02*
X7Y497D01*
X393Y497D02*
X400Y497D01*
X0Y496D02*
X7Y496D01*
X393Y496D02*
X400Y496D01*
X0Y495D02*
X7Y495D01*
X393Y495D02*
X400Y495D01*
X0Y494D02*
X7Y494D01*
X393Y494D02*
X400Y494D01*
X0Y493D02*
X7Y493D01*
X393Y493D02*
X400Y493D01*
X0Y492D02*
X7Y492D01*
X393Y492D02*
X400Y492D01*
X0Y491D02*
X7Y491D01*
X393Y491D02*
X400Y491D01*
X0Y490D02*
X7Y490D01*
X393Y490D02*
X400Y490D01*
X0Y489D02*
X7Y489D01*
X393Y489D02*
X400Y489D01*
X0Y488D02*
X7Y488D01*
X393Y488D02*
X400Y488D01*
X0Y487D02*
X7Y487D01*
X393Y487D02*
X400Y487D01*
X0Y486D02*
X7Y486D01*
X393Y486D02*
X400Y486D01*
X0Y485D02*
X7Y485D01*
X393Y485D02*
X400Y485D01*
X0Y484D02*
X7Y484D01*
X393Y484D02*
X400Y484D01*
X0Y483D02*
X7Y483D01*
X393Y483D02*
X400Y483D01*
X0Y482D02*
X7Y482D01*
X393Y482D02*
X400Y482D01*
X0Y481D02*
X7Y481D01*
X393Y481D02*
X400Y481D01*
X0Y480D02*
X7Y480D01*
X393Y480D02*
X400Y480D01*
X0Y479D02*
X7Y479D01*
X393Y479D02*
X400Y479D01*
X0Y478D02*
X7Y478D01*
X393Y478D02*
X400Y478D01*
X0Y477D02*
X7Y477D01*
X393Y477D02*
X400Y477D01*
X0Y476D02*
X7Y476D01*
X393Y476D02*
X400Y476D01*
X0Y475D02*
X7Y475D01*
X393Y475D02*
X400Y475D01*
X0Y474D02*
X7Y474D01*
X393Y474D02*
X400Y474D01*
X0Y473D02*
X7Y473D01*
X393Y473D02*
X400Y473D01*
X0Y472D02*
X7Y472D01*
X393Y472D02*
X400Y472D01*
X0Y471D02*
X7Y471D01*
X393Y471D02*
X400Y471D01*
X0Y470D02*
X7Y470D01*
X393Y470D02*
X400Y470D01*
X0Y469D02*
X7Y469D01*
X393Y469D02*
X400Y469D01*
X0Y468D02*
X7Y468D01*
X393Y468D02*
X400Y468D01*
X0Y467D02*
X7Y467D01*
X393Y467D02*
X400Y467D01*
X0Y466D02*
X7Y466D01*
X393Y466D02*
X400Y466D01*
X0Y465D02*
X7Y465D01*
X393Y465D02*
X400Y465D01*
X0Y464D02*
X7Y464D01*
X393Y464D02*
X400Y464D01*
X0Y463D02*
X7Y463D01*
X393Y463D02*
X400Y463D01*
X0Y462D02*
X7Y462D01*
X393Y462D02*
X400Y462D01*
X0Y461D02*
X7Y461D01*
X393Y461D02*
X400Y461D01*
X0Y460D02*
X7Y460D01*
X393Y460D02*
X400Y460D01*
X0Y459D02*
X7Y459D01*
X393Y459D02*
X400Y459D01*
X0Y458D02*
X7Y458D01*
X393Y458D02*
X400Y458D01*
X0Y457D02*
X7Y457D01*
X393Y457D02*
X400Y457D01*
X0Y456D02*
X7Y456D01*
X393Y456D02*
X400Y456D01*
X0Y455D02*
X7Y455D01*
X393Y455D02*
X400Y455D01*
X0Y454D02*
X7Y454D01*
X393Y454D02*
X400Y454D01*
X0Y453D02*
X7Y453D01*
X393Y453D02*
X400Y453D01*
X0Y452D02*
X7Y452D01*
X393Y452D02*
X400Y452D01*
X0Y451D02*
X7Y451D01*
X393Y451D02*
X400Y451D01*
X0Y450D02*
X7Y450D01*
X393Y450D02*
X400Y450D01*
X0Y449D02*
X7Y449D01*
X393Y449D02*
X400Y449D01*
X0Y448D02*
X7Y448D01*
X393Y448D02*
X400Y448D01*
X0Y447D02*
X7Y447D01*
X393Y447D02*
X400Y447D01*
X0Y446D02*
X7Y446D01*
X393Y446D02*
X400Y446D01*
X0Y445D02*
X7Y445D01*
X393Y445D02*
X400Y445D01*
X0Y444D02*
X7Y444D01*
X393Y444D02*
X400Y444D01*
X0Y443D02*
X7Y443D01*
X393Y443D02*
X400Y443D01*
X0Y442D02*
X7Y442D01*
X393Y442D02*
X400Y442D01*
X0Y441D02*
X7Y441D01*
X393Y441D02*
X400Y441D01*
X0Y440D02*
X7Y440D01*
X393Y440D02*
X400Y440D01*
X0Y439D02*
X7Y439D01*
X393Y439D02*
X400Y439D01*
X0Y438D02*
X7Y438D01*
X393Y438D02*
X400Y438D01*
X0Y437D02*
X7Y437D01*
X393Y437D02*
X400Y437D01*
X0Y436D02*
X7Y436D01*
X393Y436D02*
X400Y436D01*
X0Y435D02*
X7Y435D01*
X393Y435D02*
X400Y435D01*
X0Y434D02*
X7Y434D01*
X393Y434D02*
X400Y434D01*
X0Y433D02*
X7Y433D01*
X393Y433D02*
X400Y433D01*
X0Y432D02*
X7Y432D01*
X393Y432D02*
X400Y432D01*
X0Y431D02*
X7Y431D01*
X393Y431D02*
X400Y431D01*
X0Y430D02*
X7Y430D01*
X393Y430D02*
X400Y430D01*
X0Y429D02*
X7Y429D01*
X393Y429D02*
X400Y429D01*
X0Y428D02*
X7Y428D01*
X393Y428D02*
X400Y428D01*
X0Y427D02*
X7Y427D01*
X393Y427D02*
X400Y427D01*
X0Y426D02*
X7Y426D01*
X393Y426D02*
X400Y426D01*
X0Y425D02*
X7Y425D01*
X393Y425D02*
X400Y425D01*
X0Y424D02*
X7Y424D01*
X393Y424D02*
X400Y424D01*
X0Y423D02*
X7Y423D01*
X393Y423D02*
X400Y423D01*
X0Y422D02*
X7Y422D01*
X393Y422D02*
X400Y422D01*
X0Y421D02*
X7Y421D01*
X393Y421D02*
X400Y421D01*
X0Y420D02*
X7Y420D01*
X393Y420D02*
X400Y420D01*
X0Y419D02*
X7Y419D01*
X393Y419D02*
X400Y419D01*
X0Y418D02*
X7Y418D01*
X393Y418D02*
X400Y418D01*
X0Y417D02*
X7Y417D01*
X393Y417D02*
X400Y417D01*
X0Y416D02*
X7Y416D01*
X393Y416D02*
X400Y416D01*
X0Y415D02*
X7Y415D01*
X393Y415D02*
X400Y415D01*
X0Y414D02*
X7Y414D01*
X393Y414D02*
X400Y414D01*
X0Y413D02*
X7Y413D01*
X393Y413D02*
X400Y413D01*
X0Y412D02*
X7Y412D01*
X393Y412D02*
X400Y412D01*
X0Y411D02*
X7Y411D01*
X393Y411D02*
X400Y411D01*
X0Y410D02*
X7Y410D01*
X393Y410D02*
X400Y410D01*
X0Y409D02*
X7Y409D01*
X393Y409D02*
X400Y409D01*
X0Y408D02*
X7Y408D01*
X393Y408D02*
X400Y408D01*
X0Y407D02*
X7Y407D01*
X393Y407D02*
X400Y407D01*
X0Y406D02*
X7Y406D01*
X393Y406D02*
X400Y406D01*
X0Y405D02*
X7Y405D01*
X393Y405D02*
X400Y405D01*
X0Y404D02*
X7Y404D01*
X393Y404D02*
X400Y404D01*
X0Y403D02*
X7Y403D01*
X393Y403D02*
X400Y403D01*
X0Y402D02*
X7Y402D01*
X393Y402D02*
X400Y402D01*
X0Y401D02*
X7Y401D01*
X393Y401D02*
X400Y401D01*
X0Y400D02*
X7Y400D01*
X393Y400D02*
X400Y400D01*
X0Y399D02*
X7Y399D01*
X393Y399D02*
X400Y399D01*
X0Y398D02*
X7Y398D01*
X393Y398D02*
X400Y398D01*
X0Y397D02*
X7Y397D01*
X393Y397D02*
X400Y397D01*
X0Y396D02*
X7Y396D01*
X393Y396D02*
X400Y396D01*
X0Y395D02*
X7Y395D01*
X393Y395D02*
X400Y395D01*
X0Y394D02*
X7Y394D01*
X393Y394D02*
X400Y394D01*
X0Y393D02*
X7Y393D01*
X393Y393D02*
X400Y393D01*
X0Y392D02*
X7Y392D01*
X393Y392D02*
X400Y392D01*
X0Y391D02*
X7Y391D01*
X393Y391D02*
X400Y391D01*
X0Y390D02*
X7Y390D01*
X393Y390D02*
X400Y390D01*
X0Y389D02*
X7Y389D01*
X393Y389D02*
X400Y389D01*
X0Y388D02*
X7Y388D01*
X393Y388D02*
X400Y388D01*
X0Y387D02*
X7Y387D01*
X393Y387D02*
X400Y387D01*
X0Y386D02*
X7Y386D01*
X393Y386D02*
X400Y386D01*
X0Y385D02*
X7Y385D01*
X393Y385D02*
X400Y385D01*
X0Y384D02*
X7Y384D01*
X393Y384D02*
X400Y384D01*
X0Y383D02*
X7Y383D01*
X393Y383D02*
X400Y383D01*
X0Y382D02*
X7Y382D01*
X393Y382D02*
X400Y382D01*
X0Y381D02*
X7Y381D01*
X393Y381D02*
X400Y381D01*
X0Y380D02*
X7Y380D01*
X393Y380D02*
X400Y380D01*
X0Y379D02*
X7Y379D01*
X393Y379D02*
X400Y379D01*
X0Y378D02*
X7Y378D01*
X393Y378D02*
X400Y378D01*
X0Y377D02*
X7Y377D01*
X393Y377D02*
X400Y377D01*
X0Y376D02*
X7Y376D01*
X393Y376D02*
X400Y376D01*
X0Y375D02*
X7Y375D01*
X393Y375D02*
X400Y375D01*
X0Y374D02*
X7Y374D01*
X393Y374D02*
X400Y374D01*
X0Y373D02*
X7Y373D01*
X393Y373D02*
X400Y373D01*
X0Y372D02*
X7Y372D01*
X393Y372D02*
X400Y372D01*
X0Y371D02*
X7Y371D01*
X393Y371D02*
X400Y371D01*
X0Y370D02*
X7Y370D01*
X393Y370D02*
X400Y370D01*
X0Y369D02*
X7Y369D01*
X393Y369D02*
X400Y369D01*
X0Y368D02*
X7Y368D01*
X393Y368D02*
X400Y368D01*
X0Y367D02*
X7Y367D01*
X393Y367D02*
X400Y367D01*
X0Y366D02*
X7Y366D01*
X393Y366D02*
X400Y366D01*
X0Y365D02*
X7Y365D01*
X393Y365D02*
X400Y365D01*
X0Y364D02*
X7Y364D01*
X393Y364D02*
X400Y364D01*
X0Y363D02*
X7Y363D01*
X393Y363D02*
X400Y363D01*
X0Y362D02*
X7Y362D01*
X393Y362D02*
X400Y362D01*
X0Y361D02*
X7Y361D01*
X393Y361D02*
X400Y361D01*
X0Y360D02*
X7Y360D01*
X393Y360D02*
X400Y360D01*
X0Y359D02*
X7Y359D01*
X393Y359D02*
X400Y359D01*
X0Y358D02*
X7Y358D01*
X393Y358D02*
X400Y358D01*
X0Y357D02*
X7Y357D01*
X393Y357D02*
X400Y357D01*
X0Y356D02*
X7Y356D01*
X393Y356D02*
X400Y356D01*
X0Y355D02*
X7Y355D01*
X393Y355D02*
X400Y355D01*
X0Y354D02*
X7Y354D01*
X393Y354D02*
X400Y354D01*
X0Y353D02*
X7Y353D01*
X393Y353D02*
X400Y353D01*
X0Y352D02*
X7Y352D01*
X393Y352D02*
X400Y352D01*
X0Y351D02*
X7Y351D01*
X393Y351D02*
X400Y351D01*
X0Y350D02*
X7Y350D01*
X393Y350D02*
X400Y350D01*
X0Y349D02*
X7Y349D01*
X393Y349D02*
X400Y349D01*
X0Y348D02*
X7Y348D01*
X393Y348D02*
X400Y348D01*
X0Y347D02*
X7Y347D01*
X393Y347D02*
X400Y347D01*
X0Y346D02*
X7Y346D01*
X393Y346D02*
X400Y346D01*
X0Y345D02*
X7Y345D01*
X393Y345D02*
X400Y345D01*
X0Y344D02*
X7Y344D01*
X393Y344D02*
X400Y344D01*
X0Y343D02*
X7Y343D01*
X393Y343D02*
X400Y343D01*
X0Y342D02*
X7Y342D01*
X393Y342D02*
X400Y342D01*
X0Y341D02*
X7Y341D01*
X393Y341D02*
X400Y341D01*
X0Y340D02*
X7Y340D01*
X393Y340D02*
X400Y340D01*
X0Y339D02*
X7Y339D01*
X393Y339D02*
X400Y339D01*
X0Y338D02*
X7Y338D01*
X393Y338D02*
X400Y338D01*
X0Y337D02*
X7Y337D01*
X393Y337D02*
X400Y337D01*
X0Y336D02*
X7Y336D01*
X393Y336D02*
X400Y336D01*
X0Y335D02*
X7Y335D01*
X393Y335D02*
X400Y335D01*
X0Y334D02*
X7Y334D01*
X393Y334D02*
X400Y334D01*
X0Y333D02*
X7Y333D01*
X393Y333D02*
X400Y333D01*
X0Y332D02*
X7Y332D01*
X393Y332D02*
X400Y332D01*
X0Y331D02*
X7Y331D01*
X393Y331D02*
X400Y331D01*
X0Y330D02*
X7Y330D01*
X393Y330D02*
X400Y330D01*
X0Y329D02*
X7Y329D01*
X393Y329D02*
X400Y329D01*
X0Y328D02*
X7Y328D01*
X393Y328D02*
X400Y328D01*
X0Y327D02*
X7Y327D01*
X393Y327D02*
X400Y327D01*
X0Y326D02*
X7Y326D01*
X393Y326D02*
X400Y326D01*
X0Y325D02*
X7Y325D01*
X393Y325D02*
X400Y325D01*
X0Y324D02*
X7Y324D01*
X393Y324D02*
X400Y324D01*
X0Y323D02*
X7Y323D01*
X393Y323D02*
X400Y323D01*
X0Y322D02*
X7Y322D01*
X393Y322D02*
X400Y322D01*
X0Y321D02*
X7Y321D01*
X393Y321D02*
X400Y321D01*
X0Y320D02*
X7Y320D01*
X393Y320D02*
X400Y320D01*
X0Y319D02*
X7Y319D01*
X393Y319D02*
X400Y319D01*
X0Y318D02*
X7Y318D01*
X393Y318D02*
X400Y318D01*
X0Y317D02*
X7Y317D01*
X393Y317D02*
X400Y317D01*
X0Y316D02*
X7Y316D01*
X393Y316D02*
X400Y316D01*
X0Y315D02*
X7Y315D01*
X393Y315D02*
X400Y315D01*
X0Y314D02*
X7Y314D01*
X393Y314D02*
X400Y314D01*
X0Y313D02*
X7Y313D01*
X393Y313D02*
X400Y313D01*
X0Y312D02*
X7Y312D01*
X393Y312D02*
X400Y312D01*
X0Y311D02*
X7Y311D01*
X393Y311D02*
X400Y311D01*
X0Y310D02*
X7Y310D01*
X393Y310D02*
X400Y310D01*
X0Y309D02*
X7Y309D01*
X393Y309D02*
X400Y309D01*
X0Y308D02*
X7Y308D01*
X393Y308D02*
X400Y308D01*
X0Y307D02*
X7Y307D01*
X393Y307D02*
X400Y307D01*
X0Y306D02*
X7Y306D01*
X393Y306D02*
X400Y306D01*
X0Y305D02*
X7Y305D01*
X393Y305D02*
X400Y305D01*
X0Y304D02*
X7Y304D01*
X393Y304D02*
X400Y304D01*
X0Y303D02*
X7Y303D01*
X393Y303D02*
X400Y303D01*
X0Y302D02*
X7Y302D01*
X393Y302D02*
X400Y302D01*
X0Y301D02*
X7Y301D01*
X393Y301D02*
X400Y301D01*
X0Y300D02*
X7Y300D01*
X393Y300D02*
X400Y300D01*
X0Y299D02*
X7Y299D01*
X393Y299D02*
X400Y299D01*
X0Y298D02*
X7Y298D01*
X393Y298D02*
X400Y298D01*
X0Y297D02*
X7Y297D01*
X393Y297D02*
X400Y297D01*
X0Y296D02*
X7Y296D01*
X393Y296D02*
X400Y296D01*
X0Y295D02*
X7Y295D01*
X393Y295D02*
X400Y295D01*
X0Y294D02*
X7Y294D01*
X393Y294D02*
X400Y294D01*
X0Y293D02*
X7Y293D01*
X393Y293D02*
X400Y293D01*
X0Y292D02*
X7Y292D01*
X393Y292D02*
X400Y292D01*
X0Y291D02*
X7Y291D01*
X393Y291D02*
X400Y291D01*
X0Y290D02*
X7Y290D01*
X393Y290D02*
X400Y290D01*
X0Y289D02*
X7Y289D01*
X393Y289D02*
X400Y289D01*
X0Y288D02*
X7Y288D01*
X393Y288D02*
X400Y288D01*
X0Y287D02*
X7Y287D01*
X393Y287D02*
X400Y287D01*
X0Y286D02*
X7Y286D01*
X393Y286D02*
X400Y286D01*
X0Y285D02*
X7Y285D01*
X393Y285D02*
X400Y285D01*
X0Y284D02*
X7Y284D01*
X393Y284D02*
X400Y284D01*
X0Y283D02*
X7Y283D01*
X393Y283D02*
X400Y283D01*
X0Y282D02*
X7Y282D01*
X393Y282D02*
X400Y282D01*
X0Y281D02*
X7Y281D01*
X393Y281D02*
X400Y281D01*
X0Y280D02*
X7Y280D01*
X393Y280D02*
X400Y280D01*
X0Y279D02*
X7Y279D01*
X393Y279D02*
X400Y279D01*
X0Y278D02*
X7Y278D01*
X393Y278D02*
X400Y278D01*
X0Y277D02*
X7Y277D01*
X393Y277D02*
X400Y277D01*
X0Y276D02*
X6Y276D01*
X393Y276D02*
X400Y276D01*
X0Y275D02*
X6Y275D01*
X393Y275D02*
X400Y275D01*
X0Y274D02*
X5Y274D01*
X393Y274D02*
X400Y274D01*
X0Y273D02*
X5Y273D01*
X393Y273D02*
X400Y273D01*
X0Y272D02*
X5Y272D01*
X393Y272D02*
X400Y272D01*
X0Y271D02*
X4Y271D01*
X393Y271D02*
X400Y271D01*
X0Y270D02*
X4Y270D01*
X393Y270D02*
X400Y270D01*
X0Y269D02*
X4Y269D01*
X393Y269D02*
X400Y269D01*
X0Y268D02*
X3Y268D01*
X393Y268D02*
X400Y268D01*
X0Y267D02*
X3Y267D01*
X393Y267D02*
X400Y267D01*
X0Y266D02*
X3Y266D01*
X393Y266D02*
X400Y266D01*
X0Y265D02*
X3Y265D01*
X393Y265D02*
X400Y265D01*
X0Y264D02*
X3Y264D01*
X393Y264D02*
X400Y264D01*
X0Y263D02*
X3Y263D01*
X393Y263D02*
X400Y263D01*
X0Y262D02*
X2Y262D01*
X393Y262D02*
X400Y262D01*
X0Y261D02*
X2Y261D01*
X393Y261D02*
X400Y261D01*
X0Y260D02*
X2Y260D01*
X393Y260D02*
X400Y260D01*
X0Y259D02*
X2Y259D01*
X393Y259D02*
X400Y259D01*
X0Y258D02*
X2Y258D01*
X393Y258D02*
X400Y258D01*
X0Y257D02*
X2Y257D01*
X393Y257D02*
X400Y257D01*
X0Y256D02*
X2Y256D01*
X393Y256D02*
X400Y256D01*
X0Y255D02*
X2Y255D01*
X393Y255D02*
X400Y255D01*
X0Y254D02*
X2Y254D01*
X393Y254D02*
X400Y254D01*
X0Y253D02*
X3Y253D01*
X393Y253D02*
X400Y253D01*
X0Y252D02*
X3Y252D01*
X393Y252D02*
X400Y252D01*
X0Y251D02*
X3Y251D01*
X393Y251D02*
X400Y251D01*
X0Y250D02*
X3Y250D01*
X393Y250D02*
X400Y250D01*
X0Y249D02*
X3Y249D01*
X393Y249D02*
X400Y249D01*
X0Y248D02*
X3Y248D01*
X393Y248D02*
X400Y248D01*
X0Y247D02*
X4Y247D01*
X393Y247D02*
X400Y247D01*
X0Y246D02*
X4Y246D01*
X393Y246D02*
X400Y246D01*
X0Y245D02*
X4Y245D01*
X393Y245D02*
X400Y245D01*
X0Y244D02*
X5Y244D01*
X393Y244D02*
X400Y244D01*
X0Y243D02*
X5Y243D01*
X393Y243D02*
X400Y243D01*
X0Y242D02*
X5Y242D01*
X393Y242D02*
X400Y242D01*
X0Y241D02*
X6Y241D01*
X393Y241D02*
X400Y241D01*
X0Y240D02*
X6Y240D01*
X393Y240D02*
X400Y240D01*
X0Y239D02*
X7Y239D01*
X393Y239D02*
X400Y239D01*
X0Y238D02*
X7Y238D01*
X393Y238D02*
X400Y238D01*
X0Y237D02*
X7Y237D01*
X393Y237D02*
X400Y237D01*
X0Y236D02*
X7Y236D01*
X393Y236D02*
X400Y236D01*
X0Y235D02*
X7Y235D01*
X393Y235D02*
X400Y235D01*
X0Y234D02*
X7Y234D01*
X393Y234D02*
X400Y234D01*
X0Y233D02*
X7Y233D01*
X393Y233D02*
X400Y233D01*
X0Y232D02*
X7Y232D01*
X393Y232D02*
X400Y232D01*
X0Y231D02*
X7Y231D01*
X393Y231D02*
X400Y231D01*
X0Y230D02*
X7Y230D01*
X393Y230D02*
X400Y230D01*
X0Y229D02*
X7Y229D01*
X393Y229D02*
X400Y229D01*
X0Y228D02*
X7Y228D01*
X393Y228D02*
X400Y228D01*
X0Y227D02*
X7Y227D01*
X393Y227D02*
X400Y227D01*
X0Y226D02*
X7Y226D01*
X393Y226D02*
X400Y226D01*
X0Y225D02*
X7Y225D01*
X393Y225D02*
X400Y225D01*
X0Y224D02*
X7Y224D01*
X393Y224D02*
X400Y224D01*
X0Y223D02*
X7Y223D01*
X393Y223D02*
X400Y223D01*
X0Y222D02*
X7Y222D01*
X393Y222D02*
X400Y222D01*
X0Y221D02*
X7Y221D01*
X393Y221D02*
X400Y221D01*
X0Y220D02*
X7Y220D01*
X393Y220D02*
X400Y220D01*
X0Y219D02*
X7Y219D01*
X393Y219D02*
X400Y219D01*
X0Y218D02*
X7Y218D01*
X393Y218D02*
X400Y218D01*
X0Y217D02*
X7Y217D01*
X393Y217D02*
X400Y217D01*
X0Y216D02*
X7Y216D01*
X393Y216D02*
X400Y216D01*
X0Y215D02*
X7Y215D01*
X393Y215D02*
X400Y215D01*
X0Y214D02*
X7Y214D01*
X393Y214D02*
X400Y214D01*
X0Y213D02*
X7Y213D01*
X393Y213D02*
X400Y213D01*
X0Y212D02*
X7Y212D01*
X393Y212D02*
X400Y212D01*
X0Y211D02*
X7Y211D01*
X393Y211D02*
X400Y211D01*
X0Y210D02*
X7Y210D01*
X393Y210D02*
X400Y210D01*
X0Y209D02*
X7Y209D01*
X393Y209D02*
X400Y209D01*
X0Y208D02*
X7Y208D01*
X393Y208D02*
X400Y208D01*
X0Y207D02*
X7Y207D01*
X393Y207D02*
X400Y207D01*
X0Y206D02*
X7Y206D01*
X393Y206D02*
X400Y206D01*
X0Y205D02*
X7Y205D01*
X393Y205D02*
X400Y205D01*
X0Y204D02*
X7Y204D01*
X393Y204D02*
X400Y204D01*
X0Y203D02*
X7Y203D01*
X393Y203D02*
X400Y203D01*
X0Y202D02*
X7Y202D01*
X393Y202D02*
X400Y202D01*
X0Y201D02*
X7Y201D01*
X393Y201D02*
X400Y201D01*
X0Y200D02*
X7Y200D01*
X393Y200D02*
X400Y200D01*
X0Y199D02*
X7Y199D01*
X393Y199D02*
X400Y199D01*
X0Y198D02*
X7Y198D01*
X393Y198D02*
X400Y198D01*
X0Y197D02*
X7Y197D01*
X394Y197D02*
X400Y197D01*
X0Y196D02*
X7Y196D01*
X394Y196D02*
X400Y196D01*
X0Y195D02*
X7Y195D01*
X394Y195D02*
X400Y195D01*
X0Y194D02*
X7Y194D01*
X394Y194D02*
X400Y194D01*
X0Y193D02*
X7Y193D01*
X394Y193D02*
X400Y193D01*
X0Y192D02*
X7Y192D01*
X394Y192D02*
X400Y192D01*
X0Y191D02*
X7Y191D01*
X394Y191D02*
X400Y191D01*
X0Y190D02*
X7Y190D01*
X394Y190D02*
X400Y190D01*
X0Y189D02*
X7Y189D01*
X394Y189D02*
X400Y189D01*
X0Y188D02*
X7Y188D01*
X394Y188D02*
X400Y188D01*
X0Y187D02*
X7Y187D01*
X394Y187D02*
X400Y187D01*
X0Y186D02*
X7Y186D01*
X394Y186D02*
X400Y186D01*
X0Y185D02*
X7Y185D01*
X394Y185D02*
X400Y185D01*
X0Y184D02*
X7Y184D01*
X393Y184D02*
X400Y184D01*
X0Y183D02*
X7Y183D01*
X393Y183D02*
X400Y183D01*
X0Y182D02*
X7Y182D01*
X393Y182D02*
X400Y182D01*
X0Y181D02*
X7Y181D01*
X393Y181D02*
X400Y181D01*
X0Y180D02*
X7Y180D01*
X393Y180D02*
X400Y180D01*
X0Y179D02*
X7Y179D01*
X393Y179D02*
X400Y179D01*
X0Y178D02*
X7Y178D01*
X393Y178D02*
X400Y178D01*
X0Y177D02*
X7Y177D01*
X393Y177D02*
X400Y177D01*
X0Y176D02*
X6Y176D01*
X393Y176D02*
X400Y176D01*
X0Y175D02*
X6Y175D01*
X393Y175D02*
X400Y175D01*
X0Y174D02*
X5Y174D01*
X393Y174D02*
X400Y174D01*
X0Y173D02*
X5Y173D01*
X393Y173D02*
X400Y173D01*
X0Y172D02*
X5Y172D01*
X393Y172D02*
X400Y172D01*
X0Y171D02*
X4Y171D01*
X393Y171D02*
X400Y171D01*
X0Y170D02*
X4Y170D01*
X393Y170D02*
X400Y170D01*
X0Y169D02*
X4Y169D01*
X393Y169D02*
X400Y169D01*
X0Y168D02*
X3Y168D01*
X393Y168D02*
X400Y168D01*
X0Y167D02*
X3Y167D01*
X393Y167D02*
X400Y167D01*
X0Y166D02*
X3Y166D01*
X393Y166D02*
X400Y166D01*
X0Y165D02*
X3Y165D01*
X393Y165D02*
X400Y165D01*
X0Y164D02*
X3Y164D01*
X393Y164D02*
X400Y164D01*
X0Y163D02*
X3Y163D01*
X393Y163D02*
X400Y163D01*
X0Y162D02*
X2Y162D01*
X393Y162D02*
X400Y162D01*
X0Y161D02*
X2Y161D01*
X393Y161D02*
X400Y161D01*
X0Y160D02*
X2Y160D01*
X393Y160D02*
X400Y160D01*
X0Y159D02*
X2Y159D01*
X393Y159D02*
X400Y159D01*
X0Y158D02*
X2Y158D01*
X393Y158D02*
X400Y158D01*
X0Y157D02*
X2Y157D01*
X393Y157D02*
X400Y157D01*
X0Y156D02*
X2Y156D01*
X393Y156D02*
X400Y156D01*
X0Y155D02*
X2Y155D01*
X393Y155D02*
X400Y155D01*
X0Y154D02*
X2Y154D01*
X393Y154D02*
X400Y154D01*
X0Y153D02*
X3Y153D01*
X393Y153D02*
X400Y153D01*
X0Y152D02*
X3Y152D01*
X393Y152D02*
X400Y152D01*
X0Y151D02*
X3Y151D01*
X393Y151D02*
X400Y151D01*
X0Y150D02*
X3Y150D01*
X393Y150D02*
X400Y150D01*
X0Y149D02*
X3Y149D01*
X393Y149D02*
X400Y149D01*
X0Y148D02*
X3Y148D01*
X393Y148D02*
X400Y148D01*
X0Y147D02*
X4Y147D01*
X393Y147D02*
X400Y147D01*
X0Y146D02*
X4Y146D01*
X393Y146D02*
X400Y146D01*
X0Y145D02*
X4Y145D01*
X393Y145D02*
X400Y145D01*
X0Y144D02*
X5Y144D01*
X393Y144D02*
X400Y144D01*
X0Y143D02*
X5Y143D01*
X393Y143D02*
X400Y143D01*
X0Y142D02*
X5Y142D01*
X393Y142D02*
X400Y142D01*
X0Y141D02*
X6Y141D01*
X393Y141D02*
X400Y141D01*
X0Y140D02*
X6Y140D01*
X393Y140D02*
X400Y140D01*
X0Y139D02*
X7Y139D01*
X393Y139D02*
X400Y139D01*
X0Y138D02*
X7Y138D01*
X393Y138D02*
X400Y138D01*
X0Y137D02*
X7Y137D01*
X393Y137D02*
X400Y137D01*
X0Y136D02*
X7Y136D01*
X393Y136D02*
X400Y136D01*
X0Y135D02*
X7Y135D01*
X393Y135D02*
X400Y135D01*
X0Y134D02*
X7Y134D01*
X393Y134D02*
X400Y134D01*
X0Y133D02*
X7Y133D01*
X393Y133D02*
X400Y133D01*
X0Y132D02*
X7Y132D01*
X393Y132D02*
X400Y132D01*
X0Y131D02*
X7Y131D01*
X393Y131D02*
X400Y131D01*
X0Y130D02*
X7Y130D01*
X393Y130D02*
X400Y130D01*
X0Y129D02*
X7Y129D01*
X393Y129D02*
X400Y129D01*
X0Y128D02*
X7Y128D01*
X393Y128D02*
X400Y128D01*
X0Y127D02*
X7Y127D01*
X393Y127D02*
X400Y127D01*
X0Y126D02*
X7Y126D01*
X393Y126D02*
X400Y126D01*
X0Y125D02*
X7Y125D01*
X393Y125D02*
X400Y125D01*
X0Y124D02*
X7Y124D01*
X393Y124D02*
X400Y124D01*
X0Y123D02*
X7Y123D01*
X393Y123D02*
X400Y123D01*
X0Y122D02*
X7Y122D01*
X393Y122D02*
X400Y122D01*
X0Y121D02*
X7Y121D01*
X393Y121D02*
X400Y121D01*
X0Y120D02*
X7Y120D01*
X393Y120D02*
X400Y120D01*
X0Y119D02*
X7Y119D01*
X393Y119D02*
X400Y119D01*
X0Y118D02*
X7Y118D01*
X393Y118D02*
X400Y118D01*
X0Y117D02*
X7Y117D01*
X393Y117D02*
X400Y117D01*
X0Y116D02*
X7Y116D01*
X393Y116D02*
X400Y116D01*
X0Y115D02*
X7Y115D01*
X393Y115D02*
X400Y115D01*
X0Y114D02*
X7Y114D01*
X393Y114D02*
X400Y114D01*
X0Y113D02*
X7Y113D01*
X393Y113D02*
X400Y113D01*
X0Y112D02*
X7Y112D01*
X393Y112D02*
X400Y112D01*
X0Y111D02*
X7Y111D01*
X393Y111D02*
X400Y111D01*
X0Y110D02*
X7Y110D01*
X393Y110D02*
X400Y110D01*
X0Y109D02*
X7Y109D01*
X393Y109D02*
X400Y109D01*
X0Y108D02*
X7Y108D01*
X393Y108D02*
X400Y108D01*
X0Y107D02*
X7Y107D01*
X393Y107D02*
X400Y107D01*
X0Y106D02*
X7Y106D01*
X393Y106D02*
X400Y106D01*
X0Y105D02*
X7Y105D01*
X393Y105D02*
X400Y105D01*
X0Y104D02*
X7Y104D01*
X393Y104D02*
X400Y104D01*
X0Y103D02*
X7Y103D01*
X393Y103D02*
X400Y103D01*
X0Y102D02*
X7Y102D01*
X393Y102D02*
X400Y102D01*
X0Y101D02*
X7Y101D01*
X393Y101D02*
X400Y101D01*
X0Y100D02*
X7Y100D01*
X393Y100D02*
X400Y100D01*
X0Y99D02*
X7Y99D01*
X393Y99D02*
X400Y99D01*
X0Y98D02*
X7Y98D01*
X393Y98D02*
X400Y98D01*
X0Y97D02*
X7Y97D01*
X393Y97D02*
X400Y97D01*
X0Y96D02*
X7Y96D01*
X393Y96D02*
X400Y96D01*
X0Y95D02*
X7Y95D01*
X393Y95D02*
X400Y95D01*
X0Y94D02*
X7Y94D01*
X393Y94D02*
X400Y94D01*
X0Y93D02*
X7Y93D01*
X393Y93D02*
X400Y93D01*
X0Y92D02*
X7Y92D01*
X393Y92D02*
X400Y92D01*
X0Y91D02*
X7Y91D01*
X393Y91D02*
X400Y91D01*
X0Y90D02*
X7Y90D01*
X393Y90D02*
X400Y90D01*
X0Y89D02*
X7Y89D01*
X393Y89D02*
X400Y89D01*
X0Y88D02*
X7Y88D01*
X393Y88D02*
X400Y88D01*
X0Y87D02*
X7Y87D01*
X393Y87D02*
X400Y87D01*
X0Y86D02*
X7Y86D01*
X393Y86D02*
X400Y86D01*
X0Y85D02*
X7Y85D01*
X393Y85D02*
X400Y85D01*
X0Y84D02*
X7Y84D01*
X393Y84D02*
X400Y84D01*
X0Y83D02*
X7Y83D01*
X393Y83D02*
X400Y83D01*
X0Y82D02*
X7Y82D01*
X393Y82D02*
X400Y82D01*
X0Y81D02*
X7Y81D01*
X393Y81D02*
X400Y81D01*
X0Y80D02*
X7Y80D01*
X393Y80D02*
X400Y80D01*
X0Y79D02*
X7Y79D01*
X393Y79D02*
X400Y79D01*
X0Y78D02*
X7Y78D01*
X393Y78D02*
X400Y78D01*
X0Y77D02*
X7Y77D01*
X393Y77D02*
X400Y77D01*
X0Y76D02*
X6Y76D01*
X393Y76D02*
X400Y76D01*
X0Y75D02*
X6Y75D01*
X393Y75D02*
X400Y75D01*
X0Y74D02*
X5Y74D01*
X393Y74D02*
X400Y74D01*
X0Y73D02*
X5Y73D01*
X393Y73D02*
X400Y73D01*
X0Y72D02*
X5Y72D01*
X393Y72D02*
X400Y72D01*
X0Y71D02*
X4Y71D01*
X393Y71D02*
X400Y71D01*
X0Y70D02*
X4Y70D01*
X393Y70D02*
X400Y70D01*
X0Y69D02*
X4Y69D01*
X393Y69D02*
X400Y69D01*
X0Y68D02*
X3Y68D01*
X393Y68D02*
X400Y68D01*
X0Y67D02*
X3Y67D01*
X393Y67D02*
X400Y67D01*
X0Y66D02*
X3Y66D01*
X393Y66D02*
X400Y66D01*
X0Y65D02*
X3Y65D01*
X393Y65D02*
X400Y65D01*
X0Y64D02*
X3Y64D01*
X393Y64D02*
X400Y64D01*
X0Y63D02*
X3Y63D01*
X393Y63D02*
X400Y63D01*
X0Y62D02*
X2Y62D01*
X393Y62D02*
X400Y62D01*
X0Y61D02*
X2Y61D01*
X393Y61D02*
X400Y61D01*
X0Y60D02*
X2Y60D01*
X393Y60D02*
X400Y60D01*
X0Y59D02*
X2Y59D01*
X393Y59D02*
X400Y59D01*
X0Y58D02*
X2Y58D01*
X393Y58D02*
X400Y58D01*
X0Y57D02*
X2Y57D01*
X393Y57D02*
X400Y57D01*
X0Y56D02*
X2Y56D01*
X393Y56D02*
X400Y56D01*
X0Y55D02*
X2Y55D01*
X393Y55D02*
X400Y55D01*
X0Y54D02*
X2Y54D01*
X393Y54D02*
X400Y54D01*
X0Y53D02*
X3Y53D01*
X393Y53D02*
X400Y53D01*
X0Y52D02*
X3Y52D01*
X393Y52D02*
X400Y52D01*
X0Y51D02*
X3Y51D01*
X393Y51D02*
X400Y51D01*
X0Y50D02*
X3Y50D01*
X393Y50D02*
X400Y50D01*
X0Y49D02*
X3Y49D01*
X393Y49D02*
X400Y49D01*
X0Y48D02*
X3Y48D01*
X393Y48D02*
X400Y48D01*
X0Y47D02*
X4Y47D01*
X393Y47D02*
X400Y47D01*
X0Y46D02*
X4Y46D01*
X393Y46D02*
X400Y46D01*
X0Y45D02*
X4Y45D01*
X393Y45D02*
X400Y45D01*
X0Y44D02*
X5Y44D01*
X393Y44D02*
X400Y44D01*
X0Y43D02*
X5Y43D01*
X393Y43D02*
X400Y43D01*
X0Y42D02*
X5Y42D01*
X393Y42D02*
X400Y42D01*
X0Y41D02*
X6Y41D01*
X393Y41D02*
X400Y41D01*
X0Y40D02*
X6Y40D01*
X393Y40D02*
X400Y40D01*
X0Y39D02*
X7Y39D01*
X393Y39D02*
X400Y39D01*
X0Y38D02*
X7Y38D01*
X393Y38D02*
X400Y38D01*
X0Y37D02*
X7Y37D01*
X393Y37D02*
X400Y37D01*
X0Y36D02*
X7Y36D01*
X393Y36D02*
X400Y36D01*
X0Y35D02*
X7Y35D01*
X393Y35D02*
X400Y35D01*
X0Y34D02*
X7Y34D01*
X393Y34D02*
X400Y34D01*
X0Y33D02*
X7Y33D01*
X393Y33D02*
X400Y33D01*
X0Y32D02*
X7Y32D01*
X393Y32D02*
X400Y32D01*
X0Y31D02*
X7Y31D01*
X393Y31D02*
X400Y31D01*
X0Y30D02*
X7Y30D01*
X393Y30D02*
X400Y30D01*
X0Y29D02*
X7Y29D01*
X393Y29D02*
X400Y29D01*
X0Y28D02*
X7Y28D01*
X393Y28D02*
X400Y28D01*
X0Y27D02*
X7Y27D01*
X393Y27D02*
X400Y27D01*
X0Y26D02*
X7Y26D01*
X393Y26D02*
X400Y26D01*
X0Y25D02*
X7Y25D01*
X393Y25D02*
X400Y25D01*
X0Y24D02*
X7Y24D01*
X393Y24D02*
X400Y24D01*
X0Y23D02*
X7Y23D01*
X393Y23D02*
X400Y23D01*
X0Y22D02*
X7Y22D01*
X393Y22D02*
X400Y22D01*
X0Y21D02*
X7Y21D01*
X393Y21D02*
X400Y21D01*
X0Y20D02*
X7Y20D01*
X393Y20D02*
X400Y20D01*
X0Y19D02*
X7Y19D01*
X393Y19D02*
X400Y19D01*
X0Y18D02*
X7Y18D01*
X393Y18D02*
X400Y18D01*
X0Y17D02*
X7Y17D01*
X393Y17D02*
X400Y17D01*
X0Y16D02*
X7Y16D01*
X393Y16D02*
X400Y16D01*
X0Y15D02*
X7Y15D01*
X393Y15D02*
X400Y15D01*
X0Y14D02*
X7Y14D01*
X393Y14D02*
X400Y14D01*
X0Y13D02*
X7Y13D01*
X393Y13D02*
X400Y13D01*
X0Y12D02*
X7Y12D01*
X393Y12D02*
X400Y12D01*
X0Y11D02*
X7Y11D01*
X393Y11D02*
X400Y11D01*
X0Y10D02*
X7Y10D01*
X393Y10D02*
X400Y10D01*
X0Y9D02*
X7Y9D01*
X393Y9D02*
X400Y9D01*
X0Y8D02*
X131Y8D01*
X205Y8D02*
X400Y8D01*
X0Y7D02*
X131Y7D01*
X205Y7D02*
X400Y7D01*
X0Y6D02*
X131Y6D01*
X205Y6D02*
X400Y6D01*
X0Y5D02*
X131Y5D01*
X205Y5D02*
X400Y5D01*
X0Y4D02*
X131Y4D01*
X205Y4D02*
X400Y4D01*
X0Y3D02*
X131Y3D01*
X205Y3D02*
X400Y3D01*
X0Y2D02*
X131Y2D01*
X205Y2D02*
X400Y2D01*
X0Y1D02*
X131Y1D01*
X205Y1D02*
X400Y1D01*
D02*
G04 End of Silk0*
M02*