G04 MADE WITH FRITZING*
G04 WWW.FRITZING.ORG*
G04 DOUBLE SIDED*
G04 HOLES PLATED*
G04 CONTOUR ON CENTER OF CONTOUR VECTOR*
%ASAXBY*%
%FSLAX23Y23*%
%MOIN*%
%OFA0B0*%
%SFA1.0B1.0*%
%ADD10C,0.088000*%
%ADD11C,0.089370*%
%ADD12C,0.096614*%
%ADD13C,0.085000*%
%ADD14C,0.031497*%
%ADD15C,0.072992*%
%ADD16R,0.085000X0.085000*%
%ADD17R,0.001000X0.001000*%
%LNMASK0*%
G90*
G70*
G54D10*
X242Y609D03*
X349Y482D03*
X349Y582D03*
G54D11*
X348Y881D03*
X348Y781D03*
G54D12*
X346Y191D03*
G54D13*
X64Y488D03*
X64Y388D03*
G54D14*
X169Y32D03*
G54D15*
X169Y131D03*
G54D10*
X47Y258D03*
X47Y158D03*
X47Y58D03*
X67Y745D03*
X67Y745D03*
X67Y645D03*
G54D16*
X64Y488D03*
G54D17*
X133Y69D02*
X204Y69D01*
X132Y68D02*
X204Y68D01*
X132Y67D02*
X204Y67D01*
X132Y66D02*
X204Y66D01*
X132Y65D02*
X204Y65D01*
X132Y64D02*
X204Y64D01*
X132Y63D02*
X204Y63D01*
X132Y62D02*
X204Y62D01*
X132Y61D02*
X204Y61D01*
X132Y60D02*
X204Y60D01*
X132Y59D02*
X204Y59D01*
X132Y58D02*
X204Y58D01*
X132Y57D02*
X204Y57D01*
X132Y56D02*
X204Y56D01*
X132Y55D02*
X204Y55D01*
X132Y54D02*
X204Y54D01*
X132Y53D02*
X204Y53D01*
X132Y52D02*
X204Y52D01*
X132Y51D02*
X204Y51D01*
X132Y50D02*
X204Y50D01*
X132Y49D02*
X204Y49D01*
X132Y48D02*
X204Y48D01*
X132Y47D02*
X204Y47D01*
X132Y46D02*
X204Y46D01*
X132Y45D02*
X204Y45D01*
X132Y44D02*
X204Y44D01*
X132Y43D02*
X204Y43D01*
X132Y42D02*
X204Y42D01*
X132Y41D02*
X204Y41D01*
X132Y40D02*
X204Y40D01*
X132Y39D02*
X204Y39D01*
X132Y38D02*
X204Y38D01*
X132Y37D02*
X204Y37D01*
X132Y36D02*
X204Y36D01*
X132Y35D02*
X204Y35D01*
X132Y34D02*
X204Y34D01*
X132Y33D02*
X204Y33D01*
X132Y32D02*
X204Y32D01*
X132Y31D02*
X204Y31D01*
X132Y30D02*
X204Y30D01*
X132Y29D02*
X204Y29D01*
X132Y28D02*
X204Y28D01*
X132Y27D02*
X204Y27D01*
X132Y26D02*
X204Y26D01*
X132Y25D02*
X204Y25D01*
X132Y24D02*
X204Y24D01*
X132Y23D02*
X204Y23D01*
X132Y22D02*
X204Y22D01*
X132Y21D02*
X204Y21D01*
X132Y20D02*
X204Y20D01*
X132Y19D02*
X204Y19D01*
X132Y18D02*
X204Y18D01*
X132Y17D02*
X204Y17D01*
X132Y16D02*
X204Y16D01*
X132Y15D02*
X204Y15D01*
X132Y14D02*
X204Y14D01*
X132Y13D02*
X204Y13D01*
X132Y12D02*
X204Y12D01*
X132Y11D02*
X204Y11D01*
X132Y10D02*
X204Y10D01*
X132Y9D02*
X204Y9D01*
X132Y8D02*
X204Y8D01*
X132Y7D02*
X204Y7D01*
X132Y6D02*
X204Y6D01*
X132Y5D02*
X204Y5D01*
X132Y4D02*
X204Y4D01*
X132Y3D02*
X204Y3D01*
X132Y2D02*
X204Y2D01*
X132Y1D02*
X204Y1D01*
X132Y0D02*
X204Y0D01*
X132Y-1D02*
X204Y-1D01*
D02*
G04 End of Mask0*
M02*