G04 MADE WITH FRITZING*
G04 WWW.FRITZING.ORG*
G04 DOUBLE SIDED*
G04 HOLES PLATED*
G04 CONTOUR ON CENTER OF CONTOUR VECTOR*
%ASAXBY*%
%FSLAX23Y23*%
%MOIN*%
%OFA0B0*%
%SFA1.0B1.0*%
%ADD10C,0.019307X0.00330709*%
%ADD11R,0.007611X0.078250*%
%ADD12R,0.007625X0.078250*%
%ADD13R,0.078250X0.007611*%
%ADD14R,0.078250X0.007625*%
%ADD15C,0.008000*%
%ADD16R,0.001000X0.001000*%
%LNSILK1*%
G90*
G70*
G54D10*
X269Y418D03*
G54D11*
X325Y694D03*
G54D12*
X302Y694D03*
G54D13*
X249Y808D03*
G54D14*
X249Y831D03*
G54D15*
X30Y884D02*
X6Y884D01*
D02*
X6Y884D02*
X6Y853D01*
D02*
X93Y884D02*
X117Y884D01*
D02*
X117Y884D02*
X117Y853D01*
D02*
X150Y539D02*
X135Y539D01*
D02*
X135Y539D02*
X80Y539D01*
D02*
X150Y590D02*
X135Y590D01*
D02*
X135Y590D02*
X80Y590D01*
D02*
X135Y539D02*
X135Y590D01*
D02*
X396Y300D02*
X396Y315D01*
D02*
X396Y315D02*
X396Y371D01*
G54D16*
X0Y929D02*
X400Y929D01*
X0Y928D02*
X134Y928D01*
X188Y928D02*
X203Y928D01*
X293Y928D02*
X400Y928D01*
X0Y927D02*
X134Y927D01*
X188Y927D02*
X203Y927D01*
X293Y927D02*
X400Y927D01*
X0Y926D02*
X134Y926D01*
X188Y926D02*
X203Y926D01*
X293Y926D02*
X342Y926D01*
X354Y926D02*
X400Y926D01*
X0Y925D02*
X134Y925D01*
X188Y925D02*
X203Y925D01*
X293Y925D02*
X336Y925D01*
X359Y925D02*
X400Y925D01*
X0Y924D02*
X134Y924D01*
X188Y924D02*
X203Y924D01*
X293Y924D02*
X333Y924D01*
X363Y924D02*
X400Y924D01*
X0Y923D02*
X40Y923D01*
X82Y923D02*
X134Y923D01*
X188Y923D02*
X203Y923D01*
X293Y923D02*
X330Y923D01*
X366Y923D02*
X400Y923D01*
X0Y922D02*
X40Y922D01*
X82Y922D02*
X134Y922D01*
X188Y922D02*
X203Y922D01*
X293Y922D02*
X328Y922D01*
X368Y922D02*
X400Y922D01*
X0Y921D02*
X7Y921D01*
X93Y921D02*
X103Y921D01*
X115Y921D02*
X126Y921D01*
X132Y921D02*
X134Y921D01*
X188Y921D02*
X190Y921D01*
X201Y921D02*
X203Y921D01*
X294Y921D02*
X296Y921D01*
X393Y921D02*
X400Y921D01*
X0Y920D02*
X7Y920D01*
X91Y920D02*
X104Y920D01*
X115Y920D02*
X126Y920D01*
X132Y920D02*
X134Y920D01*
X188Y920D02*
X190Y920D01*
X201Y920D02*
X203Y920D01*
X294Y920D02*
X296Y920D01*
X393Y920D02*
X400Y920D01*
X0Y919D02*
X7Y919D01*
X90Y919D02*
X104Y919D01*
X114Y919D02*
X126Y919D01*
X132Y919D02*
X134Y919D01*
X188Y919D02*
X190Y919D01*
X201Y919D02*
X203Y919D01*
X294Y919D02*
X296Y919D01*
X393Y919D02*
X400Y919D01*
X0Y918D02*
X7Y918D01*
X90Y918D02*
X103Y918D01*
X115Y918D02*
X126Y918D01*
X132Y918D02*
X134Y918D01*
X188Y918D02*
X190Y918D01*
X201Y918D02*
X203Y918D01*
X294Y918D02*
X296Y918D01*
X393Y918D02*
X400Y918D01*
X0Y917D02*
X7Y917D01*
X89Y917D02*
X93Y917D01*
X123Y917D02*
X126Y917D01*
X132Y917D02*
X134Y917D01*
X188Y917D02*
X190Y917D01*
X201Y917D02*
X203Y917D01*
X294Y917D02*
X296Y917D01*
X393Y917D02*
X400Y917D01*
X0Y916D02*
X7Y916D01*
X89Y916D02*
X92Y916D01*
X123Y916D02*
X126Y916D01*
X132Y916D02*
X134Y916D01*
X188Y916D02*
X190Y916D01*
X201Y916D02*
X203Y916D01*
X294Y916D02*
X296Y916D01*
X393Y916D02*
X400Y916D01*
X0Y915D02*
X7Y915D01*
X88Y915D02*
X92Y915D01*
X123Y915D02*
X126Y915D01*
X132Y915D02*
X134Y915D01*
X188Y915D02*
X190Y915D01*
X201Y915D02*
X203Y915D01*
X294Y915D02*
X296Y915D01*
X393Y915D02*
X400Y915D01*
X0Y914D02*
X7Y914D01*
X88Y914D02*
X91Y914D01*
X123Y914D02*
X126Y914D01*
X132Y914D02*
X134Y914D01*
X188Y914D02*
X190Y914D01*
X201Y914D02*
X203Y914D01*
X294Y914D02*
X296Y914D01*
X393Y914D02*
X400Y914D01*
X0Y913D02*
X7Y913D01*
X87Y913D02*
X91Y913D01*
X123Y913D02*
X126Y913D01*
X132Y913D02*
X134Y913D01*
X188Y913D02*
X190Y913D01*
X201Y913D02*
X203Y913D01*
X294Y913D02*
X296Y913D01*
X393Y913D02*
X400Y913D01*
X0Y912D02*
X7Y912D01*
X87Y912D02*
X90Y912D01*
X123Y912D02*
X126Y912D01*
X132Y912D02*
X134Y912D01*
X188Y912D02*
X190Y912D01*
X201Y912D02*
X203Y912D01*
X294Y912D02*
X296Y912D01*
X393Y912D02*
X400Y912D01*
X0Y911D02*
X7Y911D01*
X86Y911D02*
X90Y911D01*
X123Y911D02*
X126Y911D01*
X132Y911D02*
X134Y911D01*
X188Y911D02*
X190Y911D01*
X201Y911D02*
X203Y911D01*
X294Y911D02*
X296Y911D01*
X393Y911D02*
X400Y911D01*
X0Y910D02*
X7Y910D01*
X86Y910D02*
X89Y910D01*
X123Y910D02*
X126Y910D01*
X132Y910D02*
X134Y910D01*
X188Y910D02*
X190Y910D01*
X201Y910D02*
X203Y910D01*
X294Y910D02*
X296Y910D01*
X393Y910D02*
X400Y910D01*
X0Y909D02*
X7Y909D01*
X85Y909D02*
X89Y909D01*
X123Y909D02*
X126Y909D01*
X132Y909D02*
X134Y909D01*
X188Y909D02*
X190Y909D01*
X201Y909D02*
X203Y909D01*
X294Y909D02*
X296Y909D01*
X393Y909D02*
X400Y909D01*
X0Y908D02*
X7Y908D01*
X85Y908D02*
X88Y908D01*
X123Y908D02*
X126Y908D01*
X132Y908D02*
X134Y908D01*
X188Y908D02*
X190Y908D01*
X201Y908D02*
X203Y908D01*
X294Y908D02*
X296Y908D01*
X393Y908D02*
X400Y908D01*
X0Y907D02*
X7Y907D01*
X85Y907D02*
X88Y907D01*
X123Y907D02*
X126Y907D01*
X132Y907D02*
X134Y907D01*
X188Y907D02*
X190Y907D01*
X201Y907D02*
X203Y907D01*
X294Y907D02*
X296Y907D01*
X393Y907D02*
X400Y907D01*
X0Y906D02*
X7Y906D01*
X84Y906D02*
X88Y906D01*
X123Y906D02*
X126Y906D01*
X132Y906D02*
X134Y906D01*
X188Y906D02*
X190Y906D01*
X201Y906D02*
X203Y906D01*
X294Y906D02*
X296Y906D01*
X393Y906D02*
X400Y906D01*
X0Y905D02*
X7Y905D01*
X84Y905D02*
X88Y905D01*
X123Y905D02*
X126Y905D01*
X132Y905D02*
X134Y905D01*
X188Y905D02*
X190Y905D01*
X201Y905D02*
X203Y905D01*
X294Y905D02*
X296Y905D01*
X393Y905D02*
X400Y905D01*
X0Y904D02*
X7Y904D01*
X85Y904D02*
X88Y904D01*
X123Y904D02*
X126Y904D01*
X132Y904D02*
X134Y904D01*
X188Y904D02*
X190Y904D01*
X201Y904D02*
X203Y904D01*
X294Y904D02*
X296Y904D01*
X393Y904D02*
X400Y904D01*
X0Y903D02*
X7Y903D01*
X85Y903D02*
X88Y903D01*
X123Y903D02*
X126Y903D01*
X131Y903D02*
X134Y903D01*
X188Y903D02*
X190Y903D01*
X201Y903D02*
X203Y903D01*
X294Y903D02*
X296Y903D01*
X393Y903D02*
X400Y903D01*
X0Y902D02*
X7Y902D01*
X85Y902D02*
X89Y902D01*
X123Y902D02*
X126Y902D01*
X131Y902D02*
X134Y902D01*
X188Y902D02*
X190Y902D01*
X201Y902D02*
X203Y902D01*
X294Y902D02*
X296Y902D01*
X393Y902D02*
X400Y902D01*
X0Y901D02*
X7Y901D01*
X85Y901D02*
X89Y901D01*
X123Y901D02*
X126Y901D01*
X131Y901D02*
X134Y901D01*
X188Y901D02*
X190Y901D01*
X201Y901D02*
X203Y901D01*
X294Y901D02*
X296Y901D01*
X393Y901D02*
X400Y901D01*
X0Y900D02*
X7Y900D01*
X86Y900D02*
X90Y900D01*
X123Y900D02*
X126Y900D01*
X131Y900D02*
X134Y900D01*
X188Y900D02*
X190Y900D01*
X201Y900D02*
X203Y900D01*
X294Y900D02*
X296Y900D01*
X393Y900D02*
X400Y900D01*
X0Y899D02*
X7Y899D01*
X86Y899D02*
X90Y899D01*
X123Y899D02*
X126Y899D01*
X131Y899D02*
X134Y899D01*
X188Y899D02*
X190Y899D01*
X201Y899D02*
X203Y899D01*
X294Y899D02*
X296Y899D01*
X393Y899D02*
X400Y899D01*
X0Y898D02*
X7Y898D01*
X87Y898D02*
X91Y898D01*
X123Y898D02*
X126Y898D01*
X131Y898D02*
X134Y898D01*
X188Y898D02*
X190Y898D01*
X201Y898D02*
X203Y898D01*
X294Y898D02*
X296Y898D01*
X393Y898D02*
X400Y898D01*
X0Y897D02*
X7Y897D01*
X87Y897D02*
X91Y897D01*
X123Y897D02*
X126Y897D01*
X131Y897D02*
X134Y897D01*
X188Y897D02*
X190Y897D01*
X201Y897D02*
X203Y897D01*
X294Y897D02*
X296Y897D01*
X393Y897D02*
X400Y897D01*
X0Y896D02*
X7Y896D01*
X88Y896D02*
X92Y896D01*
X123Y896D02*
X126Y896D01*
X131Y896D02*
X134Y896D01*
X188Y896D02*
X190Y896D01*
X201Y896D02*
X203Y896D01*
X294Y896D02*
X296Y896D01*
X393Y896D02*
X400Y896D01*
X0Y895D02*
X7Y895D01*
X88Y895D02*
X92Y895D01*
X123Y895D02*
X126Y895D01*
X131Y895D02*
X134Y895D01*
X188Y895D02*
X190Y895D01*
X201Y895D02*
X203Y895D01*
X294Y895D02*
X296Y895D01*
X393Y895D02*
X400Y895D01*
X0Y894D02*
X7Y894D01*
X89Y894D02*
X93Y894D01*
X123Y894D02*
X126Y894D01*
X131Y894D02*
X134Y894D01*
X188Y894D02*
X190Y894D01*
X201Y894D02*
X203Y894D01*
X294Y894D02*
X296Y894D01*
X393Y894D02*
X400Y894D01*
X0Y893D02*
X7Y893D01*
X89Y893D02*
X103Y893D01*
X116Y893D02*
X134Y893D01*
X188Y893D02*
X190Y893D01*
X201Y893D02*
X203Y893D01*
X294Y893D02*
X296Y893D01*
X393Y893D02*
X400Y893D01*
X0Y892D02*
X7Y892D01*
X90Y892D02*
X104Y892D01*
X115Y892D02*
X134Y892D01*
X188Y892D02*
X190Y892D01*
X201Y892D02*
X203Y892D01*
X294Y892D02*
X296Y892D01*
X393Y892D02*
X400Y892D01*
X0Y891D02*
X7Y891D01*
X91Y891D02*
X104Y891D01*
X114Y891D02*
X134Y891D01*
X188Y891D02*
X190Y891D01*
X201Y891D02*
X203Y891D01*
X294Y891D02*
X296Y891D01*
X393Y891D02*
X400Y891D01*
X0Y890D02*
X7Y890D01*
X92Y890D02*
X104Y890D01*
X115Y890D02*
X134Y890D01*
X188Y890D02*
X190Y890D01*
X201Y890D02*
X203Y890D01*
X294Y890D02*
X296Y890D01*
X393Y890D02*
X400Y890D01*
X0Y889D02*
X7Y889D01*
X132Y889D02*
X134Y889D01*
X188Y889D02*
X190Y889D01*
X201Y889D02*
X203Y889D01*
X294Y889D02*
X296Y889D01*
X393Y889D02*
X400Y889D01*
X0Y888D02*
X7Y888D01*
X132Y888D02*
X134Y888D01*
X188Y888D02*
X190Y888D01*
X201Y888D02*
X203Y888D01*
X294Y888D02*
X296Y888D01*
X393Y888D02*
X400Y888D01*
X0Y887D02*
X7Y887D01*
X132Y887D02*
X134Y887D01*
X188Y887D02*
X190Y887D01*
X201Y887D02*
X203Y887D01*
X294Y887D02*
X296Y887D01*
X393Y887D02*
X400Y887D01*
X0Y886D02*
X7Y886D01*
X132Y886D02*
X134Y886D01*
X188Y886D02*
X190Y886D01*
X201Y886D02*
X203Y886D01*
X294Y886D02*
X296Y886D01*
X393Y886D02*
X400Y886D01*
X0Y885D02*
X7Y885D01*
X132Y885D02*
X134Y885D01*
X188Y885D02*
X190Y885D01*
X201Y885D02*
X203Y885D01*
X294Y885D02*
X296Y885D01*
X393Y885D02*
X400Y885D01*
X0Y884D02*
X7Y884D01*
X132Y884D02*
X134Y884D01*
X188Y884D02*
X190Y884D01*
X201Y884D02*
X203Y884D01*
X294Y884D02*
X296Y884D01*
X393Y884D02*
X400Y884D01*
X0Y883D02*
X7Y883D01*
X132Y883D02*
X134Y883D01*
X188Y883D02*
X190Y883D01*
X201Y883D02*
X203Y883D01*
X294Y883D02*
X296Y883D01*
X393Y883D02*
X400Y883D01*
X0Y882D02*
X7Y882D01*
X132Y882D02*
X134Y882D01*
X188Y882D02*
X190Y882D01*
X201Y882D02*
X203Y882D01*
X294Y882D02*
X296Y882D01*
X393Y882D02*
X400Y882D01*
X0Y881D02*
X7Y881D01*
X132Y881D02*
X134Y881D01*
X188Y881D02*
X190Y881D01*
X201Y881D02*
X203Y881D01*
X294Y881D02*
X296Y881D01*
X393Y881D02*
X400Y881D01*
X0Y880D02*
X7Y880D01*
X132Y880D02*
X134Y880D01*
X188Y880D02*
X190Y880D01*
X201Y880D02*
X203Y880D01*
X294Y880D02*
X296Y880D01*
X393Y880D02*
X400Y880D01*
X0Y879D02*
X7Y879D01*
X132Y879D02*
X134Y879D01*
X188Y879D02*
X190Y879D01*
X201Y879D02*
X203Y879D01*
X294Y879D02*
X296Y879D01*
X393Y879D02*
X400Y879D01*
X0Y878D02*
X7Y878D01*
X132Y878D02*
X134Y878D01*
X188Y878D02*
X190Y878D01*
X201Y878D02*
X203Y878D01*
X294Y878D02*
X296Y878D01*
X393Y878D02*
X400Y878D01*
X0Y877D02*
X7Y877D01*
X132Y877D02*
X134Y877D01*
X188Y877D02*
X190Y877D01*
X201Y877D02*
X203Y877D01*
X294Y877D02*
X296Y877D01*
X393Y877D02*
X400Y877D01*
X0Y876D02*
X7Y876D01*
X132Y876D02*
X134Y876D01*
X188Y876D02*
X190Y876D01*
X201Y876D02*
X203Y876D01*
X294Y876D02*
X296Y876D01*
X393Y876D02*
X400Y876D01*
X0Y875D02*
X7Y875D01*
X132Y875D02*
X134Y875D01*
X188Y875D02*
X190Y875D01*
X201Y875D02*
X203Y875D01*
X294Y875D02*
X296Y875D01*
X393Y875D02*
X400Y875D01*
X0Y874D02*
X7Y874D01*
X132Y874D02*
X134Y874D01*
X188Y874D02*
X190Y874D01*
X201Y874D02*
X203Y874D01*
X294Y874D02*
X296Y874D01*
X393Y874D02*
X400Y874D01*
X0Y873D02*
X7Y873D01*
X132Y873D02*
X134Y873D01*
X188Y873D02*
X190Y873D01*
X201Y873D02*
X203Y873D01*
X294Y873D02*
X296Y873D01*
X393Y873D02*
X400Y873D01*
X0Y872D02*
X7Y872D01*
X132Y872D02*
X134Y872D01*
X188Y872D02*
X190Y872D01*
X201Y872D02*
X203Y872D01*
X294Y872D02*
X296Y872D01*
X393Y872D02*
X400Y872D01*
X0Y871D02*
X7Y871D01*
X132Y871D02*
X135Y871D01*
X187Y871D02*
X190Y871D01*
X201Y871D02*
X203Y871D01*
X294Y871D02*
X296Y871D01*
X393Y871D02*
X400Y871D01*
X0Y870D02*
X7Y870D01*
X132Y870D02*
X135Y870D01*
X187Y870D02*
X190Y870D01*
X201Y870D02*
X203Y870D01*
X294Y870D02*
X296Y870D01*
X393Y870D02*
X400Y870D01*
X0Y869D02*
X7Y869D01*
X39Y869D02*
X41Y869D01*
X56Y869D02*
X58Y869D01*
X69Y869D02*
X86Y869D01*
X132Y869D02*
X135Y869D01*
X187Y869D02*
X190Y869D01*
X201Y869D02*
X204Y869D01*
X294Y869D02*
X296Y869D01*
X393Y869D02*
X400Y869D01*
X0Y868D02*
X7Y868D01*
X39Y868D02*
X42Y868D01*
X55Y868D02*
X58Y868D01*
X69Y868D02*
X88Y868D01*
X132Y868D02*
X135Y868D01*
X187Y868D02*
X190Y868D01*
X201Y868D02*
X204Y868D01*
X294Y868D02*
X296Y868D01*
X393Y868D02*
X400Y868D01*
X0Y867D02*
X7Y867D01*
X39Y867D02*
X42Y867D01*
X55Y867D02*
X58Y867D01*
X69Y867D02*
X88Y867D01*
X132Y867D02*
X135Y867D01*
X187Y867D02*
X190Y867D01*
X201Y867D02*
X204Y867D01*
X294Y867D02*
X296Y867D01*
X393Y867D02*
X400Y867D01*
X0Y866D02*
X7Y866D01*
X39Y866D02*
X42Y866D01*
X55Y866D02*
X58Y866D01*
X70Y866D02*
X88Y866D01*
X132Y866D02*
X135Y866D01*
X187Y866D02*
X190Y866D01*
X201Y866D02*
X204Y866D01*
X294Y866D02*
X296Y866D01*
X393Y866D02*
X400Y866D01*
X0Y865D02*
X7Y865D01*
X39Y865D02*
X42Y865D01*
X55Y865D02*
X58Y865D01*
X85Y865D02*
X88Y865D01*
X132Y865D02*
X135Y865D01*
X187Y865D02*
X190Y865D01*
X201Y865D02*
X204Y865D01*
X294Y865D02*
X296Y865D01*
X393Y865D02*
X400Y865D01*
X0Y864D02*
X7Y864D01*
X39Y864D02*
X42Y864D01*
X55Y864D02*
X58Y864D01*
X85Y864D02*
X88Y864D01*
X132Y864D02*
X135Y864D01*
X187Y864D02*
X190Y864D01*
X201Y864D02*
X204Y864D01*
X227Y864D02*
X239Y864D01*
X257Y864D02*
X268Y864D01*
X294Y864D02*
X296Y864D01*
X393Y864D02*
X400Y864D01*
X0Y863D02*
X7Y863D01*
X39Y863D02*
X42Y863D01*
X55Y863D02*
X58Y863D01*
X85Y863D02*
X88Y863D01*
X132Y863D02*
X135Y863D01*
X187Y863D02*
X190Y863D01*
X201Y863D02*
X204Y863D01*
X227Y863D02*
X240Y863D01*
X257Y863D02*
X268Y863D01*
X294Y863D02*
X296Y863D01*
X393Y863D02*
X400Y863D01*
X0Y862D02*
X7Y862D01*
X39Y862D02*
X42Y862D01*
X55Y862D02*
X58Y862D01*
X85Y862D02*
X88Y862D01*
X132Y862D02*
X135Y862D01*
X187Y862D02*
X190Y862D01*
X201Y862D02*
X204Y862D01*
X227Y862D02*
X241Y862D01*
X257Y862D02*
X268Y862D01*
X294Y862D02*
X296Y862D01*
X393Y862D02*
X400Y862D01*
X0Y861D02*
X7Y861D01*
X39Y861D02*
X42Y861D01*
X55Y861D02*
X58Y861D01*
X85Y861D02*
X88Y861D01*
X132Y861D02*
X134Y861D01*
X188Y861D02*
X190Y861D01*
X201Y861D02*
X204Y861D01*
X228Y861D02*
X241Y861D01*
X258Y861D02*
X268Y861D01*
X294Y861D02*
X296Y861D01*
X393Y861D02*
X400Y861D01*
X0Y860D02*
X7Y860D01*
X39Y860D02*
X42Y860D01*
X55Y860D02*
X58Y860D01*
X85Y860D02*
X88Y860D01*
X132Y860D02*
X134Y860D01*
X188Y860D02*
X190Y860D01*
X201Y860D02*
X204Y860D01*
X231Y860D02*
X234Y860D01*
X238Y860D02*
X242Y860D01*
X265Y860D02*
X268Y860D01*
X294Y860D02*
X296Y860D01*
X393Y860D02*
X400Y860D01*
X0Y859D02*
X7Y859D01*
X39Y859D02*
X42Y859D01*
X55Y859D02*
X58Y859D01*
X85Y859D02*
X88Y859D01*
X132Y859D02*
X134Y859D01*
X188Y859D02*
X190Y859D01*
X201Y859D02*
X204Y859D01*
X231Y859D02*
X234Y859D01*
X239Y859D02*
X242Y859D01*
X265Y859D02*
X268Y859D01*
X294Y859D02*
X296Y859D01*
X393Y859D02*
X400Y859D01*
X0Y858D02*
X7Y858D01*
X39Y858D02*
X42Y858D01*
X55Y858D02*
X58Y858D01*
X85Y858D02*
X88Y858D01*
X132Y858D02*
X134Y858D01*
X188Y858D02*
X190Y858D01*
X201Y858D02*
X204Y858D01*
X231Y858D02*
X234Y858D01*
X239Y858D02*
X243Y858D01*
X265Y858D02*
X268Y858D01*
X294Y858D02*
X296Y858D01*
X393Y858D02*
X400Y858D01*
X0Y857D02*
X7Y857D01*
X39Y857D02*
X42Y857D01*
X55Y857D02*
X58Y857D01*
X85Y857D02*
X88Y857D01*
X132Y857D02*
X134Y857D01*
X188Y857D02*
X190Y857D01*
X201Y857D02*
X204Y857D01*
X231Y857D02*
X234Y857D01*
X240Y857D02*
X243Y857D01*
X265Y857D02*
X268Y857D01*
X294Y857D02*
X296Y857D01*
X393Y857D02*
X400Y857D01*
X0Y856D02*
X7Y856D01*
X39Y856D02*
X42Y856D01*
X55Y856D02*
X58Y856D01*
X84Y856D02*
X88Y856D01*
X132Y856D02*
X134Y856D01*
X188Y856D02*
X190Y856D01*
X201Y856D02*
X204Y856D01*
X231Y856D02*
X234Y856D01*
X240Y856D02*
X244Y856D01*
X265Y856D02*
X268Y856D01*
X294Y856D02*
X296Y856D01*
X393Y856D02*
X400Y856D01*
X0Y855D02*
X7Y855D01*
X39Y855D02*
X42Y855D01*
X55Y855D02*
X58Y855D01*
X74Y855D02*
X88Y855D01*
X132Y855D02*
X134Y855D01*
X188Y855D02*
X190Y855D01*
X201Y855D02*
X204Y855D01*
X231Y855D02*
X234Y855D01*
X241Y855D02*
X244Y855D01*
X265Y855D02*
X268Y855D01*
X294Y855D02*
X296Y855D01*
X393Y855D02*
X400Y855D01*
X0Y854D02*
X7Y854D01*
X39Y854D02*
X42Y854D01*
X55Y854D02*
X58Y854D01*
X73Y854D02*
X87Y854D01*
X132Y854D02*
X134Y854D01*
X188Y854D02*
X190Y854D01*
X201Y854D02*
X204Y854D01*
X231Y854D02*
X234Y854D01*
X241Y854D02*
X245Y854D01*
X265Y854D02*
X268Y854D01*
X294Y854D02*
X296Y854D01*
X393Y854D02*
X400Y854D01*
X0Y853D02*
X7Y853D01*
X39Y853D02*
X42Y853D01*
X55Y853D02*
X58Y853D01*
X73Y853D02*
X87Y853D01*
X132Y853D02*
X134Y853D01*
X188Y853D02*
X190Y853D01*
X201Y853D02*
X204Y853D01*
X231Y853D02*
X234Y853D01*
X242Y853D02*
X245Y853D01*
X265Y853D02*
X268Y853D01*
X294Y853D02*
X296Y853D01*
X393Y853D02*
X400Y853D01*
X0Y852D02*
X7Y852D01*
X39Y852D02*
X42Y852D01*
X55Y852D02*
X58Y852D01*
X74Y852D02*
X88Y852D01*
X132Y852D02*
X134Y852D01*
X188Y852D02*
X190Y852D01*
X201Y852D02*
X204Y852D01*
X231Y852D02*
X234Y852D01*
X242Y852D02*
X246Y852D01*
X265Y852D02*
X268Y852D01*
X294Y852D02*
X296Y852D01*
X393Y852D02*
X400Y852D01*
X0Y851D02*
X7Y851D01*
X39Y851D02*
X42Y851D01*
X55Y851D02*
X58Y851D01*
X84Y851D02*
X88Y851D01*
X132Y851D02*
X134Y851D01*
X188Y851D02*
X190Y851D01*
X201Y851D02*
X204Y851D01*
X231Y851D02*
X234Y851D01*
X243Y851D02*
X246Y851D01*
X265Y851D02*
X268Y851D01*
X294Y851D02*
X296Y851D01*
X393Y851D02*
X400Y851D01*
X0Y850D02*
X7Y850D01*
X39Y850D02*
X42Y850D01*
X55Y850D02*
X58Y850D01*
X85Y850D02*
X88Y850D01*
X132Y850D02*
X134Y850D01*
X188Y850D02*
X190Y850D01*
X201Y850D02*
X204Y850D01*
X231Y850D02*
X234Y850D01*
X243Y850D02*
X246Y850D01*
X265Y850D02*
X268Y850D01*
X294Y850D02*
X296Y850D01*
X393Y850D02*
X400Y850D01*
X0Y849D02*
X7Y849D01*
X39Y849D02*
X42Y849D01*
X55Y849D02*
X58Y849D01*
X85Y849D02*
X88Y849D01*
X132Y849D02*
X134Y849D01*
X188Y849D02*
X190Y849D01*
X201Y849D02*
X204Y849D01*
X231Y849D02*
X234Y849D01*
X243Y849D02*
X246Y849D01*
X265Y849D02*
X268Y849D01*
X294Y849D02*
X296Y849D01*
X393Y849D02*
X400Y849D01*
X0Y848D02*
X7Y848D01*
X39Y848D02*
X42Y848D01*
X55Y848D02*
X58Y848D01*
X85Y848D02*
X88Y848D01*
X132Y848D02*
X134Y848D01*
X188Y848D02*
X190Y848D01*
X201Y848D02*
X204Y848D01*
X231Y848D02*
X234Y848D01*
X243Y848D02*
X246Y848D01*
X265Y848D02*
X268Y848D01*
X294Y848D02*
X296Y848D01*
X393Y848D02*
X400Y848D01*
X0Y847D02*
X7Y847D01*
X39Y847D02*
X42Y847D01*
X55Y847D02*
X58Y847D01*
X85Y847D02*
X88Y847D01*
X132Y847D02*
X134Y847D01*
X188Y847D02*
X190Y847D01*
X201Y847D02*
X204Y847D01*
X231Y847D02*
X234Y847D01*
X243Y847D02*
X246Y847D01*
X265Y847D02*
X268Y847D01*
X275Y847D02*
X275Y847D01*
X294Y847D02*
X296Y847D01*
X393Y847D02*
X400Y847D01*
X0Y846D02*
X7Y846D01*
X39Y846D02*
X42Y846D01*
X55Y846D02*
X58Y846D01*
X85Y846D02*
X88Y846D01*
X132Y846D02*
X134Y846D01*
X188Y846D02*
X190Y846D01*
X201Y846D02*
X204Y846D01*
X231Y846D02*
X234Y846D01*
X243Y846D02*
X246Y846D01*
X265Y846D02*
X268Y846D01*
X274Y846D02*
X276Y846D01*
X294Y846D02*
X296Y846D01*
X393Y846D02*
X400Y846D01*
X0Y845D02*
X7Y845D01*
X39Y845D02*
X42Y845D01*
X55Y845D02*
X58Y845D01*
X85Y845D02*
X88Y845D01*
X132Y845D02*
X134Y845D01*
X188Y845D02*
X190Y845D01*
X201Y845D02*
X204Y845D01*
X231Y845D02*
X234Y845D01*
X242Y845D02*
X246Y845D01*
X265Y845D02*
X268Y845D01*
X273Y845D02*
X277Y845D01*
X294Y845D02*
X296Y845D01*
X393Y845D02*
X400Y845D01*
X0Y844D02*
X7Y844D01*
X39Y844D02*
X42Y844D01*
X55Y844D02*
X58Y844D01*
X85Y844D02*
X88Y844D01*
X132Y844D02*
X134Y844D01*
X188Y844D02*
X190Y844D01*
X201Y844D02*
X204Y844D01*
X231Y844D02*
X234Y844D01*
X242Y844D02*
X245Y844D01*
X265Y844D02*
X268Y844D01*
X273Y844D02*
X277Y844D01*
X294Y844D02*
X296Y844D01*
X393Y844D02*
X400Y844D01*
X0Y843D02*
X7Y843D01*
X39Y843D02*
X42Y843D01*
X55Y843D02*
X58Y843D01*
X85Y843D02*
X88Y843D01*
X132Y843D02*
X134Y843D01*
X188Y843D02*
X190Y843D01*
X201Y843D02*
X204Y843D01*
X231Y843D02*
X234Y843D01*
X241Y843D02*
X245Y843D01*
X265Y843D02*
X268Y843D01*
X273Y843D02*
X277Y843D01*
X294Y843D02*
X296Y843D01*
X393Y843D02*
X400Y843D01*
X0Y842D02*
X7Y842D01*
X39Y842D02*
X43Y842D01*
X54Y842D02*
X58Y842D01*
X85Y842D02*
X88Y842D01*
X132Y842D02*
X134Y842D01*
X188Y842D02*
X190Y842D01*
X201Y842D02*
X204Y842D01*
X231Y842D02*
X234Y842D01*
X241Y842D02*
X244Y842D01*
X265Y842D02*
X268Y842D01*
X273Y842D02*
X277Y842D01*
X294Y842D02*
X296Y842D01*
X393Y842D02*
X400Y842D01*
X0Y841D02*
X7Y841D01*
X39Y841D02*
X58Y841D01*
X70Y841D02*
X88Y841D01*
X132Y841D02*
X134Y841D01*
X188Y841D02*
X190Y841D01*
X201Y841D02*
X204Y841D01*
X231Y841D02*
X234Y841D01*
X240Y841D02*
X244Y841D01*
X265Y841D02*
X268Y841D01*
X273Y841D02*
X277Y841D01*
X294Y841D02*
X296Y841D01*
X393Y841D02*
X400Y841D01*
X0Y840D02*
X2Y840D01*
X45Y840D02*
X57Y840D01*
X69Y840D02*
X77Y840D01*
X132Y840D02*
X134Y840D01*
X188Y840D02*
X190Y840D01*
X201Y840D02*
X204Y840D01*
X231Y840D02*
X234Y840D01*
X240Y840D02*
X243Y840D01*
X265Y840D02*
X268Y840D01*
X273Y840D02*
X277Y840D01*
X294Y840D02*
X296Y840D01*
X393Y840D02*
X400Y840D01*
X0Y839D02*
X2Y839D01*
X45Y839D02*
X56Y839D01*
X69Y839D02*
X77Y839D01*
X132Y839D02*
X134Y839D01*
X188Y839D02*
X190Y839D01*
X201Y839D02*
X204Y839D01*
X231Y839D02*
X234Y839D01*
X239Y839D02*
X243Y839D01*
X265Y839D02*
X268Y839D01*
X273Y839D02*
X277Y839D01*
X294Y839D02*
X296Y839D01*
X393Y839D02*
X400Y839D01*
X0Y838D02*
X2Y838D01*
X45Y838D02*
X55Y838D01*
X69Y838D02*
X77Y838D01*
X132Y838D02*
X134Y838D01*
X188Y838D02*
X190Y838D01*
X201Y838D02*
X204Y838D01*
X231Y838D02*
X234Y838D01*
X239Y838D02*
X242Y838D01*
X265Y838D02*
X268Y838D01*
X273Y838D02*
X277Y838D01*
X294Y838D02*
X296Y838D01*
X393Y838D02*
X400Y838D01*
X0Y837D02*
X2Y837D01*
X132Y837D02*
X134Y837D01*
X188Y837D02*
X190Y837D01*
X201Y837D02*
X204Y837D01*
X231Y837D02*
X234Y837D01*
X238Y837D02*
X242Y837D01*
X265Y837D02*
X268Y837D01*
X273Y837D02*
X277Y837D01*
X294Y837D02*
X296Y837D01*
X393Y837D02*
X400Y837D01*
X0Y836D02*
X2Y836D01*
X132Y836D02*
X134Y836D01*
X188Y836D02*
X190Y836D01*
X201Y836D02*
X204Y836D01*
X228Y836D02*
X241Y836D01*
X258Y836D02*
X277Y836D01*
X294Y836D02*
X296Y836D01*
X393Y836D02*
X400Y836D01*
X0Y835D02*
X2Y835D01*
X132Y835D02*
X134Y835D01*
X188Y835D02*
X190Y835D01*
X201Y835D02*
X204Y835D01*
X227Y835D02*
X241Y835D01*
X257Y835D02*
X277Y835D01*
X294Y835D02*
X296Y835D01*
X393Y835D02*
X400Y835D01*
X0Y834D02*
X2Y834D01*
X132Y834D02*
X134Y834D01*
X188Y834D02*
X190Y834D01*
X201Y834D02*
X204Y834D01*
X227Y834D02*
X240Y834D01*
X257Y834D02*
X276Y834D01*
X294Y834D02*
X296Y834D01*
X393Y834D02*
X400Y834D01*
X0Y833D02*
X2Y833D01*
X132Y833D02*
X134Y833D01*
X188Y833D02*
X190Y833D01*
X201Y833D02*
X204Y833D01*
X227Y833D02*
X238Y833D01*
X257Y833D02*
X276Y833D01*
X294Y833D02*
X296Y833D01*
X393Y833D02*
X400Y833D01*
X0Y832D02*
X2Y832D01*
X132Y832D02*
X134Y832D01*
X188Y832D02*
X190Y832D01*
X201Y832D02*
X204Y832D01*
X294Y832D02*
X296Y832D01*
X393Y832D02*
X400Y832D01*
X0Y831D02*
X2Y831D01*
X132Y831D02*
X134Y831D01*
X188Y831D02*
X190Y831D01*
X201Y831D02*
X204Y831D01*
X294Y831D02*
X296Y831D01*
X393Y831D02*
X400Y831D01*
X0Y830D02*
X2Y830D01*
X132Y830D02*
X134Y830D01*
X188Y830D02*
X190Y830D01*
X201Y830D02*
X204Y830D01*
X294Y830D02*
X296Y830D01*
X393Y830D02*
X400Y830D01*
X0Y829D02*
X2Y829D01*
X132Y829D02*
X134Y829D01*
X188Y829D02*
X190Y829D01*
X201Y829D02*
X204Y829D01*
X294Y829D02*
X296Y829D01*
X393Y829D02*
X400Y829D01*
X0Y828D02*
X2Y828D01*
X132Y828D02*
X134Y828D01*
X188Y828D02*
X190Y828D01*
X201Y828D02*
X204Y828D01*
X294Y828D02*
X296Y828D01*
X393Y828D02*
X400Y828D01*
X0Y827D02*
X2Y827D01*
X132Y827D02*
X134Y827D01*
X188Y827D02*
X190Y827D01*
X201Y827D02*
X204Y827D01*
X294Y827D02*
X296Y827D01*
X393Y827D02*
X400Y827D01*
X0Y826D02*
X2Y826D01*
X132Y826D02*
X134Y826D01*
X188Y826D02*
X190Y826D01*
X201Y826D02*
X204Y826D01*
X294Y826D02*
X296Y826D01*
X393Y826D02*
X400Y826D01*
X0Y825D02*
X2Y825D01*
X132Y825D02*
X134Y825D01*
X188Y825D02*
X190Y825D01*
X201Y825D02*
X204Y825D01*
X294Y825D02*
X296Y825D01*
X393Y825D02*
X400Y825D01*
X0Y824D02*
X2Y824D01*
X132Y824D02*
X134Y824D01*
X188Y824D02*
X190Y824D01*
X201Y824D02*
X204Y824D01*
X294Y824D02*
X296Y824D01*
X393Y824D02*
X400Y824D01*
X0Y823D02*
X2Y823D01*
X132Y823D02*
X134Y823D01*
X188Y823D02*
X190Y823D01*
X201Y823D02*
X204Y823D01*
X294Y823D02*
X296Y823D01*
X393Y823D02*
X400Y823D01*
X0Y822D02*
X2Y822D01*
X132Y822D02*
X134Y822D01*
X188Y822D02*
X190Y822D01*
X201Y822D02*
X204Y822D01*
X294Y822D02*
X296Y822D01*
X393Y822D02*
X400Y822D01*
X0Y821D02*
X2Y821D01*
X132Y821D02*
X134Y821D01*
X188Y821D02*
X190Y821D01*
X201Y821D02*
X204Y821D01*
X294Y821D02*
X296Y821D01*
X393Y821D02*
X400Y821D01*
X0Y820D02*
X2Y820D01*
X132Y820D02*
X134Y820D01*
X188Y820D02*
X190Y820D01*
X201Y820D02*
X204Y820D01*
X294Y820D02*
X296Y820D01*
X393Y820D02*
X400Y820D01*
X0Y819D02*
X2Y819D01*
X132Y819D02*
X134Y819D01*
X188Y819D02*
X190Y819D01*
X201Y819D02*
X204Y819D01*
X294Y819D02*
X296Y819D01*
X393Y819D02*
X400Y819D01*
X0Y818D02*
X2Y818D01*
X132Y818D02*
X134Y818D01*
X188Y818D02*
X190Y818D01*
X201Y818D02*
X204Y818D01*
X294Y818D02*
X296Y818D01*
X393Y818D02*
X400Y818D01*
X0Y817D02*
X2Y817D01*
X132Y817D02*
X134Y817D01*
X188Y817D02*
X190Y817D01*
X201Y817D02*
X204Y817D01*
X294Y817D02*
X296Y817D01*
X393Y817D02*
X400Y817D01*
X0Y816D02*
X2Y816D01*
X132Y816D02*
X134Y816D01*
X188Y816D02*
X190Y816D01*
X201Y816D02*
X204Y816D01*
X294Y816D02*
X296Y816D01*
X393Y816D02*
X400Y816D01*
X0Y815D02*
X2Y815D01*
X132Y815D02*
X134Y815D01*
X188Y815D02*
X190Y815D01*
X201Y815D02*
X204Y815D01*
X294Y815D02*
X296Y815D01*
X393Y815D02*
X400Y815D01*
X0Y814D02*
X2Y814D01*
X132Y814D02*
X134Y814D01*
X188Y814D02*
X190Y814D01*
X201Y814D02*
X204Y814D01*
X294Y814D02*
X296Y814D01*
X393Y814D02*
X400Y814D01*
X0Y813D02*
X2Y813D01*
X132Y813D02*
X134Y813D01*
X188Y813D02*
X190Y813D01*
X201Y813D02*
X204Y813D01*
X294Y813D02*
X296Y813D01*
X393Y813D02*
X400Y813D01*
X0Y812D02*
X2Y812D01*
X132Y812D02*
X134Y812D01*
X188Y812D02*
X190Y812D01*
X201Y812D02*
X204Y812D01*
X294Y812D02*
X296Y812D01*
X393Y812D02*
X400Y812D01*
X0Y811D02*
X2Y811D01*
X132Y811D02*
X134Y811D01*
X188Y811D02*
X190Y811D01*
X201Y811D02*
X204Y811D01*
X294Y811D02*
X296Y811D01*
X393Y811D02*
X400Y811D01*
X0Y810D02*
X2Y810D01*
X132Y810D02*
X134Y810D01*
X188Y810D02*
X190Y810D01*
X201Y810D02*
X204Y810D01*
X294Y810D02*
X296Y810D01*
X393Y810D02*
X400Y810D01*
X0Y809D02*
X2Y809D01*
X132Y809D02*
X134Y809D01*
X188Y809D02*
X190Y809D01*
X201Y809D02*
X204Y809D01*
X294Y809D02*
X296Y809D01*
X393Y809D02*
X400Y809D01*
X0Y808D02*
X2Y808D01*
X132Y808D02*
X134Y808D01*
X188Y808D02*
X190Y808D01*
X201Y808D02*
X204Y808D01*
X294Y808D02*
X296Y808D01*
X393Y808D02*
X400Y808D01*
X0Y807D02*
X2Y807D01*
X132Y807D02*
X134Y807D01*
X188Y807D02*
X190Y807D01*
X201Y807D02*
X204Y807D01*
X294Y807D02*
X296Y807D01*
X393Y807D02*
X400Y807D01*
X0Y806D02*
X2Y806D01*
X132Y806D02*
X134Y806D01*
X188Y806D02*
X190Y806D01*
X201Y806D02*
X204Y806D01*
X294Y806D02*
X296Y806D01*
X393Y806D02*
X400Y806D01*
X0Y805D02*
X2Y805D01*
X132Y805D02*
X134Y805D01*
X188Y805D02*
X190Y805D01*
X201Y805D02*
X204Y805D01*
X294Y805D02*
X296Y805D01*
X393Y805D02*
X400Y805D01*
X0Y804D02*
X2Y804D01*
X132Y804D02*
X190Y804D01*
X201Y804D02*
X204Y804D01*
X294Y804D02*
X296Y804D01*
X393Y804D02*
X400Y804D01*
X0Y803D02*
X2Y803D01*
X132Y803D02*
X190Y803D01*
X201Y803D02*
X204Y803D01*
X294Y803D02*
X296Y803D01*
X393Y803D02*
X400Y803D01*
X0Y802D02*
X2Y802D01*
X132Y802D02*
X190Y802D01*
X201Y802D02*
X204Y802D01*
X294Y802D02*
X296Y802D01*
X393Y802D02*
X400Y802D01*
X0Y801D02*
X2Y801D01*
X201Y801D02*
X204Y801D01*
X294Y801D02*
X296Y801D01*
X393Y801D02*
X400Y801D01*
X0Y800D02*
X2Y800D01*
X201Y800D02*
X203Y800D01*
X294Y800D02*
X296Y800D01*
X393Y800D02*
X400Y800D01*
X0Y799D02*
X2Y799D01*
X201Y799D02*
X203Y799D01*
X294Y799D02*
X296Y799D01*
X393Y799D02*
X400Y799D01*
X0Y798D02*
X2Y798D01*
X201Y798D02*
X203Y798D01*
X294Y798D02*
X296Y798D01*
X393Y798D02*
X400Y798D01*
X0Y797D02*
X2Y797D01*
X201Y797D02*
X203Y797D01*
X294Y797D02*
X296Y797D01*
X393Y797D02*
X400Y797D01*
X0Y796D02*
X2Y796D01*
X201Y796D02*
X203Y796D01*
X294Y796D02*
X296Y796D01*
X393Y796D02*
X400Y796D01*
X0Y795D02*
X7Y795D01*
X201Y795D02*
X203Y795D01*
X294Y795D02*
X296Y795D01*
X393Y795D02*
X400Y795D01*
X0Y794D02*
X7Y794D01*
X201Y794D02*
X203Y794D01*
X294Y794D02*
X296Y794D01*
X393Y794D02*
X400Y794D01*
X0Y793D02*
X7Y793D01*
X201Y793D02*
X203Y793D01*
X294Y793D02*
X296Y793D01*
X393Y793D02*
X400Y793D01*
X0Y792D02*
X7Y792D01*
X201Y792D02*
X203Y792D01*
X294Y792D02*
X296Y792D01*
X393Y792D02*
X400Y792D01*
X0Y791D02*
X7Y791D01*
X201Y791D02*
X203Y791D01*
X294Y791D02*
X296Y791D01*
X393Y791D02*
X400Y791D01*
X0Y790D02*
X7Y790D01*
X201Y790D02*
X203Y790D01*
X294Y790D02*
X296Y790D01*
X393Y790D02*
X400Y790D01*
X0Y789D02*
X7Y789D01*
X201Y789D02*
X203Y789D01*
X294Y789D02*
X296Y789D01*
X393Y789D02*
X400Y789D01*
X0Y788D02*
X7Y788D01*
X201Y788D02*
X203Y788D01*
X294Y788D02*
X296Y788D01*
X393Y788D02*
X400Y788D01*
X0Y787D02*
X7Y787D01*
X201Y787D02*
X203Y787D01*
X294Y787D02*
X296Y787D01*
X393Y787D02*
X400Y787D01*
X0Y786D02*
X7Y786D01*
X201Y786D02*
X203Y786D01*
X294Y786D02*
X296Y786D01*
X393Y786D02*
X400Y786D01*
X0Y785D02*
X7Y785D01*
X201Y785D02*
X203Y785D01*
X294Y785D02*
X296Y785D01*
X393Y785D02*
X400Y785D01*
X0Y784D02*
X7Y784D01*
X201Y784D02*
X203Y784D01*
X294Y784D02*
X296Y784D01*
X393Y784D02*
X400Y784D01*
X0Y783D02*
X7Y783D01*
X201Y783D02*
X203Y783D01*
X294Y783D02*
X296Y783D01*
X393Y783D02*
X400Y783D01*
X0Y782D02*
X7Y782D01*
X201Y782D02*
X203Y782D01*
X294Y782D02*
X296Y782D01*
X393Y782D02*
X400Y782D01*
X0Y781D02*
X7Y781D01*
X201Y781D02*
X203Y781D01*
X294Y781D02*
X296Y781D01*
X393Y781D02*
X400Y781D01*
X0Y780D02*
X7Y780D01*
X201Y780D02*
X203Y780D01*
X294Y780D02*
X296Y780D01*
X393Y780D02*
X400Y780D01*
X0Y779D02*
X7Y779D01*
X201Y779D02*
X203Y779D01*
X294Y779D02*
X296Y779D01*
X393Y779D02*
X400Y779D01*
X0Y778D02*
X7Y778D01*
X201Y778D02*
X203Y778D01*
X294Y778D02*
X296Y778D01*
X393Y778D02*
X400Y778D01*
X0Y777D02*
X7Y777D01*
X201Y777D02*
X203Y777D01*
X294Y777D02*
X296Y777D01*
X393Y777D02*
X400Y777D01*
X0Y776D02*
X7Y776D01*
X201Y776D02*
X203Y776D01*
X294Y776D02*
X296Y776D01*
X393Y776D02*
X400Y776D01*
X0Y775D02*
X7Y775D01*
X201Y775D02*
X203Y775D01*
X294Y775D02*
X296Y775D01*
X393Y775D02*
X400Y775D01*
X0Y774D02*
X7Y774D01*
X201Y774D02*
X203Y774D01*
X294Y774D02*
X296Y774D01*
X393Y774D02*
X400Y774D01*
X0Y773D02*
X7Y773D01*
X201Y773D02*
X203Y773D01*
X294Y773D02*
X296Y773D01*
X393Y773D02*
X400Y773D01*
X0Y772D02*
X7Y772D01*
X201Y772D02*
X203Y772D01*
X294Y772D02*
X296Y772D01*
X393Y772D02*
X400Y772D01*
X0Y771D02*
X7Y771D01*
X201Y771D02*
X203Y771D01*
X294Y771D02*
X296Y771D01*
X393Y771D02*
X400Y771D01*
X0Y770D02*
X7Y770D01*
X201Y770D02*
X203Y770D01*
X294Y770D02*
X296Y770D01*
X393Y770D02*
X400Y770D01*
X0Y769D02*
X7Y769D01*
X201Y769D02*
X203Y769D01*
X294Y769D02*
X296Y769D01*
X393Y769D02*
X400Y769D01*
X0Y768D02*
X7Y768D01*
X201Y768D02*
X203Y768D01*
X294Y768D02*
X296Y768D01*
X393Y768D02*
X400Y768D01*
X0Y767D02*
X7Y767D01*
X201Y767D02*
X203Y767D01*
X294Y767D02*
X296Y767D01*
X393Y767D02*
X400Y767D01*
X0Y766D02*
X7Y766D01*
X201Y766D02*
X203Y766D01*
X294Y766D02*
X296Y766D01*
X393Y766D02*
X400Y766D01*
X0Y765D02*
X7Y765D01*
X201Y765D02*
X203Y765D01*
X294Y765D02*
X296Y765D01*
X393Y765D02*
X400Y765D01*
X0Y764D02*
X7Y764D01*
X201Y764D02*
X203Y764D01*
X294Y764D02*
X296Y764D01*
X393Y764D02*
X400Y764D01*
X0Y763D02*
X7Y763D01*
X201Y763D02*
X203Y763D01*
X294Y763D02*
X296Y763D01*
X393Y763D02*
X400Y763D01*
X0Y762D02*
X7Y762D01*
X201Y762D02*
X203Y762D01*
X294Y762D02*
X296Y762D01*
X393Y762D02*
X400Y762D01*
X0Y761D02*
X7Y761D01*
X201Y761D02*
X203Y761D01*
X294Y761D02*
X296Y761D01*
X393Y761D02*
X400Y761D01*
X0Y760D02*
X7Y760D01*
X201Y760D02*
X203Y760D01*
X294Y760D02*
X296Y760D01*
X393Y760D02*
X400Y760D01*
X0Y759D02*
X7Y759D01*
X201Y759D02*
X203Y759D01*
X294Y759D02*
X296Y759D01*
X393Y759D02*
X400Y759D01*
X0Y758D02*
X7Y758D01*
X201Y758D02*
X203Y758D01*
X294Y758D02*
X296Y758D01*
X0Y757D02*
X7Y757D01*
X201Y757D02*
X203Y757D01*
X294Y757D02*
X296Y757D01*
X0Y756D02*
X7Y756D01*
X201Y756D02*
X203Y756D01*
X294Y756D02*
X296Y756D01*
X0Y755D02*
X7Y755D01*
X201Y755D02*
X203Y755D01*
X294Y755D02*
X296Y755D01*
X0Y754D02*
X7Y754D01*
X201Y754D02*
X203Y754D01*
X294Y754D02*
X296Y754D01*
X0Y753D02*
X7Y753D01*
X201Y753D02*
X203Y753D01*
X294Y753D02*
X296Y753D01*
X0Y752D02*
X7Y752D01*
X201Y752D02*
X203Y752D01*
X294Y752D02*
X296Y752D01*
X382Y752D02*
X400Y752D01*
X0Y751D02*
X7Y751D01*
X201Y751D02*
X203Y751D01*
X294Y751D02*
X296Y751D01*
X381Y751D02*
X383Y751D01*
X393Y751D02*
X400Y751D01*
X0Y750D02*
X7Y750D01*
X201Y750D02*
X203Y750D01*
X294Y750D02*
X296Y750D01*
X380Y750D02*
X383Y750D01*
X393Y750D02*
X400Y750D01*
X0Y749D02*
X7Y749D01*
X201Y749D02*
X203Y749D01*
X294Y749D02*
X296Y749D01*
X379Y749D02*
X383Y749D01*
X393Y749D02*
X400Y749D01*
X0Y748D02*
X7Y748D01*
X201Y748D02*
X203Y748D01*
X294Y748D02*
X296Y748D01*
X377Y748D02*
X383Y748D01*
X393Y748D02*
X400Y748D01*
X0Y747D02*
X7Y747D01*
X201Y747D02*
X203Y747D01*
X294Y747D02*
X296Y747D01*
X377Y747D02*
X383Y747D01*
X393Y747D02*
X400Y747D01*
X0Y746D02*
X7Y746D01*
X201Y746D02*
X203Y746D01*
X294Y746D02*
X296Y746D01*
X377Y746D02*
X383Y746D01*
X393Y746D02*
X400Y746D01*
X0Y745D02*
X7Y745D01*
X201Y745D02*
X203Y745D01*
X294Y745D02*
X296Y745D01*
X377Y745D02*
X383Y745D01*
X393Y745D02*
X400Y745D01*
X0Y744D02*
X7Y744D01*
X201Y744D02*
X203Y744D01*
X294Y744D02*
X296Y744D01*
X377Y744D02*
X383Y744D01*
X393Y744D02*
X400Y744D01*
X0Y743D02*
X7Y743D01*
X201Y743D02*
X203Y743D01*
X293Y743D02*
X325Y743D01*
X370Y743D02*
X400Y743D01*
X0Y742D02*
X7Y742D01*
X129Y742D02*
X187Y742D01*
X201Y742D02*
X203Y742D01*
X293Y742D02*
X327Y742D01*
X368Y742D02*
X400Y742D01*
X0Y741D02*
X7Y741D01*
X129Y741D02*
X187Y741D01*
X201Y741D02*
X329Y741D01*
X366Y741D02*
X400Y741D01*
X0Y740D02*
X7Y740D01*
X129Y740D02*
X187Y740D01*
X201Y740D02*
X332Y740D01*
X364Y740D02*
X400Y740D01*
X0Y739D02*
X7Y739D01*
X129Y739D02*
X131Y739D01*
X185Y739D02*
X187Y739D01*
X201Y739D02*
X296Y739D01*
X377Y739D02*
X383Y739D01*
X391Y739D02*
X400Y739D01*
X0Y738D02*
X7Y738D01*
X129Y738D02*
X131Y738D01*
X185Y738D02*
X187Y738D01*
X201Y738D02*
X203Y738D01*
X392Y738D02*
X400Y738D01*
X0Y737D02*
X7Y737D01*
X129Y737D02*
X131Y737D01*
X185Y737D02*
X187Y737D01*
X201Y737D02*
X203Y737D01*
X392Y737D02*
X400Y737D01*
X0Y736D02*
X7Y736D01*
X129Y736D02*
X131Y736D01*
X185Y736D02*
X187Y736D01*
X201Y736D02*
X203Y736D01*
X392Y736D02*
X400Y736D01*
X0Y735D02*
X7Y735D01*
X129Y735D02*
X131Y735D01*
X185Y735D02*
X187Y735D01*
X201Y735D02*
X203Y735D01*
X392Y735D02*
X400Y735D01*
X0Y734D02*
X7Y734D01*
X129Y734D02*
X131Y734D01*
X185Y734D02*
X187Y734D01*
X201Y734D02*
X203Y734D01*
X392Y734D02*
X401Y734D01*
X0Y733D02*
X7Y733D01*
X129Y733D02*
X131Y733D01*
X185Y733D02*
X187Y733D01*
X201Y733D02*
X203Y733D01*
X0Y732D02*
X7Y732D01*
X129Y732D02*
X131Y732D01*
X185Y732D02*
X187Y732D01*
X201Y732D02*
X203Y732D01*
X0Y731D02*
X7Y731D01*
X129Y731D02*
X131Y731D01*
X185Y731D02*
X187Y731D01*
X201Y731D02*
X203Y731D01*
X0Y730D02*
X7Y730D01*
X129Y730D02*
X131Y730D01*
X185Y730D02*
X187Y730D01*
X201Y730D02*
X203Y730D01*
X0Y729D02*
X7Y729D01*
X129Y729D02*
X131Y729D01*
X185Y729D02*
X187Y729D01*
X201Y729D02*
X203Y729D01*
X325Y729D02*
X328Y729D01*
X0Y728D02*
X7Y728D01*
X129Y728D02*
X131Y728D01*
X185Y728D02*
X187Y728D01*
X201Y728D02*
X203Y728D01*
X324Y728D02*
X329Y728D01*
X0Y727D02*
X7Y727D01*
X129Y727D02*
X131Y727D01*
X185Y727D02*
X187Y727D01*
X201Y727D02*
X203Y727D01*
X324Y727D02*
X329Y727D01*
X0Y726D02*
X7Y726D01*
X129Y726D02*
X131Y726D01*
X185Y726D02*
X187Y726D01*
X201Y726D02*
X203Y726D01*
X323Y726D02*
X329Y726D01*
X0Y725D02*
X7Y725D01*
X129Y725D02*
X131Y725D01*
X185Y725D02*
X187Y725D01*
X201Y725D02*
X203Y725D01*
X323Y725D02*
X329Y725D01*
X0Y724D02*
X7Y724D01*
X129Y724D02*
X131Y724D01*
X185Y724D02*
X187Y724D01*
X201Y724D02*
X203Y724D01*
X323Y724D02*
X329Y724D01*
X0Y723D02*
X7Y723D01*
X129Y723D02*
X131Y723D01*
X185Y723D02*
X187Y723D01*
X201Y723D02*
X203Y723D01*
X323Y723D02*
X329Y723D01*
X0Y722D02*
X7Y722D01*
X129Y722D02*
X131Y722D01*
X185Y722D02*
X187Y722D01*
X201Y722D02*
X203Y722D01*
X323Y722D02*
X329Y722D01*
X0Y721D02*
X7Y721D01*
X129Y721D02*
X131Y721D01*
X185Y721D02*
X187Y721D01*
X201Y721D02*
X203Y721D01*
X323Y721D02*
X329Y721D01*
X0Y720D02*
X7Y720D01*
X129Y720D02*
X131Y720D01*
X185Y720D02*
X187Y720D01*
X201Y720D02*
X203Y720D01*
X323Y720D02*
X329Y720D01*
X0Y719D02*
X7Y719D01*
X129Y719D02*
X131Y719D01*
X185Y719D02*
X187Y719D01*
X201Y719D02*
X203Y719D01*
X323Y719D02*
X329Y719D01*
X0Y718D02*
X7Y718D01*
X129Y718D02*
X131Y718D01*
X185Y718D02*
X187Y718D01*
X201Y718D02*
X203Y718D01*
X323Y718D02*
X329Y718D01*
X0Y717D02*
X7Y717D01*
X129Y717D02*
X131Y717D01*
X185Y717D02*
X187Y717D01*
X201Y717D02*
X203Y717D01*
X323Y717D02*
X329Y717D01*
X0Y716D02*
X7Y716D01*
X129Y716D02*
X131Y716D01*
X185Y716D02*
X187Y716D01*
X201Y716D02*
X203Y716D01*
X323Y716D02*
X329Y716D01*
X0Y715D02*
X7Y715D01*
X129Y715D02*
X131Y715D01*
X185Y715D02*
X187Y715D01*
X201Y715D02*
X203Y715D01*
X323Y715D02*
X330Y715D01*
X0Y714D02*
X7Y714D01*
X129Y714D02*
X131Y714D01*
X185Y714D02*
X187Y714D01*
X201Y714D02*
X203Y714D01*
X324Y714D02*
X330Y714D01*
X0Y713D02*
X7Y713D01*
X129Y713D02*
X131Y713D01*
X185Y713D02*
X187Y713D01*
X201Y713D02*
X203Y713D01*
X324Y713D02*
X330Y713D01*
X0Y712D02*
X7Y712D01*
X129Y712D02*
X131Y712D01*
X185Y712D02*
X187Y712D01*
X201Y712D02*
X203Y712D01*
X324Y712D02*
X331Y712D01*
X0Y711D02*
X7Y711D01*
X129Y711D02*
X131Y711D01*
X185Y711D02*
X187Y711D01*
X201Y711D02*
X203Y711D01*
X324Y711D02*
X331Y711D01*
X0Y710D02*
X7Y710D01*
X129Y710D02*
X131Y710D01*
X185Y710D02*
X187Y710D01*
X201Y710D02*
X203Y710D01*
X325Y710D02*
X331Y710D01*
X0Y709D02*
X7Y709D01*
X129Y709D02*
X131Y709D01*
X185Y709D02*
X187Y709D01*
X201Y709D02*
X203Y709D01*
X326Y709D02*
X331Y709D01*
X0Y708D02*
X7Y708D01*
X129Y708D02*
X131Y708D01*
X185Y708D02*
X187Y708D01*
X201Y708D02*
X203Y708D01*
X327Y708D02*
X331Y708D01*
X0Y707D02*
X7Y707D01*
X129Y707D02*
X131Y707D01*
X185Y707D02*
X187Y707D01*
X201Y707D02*
X203Y707D01*
X328Y707D02*
X331Y707D01*
X0Y706D02*
X7Y706D01*
X129Y706D02*
X131Y706D01*
X185Y706D02*
X187Y706D01*
X201Y706D02*
X203Y706D01*
X329Y706D02*
X331Y706D01*
X392Y706D02*
X400Y706D01*
X0Y705D02*
X7Y705D01*
X129Y705D02*
X131Y705D01*
X185Y705D02*
X187Y705D01*
X201Y705D02*
X203Y705D01*
X392Y705D02*
X400Y705D01*
X0Y704D02*
X7Y704D01*
X129Y704D02*
X131Y704D01*
X185Y704D02*
X187Y704D01*
X201Y704D02*
X203Y704D01*
X392Y704D02*
X400Y704D01*
X0Y703D02*
X7Y703D01*
X129Y703D02*
X131Y703D01*
X185Y703D02*
X187Y703D01*
X201Y703D02*
X203Y703D01*
X392Y703D02*
X400Y703D01*
X0Y702D02*
X7Y702D01*
X129Y702D02*
X131Y702D01*
X185Y702D02*
X187Y702D01*
X201Y702D02*
X203Y702D01*
X392Y702D02*
X400Y702D01*
X0Y701D02*
X7Y701D01*
X129Y701D02*
X131Y701D01*
X185Y701D02*
X187Y701D01*
X201Y701D02*
X203Y701D01*
X392Y701D02*
X400Y701D01*
X0Y700D02*
X7Y700D01*
X129Y700D02*
X131Y700D01*
X185Y700D02*
X203Y700D01*
X392Y700D02*
X400Y700D01*
X0Y699D02*
X7Y699D01*
X129Y699D02*
X131Y699D01*
X185Y699D02*
X203Y699D01*
X392Y699D02*
X400Y699D01*
X0Y698D02*
X7Y698D01*
X129Y698D02*
X131Y698D01*
X185Y698D02*
X203Y698D01*
X392Y698D02*
X400Y698D01*
X0Y697D02*
X7Y697D01*
X129Y697D02*
X131Y697D01*
X185Y697D02*
X203Y697D01*
X392Y697D02*
X400Y697D01*
X0Y696D02*
X7Y696D01*
X129Y696D02*
X131Y696D01*
X185Y696D02*
X187Y696D01*
X201Y696D02*
X203Y696D01*
X392Y696D02*
X400Y696D01*
X0Y695D02*
X7Y695D01*
X129Y695D02*
X131Y695D01*
X185Y695D02*
X187Y695D01*
X201Y695D02*
X203Y695D01*
X392Y695D02*
X400Y695D01*
X0Y694D02*
X7Y694D01*
X129Y694D02*
X131Y694D01*
X185Y694D02*
X187Y694D01*
X201Y694D02*
X203Y694D01*
X392Y694D02*
X400Y694D01*
X0Y693D02*
X7Y693D01*
X129Y693D02*
X131Y693D01*
X185Y693D02*
X187Y693D01*
X201Y693D02*
X203Y693D01*
X392Y693D02*
X400Y693D01*
X0Y692D02*
X7Y692D01*
X129Y692D02*
X131Y692D01*
X185Y692D02*
X187Y692D01*
X201Y692D02*
X203Y692D01*
X392Y692D02*
X400Y692D01*
X0Y691D02*
X7Y691D01*
X129Y691D02*
X131Y691D01*
X185Y691D02*
X187Y691D01*
X201Y691D02*
X203Y691D01*
X392Y691D02*
X400Y691D01*
X0Y690D02*
X7Y690D01*
X129Y690D02*
X131Y690D01*
X185Y690D02*
X187Y690D01*
X201Y690D02*
X203Y690D01*
X392Y690D02*
X400Y690D01*
X0Y689D02*
X7Y689D01*
X129Y689D02*
X131Y689D01*
X185Y689D02*
X187Y689D01*
X201Y689D02*
X203Y689D01*
X392Y689D02*
X400Y689D01*
X0Y688D02*
X7Y688D01*
X129Y688D02*
X131Y688D01*
X185Y688D02*
X187Y688D01*
X201Y688D02*
X203Y688D01*
X392Y688D02*
X400Y688D01*
X0Y687D02*
X7Y687D01*
X129Y687D02*
X131Y687D01*
X185Y687D02*
X187Y687D01*
X201Y687D02*
X203Y687D01*
X392Y687D02*
X400Y687D01*
X0Y686D02*
X7Y686D01*
X129Y686D02*
X131Y686D01*
X185Y686D02*
X187Y686D01*
X201Y686D02*
X203Y686D01*
X392Y686D02*
X400Y686D01*
X0Y685D02*
X7Y685D01*
X129Y685D02*
X131Y685D01*
X185Y685D02*
X187Y685D01*
X201Y685D02*
X203Y685D01*
X392Y685D02*
X400Y685D01*
X0Y684D02*
X7Y684D01*
X129Y684D02*
X131Y684D01*
X185Y684D02*
X187Y684D01*
X201Y684D02*
X203Y684D01*
X392Y684D02*
X400Y684D01*
X0Y683D02*
X7Y683D01*
X129Y683D02*
X131Y683D01*
X185Y683D02*
X187Y683D01*
X201Y683D02*
X203Y683D01*
X392Y683D02*
X400Y683D01*
X0Y682D02*
X7Y682D01*
X129Y682D02*
X132Y682D01*
X184Y682D02*
X187Y682D01*
X201Y682D02*
X203Y682D01*
X392Y682D02*
X400Y682D01*
X0Y681D02*
X7Y681D01*
X129Y681D02*
X132Y681D01*
X184Y681D02*
X187Y681D01*
X201Y681D02*
X203Y681D01*
X392Y681D02*
X400Y681D01*
X0Y680D02*
X7Y680D01*
X129Y680D02*
X132Y680D01*
X184Y680D02*
X187Y680D01*
X201Y680D02*
X203Y680D01*
X392Y680D02*
X400Y680D01*
X0Y679D02*
X7Y679D01*
X129Y679D02*
X132Y679D01*
X184Y679D02*
X187Y679D01*
X201Y679D02*
X203Y679D01*
X392Y679D02*
X400Y679D01*
X0Y678D02*
X7Y678D01*
X129Y678D02*
X132Y678D01*
X184Y678D02*
X194Y678D01*
X201Y678D02*
X203Y678D01*
X392Y678D02*
X400Y678D01*
X0Y677D02*
X7Y677D01*
X129Y677D02*
X132Y677D01*
X184Y677D02*
X195Y677D01*
X201Y677D02*
X203Y677D01*
X392Y677D02*
X400Y677D01*
X0Y676D02*
X7Y676D01*
X129Y676D02*
X132Y676D01*
X184Y676D02*
X196Y676D01*
X201Y676D02*
X203Y676D01*
X392Y676D02*
X400Y676D01*
X0Y675D02*
X7Y675D01*
X129Y675D02*
X132Y675D01*
X184Y675D02*
X197Y675D01*
X201Y675D02*
X203Y675D01*
X392Y675D02*
X400Y675D01*
X0Y674D02*
X7Y674D01*
X129Y674D02*
X132Y674D01*
X184Y674D02*
X187Y674D01*
X193Y674D02*
X197Y674D01*
X201Y674D02*
X203Y674D01*
X392Y674D02*
X400Y674D01*
X0Y673D02*
X7Y673D01*
X129Y673D02*
X131Y673D01*
X184Y673D02*
X187Y673D01*
X194Y673D02*
X197Y673D01*
X201Y673D02*
X203Y673D01*
X392Y673D02*
X400Y673D01*
X0Y672D02*
X7Y672D01*
X129Y672D02*
X131Y672D01*
X185Y672D02*
X187Y672D01*
X194Y672D02*
X197Y672D01*
X201Y672D02*
X203Y672D01*
X392Y672D02*
X400Y672D01*
X0Y671D02*
X7Y671D01*
X129Y671D02*
X131Y671D01*
X185Y671D02*
X187Y671D01*
X194Y671D02*
X197Y671D01*
X200Y671D02*
X203Y671D01*
X392Y671D02*
X400Y671D01*
X0Y670D02*
X7Y670D01*
X129Y670D02*
X131Y670D01*
X185Y670D02*
X187Y670D01*
X194Y670D02*
X203Y670D01*
X392Y670D02*
X400Y670D01*
X0Y669D02*
X7Y669D01*
X129Y669D02*
X131Y669D01*
X185Y669D02*
X187Y669D01*
X194Y669D02*
X203Y669D01*
X392Y669D02*
X400Y669D01*
X0Y668D02*
X7Y668D01*
X129Y668D02*
X131Y668D01*
X185Y668D02*
X187Y668D01*
X194Y668D02*
X203Y668D01*
X392Y668D02*
X400Y668D01*
X0Y667D02*
X7Y667D01*
X129Y667D02*
X131Y667D01*
X185Y667D02*
X187Y667D01*
X194Y667D02*
X203Y667D01*
X392Y667D02*
X400Y667D01*
X0Y666D02*
X7Y666D01*
X129Y666D02*
X131Y666D01*
X185Y666D02*
X187Y666D01*
X194Y666D02*
X198Y666D01*
X201Y666D02*
X203Y666D01*
X392Y666D02*
X400Y666D01*
X0Y665D02*
X7Y665D01*
X129Y665D02*
X131Y665D01*
X185Y665D02*
X187Y665D01*
X194Y665D02*
X197Y665D01*
X201Y665D02*
X203Y665D01*
X392Y665D02*
X400Y665D01*
X0Y664D02*
X7Y664D01*
X129Y664D02*
X131Y664D01*
X185Y664D02*
X187Y664D01*
X194Y664D02*
X197Y664D01*
X201Y664D02*
X203Y664D01*
X392Y664D02*
X400Y664D01*
X0Y663D02*
X7Y663D01*
X129Y663D02*
X131Y663D01*
X185Y663D02*
X187Y663D01*
X194Y663D02*
X197Y663D01*
X201Y663D02*
X203Y663D01*
X392Y663D02*
X400Y663D01*
X0Y662D02*
X7Y662D01*
X129Y662D02*
X131Y662D01*
X185Y662D02*
X203Y662D01*
X392Y662D02*
X400Y662D01*
X0Y661D02*
X7Y661D01*
X129Y661D02*
X131Y661D01*
X185Y661D02*
X203Y661D01*
X392Y661D02*
X400Y661D01*
X0Y660D02*
X7Y660D01*
X129Y660D02*
X131Y660D01*
X185Y660D02*
X203Y660D01*
X392Y660D02*
X400Y660D01*
X0Y659D02*
X7Y659D01*
X129Y659D02*
X131Y659D01*
X185Y659D02*
X203Y659D01*
X392Y659D02*
X400Y659D01*
X0Y658D02*
X7Y658D01*
X129Y658D02*
X131Y658D01*
X185Y658D02*
X187Y658D01*
X201Y658D02*
X203Y658D01*
X392Y658D02*
X400Y658D01*
X0Y657D02*
X7Y657D01*
X129Y657D02*
X131Y657D01*
X185Y657D02*
X187Y657D01*
X201Y657D02*
X203Y657D01*
X392Y657D02*
X400Y657D01*
X0Y656D02*
X7Y656D01*
X129Y656D02*
X131Y656D01*
X185Y656D02*
X187Y656D01*
X201Y656D02*
X203Y656D01*
X392Y656D02*
X400Y656D01*
X0Y655D02*
X7Y655D01*
X129Y655D02*
X131Y655D01*
X185Y655D02*
X187Y655D01*
X201Y655D02*
X203Y655D01*
X392Y655D02*
X400Y655D01*
X0Y654D02*
X7Y654D01*
X129Y654D02*
X131Y654D01*
X185Y654D02*
X187Y654D01*
X201Y654D02*
X203Y654D01*
X392Y654D02*
X400Y654D01*
X0Y653D02*
X7Y653D01*
X129Y653D02*
X131Y653D01*
X185Y653D02*
X187Y653D01*
X201Y653D02*
X203Y653D01*
X392Y653D02*
X400Y653D01*
X0Y652D02*
X7Y652D01*
X129Y652D02*
X131Y652D01*
X185Y652D02*
X187Y652D01*
X201Y652D02*
X203Y652D01*
X392Y652D02*
X400Y652D01*
X0Y651D02*
X7Y651D01*
X129Y651D02*
X131Y651D01*
X185Y651D02*
X187Y651D01*
X201Y651D02*
X203Y651D01*
X392Y651D02*
X400Y651D01*
X0Y650D02*
X7Y650D01*
X129Y650D02*
X131Y650D01*
X185Y650D02*
X187Y650D01*
X201Y650D02*
X204Y650D01*
X263Y650D02*
X332Y650D01*
X391Y650D02*
X400Y650D01*
X0Y649D02*
X7Y649D01*
X129Y649D02*
X131Y649D01*
X185Y649D02*
X187Y649D01*
X201Y649D02*
X223Y649D01*
X261Y649D02*
X400Y649D01*
X0Y648D02*
X7Y648D01*
X129Y648D02*
X131Y648D01*
X185Y648D02*
X187Y648D01*
X201Y648D02*
X221Y648D01*
X263Y648D02*
X400Y648D01*
X0Y647D02*
X7Y647D01*
X129Y647D02*
X131Y647D01*
X185Y647D02*
X187Y647D01*
X393Y647D02*
X400Y647D01*
X0Y646D02*
X7Y646D01*
X129Y646D02*
X131Y646D01*
X185Y646D02*
X187Y646D01*
X393Y646D02*
X400Y646D01*
X0Y645D02*
X7Y645D01*
X129Y645D02*
X131Y645D01*
X185Y645D02*
X187Y645D01*
X393Y645D02*
X400Y645D01*
X0Y644D02*
X7Y644D01*
X129Y644D02*
X131Y644D01*
X185Y644D02*
X187Y644D01*
X393Y644D02*
X400Y644D01*
X0Y643D02*
X7Y643D01*
X129Y643D02*
X131Y643D01*
X185Y643D02*
X187Y643D01*
X393Y643D02*
X400Y643D01*
X0Y642D02*
X7Y642D01*
X129Y642D02*
X131Y642D01*
X185Y642D02*
X187Y642D01*
X393Y642D02*
X400Y642D01*
X0Y641D02*
X7Y641D01*
X129Y641D02*
X131Y641D01*
X185Y641D02*
X187Y641D01*
X393Y641D02*
X400Y641D01*
X0Y640D02*
X7Y640D01*
X129Y640D02*
X131Y640D01*
X185Y640D02*
X187Y640D01*
X393Y640D02*
X400Y640D01*
X0Y639D02*
X7Y639D01*
X129Y639D02*
X131Y639D01*
X185Y639D02*
X187Y639D01*
X393Y639D02*
X400Y639D01*
X0Y638D02*
X7Y638D01*
X129Y638D02*
X131Y638D01*
X185Y638D02*
X187Y638D01*
X393Y638D02*
X400Y638D01*
X0Y637D02*
X7Y637D01*
X129Y637D02*
X131Y637D01*
X185Y637D02*
X187Y637D01*
X393Y637D02*
X400Y637D01*
X0Y636D02*
X7Y636D01*
X129Y636D02*
X131Y636D01*
X185Y636D02*
X187Y636D01*
X393Y636D02*
X400Y636D01*
X0Y635D02*
X7Y635D01*
X129Y635D02*
X131Y635D01*
X185Y635D02*
X187Y635D01*
X393Y635D02*
X400Y635D01*
X0Y634D02*
X7Y634D01*
X129Y634D02*
X131Y634D01*
X185Y634D02*
X187Y634D01*
X393Y634D02*
X400Y634D01*
X0Y633D02*
X7Y633D01*
X129Y633D02*
X131Y633D01*
X185Y633D02*
X187Y633D01*
X393Y633D02*
X400Y633D01*
X0Y632D02*
X7Y632D01*
X129Y632D02*
X131Y632D01*
X185Y632D02*
X187Y632D01*
X393Y632D02*
X400Y632D01*
X0Y631D02*
X7Y631D01*
X129Y631D02*
X131Y631D01*
X185Y631D02*
X187Y631D01*
X393Y631D02*
X400Y631D01*
X0Y630D02*
X7Y630D01*
X129Y630D02*
X131Y630D01*
X185Y630D02*
X187Y630D01*
X393Y630D02*
X400Y630D01*
X0Y629D02*
X7Y629D01*
X129Y629D02*
X131Y629D01*
X185Y629D02*
X187Y629D01*
X393Y629D02*
X400Y629D01*
X0Y628D02*
X7Y628D01*
X129Y628D02*
X131Y628D01*
X185Y628D02*
X187Y628D01*
X393Y628D02*
X400Y628D01*
X0Y627D02*
X7Y627D01*
X129Y627D02*
X131Y627D01*
X185Y627D02*
X187Y627D01*
X393Y627D02*
X400Y627D01*
X0Y626D02*
X7Y626D01*
X129Y626D02*
X131Y626D01*
X185Y626D02*
X187Y626D01*
X393Y626D02*
X400Y626D01*
X0Y625D02*
X7Y625D01*
X129Y625D02*
X131Y625D01*
X185Y625D02*
X187Y625D01*
X393Y625D02*
X400Y625D01*
X0Y624D02*
X7Y624D01*
X129Y624D02*
X131Y624D01*
X185Y624D02*
X187Y624D01*
X393Y624D02*
X400Y624D01*
X0Y623D02*
X7Y623D01*
X129Y623D02*
X131Y623D01*
X185Y623D02*
X187Y623D01*
X393Y623D02*
X400Y623D01*
X0Y622D02*
X7Y622D01*
X129Y622D02*
X131Y622D01*
X185Y622D02*
X187Y622D01*
X393Y622D02*
X400Y622D01*
X0Y621D02*
X7Y621D01*
X129Y621D02*
X131Y621D01*
X185Y621D02*
X187Y621D01*
X393Y621D02*
X400Y621D01*
X0Y620D02*
X7Y620D01*
X129Y620D02*
X131Y620D01*
X185Y620D02*
X187Y620D01*
X393Y620D02*
X400Y620D01*
X0Y619D02*
X7Y619D01*
X129Y619D02*
X131Y619D01*
X185Y619D02*
X187Y619D01*
X393Y619D02*
X400Y619D01*
X0Y618D02*
X7Y618D01*
X129Y618D02*
X131Y618D01*
X185Y618D02*
X187Y618D01*
X393Y618D02*
X400Y618D01*
X0Y617D02*
X7Y617D01*
X129Y617D02*
X131Y617D01*
X185Y617D02*
X187Y617D01*
X393Y617D02*
X400Y617D01*
X0Y616D02*
X7Y616D01*
X129Y616D02*
X131Y616D01*
X185Y616D02*
X187Y616D01*
X393Y616D02*
X400Y616D01*
X0Y615D02*
X7Y615D01*
X129Y615D02*
X187Y615D01*
X393Y615D02*
X400Y615D01*
X0Y614D02*
X7Y614D01*
X129Y614D02*
X187Y614D01*
X393Y614D02*
X400Y614D01*
X0Y613D02*
X7Y613D01*
X129Y613D02*
X186Y613D01*
X393Y613D02*
X400Y613D01*
X0Y612D02*
X7Y612D01*
X393Y612D02*
X400Y612D01*
X0Y611D02*
X7Y611D01*
X393Y611D02*
X400Y611D01*
X0Y610D02*
X7Y610D01*
X393Y610D02*
X400Y610D01*
X0Y609D02*
X7Y609D01*
X91Y609D02*
X92Y609D01*
X393Y609D02*
X400Y609D01*
X0Y608D02*
X7Y608D01*
X89Y608D02*
X92Y608D01*
X393Y608D02*
X400Y608D01*
X0Y607D02*
X7Y607D01*
X89Y607D02*
X92Y607D01*
X393Y607D02*
X400Y607D01*
X0Y606D02*
X7Y606D01*
X46Y606D02*
X47Y606D01*
X89Y606D02*
X92Y606D01*
X393Y606D02*
X400Y606D01*
X0Y605D02*
X7Y605D01*
X46Y605D02*
X49Y605D01*
X89Y605D02*
X92Y605D01*
X393Y605D02*
X400Y605D01*
X0Y604D02*
X7Y604D01*
X46Y604D02*
X49Y604D01*
X89Y604D02*
X92Y604D01*
X393Y604D02*
X400Y604D01*
X0Y603D02*
X7Y603D01*
X46Y603D02*
X49Y603D01*
X55Y603D02*
X56Y603D01*
X89Y603D02*
X92Y603D01*
X393Y603D02*
X400Y603D01*
X0Y602D02*
X7Y602D01*
X46Y602D02*
X49Y602D01*
X54Y602D02*
X58Y602D01*
X89Y602D02*
X92Y602D01*
X393Y602D02*
X400Y602D01*
X0Y601D02*
X7Y601D01*
X46Y601D02*
X49Y601D01*
X54Y601D02*
X58Y601D01*
X89Y601D02*
X92Y601D01*
X393Y601D02*
X400Y601D01*
X0Y600D02*
X7Y600D01*
X46Y600D02*
X49Y600D01*
X53Y600D02*
X57Y600D01*
X89Y600D02*
X92Y600D01*
X393Y600D02*
X400Y600D01*
X0Y599D02*
X7Y599D01*
X43Y599D02*
X57Y599D01*
X73Y599D02*
X92Y599D01*
X393Y599D02*
X400Y599D01*
X0Y598D02*
X7Y598D01*
X42Y598D02*
X56Y598D01*
X72Y598D02*
X91Y598D01*
X393Y598D02*
X400Y598D01*
X0Y597D02*
X7Y597D01*
X42Y597D02*
X55Y597D01*
X72Y597D02*
X91Y597D01*
X393Y597D02*
X400Y597D01*
X0Y596D02*
X7Y596D01*
X43Y596D02*
X54Y596D01*
X73Y596D02*
X90Y596D01*
X393Y596D02*
X400Y596D01*
X0Y595D02*
X7Y595D01*
X393Y595D02*
X400Y595D01*
X0Y594D02*
X7Y594D01*
X393Y594D02*
X400Y594D01*
X0Y593D02*
X7Y593D01*
X393Y593D02*
X400Y593D01*
X0Y592D02*
X7Y592D01*
X393Y592D02*
X400Y592D01*
X0Y591D02*
X7Y591D01*
X393Y591D02*
X400Y591D01*
X0Y590D02*
X7Y590D01*
X393Y590D02*
X400Y590D01*
X0Y589D02*
X7Y589D01*
X393Y589D02*
X400Y589D01*
X0Y588D02*
X7Y588D01*
X393Y588D02*
X400Y588D01*
X0Y587D02*
X7Y587D01*
X393Y587D02*
X400Y587D01*
X0Y586D02*
X7Y586D01*
X393Y586D02*
X400Y586D01*
X0Y585D02*
X7Y585D01*
X393Y585D02*
X400Y585D01*
X0Y584D02*
X7Y584D01*
X393Y584D02*
X400Y584D01*
X0Y583D02*
X7Y583D01*
X393Y583D02*
X400Y583D01*
X0Y582D02*
X7Y582D01*
X393Y582D02*
X400Y582D01*
X0Y581D02*
X7Y581D01*
X393Y581D02*
X400Y581D01*
X0Y580D02*
X7Y580D01*
X393Y580D02*
X400Y580D01*
X0Y579D02*
X7Y579D01*
X393Y579D02*
X400Y579D01*
X0Y578D02*
X7Y578D01*
X393Y578D02*
X400Y578D01*
X0Y577D02*
X7Y577D01*
X393Y577D02*
X400Y577D01*
X0Y576D02*
X7Y576D01*
X393Y576D02*
X400Y576D01*
X0Y575D02*
X7Y575D01*
X393Y575D02*
X400Y575D01*
X0Y574D02*
X7Y574D01*
X393Y574D02*
X400Y574D01*
X0Y573D02*
X7Y573D01*
X393Y573D02*
X400Y573D01*
X0Y572D02*
X7Y572D01*
X393Y572D02*
X400Y572D01*
X0Y571D02*
X7Y571D01*
X393Y571D02*
X400Y571D01*
X0Y570D02*
X7Y570D01*
X393Y570D02*
X400Y570D01*
X0Y569D02*
X7Y569D01*
X393Y569D02*
X400Y569D01*
X0Y568D02*
X7Y568D01*
X393Y568D02*
X400Y568D01*
X0Y567D02*
X7Y567D01*
X393Y567D02*
X400Y567D01*
X0Y566D02*
X7Y566D01*
X393Y566D02*
X400Y566D01*
X0Y565D02*
X7Y565D01*
X393Y565D02*
X400Y565D01*
X0Y564D02*
X7Y564D01*
X178Y564D02*
X185Y564D01*
X393Y564D02*
X400Y564D01*
X0Y563D02*
X7Y563D01*
X178Y563D02*
X186Y563D01*
X393Y563D02*
X400Y563D01*
X0Y562D02*
X7Y562D01*
X178Y562D02*
X186Y562D01*
X393Y562D02*
X400Y562D01*
X0Y561D02*
X7Y561D01*
X178Y561D02*
X186Y561D01*
X393Y561D02*
X400Y561D01*
X0Y560D02*
X7Y560D01*
X178Y560D02*
X186Y560D01*
X393Y560D02*
X400Y560D01*
X0Y559D02*
X7Y559D01*
X178Y559D02*
X186Y559D01*
X393Y559D02*
X400Y559D01*
X0Y558D02*
X7Y558D01*
X178Y558D02*
X185Y558D01*
X393Y558D02*
X400Y558D01*
X0Y557D02*
X7Y557D01*
X393Y557D02*
X400Y557D01*
X0Y556D02*
X7Y556D01*
X393Y556D02*
X400Y556D01*
X0Y555D02*
X7Y555D01*
X393Y555D02*
X400Y555D01*
X0Y554D02*
X7Y554D01*
X393Y554D02*
X400Y554D01*
X0Y553D02*
X7Y553D01*
X393Y553D02*
X400Y553D01*
X0Y552D02*
X7Y552D01*
X393Y552D02*
X400Y552D01*
X0Y551D02*
X7Y551D01*
X393Y551D02*
X400Y551D01*
X0Y550D02*
X7Y550D01*
X393Y550D02*
X400Y550D01*
X0Y549D02*
X7Y549D01*
X393Y549D02*
X400Y549D01*
X0Y548D02*
X7Y548D01*
X393Y548D02*
X400Y548D01*
X0Y547D02*
X7Y547D01*
X393Y547D02*
X400Y547D01*
X0Y546D02*
X7Y546D01*
X393Y546D02*
X400Y546D01*
X0Y545D02*
X7Y545D01*
X393Y545D02*
X400Y545D01*
X0Y544D02*
X7Y544D01*
X393Y544D02*
X400Y544D01*
X0Y543D02*
X7Y543D01*
X164Y543D02*
X215Y543D01*
X393Y543D02*
X400Y543D01*
X0Y542D02*
X7Y542D01*
X164Y542D02*
X215Y542D01*
X393Y542D02*
X400Y542D01*
X0Y541D02*
X7Y541D01*
X165Y541D02*
X216Y541D01*
X393Y541D02*
X400Y541D01*
X0Y540D02*
X7Y540D01*
X166Y540D02*
X216Y540D01*
X393Y540D02*
X400Y540D01*
X0Y539D02*
X7Y539D01*
X167Y539D02*
X216Y539D01*
X393Y539D02*
X400Y539D01*
X0Y538D02*
X7Y538D01*
X169Y538D02*
X215Y538D01*
X393Y538D02*
X400Y538D01*
X0Y537D02*
X7Y537D01*
X172Y537D02*
X213Y537D01*
X393Y537D02*
X400Y537D01*
X0Y536D02*
X7Y536D01*
X393Y536D02*
X400Y536D01*
X0Y535D02*
X7Y535D01*
X393Y535D02*
X400Y535D01*
X0Y534D02*
X7Y534D01*
X393Y534D02*
X400Y534D01*
X0Y533D02*
X7Y533D01*
X393Y533D02*
X400Y533D01*
X0Y532D02*
X7Y532D01*
X393Y532D02*
X400Y532D01*
X0Y531D02*
X7Y531D01*
X393Y531D02*
X400Y531D01*
X0Y530D02*
X7Y530D01*
X393Y530D02*
X400Y530D01*
X0Y529D02*
X7Y529D01*
X393Y529D02*
X400Y529D01*
X0Y528D02*
X7Y528D01*
X393Y528D02*
X400Y528D01*
X0Y527D02*
X7Y527D01*
X393Y527D02*
X400Y527D01*
X0Y526D02*
X7Y526D01*
X393Y526D02*
X400Y526D01*
X0Y525D02*
X7Y525D01*
X393Y525D02*
X400Y525D01*
X0Y524D02*
X7Y524D01*
X393Y524D02*
X400Y524D01*
X0Y523D02*
X7Y523D01*
X393Y523D02*
X400Y523D01*
X0Y522D02*
X7Y522D01*
X393Y522D02*
X400Y522D01*
X0Y521D02*
X7Y521D01*
X393Y521D02*
X400Y521D01*
X0Y520D02*
X7Y520D01*
X393Y520D02*
X400Y520D01*
X0Y519D02*
X7Y519D01*
X393Y519D02*
X400Y519D01*
X0Y518D02*
X7Y518D01*
X393Y518D02*
X400Y518D01*
X0Y517D02*
X7Y517D01*
X393Y517D02*
X400Y517D01*
X0Y516D02*
X7Y516D01*
X393Y516D02*
X400Y516D01*
X0Y515D02*
X7Y515D01*
X393Y515D02*
X400Y515D01*
X0Y514D02*
X7Y514D01*
X393Y514D02*
X400Y514D01*
X0Y513D02*
X7Y513D01*
X393Y513D02*
X400Y513D01*
X0Y512D02*
X7Y512D01*
X393Y512D02*
X400Y512D01*
X0Y511D02*
X7Y511D01*
X393Y511D02*
X400Y511D01*
X0Y510D02*
X7Y510D01*
X190Y510D02*
X191Y510D01*
X393Y510D02*
X400Y510D01*
X0Y509D02*
X7Y509D01*
X190Y509D02*
X192Y509D01*
X393Y509D02*
X400Y509D01*
X0Y508D02*
X7Y508D01*
X190Y508D02*
X192Y508D01*
X393Y508D02*
X400Y508D01*
X0Y507D02*
X7Y507D01*
X190Y507D02*
X192Y507D01*
X393Y507D02*
X400Y507D01*
X0Y506D02*
X7Y506D01*
X190Y506D02*
X192Y506D01*
X393Y506D02*
X400Y506D01*
X0Y505D02*
X7Y505D01*
X190Y505D02*
X192Y505D01*
X393Y505D02*
X400Y505D01*
X0Y504D02*
X7Y504D01*
X190Y504D02*
X192Y504D01*
X393Y504D02*
X400Y504D01*
X0Y503D02*
X7Y503D01*
X190Y503D02*
X192Y503D01*
X393Y503D02*
X400Y503D01*
X0Y502D02*
X7Y502D01*
X190Y502D02*
X192Y502D01*
X393Y502D02*
X400Y502D01*
X0Y501D02*
X7Y501D01*
X190Y501D02*
X192Y501D01*
X393Y501D02*
X400Y501D01*
X0Y500D02*
X7Y500D01*
X190Y500D02*
X192Y500D01*
X393Y500D02*
X400Y500D01*
X0Y499D02*
X7Y499D01*
X190Y499D02*
X192Y499D01*
X393Y499D02*
X400Y499D01*
X0Y498D02*
X7Y498D01*
X190Y498D02*
X192Y498D01*
X393Y498D02*
X400Y498D01*
X0Y497D02*
X7Y497D01*
X190Y497D02*
X192Y497D01*
X393Y497D02*
X400Y497D01*
X0Y496D02*
X7Y496D01*
X190Y496D02*
X192Y496D01*
X393Y496D02*
X400Y496D01*
X0Y495D02*
X7Y495D01*
X190Y495D02*
X192Y495D01*
X393Y495D02*
X400Y495D01*
X0Y494D02*
X7Y494D01*
X190Y494D02*
X192Y494D01*
X393Y494D02*
X400Y494D01*
X0Y493D02*
X7Y493D01*
X190Y493D02*
X193Y493D01*
X393Y493D02*
X400Y493D01*
X0Y492D02*
X7Y492D01*
X190Y492D02*
X193Y492D01*
X393Y492D02*
X400Y492D01*
X0Y491D02*
X7Y491D01*
X190Y491D02*
X194Y491D01*
X393Y491D02*
X400Y491D01*
X0Y490D02*
X7Y490D01*
X190Y490D02*
X205Y490D01*
X393Y490D02*
X400Y490D01*
X0Y489D02*
X7Y489D01*
X190Y489D02*
X205Y489D01*
X393Y489D02*
X400Y489D01*
X0Y488D02*
X7Y488D01*
X190Y488D02*
X205Y488D01*
X393Y488D02*
X400Y488D01*
X0Y487D02*
X7Y487D01*
X190Y487D02*
X205Y487D01*
X393Y487D02*
X400Y487D01*
X0Y486D02*
X7Y486D01*
X190Y486D02*
X205Y486D01*
X393Y486D02*
X400Y486D01*
X0Y485D02*
X7Y485D01*
X191Y485D02*
X205Y485D01*
X393Y485D02*
X400Y485D01*
X0Y484D02*
X7Y484D01*
X193Y484D02*
X205Y484D01*
X393Y484D02*
X400Y484D01*
X0Y483D02*
X7Y483D01*
X393Y483D02*
X400Y483D01*
X0Y482D02*
X7Y482D01*
X393Y482D02*
X400Y482D01*
X0Y481D02*
X7Y481D01*
X393Y481D02*
X400Y481D01*
X0Y480D02*
X7Y480D01*
X393Y480D02*
X400Y480D01*
X0Y479D02*
X7Y479D01*
X393Y479D02*
X400Y479D01*
X0Y478D02*
X7Y478D01*
X393Y478D02*
X400Y478D01*
X0Y477D02*
X7Y477D01*
X393Y477D02*
X400Y477D01*
X0Y476D02*
X7Y476D01*
X393Y476D02*
X400Y476D01*
X0Y475D02*
X7Y475D01*
X393Y475D02*
X400Y475D01*
X0Y474D02*
X7Y474D01*
X393Y474D02*
X400Y474D01*
X0Y473D02*
X7Y473D01*
X393Y473D02*
X400Y473D01*
X0Y472D02*
X7Y472D01*
X393Y472D02*
X400Y472D01*
X0Y471D02*
X7Y471D01*
X393Y471D02*
X400Y471D01*
X0Y470D02*
X7Y470D01*
X393Y470D02*
X400Y470D01*
X0Y469D02*
X7Y469D01*
X393Y469D02*
X400Y469D01*
X0Y468D02*
X7Y468D01*
X393Y468D02*
X400Y468D01*
X0Y467D02*
X7Y467D01*
X393Y467D02*
X400Y467D01*
X0Y466D02*
X7Y466D01*
X393Y466D02*
X400Y466D01*
X0Y465D02*
X7Y465D01*
X393Y465D02*
X400Y465D01*
X0Y464D02*
X7Y464D01*
X393Y464D02*
X400Y464D01*
X0Y463D02*
X7Y463D01*
X393Y463D02*
X400Y463D01*
X0Y462D02*
X7Y462D01*
X393Y462D02*
X400Y462D01*
X0Y461D02*
X7Y461D01*
X393Y461D02*
X400Y461D01*
X0Y460D02*
X7Y460D01*
X393Y460D02*
X400Y460D01*
X0Y459D02*
X7Y459D01*
X393Y459D02*
X400Y459D01*
X0Y458D02*
X7Y458D01*
X393Y458D02*
X400Y458D01*
X0Y457D02*
X7Y457D01*
X393Y457D02*
X400Y457D01*
X0Y456D02*
X7Y456D01*
X393Y456D02*
X400Y456D01*
X0Y455D02*
X7Y455D01*
X393Y455D02*
X400Y455D01*
X0Y454D02*
X7Y454D01*
X393Y454D02*
X400Y454D01*
X0Y453D02*
X7Y453D01*
X290Y453D02*
X292Y453D01*
X393Y453D02*
X400Y453D01*
X0Y452D02*
X7Y452D01*
X290Y452D02*
X293Y452D01*
X393Y452D02*
X400Y452D01*
X0Y451D02*
X7Y451D01*
X290Y451D02*
X293Y451D01*
X393Y451D02*
X400Y451D01*
X0Y450D02*
X7Y450D01*
X290Y450D02*
X293Y450D01*
X393Y450D02*
X400Y450D01*
X0Y449D02*
X7Y449D01*
X290Y449D02*
X293Y449D01*
X393Y449D02*
X400Y449D01*
X0Y448D02*
X7Y448D01*
X290Y448D02*
X293Y448D01*
X393Y448D02*
X400Y448D01*
X0Y447D02*
X7Y447D01*
X290Y447D02*
X293Y447D01*
X393Y447D02*
X400Y447D01*
X0Y446D02*
X7Y446D01*
X290Y446D02*
X293Y446D01*
X393Y446D02*
X400Y446D01*
X0Y445D02*
X7Y445D01*
X102Y445D02*
X105Y445D01*
X290Y445D02*
X293Y445D01*
X393Y445D02*
X400Y445D01*
X0Y444D02*
X7Y444D01*
X102Y444D02*
X105Y444D01*
X290Y444D02*
X293Y444D01*
X393Y444D02*
X400Y444D01*
X0Y443D02*
X7Y443D01*
X102Y443D02*
X105Y443D01*
X290Y443D02*
X293Y443D01*
X393Y443D02*
X400Y443D01*
X0Y442D02*
X7Y442D01*
X102Y442D02*
X105Y442D01*
X290Y442D02*
X293Y442D01*
X393Y442D02*
X400Y442D01*
X0Y441D02*
X7Y441D01*
X102Y441D02*
X105Y441D01*
X290Y441D02*
X293Y441D01*
X393Y441D02*
X400Y441D01*
X0Y440D02*
X7Y440D01*
X102Y440D02*
X105Y440D01*
X290Y440D02*
X293Y440D01*
X393Y440D02*
X400Y440D01*
X0Y439D02*
X7Y439D01*
X102Y439D02*
X105Y439D01*
X290Y439D02*
X293Y439D01*
X393Y439D02*
X400Y439D01*
X0Y438D02*
X7Y438D01*
X102Y438D02*
X105Y438D01*
X290Y438D02*
X293Y438D01*
X393Y438D02*
X400Y438D01*
X0Y437D02*
X7Y437D01*
X102Y437D02*
X105Y437D01*
X290Y437D02*
X293Y437D01*
X393Y437D02*
X400Y437D01*
X0Y436D02*
X7Y436D01*
X102Y436D02*
X105Y436D01*
X290Y436D02*
X293Y436D01*
X393Y436D02*
X400Y436D01*
X0Y435D02*
X7Y435D01*
X102Y435D02*
X105Y435D01*
X290Y435D02*
X293Y435D01*
X393Y435D02*
X400Y435D01*
X0Y434D02*
X7Y434D01*
X102Y434D02*
X107Y434D01*
X288Y434D02*
X293Y434D01*
X393Y434D02*
X400Y434D01*
X0Y433D02*
X7Y433D01*
X102Y433D02*
X107Y433D01*
X288Y433D02*
X293Y433D01*
X393Y433D02*
X400Y433D01*
X0Y432D02*
X7Y432D01*
X102Y432D02*
X107Y432D01*
X125Y432D02*
X134Y432D01*
X147Y432D02*
X162Y432D01*
X288Y432D02*
X293Y432D01*
X393Y432D02*
X400Y432D01*
X0Y431D02*
X7Y431D01*
X102Y431D02*
X107Y431D01*
X122Y431D02*
X135Y431D01*
X146Y431D02*
X164Y431D01*
X288Y431D02*
X293Y431D01*
X393Y431D02*
X400Y431D01*
X0Y430D02*
X7Y430D01*
X102Y430D02*
X107Y430D01*
X121Y430D02*
X135Y430D01*
X145Y430D02*
X164Y430D01*
X288Y430D02*
X293Y430D01*
X393Y430D02*
X400Y430D01*
X0Y429D02*
X7Y429D01*
X102Y429D02*
X107Y429D01*
X121Y429D02*
X135Y429D01*
X146Y429D02*
X165Y429D01*
X288Y429D02*
X293Y429D01*
X305Y429D02*
X317Y429D01*
X328Y429D02*
X345Y429D01*
X393Y429D02*
X400Y429D01*
X0Y428D02*
X7Y428D01*
X102Y428D02*
X107Y428D01*
X120Y428D02*
X133Y428D01*
X148Y428D02*
X165Y428D01*
X288Y428D02*
X293Y428D01*
X304Y428D02*
X317Y428D01*
X328Y428D02*
X346Y428D01*
X393Y428D02*
X400Y428D01*
X0Y427D02*
X7Y427D01*
X102Y427D02*
X107Y427D01*
X120Y427D02*
X123Y427D01*
X162Y427D02*
X165Y427D01*
X288Y427D02*
X293Y427D01*
X303Y427D02*
X317Y427D01*
X328Y427D02*
X347Y427D01*
X393Y427D02*
X400Y427D01*
X0Y426D02*
X7Y426D01*
X102Y426D02*
X107Y426D01*
X119Y426D02*
X123Y426D01*
X162Y426D02*
X165Y426D01*
X288Y426D02*
X293Y426D01*
X303Y426D02*
X316Y426D01*
X328Y426D02*
X347Y426D01*
X393Y426D02*
X400Y426D01*
X0Y425D02*
X7Y425D01*
X102Y425D02*
X107Y425D01*
X119Y425D02*
X122Y425D01*
X162Y425D02*
X165Y425D01*
X288Y425D02*
X293Y425D01*
X302Y425D02*
X306Y425D01*
X344Y425D02*
X347Y425D01*
X393Y425D02*
X400Y425D01*
X0Y424D02*
X7Y424D01*
X102Y424D02*
X107Y424D01*
X118Y424D02*
X122Y424D01*
X162Y424D02*
X165Y424D01*
X288Y424D02*
X293Y424D01*
X302Y424D02*
X305Y424D01*
X344Y424D02*
X347Y424D01*
X393Y424D02*
X400Y424D01*
X0Y423D02*
X7Y423D01*
X102Y423D02*
X107Y423D01*
X118Y423D02*
X121Y423D01*
X162Y423D02*
X165Y423D01*
X288Y423D02*
X293Y423D01*
X301Y423D02*
X305Y423D01*
X344Y423D02*
X347Y423D01*
X393Y423D02*
X400Y423D01*
X0Y422D02*
X7Y422D01*
X102Y422D02*
X107Y422D01*
X117Y422D02*
X121Y422D01*
X162Y422D02*
X165Y422D01*
X288Y422D02*
X293Y422D01*
X301Y422D02*
X304Y422D01*
X344Y422D02*
X347Y422D01*
X393Y422D02*
X400Y422D01*
X0Y421D02*
X7Y421D01*
X102Y421D02*
X107Y421D01*
X117Y421D02*
X120Y421D01*
X162Y421D02*
X165Y421D01*
X288Y421D02*
X293Y421D01*
X300Y421D02*
X304Y421D01*
X344Y421D02*
X347Y421D01*
X393Y421D02*
X400Y421D01*
X0Y420D02*
X7Y420D01*
X102Y420D02*
X107Y420D01*
X116Y420D02*
X120Y420D01*
X162Y420D02*
X165Y420D01*
X288Y420D02*
X293Y420D01*
X300Y420D02*
X303Y420D01*
X344Y420D02*
X347Y420D01*
X393Y420D02*
X400Y420D01*
X0Y419D02*
X7Y419D01*
X102Y419D02*
X107Y419D01*
X116Y419D02*
X119Y419D01*
X162Y419D02*
X165Y419D01*
X288Y419D02*
X293Y419D01*
X299Y419D02*
X303Y419D01*
X344Y419D02*
X347Y419D01*
X393Y419D02*
X400Y419D01*
X0Y418D02*
X7Y418D01*
X102Y418D02*
X107Y418D01*
X116Y418D02*
X119Y418D01*
X149Y418D02*
X165Y418D01*
X288Y418D02*
X293Y418D01*
X299Y418D02*
X302Y418D01*
X344Y418D02*
X347Y418D01*
X393Y418D02*
X400Y418D01*
X0Y417D02*
X7Y417D01*
X102Y417D02*
X107Y417D01*
X115Y417D02*
X119Y417D01*
X147Y417D02*
X165Y417D01*
X288Y417D02*
X293Y417D01*
X298Y417D02*
X302Y417D01*
X344Y417D02*
X347Y417D01*
X393Y417D02*
X400Y417D01*
X0Y416D02*
X7Y416D01*
X102Y416D02*
X107Y416D01*
X115Y416D02*
X119Y416D01*
X146Y416D02*
X164Y416D01*
X288Y416D02*
X293Y416D01*
X298Y416D02*
X301Y416D01*
X343Y416D02*
X347Y416D01*
X393Y416D02*
X400Y416D01*
X0Y415D02*
X7Y415D01*
X102Y415D02*
X107Y415D01*
X115Y415D02*
X119Y415D01*
X145Y415D02*
X164Y415D01*
X288Y415D02*
X293Y415D01*
X298Y415D02*
X301Y415D01*
X332Y415D02*
X346Y415D01*
X393Y415D02*
X400Y415D01*
X0Y414D02*
X7Y414D01*
X102Y414D02*
X107Y414D01*
X115Y414D02*
X119Y414D01*
X145Y414D02*
X161Y414D01*
X288Y414D02*
X293Y414D01*
X298Y414D02*
X301Y414D01*
X332Y414D02*
X346Y414D01*
X393Y414D02*
X400Y414D01*
X0Y413D02*
X7Y413D01*
X102Y413D02*
X107Y413D01*
X116Y413D02*
X119Y413D01*
X145Y413D02*
X148Y413D01*
X288Y413D02*
X293Y413D01*
X298Y413D02*
X301Y413D01*
X332Y413D02*
X346Y413D01*
X393Y413D02*
X400Y413D01*
X0Y412D02*
X7Y412D01*
X102Y412D02*
X107Y412D01*
X116Y412D02*
X120Y412D01*
X145Y412D02*
X148Y412D01*
X288Y412D02*
X293Y412D01*
X298Y412D02*
X301Y412D01*
X332Y412D02*
X347Y412D01*
X393Y412D02*
X400Y412D01*
X0Y411D02*
X7Y411D01*
X102Y411D02*
X107Y411D01*
X117Y411D02*
X120Y411D01*
X145Y411D02*
X148Y411D01*
X288Y411D02*
X293Y411D01*
X298Y411D02*
X301Y411D01*
X343Y411D02*
X347Y411D01*
X393Y411D02*
X400Y411D01*
X0Y410D02*
X7Y410D01*
X102Y410D02*
X107Y410D01*
X117Y410D02*
X121Y410D01*
X145Y410D02*
X148Y410D01*
X288Y410D02*
X293Y410D01*
X298Y410D02*
X302Y410D01*
X344Y410D02*
X347Y410D01*
X393Y410D02*
X400Y410D01*
X0Y409D02*
X7Y409D01*
X102Y409D02*
X107Y409D01*
X118Y409D02*
X121Y409D01*
X145Y409D02*
X148Y409D01*
X288Y409D02*
X293Y409D01*
X299Y409D02*
X302Y409D01*
X344Y409D02*
X347Y409D01*
X393Y409D02*
X400Y409D01*
X0Y408D02*
X7Y408D01*
X102Y408D02*
X107Y408D01*
X118Y408D02*
X122Y408D01*
X145Y408D02*
X148Y408D01*
X288Y408D02*
X293Y408D01*
X299Y408D02*
X303Y408D01*
X344Y408D02*
X347Y408D01*
X393Y408D02*
X400Y408D01*
X0Y407D02*
X7Y407D01*
X102Y407D02*
X107Y407D01*
X119Y407D02*
X122Y407D01*
X145Y407D02*
X148Y407D01*
X288Y407D02*
X293Y407D01*
X300Y407D02*
X303Y407D01*
X344Y407D02*
X347Y407D01*
X393Y407D02*
X400Y407D01*
X0Y406D02*
X7Y406D01*
X103Y406D02*
X107Y406D01*
X119Y406D02*
X123Y406D01*
X145Y406D02*
X148Y406D01*
X288Y406D02*
X293Y406D01*
X300Y406D02*
X304Y406D01*
X344Y406D02*
X347Y406D01*
X393Y406D02*
X400Y406D01*
X0Y405D02*
X7Y405D01*
X103Y405D02*
X107Y405D01*
X120Y405D02*
X123Y405D01*
X145Y405D02*
X148Y405D01*
X288Y405D02*
X293Y405D01*
X301Y405D02*
X304Y405D01*
X344Y405D02*
X347Y405D01*
X393Y405D02*
X400Y405D01*
X0Y404D02*
X7Y404D01*
X103Y404D02*
X107Y404D01*
X120Y404D02*
X125Y404D01*
X145Y404D02*
X149Y404D01*
X288Y404D02*
X293Y404D01*
X301Y404D02*
X305Y404D01*
X344Y404D02*
X347Y404D01*
X393Y404D02*
X400Y404D01*
X0Y403D02*
X7Y403D01*
X104Y403D02*
X107Y403D01*
X121Y403D02*
X135Y403D01*
X145Y403D02*
X165Y403D01*
X288Y403D02*
X293Y403D01*
X302Y403D02*
X305Y403D01*
X344Y403D02*
X347Y403D01*
X393Y403D02*
X400Y403D01*
X0Y402D02*
X7Y402D01*
X104Y402D02*
X107Y402D01*
X121Y402D02*
X135Y402D01*
X145Y402D02*
X165Y402D01*
X288Y402D02*
X293Y402D01*
X302Y402D02*
X306Y402D01*
X344Y402D02*
X347Y402D01*
X393Y402D02*
X400Y402D01*
X0Y401D02*
X7Y401D01*
X105Y401D02*
X107Y401D01*
X122Y401D02*
X135Y401D01*
X145Y401D02*
X165Y401D01*
X288Y401D02*
X293Y401D01*
X303Y401D02*
X316Y401D01*
X328Y401D02*
X347Y401D01*
X393Y401D02*
X400Y401D01*
X0Y400D02*
X7Y400D01*
X105Y400D02*
X107Y400D01*
X124Y400D02*
X134Y400D01*
X145Y400D02*
X164Y400D01*
X288Y400D02*
X293Y400D01*
X303Y400D02*
X317Y400D01*
X328Y400D02*
X347Y400D01*
X393Y400D02*
X400Y400D01*
X0Y399D02*
X7Y399D01*
X105Y399D02*
X107Y399D01*
X288Y399D02*
X293Y399D01*
X304Y399D02*
X317Y399D01*
X328Y399D02*
X346Y399D01*
X393Y399D02*
X400Y399D01*
X0Y398D02*
X7Y398D01*
X105Y398D02*
X107Y398D01*
X288Y398D02*
X293Y398D01*
X306Y398D02*
X317Y398D01*
X328Y398D02*
X345Y398D01*
X393Y398D02*
X400Y398D01*
X0Y397D02*
X7Y397D01*
X106Y397D02*
X107Y397D01*
X288Y397D02*
X293Y397D01*
X393Y397D02*
X400Y397D01*
X0Y396D02*
X7Y396D01*
X106Y396D02*
X107Y396D01*
X288Y396D02*
X293Y396D01*
X393Y396D02*
X400Y396D01*
X0Y395D02*
X7Y395D01*
X106Y395D02*
X107Y395D01*
X288Y395D02*
X293Y395D01*
X393Y395D02*
X400Y395D01*
X0Y394D02*
X7Y394D01*
X106Y394D02*
X107Y394D01*
X288Y394D02*
X293Y394D01*
X393Y394D02*
X400Y394D01*
X0Y393D02*
X7Y393D01*
X106Y393D02*
X107Y393D01*
X288Y393D02*
X293Y393D01*
X393Y393D02*
X400Y393D01*
X0Y392D02*
X7Y392D01*
X106Y392D02*
X107Y392D01*
X288Y392D02*
X293Y392D01*
X393Y392D02*
X400Y392D01*
X0Y391D02*
X7Y391D01*
X106Y391D02*
X107Y391D01*
X288Y391D02*
X293Y391D01*
X393Y391D02*
X400Y391D01*
X0Y390D02*
X7Y390D01*
X106Y390D02*
X107Y390D01*
X288Y390D02*
X293Y390D01*
X393Y390D02*
X400Y390D01*
X0Y389D02*
X7Y389D01*
X106Y389D02*
X107Y389D01*
X288Y389D02*
X345Y389D01*
X393Y389D02*
X400Y389D01*
X0Y388D02*
X7Y388D01*
X106Y388D02*
X107Y388D01*
X287Y388D02*
X345Y388D01*
X393Y388D02*
X400Y388D01*
X0Y387D02*
X7Y387D01*
X106Y387D02*
X107Y387D01*
X287Y387D02*
X345Y387D01*
X393Y387D02*
X400Y387D01*
X0Y386D02*
X7Y386D01*
X106Y386D02*
X107Y386D01*
X287Y386D02*
X289Y386D01*
X343Y386D02*
X345Y386D01*
X393Y386D02*
X400Y386D01*
X0Y385D02*
X7Y385D01*
X106Y385D02*
X107Y385D01*
X287Y385D02*
X289Y385D01*
X343Y385D02*
X345Y385D01*
X393Y385D02*
X400Y385D01*
X0Y384D02*
X7Y384D01*
X106Y384D02*
X107Y384D01*
X287Y384D02*
X289Y384D01*
X343Y384D02*
X345Y384D01*
X393Y384D02*
X400Y384D01*
X0Y383D02*
X7Y383D01*
X106Y383D02*
X107Y383D01*
X287Y383D02*
X289Y383D01*
X343Y383D02*
X345Y383D01*
X393Y383D02*
X400Y383D01*
X0Y382D02*
X7Y382D01*
X106Y382D02*
X107Y382D01*
X287Y382D02*
X289Y382D01*
X343Y382D02*
X345Y382D01*
X393Y382D02*
X400Y382D01*
X0Y381D02*
X7Y381D01*
X106Y381D02*
X107Y381D01*
X287Y381D02*
X289Y381D01*
X343Y381D02*
X345Y381D01*
X393Y381D02*
X400Y381D01*
X0Y380D02*
X7Y380D01*
X106Y380D02*
X107Y380D01*
X287Y380D02*
X289Y380D01*
X343Y380D02*
X345Y380D01*
X393Y380D02*
X400Y380D01*
X0Y379D02*
X7Y379D01*
X105Y379D02*
X107Y379D01*
X287Y379D02*
X289Y379D01*
X343Y379D02*
X345Y379D01*
X393Y379D02*
X400Y379D01*
X0Y378D02*
X7Y378D01*
X105Y378D02*
X107Y378D01*
X287Y378D02*
X289Y378D01*
X343Y378D02*
X345Y378D01*
X393Y378D02*
X400Y378D01*
X0Y377D02*
X7Y377D01*
X105Y377D02*
X107Y377D01*
X287Y377D02*
X289Y377D01*
X343Y377D02*
X345Y377D01*
X393Y377D02*
X400Y377D01*
X0Y376D02*
X7Y376D01*
X105Y376D02*
X107Y376D01*
X287Y376D02*
X289Y376D01*
X343Y376D02*
X345Y376D01*
X393Y376D02*
X400Y376D01*
X0Y375D02*
X7Y375D01*
X104Y375D02*
X107Y375D01*
X287Y375D02*
X289Y375D01*
X343Y375D02*
X345Y375D01*
X393Y375D02*
X400Y375D01*
X0Y374D02*
X7Y374D01*
X104Y374D02*
X107Y374D01*
X287Y374D02*
X289Y374D01*
X343Y374D02*
X347Y374D01*
X393Y374D02*
X400Y374D01*
X0Y373D02*
X7Y373D01*
X104Y373D02*
X107Y373D01*
X163Y373D02*
X165Y373D01*
X191Y373D02*
X192Y373D01*
X213Y373D02*
X231Y373D01*
X287Y373D02*
X289Y373D01*
X343Y373D02*
X348Y373D01*
X393Y373D02*
X400Y373D01*
X0Y372D02*
X7Y372D01*
X103Y372D02*
X107Y372D01*
X162Y372D02*
X166Y372D01*
X190Y372D02*
X194Y372D01*
X212Y372D02*
X231Y372D01*
X287Y372D02*
X289Y372D01*
X343Y372D02*
X348Y372D01*
X393Y372D02*
X400Y372D01*
X0Y371D02*
X7Y371D01*
X103Y371D02*
X107Y371D01*
X161Y371D02*
X167Y371D01*
X189Y371D02*
X194Y371D01*
X211Y371D02*
X231Y371D01*
X287Y371D02*
X289Y371D01*
X343Y371D02*
X348Y371D01*
X393Y371D02*
X400Y371D01*
X0Y370D02*
X7Y370D01*
X102Y370D02*
X107Y370D01*
X161Y370D02*
X167Y370D01*
X189Y370D02*
X195Y370D01*
X211Y370D02*
X231Y370D01*
X287Y370D02*
X289Y370D01*
X343Y370D02*
X348Y370D01*
X393Y370D02*
X400Y370D01*
X0Y369D02*
X7Y369D01*
X102Y369D02*
X107Y369D01*
X161Y369D02*
X167Y369D01*
X189Y369D02*
X195Y369D01*
X211Y369D02*
X231Y369D01*
X287Y369D02*
X289Y369D01*
X343Y369D02*
X348Y369D01*
X393Y369D02*
X400Y369D01*
X0Y368D02*
X7Y368D01*
X102Y368D02*
X107Y368D01*
X161Y368D02*
X167Y368D01*
X189Y368D02*
X195Y368D01*
X212Y368D02*
X231Y368D01*
X287Y368D02*
X289Y368D01*
X343Y368D02*
X348Y368D01*
X393Y368D02*
X400Y368D01*
X0Y367D02*
X7Y367D01*
X102Y367D02*
X107Y367D01*
X161Y367D02*
X167Y367D01*
X189Y367D02*
X195Y367D01*
X213Y367D02*
X231Y367D01*
X287Y367D02*
X289Y367D01*
X343Y367D02*
X348Y367D01*
X393Y367D02*
X400Y367D01*
X0Y366D02*
X7Y366D01*
X102Y366D02*
X107Y366D01*
X161Y366D02*
X167Y366D01*
X189Y366D02*
X195Y366D01*
X225Y366D02*
X231Y366D01*
X287Y366D02*
X289Y366D01*
X343Y366D02*
X348Y366D01*
X393Y366D02*
X400Y366D01*
X0Y365D02*
X7Y365D01*
X102Y365D02*
X107Y365D01*
X161Y365D02*
X167Y365D01*
X189Y365D02*
X195Y365D01*
X225Y365D02*
X231Y365D01*
X287Y365D02*
X289Y365D01*
X343Y365D02*
X348Y365D01*
X393Y365D02*
X400Y365D01*
X0Y364D02*
X7Y364D01*
X102Y364D02*
X107Y364D01*
X161Y364D02*
X167Y364D01*
X189Y364D02*
X195Y364D01*
X225Y364D02*
X231Y364D01*
X287Y364D02*
X289Y364D01*
X343Y364D02*
X348Y364D01*
X393Y364D02*
X400Y364D01*
X0Y363D02*
X7Y363D01*
X102Y363D02*
X107Y363D01*
X161Y363D02*
X167Y363D01*
X189Y363D02*
X195Y363D01*
X225Y363D02*
X231Y363D01*
X287Y363D02*
X289Y363D01*
X343Y363D02*
X348Y363D01*
X393Y363D02*
X400Y363D01*
X0Y362D02*
X7Y362D01*
X102Y362D02*
X107Y362D01*
X161Y362D02*
X167Y362D01*
X189Y362D02*
X195Y362D01*
X225Y362D02*
X231Y362D01*
X287Y362D02*
X289Y362D01*
X343Y362D02*
X348Y362D01*
X393Y362D02*
X400Y362D01*
X0Y361D02*
X7Y361D01*
X102Y361D02*
X107Y361D01*
X161Y361D02*
X167Y361D01*
X189Y361D02*
X195Y361D01*
X225Y361D02*
X231Y361D01*
X287Y361D02*
X289Y361D01*
X343Y361D02*
X348Y361D01*
X393Y361D02*
X400Y361D01*
X0Y360D02*
X7Y360D01*
X102Y360D02*
X107Y360D01*
X161Y360D02*
X167Y360D01*
X189Y360D02*
X195Y360D01*
X225Y360D02*
X231Y360D01*
X287Y360D02*
X289Y360D01*
X343Y360D02*
X348Y360D01*
X393Y360D02*
X400Y360D01*
X0Y359D02*
X7Y359D01*
X102Y359D02*
X107Y359D01*
X161Y359D02*
X167Y359D01*
X189Y359D02*
X195Y359D01*
X225Y359D02*
X231Y359D01*
X287Y359D02*
X289Y359D01*
X343Y359D02*
X348Y359D01*
X393Y359D02*
X400Y359D01*
X0Y358D02*
X7Y358D01*
X102Y358D02*
X107Y358D01*
X161Y358D02*
X167Y358D01*
X189Y358D02*
X195Y358D01*
X225Y358D02*
X231Y358D01*
X287Y358D02*
X289Y358D01*
X343Y358D02*
X348Y358D01*
X393Y358D02*
X400Y358D01*
X0Y357D02*
X7Y357D01*
X102Y357D02*
X107Y357D01*
X161Y357D02*
X167Y357D01*
X189Y357D02*
X195Y357D01*
X225Y357D02*
X231Y357D01*
X287Y357D02*
X289Y357D01*
X343Y357D02*
X348Y357D01*
X393Y357D02*
X400Y357D01*
X0Y356D02*
X7Y356D01*
X102Y356D02*
X107Y356D01*
X161Y356D02*
X167Y356D01*
X189Y356D02*
X195Y356D01*
X225Y356D02*
X231Y356D01*
X287Y356D02*
X289Y356D01*
X343Y356D02*
X348Y356D01*
X393Y356D02*
X400Y356D01*
X0Y355D02*
X7Y355D01*
X102Y355D02*
X107Y355D01*
X161Y355D02*
X167Y355D01*
X189Y355D02*
X195Y355D01*
X225Y355D02*
X231Y355D01*
X287Y355D02*
X289Y355D01*
X343Y355D02*
X348Y355D01*
X393Y355D02*
X400Y355D01*
X0Y354D02*
X7Y354D01*
X102Y354D02*
X107Y354D01*
X161Y354D02*
X167Y354D01*
X189Y354D02*
X195Y354D01*
X225Y354D02*
X231Y354D01*
X287Y354D02*
X289Y354D01*
X343Y354D02*
X348Y354D01*
X393Y354D02*
X400Y354D01*
X0Y353D02*
X7Y353D01*
X102Y353D02*
X107Y353D01*
X161Y353D02*
X167Y353D01*
X189Y353D02*
X195Y353D01*
X225Y353D02*
X231Y353D01*
X287Y353D02*
X289Y353D01*
X343Y353D02*
X348Y353D01*
X393Y353D02*
X400Y353D01*
X0Y352D02*
X7Y352D01*
X102Y352D02*
X107Y352D01*
X161Y352D02*
X167Y352D01*
X189Y352D02*
X195Y352D01*
X225Y352D02*
X231Y352D01*
X287Y352D02*
X289Y352D01*
X343Y352D02*
X348Y352D01*
X393Y352D02*
X400Y352D01*
X0Y351D02*
X7Y351D01*
X102Y351D02*
X107Y351D01*
X161Y351D02*
X167Y351D01*
X189Y351D02*
X195Y351D01*
X225Y351D02*
X231Y351D01*
X287Y351D02*
X289Y351D01*
X343Y351D02*
X348Y351D01*
X393Y351D02*
X400Y351D01*
X0Y350D02*
X7Y350D01*
X102Y350D02*
X107Y350D01*
X161Y350D02*
X167Y350D01*
X189Y350D02*
X195Y350D01*
X225Y350D02*
X231Y350D01*
X287Y350D02*
X289Y350D01*
X343Y350D02*
X348Y350D01*
X393Y350D02*
X400Y350D01*
X0Y349D02*
X7Y349D01*
X102Y349D02*
X107Y349D01*
X161Y349D02*
X167Y349D01*
X189Y349D02*
X195Y349D01*
X225Y349D02*
X231Y349D01*
X287Y349D02*
X289Y349D01*
X343Y349D02*
X348Y349D01*
X393Y349D02*
X400Y349D01*
X0Y348D02*
X7Y348D01*
X102Y348D02*
X107Y348D01*
X161Y348D02*
X167Y348D01*
X189Y348D02*
X195Y348D01*
X225Y348D02*
X231Y348D01*
X287Y348D02*
X289Y348D01*
X343Y348D02*
X348Y348D01*
X393Y348D02*
X400Y348D01*
X0Y347D02*
X7Y347D01*
X102Y347D02*
X107Y347D01*
X161Y347D02*
X167Y347D01*
X189Y347D02*
X195Y347D01*
X225Y347D02*
X231Y347D01*
X287Y347D02*
X289Y347D01*
X343Y347D02*
X348Y347D01*
X393Y347D02*
X400Y347D01*
X0Y346D02*
X7Y346D01*
X102Y346D02*
X107Y346D01*
X161Y346D02*
X167Y346D01*
X189Y346D02*
X195Y346D01*
X225Y346D02*
X231Y346D01*
X287Y346D02*
X289Y346D01*
X343Y346D02*
X348Y346D01*
X393Y346D02*
X400Y346D01*
X0Y345D02*
X7Y345D01*
X102Y345D02*
X107Y345D01*
X161Y345D02*
X167Y345D01*
X189Y345D02*
X195Y345D01*
X225Y345D02*
X231Y345D01*
X287Y345D02*
X289Y345D01*
X343Y345D02*
X348Y345D01*
X393Y345D02*
X400Y345D01*
X0Y344D02*
X7Y344D01*
X102Y344D02*
X107Y344D01*
X161Y344D02*
X167Y344D01*
X189Y344D02*
X195Y344D01*
X225Y344D02*
X231Y344D01*
X287Y344D02*
X289Y344D01*
X343Y344D02*
X348Y344D01*
X393Y344D02*
X400Y344D01*
X0Y343D02*
X7Y343D01*
X102Y343D02*
X107Y343D01*
X161Y343D02*
X167Y343D01*
X189Y343D02*
X195Y343D01*
X225Y343D02*
X231Y343D01*
X240Y343D02*
X243Y343D01*
X287Y343D02*
X289Y343D01*
X343Y343D02*
X348Y343D01*
X393Y343D02*
X400Y343D01*
X0Y342D02*
X7Y342D01*
X102Y342D02*
X107Y342D01*
X161Y342D02*
X167Y342D01*
X189Y342D02*
X195Y342D01*
X225Y342D02*
X231Y342D01*
X239Y342D02*
X244Y342D01*
X287Y342D02*
X289Y342D01*
X343Y342D02*
X348Y342D01*
X393Y342D02*
X400Y342D01*
X0Y341D02*
X7Y341D01*
X102Y341D02*
X107Y341D01*
X161Y341D02*
X167Y341D01*
X189Y341D02*
X195Y341D01*
X225Y341D02*
X231Y341D01*
X239Y341D02*
X245Y341D01*
X287Y341D02*
X289Y341D01*
X343Y341D02*
X348Y341D01*
X393Y341D02*
X400Y341D01*
X0Y340D02*
X7Y340D01*
X102Y340D02*
X107Y340D01*
X161Y340D02*
X167Y340D01*
X189Y340D02*
X195Y340D01*
X225Y340D02*
X231Y340D01*
X239Y340D02*
X245Y340D01*
X287Y340D02*
X289Y340D01*
X343Y340D02*
X348Y340D01*
X393Y340D02*
X400Y340D01*
X0Y339D02*
X7Y339D01*
X102Y339D02*
X107Y339D01*
X161Y339D02*
X167Y339D01*
X189Y339D02*
X195Y339D01*
X225Y339D02*
X231Y339D01*
X239Y339D02*
X245Y339D01*
X287Y339D02*
X289Y339D01*
X343Y339D02*
X348Y339D01*
X393Y339D02*
X400Y339D01*
X0Y338D02*
X7Y338D01*
X102Y338D02*
X107Y338D01*
X161Y338D02*
X167Y338D01*
X189Y338D02*
X195Y338D01*
X225Y338D02*
X231Y338D01*
X239Y338D02*
X245Y338D01*
X287Y338D02*
X289Y338D01*
X343Y338D02*
X348Y338D01*
X393Y338D02*
X400Y338D01*
X0Y337D02*
X7Y337D01*
X102Y337D02*
X107Y337D01*
X161Y337D02*
X167Y337D01*
X189Y337D02*
X195Y337D01*
X225Y337D02*
X231Y337D01*
X239Y337D02*
X245Y337D01*
X287Y337D02*
X289Y337D01*
X343Y337D02*
X348Y337D01*
X393Y337D02*
X400Y337D01*
X0Y336D02*
X7Y336D01*
X102Y336D02*
X107Y336D01*
X161Y336D02*
X167Y336D01*
X189Y336D02*
X195Y336D01*
X225Y336D02*
X231Y336D01*
X239Y336D02*
X245Y336D01*
X287Y336D02*
X289Y336D01*
X343Y336D02*
X348Y336D01*
X393Y336D02*
X400Y336D01*
X0Y335D02*
X7Y335D01*
X42Y335D02*
X43Y335D01*
X57Y335D02*
X74Y335D01*
X102Y335D02*
X107Y335D01*
X161Y335D02*
X167Y335D01*
X189Y335D02*
X195Y335D01*
X225Y335D02*
X231Y335D01*
X239Y335D02*
X245Y335D01*
X287Y335D02*
X289Y335D01*
X343Y335D02*
X348Y335D01*
X393Y335D02*
X400Y335D01*
X0Y334D02*
X7Y334D01*
X41Y334D02*
X44Y334D01*
X56Y334D02*
X75Y334D01*
X102Y334D02*
X107Y334D01*
X161Y334D02*
X167Y334D01*
X189Y334D02*
X195Y334D01*
X225Y334D02*
X231Y334D01*
X239Y334D02*
X245Y334D01*
X287Y334D02*
X289Y334D01*
X343Y334D02*
X348Y334D01*
X393Y334D02*
X400Y334D01*
X0Y333D02*
X7Y333D01*
X41Y333D02*
X44Y333D01*
X56Y333D02*
X76Y333D01*
X102Y333D02*
X107Y333D01*
X161Y333D02*
X167Y333D01*
X189Y333D02*
X195Y333D01*
X225Y333D02*
X231Y333D01*
X239Y333D02*
X245Y333D01*
X287Y333D02*
X289Y333D01*
X343Y333D02*
X348Y333D01*
X393Y333D02*
X400Y333D01*
X0Y332D02*
X7Y332D01*
X41Y332D02*
X44Y332D01*
X57Y332D02*
X76Y332D01*
X102Y332D02*
X107Y332D01*
X161Y332D02*
X167Y332D01*
X189Y332D02*
X195Y332D01*
X225Y332D02*
X231Y332D01*
X239Y332D02*
X245Y332D01*
X287Y332D02*
X289Y332D01*
X343Y332D02*
X348Y332D01*
X393Y332D02*
X400Y332D01*
X0Y331D02*
X7Y331D01*
X41Y331D02*
X44Y331D01*
X73Y331D02*
X76Y331D01*
X102Y331D02*
X107Y331D01*
X161Y331D02*
X167Y331D01*
X189Y331D02*
X195Y331D01*
X225Y331D02*
X231Y331D01*
X239Y331D02*
X245Y331D01*
X287Y331D02*
X289Y331D01*
X343Y331D02*
X348Y331D01*
X393Y331D02*
X400Y331D01*
X0Y330D02*
X7Y330D01*
X41Y330D02*
X44Y330D01*
X73Y330D02*
X76Y330D01*
X102Y330D02*
X107Y330D01*
X161Y330D02*
X167Y330D01*
X189Y330D02*
X195Y330D01*
X225Y330D02*
X231Y330D01*
X239Y330D02*
X245Y330D01*
X287Y330D02*
X289Y330D01*
X343Y330D02*
X348Y330D01*
X393Y330D02*
X400Y330D01*
X0Y329D02*
X7Y329D01*
X41Y329D02*
X44Y329D01*
X73Y329D02*
X76Y329D01*
X102Y329D02*
X107Y329D01*
X161Y329D02*
X167Y329D01*
X189Y329D02*
X195Y329D01*
X225Y329D02*
X231Y329D01*
X239Y329D02*
X245Y329D01*
X287Y329D02*
X293Y329D01*
X341Y329D02*
X348Y329D01*
X393Y329D02*
X400Y329D01*
X0Y328D02*
X7Y328D01*
X41Y328D02*
X44Y328D01*
X73Y328D02*
X76Y328D01*
X102Y328D02*
X107Y328D01*
X161Y328D02*
X168Y328D01*
X188Y328D02*
X195Y328D01*
X225Y328D02*
X231Y328D01*
X239Y328D02*
X245Y328D01*
X287Y328D02*
X293Y328D01*
X341Y328D02*
X348Y328D01*
X393Y328D02*
X400Y328D01*
X0Y327D02*
X7Y327D01*
X41Y327D02*
X44Y327D01*
X73Y327D02*
X76Y327D01*
X102Y327D02*
X107Y327D01*
X161Y327D02*
X168Y327D01*
X187Y327D02*
X194Y327D01*
X225Y327D02*
X231Y327D01*
X239Y327D02*
X245Y327D01*
X287Y327D02*
X293Y327D01*
X341Y327D02*
X348Y327D01*
X393Y327D02*
X400Y327D01*
X0Y326D02*
X7Y326D01*
X41Y326D02*
X44Y326D01*
X73Y326D02*
X76Y326D01*
X102Y326D02*
X107Y326D01*
X162Y326D02*
X194Y326D01*
X214Y326D02*
X245Y326D01*
X287Y326D02*
X293Y326D01*
X341Y326D02*
X348Y326D01*
X393Y326D02*
X400Y326D01*
X0Y325D02*
X7Y325D01*
X41Y325D02*
X44Y325D01*
X73Y325D02*
X76Y325D01*
X102Y325D02*
X107Y325D01*
X162Y325D02*
X194Y325D01*
X212Y325D02*
X245Y325D01*
X287Y325D02*
X293Y325D01*
X341Y325D02*
X348Y325D01*
X393Y325D02*
X400Y325D01*
X0Y324D02*
X7Y324D01*
X41Y324D02*
X44Y324D01*
X73Y324D02*
X76Y324D01*
X102Y324D02*
X107Y324D01*
X163Y324D02*
X193Y324D01*
X211Y324D02*
X245Y324D01*
X287Y324D02*
X293Y324D01*
X341Y324D02*
X348Y324D01*
X393Y324D02*
X400Y324D01*
X0Y323D02*
X7Y323D01*
X41Y323D02*
X44Y323D01*
X73Y323D02*
X76Y323D01*
X102Y323D02*
X107Y323D01*
X164Y323D02*
X192Y323D01*
X211Y323D02*
X245Y323D01*
X287Y323D02*
X293Y323D01*
X341Y323D02*
X348Y323D01*
X393Y323D02*
X400Y323D01*
X0Y322D02*
X7Y322D01*
X41Y322D02*
X44Y322D01*
X73Y322D02*
X76Y322D01*
X102Y322D02*
X107Y322D01*
X164Y322D02*
X191Y322D01*
X211Y322D02*
X245Y322D01*
X287Y322D02*
X293Y322D01*
X341Y322D02*
X348Y322D01*
X393Y322D02*
X400Y322D01*
X0Y321D02*
X7Y321D01*
X41Y321D02*
X44Y321D01*
X59Y321D02*
X76Y321D01*
X102Y321D02*
X107Y321D01*
X166Y321D02*
X190Y321D01*
X212Y321D02*
X244Y321D01*
X287Y321D02*
X293Y321D01*
X341Y321D02*
X348Y321D01*
X393Y321D02*
X400Y321D01*
X0Y320D02*
X7Y320D01*
X41Y320D02*
X44Y320D01*
X58Y320D02*
X76Y320D01*
X102Y320D02*
X107Y320D01*
X167Y320D02*
X188Y320D01*
X212Y320D02*
X243Y320D01*
X287Y320D02*
X293Y320D01*
X341Y320D02*
X348Y320D01*
X393Y320D02*
X400Y320D01*
X0Y319D02*
X7Y319D01*
X41Y319D02*
X44Y319D01*
X57Y319D02*
X75Y319D01*
X102Y319D02*
X107Y319D01*
X287Y319D02*
X289Y319D01*
X343Y319D02*
X400Y319D01*
X0Y318D02*
X7Y318D01*
X41Y318D02*
X44Y318D01*
X56Y318D02*
X74Y318D01*
X102Y318D02*
X107Y318D01*
X287Y318D02*
X289Y318D01*
X343Y318D02*
X400Y318D01*
X0Y317D02*
X7Y317D01*
X29Y317D02*
X31Y317D01*
X41Y317D02*
X44Y317D01*
X56Y317D02*
X60Y317D01*
X102Y317D02*
X107Y317D01*
X287Y317D02*
X289Y317D01*
X343Y317D02*
X400Y317D01*
X0Y316D02*
X7Y316D01*
X28Y316D02*
X31Y316D01*
X41Y316D02*
X44Y316D01*
X56Y316D02*
X59Y316D01*
X102Y316D02*
X107Y316D01*
X287Y316D02*
X289Y316D01*
X343Y316D02*
X400Y316D01*
X0Y315D02*
X7Y315D01*
X28Y315D02*
X32Y315D01*
X41Y315D02*
X44Y315D01*
X56Y315D02*
X59Y315D01*
X102Y315D02*
X107Y315D01*
X287Y315D02*
X289Y315D01*
X343Y315D02*
X400Y315D01*
X0Y314D02*
X7Y314D01*
X28Y314D02*
X32Y314D01*
X41Y314D02*
X44Y314D01*
X56Y314D02*
X59Y314D01*
X102Y314D02*
X107Y314D01*
X287Y314D02*
X289Y314D01*
X343Y314D02*
X400Y314D01*
X0Y313D02*
X7Y313D01*
X28Y313D02*
X32Y313D01*
X41Y313D02*
X44Y313D01*
X56Y313D02*
X59Y313D01*
X102Y313D02*
X107Y313D01*
X287Y313D02*
X289Y313D01*
X343Y313D02*
X400Y313D01*
X0Y312D02*
X7Y312D01*
X28Y312D02*
X32Y312D01*
X41Y312D02*
X44Y312D01*
X56Y312D02*
X59Y312D01*
X102Y312D02*
X107Y312D01*
X287Y312D02*
X289Y312D01*
X343Y312D02*
X400Y312D01*
X0Y311D02*
X7Y311D01*
X28Y311D02*
X32Y311D01*
X41Y311D02*
X44Y311D01*
X56Y311D02*
X59Y311D01*
X102Y311D02*
X107Y311D01*
X287Y311D02*
X289Y311D01*
X343Y311D02*
X348Y311D01*
X393Y311D02*
X400Y311D01*
X0Y310D02*
X7Y310D01*
X28Y310D02*
X32Y310D01*
X41Y310D02*
X44Y310D01*
X56Y310D02*
X59Y310D01*
X102Y310D02*
X107Y310D01*
X287Y310D02*
X289Y310D01*
X343Y310D02*
X348Y310D01*
X393Y310D02*
X400Y310D01*
X0Y309D02*
X7Y309D01*
X28Y309D02*
X32Y309D01*
X41Y309D02*
X44Y309D01*
X56Y309D02*
X59Y309D01*
X102Y309D02*
X107Y309D01*
X287Y309D02*
X289Y309D01*
X343Y309D02*
X348Y309D01*
X393Y309D02*
X400Y309D01*
X0Y308D02*
X7Y308D01*
X28Y308D02*
X32Y308D01*
X40Y308D02*
X44Y308D01*
X56Y308D02*
X59Y308D01*
X102Y308D02*
X107Y308D01*
X287Y308D02*
X289Y308D01*
X343Y308D02*
X348Y308D01*
X393Y308D02*
X400Y308D01*
X0Y307D02*
X7Y307D01*
X29Y307D02*
X44Y307D01*
X56Y307D02*
X75Y307D01*
X102Y307D02*
X107Y307D01*
X287Y307D02*
X289Y307D01*
X343Y307D02*
X348Y307D01*
X393Y307D02*
X400Y307D01*
X0Y306D02*
X7Y306D01*
X29Y306D02*
X43Y306D01*
X56Y306D02*
X76Y306D01*
X102Y306D02*
X107Y306D01*
X287Y306D02*
X289Y306D01*
X343Y306D02*
X348Y306D01*
X393Y306D02*
X400Y306D01*
X0Y305D02*
X7Y305D01*
X30Y305D02*
X42Y305D01*
X56Y305D02*
X76Y305D01*
X102Y305D02*
X107Y305D01*
X287Y305D02*
X289Y305D01*
X343Y305D02*
X348Y305D01*
X393Y305D02*
X400Y305D01*
X0Y304D02*
X7Y304D01*
X31Y304D02*
X41Y304D01*
X56Y304D02*
X76Y304D01*
X102Y304D02*
X107Y304D01*
X287Y304D02*
X289Y304D01*
X343Y304D02*
X348Y304D01*
X393Y304D02*
X400Y304D01*
X0Y303D02*
X7Y303D01*
X34Y303D02*
X38Y303D01*
X57Y303D02*
X74Y303D01*
X102Y303D02*
X107Y303D01*
X287Y303D02*
X289Y303D01*
X343Y303D02*
X348Y303D01*
X393Y303D02*
X400Y303D01*
X0Y302D02*
X7Y302D01*
X102Y302D02*
X107Y302D01*
X287Y302D02*
X289Y302D01*
X343Y302D02*
X348Y302D01*
X393Y302D02*
X400Y302D01*
X0Y301D02*
X7Y301D01*
X102Y301D02*
X107Y301D01*
X287Y301D02*
X289Y301D01*
X343Y301D02*
X348Y301D01*
X393Y301D02*
X400Y301D01*
X0Y300D02*
X7Y300D01*
X102Y300D02*
X107Y300D01*
X287Y300D02*
X289Y300D01*
X343Y300D02*
X348Y300D01*
X393Y300D02*
X400Y300D01*
X0Y299D02*
X7Y299D01*
X102Y299D02*
X107Y299D01*
X287Y299D02*
X289Y299D01*
X343Y299D02*
X348Y299D01*
X393Y299D02*
X400Y299D01*
X0Y298D02*
X7Y298D01*
X102Y298D02*
X107Y298D01*
X287Y298D02*
X289Y298D01*
X343Y298D02*
X347Y298D01*
X393Y298D02*
X400Y298D01*
X0Y297D02*
X7Y297D01*
X102Y297D02*
X107Y297D01*
X287Y297D02*
X289Y297D01*
X343Y297D02*
X347Y297D01*
X393Y297D02*
X400Y297D01*
X0Y296D02*
X7Y296D01*
X102Y296D02*
X107Y296D01*
X287Y296D02*
X289Y296D01*
X343Y296D02*
X345Y296D01*
X393Y296D02*
X400Y296D01*
X0Y295D02*
X7Y295D01*
X102Y295D02*
X107Y295D01*
X287Y295D02*
X289Y295D01*
X343Y295D02*
X345Y295D01*
X393Y295D02*
X400Y295D01*
X0Y294D02*
X7Y294D01*
X102Y294D02*
X107Y294D01*
X287Y294D02*
X289Y294D01*
X343Y294D02*
X345Y294D01*
X393Y294D02*
X400Y294D01*
X0Y293D02*
X7Y293D01*
X102Y293D02*
X107Y293D01*
X287Y293D02*
X289Y293D01*
X343Y293D02*
X345Y293D01*
X393Y293D02*
X400Y293D01*
X0Y292D02*
X7Y292D01*
X102Y292D02*
X107Y292D01*
X287Y292D02*
X289Y292D01*
X343Y292D02*
X345Y292D01*
X393Y292D02*
X400Y292D01*
X0Y291D02*
X7Y291D01*
X102Y291D02*
X107Y291D01*
X287Y291D02*
X289Y291D01*
X343Y291D02*
X345Y291D01*
X393Y291D02*
X400Y291D01*
X0Y290D02*
X7Y290D01*
X102Y290D02*
X107Y290D01*
X287Y290D02*
X289Y290D01*
X343Y290D02*
X345Y290D01*
X393Y290D02*
X400Y290D01*
X0Y289D02*
X7Y289D01*
X102Y289D02*
X107Y289D01*
X287Y289D02*
X289Y289D01*
X343Y289D02*
X345Y289D01*
X393Y289D02*
X400Y289D01*
X0Y288D02*
X7Y288D01*
X102Y288D02*
X107Y288D01*
X287Y288D02*
X289Y288D01*
X343Y288D02*
X345Y288D01*
X393Y288D02*
X400Y288D01*
X0Y287D02*
X7Y287D01*
X102Y287D02*
X107Y287D01*
X287Y287D02*
X289Y287D01*
X343Y287D02*
X345Y287D01*
X393Y287D02*
X400Y287D01*
X0Y286D02*
X7Y286D01*
X102Y286D02*
X107Y286D01*
X287Y286D02*
X289Y286D01*
X343Y286D02*
X345Y286D01*
X393Y286D02*
X400Y286D01*
X0Y285D02*
X7Y285D01*
X102Y285D02*
X107Y285D01*
X287Y285D02*
X289Y285D01*
X343Y285D02*
X345Y285D01*
X393Y285D02*
X400Y285D01*
X0Y284D02*
X7Y284D01*
X102Y284D02*
X107Y284D01*
X287Y284D02*
X289Y284D01*
X343Y284D02*
X345Y284D01*
X393Y284D02*
X400Y284D01*
X0Y283D02*
X7Y283D01*
X102Y283D02*
X107Y283D01*
X287Y283D02*
X289Y283D01*
X343Y283D02*
X345Y283D01*
X393Y283D02*
X400Y283D01*
X0Y282D02*
X7Y282D01*
X102Y282D02*
X107Y282D01*
X287Y282D02*
X289Y282D01*
X343Y282D02*
X345Y282D01*
X393Y282D02*
X400Y282D01*
X0Y281D02*
X7Y281D01*
X102Y281D02*
X107Y281D01*
X287Y281D02*
X289Y281D01*
X343Y281D02*
X345Y281D01*
X393Y281D02*
X400Y281D01*
X0Y280D02*
X7Y280D01*
X102Y280D02*
X107Y280D01*
X287Y280D02*
X289Y280D01*
X343Y280D02*
X345Y280D01*
X393Y280D02*
X400Y280D01*
X0Y279D02*
X7Y279D01*
X102Y279D02*
X107Y279D01*
X287Y279D02*
X289Y279D01*
X343Y279D02*
X345Y279D01*
X393Y279D02*
X400Y279D01*
X0Y278D02*
X7Y278D01*
X102Y278D02*
X107Y278D01*
X287Y278D02*
X289Y278D01*
X343Y278D02*
X345Y278D01*
X393Y278D02*
X400Y278D01*
X0Y277D02*
X7Y277D01*
X102Y277D02*
X107Y277D01*
X287Y277D02*
X289Y277D01*
X343Y277D02*
X345Y277D01*
X393Y277D02*
X400Y277D01*
X0Y276D02*
X6Y276D01*
X102Y276D02*
X107Y276D01*
X287Y276D02*
X289Y276D01*
X343Y276D02*
X345Y276D01*
X393Y276D02*
X400Y276D01*
X0Y275D02*
X6Y275D01*
X102Y275D02*
X107Y275D01*
X287Y275D02*
X289Y275D01*
X343Y275D02*
X345Y275D01*
X393Y275D02*
X400Y275D01*
X0Y274D02*
X5Y274D01*
X102Y274D02*
X107Y274D01*
X287Y274D02*
X289Y274D01*
X343Y274D02*
X345Y274D01*
X393Y274D02*
X400Y274D01*
X0Y273D02*
X5Y273D01*
X102Y273D02*
X107Y273D01*
X287Y273D02*
X289Y273D01*
X343Y273D02*
X345Y273D01*
X393Y273D02*
X400Y273D01*
X0Y272D02*
X5Y272D01*
X102Y272D02*
X107Y272D01*
X287Y272D02*
X289Y272D01*
X343Y272D02*
X345Y272D01*
X393Y272D02*
X400Y272D01*
X0Y271D02*
X4Y271D01*
X102Y271D02*
X107Y271D01*
X287Y271D02*
X289Y271D01*
X343Y271D02*
X345Y271D01*
X393Y271D02*
X400Y271D01*
X0Y270D02*
X4Y270D01*
X102Y270D02*
X107Y270D01*
X287Y270D02*
X289Y270D01*
X343Y270D02*
X345Y270D01*
X393Y270D02*
X400Y270D01*
X0Y269D02*
X4Y269D01*
X102Y269D02*
X107Y269D01*
X287Y269D02*
X289Y269D01*
X343Y269D02*
X348Y269D01*
X393Y269D02*
X400Y269D01*
X0Y268D02*
X3Y268D01*
X102Y268D02*
X107Y268D01*
X287Y268D02*
X289Y268D01*
X343Y268D02*
X352Y268D01*
X371Y268D02*
X373Y268D01*
X393Y268D02*
X400Y268D01*
X0Y267D02*
X3Y267D01*
X102Y267D02*
X107Y267D01*
X287Y267D02*
X289Y267D01*
X343Y267D02*
X353Y267D01*
X370Y267D02*
X374Y267D01*
X393Y267D02*
X400Y267D01*
X0Y266D02*
X3Y266D01*
X102Y266D02*
X105Y266D01*
X343Y266D02*
X354Y266D01*
X370Y266D02*
X374Y266D01*
X393Y266D02*
X400Y266D01*
X0Y265D02*
X3Y265D01*
X102Y265D02*
X105Y265D01*
X343Y265D02*
X354Y265D01*
X370Y265D02*
X374Y265D01*
X384Y265D02*
X385Y265D01*
X393Y265D02*
X400Y265D01*
X0Y264D02*
X3Y264D01*
X102Y264D02*
X105Y264D01*
X343Y264D02*
X347Y264D01*
X351Y264D02*
X355Y264D01*
X370Y264D02*
X374Y264D01*
X383Y264D02*
X386Y264D01*
X393Y264D02*
X400Y264D01*
X0Y263D02*
X3Y263D01*
X102Y263D02*
X105Y263D01*
X343Y263D02*
X347Y263D01*
X351Y263D02*
X355Y263D01*
X370Y263D02*
X374Y263D01*
X383Y263D02*
X386Y263D01*
X393Y263D02*
X400Y263D01*
X0Y262D02*
X2Y262D01*
X102Y262D02*
X105Y262D01*
X290Y262D02*
X347Y262D01*
X352Y262D02*
X356Y262D01*
X370Y262D02*
X374Y262D01*
X383Y262D02*
X386Y262D01*
X393Y262D02*
X400Y262D01*
X0Y261D02*
X2Y261D01*
X102Y261D02*
X105Y261D01*
X290Y261D02*
X347Y261D01*
X352Y261D02*
X356Y261D01*
X370Y261D02*
X374Y261D01*
X383Y261D02*
X386Y261D01*
X393Y261D02*
X400Y261D01*
X0Y260D02*
X2Y260D01*
X102Y260D02*
X105Y260D01*
X290Y260D02*
X347Y260D01*
X353Y260D02*
X357Y260D01*
X370Y260D02*
X374Y260D01*
X383Y260D02*
X386Y260D01*
X393Y260D02*
X400Y260D01*
X0Y259D02*
X2Y259D01*
X102Y259D02*
X105Y259D01*
X290Y259D02*
X293Y259D01*
X344Y259D02*
X347Y259D01*
X353Y259D02*
X357Y259D01*
X370Y259D02*
X374Y259D01*
X383Y259D02*
X386Y259D01*
X393Y259D02*
X400Y259D01*
X0Y258D02*
X2Y258D01*
X102Y258D02*
X105Y258D01*
X290Y258D02*
X293Y258D01*
X344Y258D02*
X347Y258D01*
X354Y258D02*
X358Y258D01*
X370Y258D02*
X374Y258D01*
X383Y258D02*
X386Y258D01*
X393Y258D02*
X400Y258D01*
X0Y257D02*
X2Y257D01*
X102Y257D02*
X105Y257D01*
X290Y257D02*
X293Y257D01*
X344Y257D02*
X347Y257D01*
X354Y257D02*
X358Y257D01*
X370Y257D02*
X374Y257D01*
X383Y257D02*
X386Y257D01*
X393Y257D02*
X400Y257D01*
X0Y256D02*
X2Y256D01*
X102Y256D02*
X105Y256D01*
X290Y256D02*
X293Y256D01*
X344Y256D02*
X347Y256D01*
X355Y256D02*
X359Y256D01*
X370Y256D02*
X374Y256D01*
X383Y256D02*
X386Y256D01*
X393Y256D02*
X400Y256D01*
X0Y255D02*
X2Y255D01*
X102Y255D02*
X105Y255D01*
X290Y255D02*
X293Y255D01*
X344Y255D02*
X347Y255D01*
X355Y255D02*
X359Y255D01*
X370Y255D02*
X374Y255D01*
X383Y255D02*
X386Y255D01*
X393Y255D02*
X400Y255D01*
X0Y254D02*
X2Y254D01*
X102Y254D02*
X105Y254D01*
X290Y254D02*
X293Y254D01*
X344Y254D02*
X347Y254D01*
X356Y254D02*
X359Y254D01*
X370Y254D02*
X374Y254D01*
X383Y254D02*
X386Y254D01*
X393Y254D02*
X400Y254D01*
X0Y253D02*
X3Y253D01*
X102Y253D02*
X105Y253D01*
X290Y253D02*
X293Y253D01*
X344Y253D02*
X347Y253D01*
X356Y253D02*
X359Y253D01*
X370Y253D02*
X374Y253D01*
X383Y253D02*
X386Y253D01*
X393Y253D02*
X400Y253D01*
X0Y252D02*
X3Y252D01*
X102Y252D02*
X105Y252D01*
X290Y252D02*
X293Y252D01*
X344Y252D02*
X347Y252D01*
X356Y252D02*
X359Y252D01*
X370Y252D02*
X374Y252D01*
X383Y252D02*
X386Y252D01*
X393Y252D02*
X400Y252D01*
X0Y251D02*
X3Y251D01*
X102Y251D02*
X105Y251D01*
X290Y251D02*
X293Y251D01*
X344Y251D02*
X347Y251D01*
X356Y251D02*
X359Y251D01*
X370Y251D02*
X387Y251D01*
X393Y251D02*
X400Y251D01*
X0Y250D02*
X3Y250D01*
X102Y250D02*
X105Y250D01*
X290Y250D02*
X293Y250D01*
X344Y250D02*
X347Y250D01*
X355Y250D02*
X359Y250D01*
X370Y250D02*
X388Y250D01*
X393Y250D02*
X400Y250D01*
X0Y249D02*
X3Y249D01*
X102Y249D02*
X105Y249D01*
X290Y249D02*
X293Y249D01*
X344Y249D02*
X347Y249D01*
X355Y249D02*
X358Y249D01*
X370Y249D02*
X388Y249D01*
X393Y249D02*
X400Y249D01*
X0Y248D02*
X3Y248D01*
X103Y248D02*
X105Y248D01*
X290Y248D02*
X292Y248D01*
X344Y248D02*
X347Y248D01*
X354Y248D02*
X358Y248D01*
X370Y248D02*
X388Y248D01*
X393Y248D02*
X400Y248D01*
X0Y247D02*
X4Y247D01*
X104Y247D02*
X105Y247D01*
X290Y247D02*
X291Y247D01*
X344Y247D02*
X347Y247D01*
X354Y247D02*
X357Y247D01*
X383Y247D02*
X386Y247D01*
X393Y247D02*
X400Y247D01*
X0Y246D02*
X4Y246D01*
X344Y246D02*
X347Y246D01*
X353Y246D02*
X357Y246D01*
X383Y246D02*
X386Y246D01*
X393Y246D02*
X400Y246D01*
X0Y245D02*
X4Y245D01*
X344Y245D02*
X347Y245D01*
X353Y245D02*
X356Y245D01*
X383Y245D02*
X386Y245D01*
X393Y245D02*
X400Y245D01*
X0Y244D02*
X5Y244D01*
X344Y244D02*
X347Y244D01*
X352Y244D02*
X356Y244D01*
X383Y244D02*
X386Y244D01*
X393Y244D02*
X400Y244D01*
X0Y243D02*
X5Y243D01*
X344Y243D02*
X347Y243D01*
X352Y243D02*
X355Y243D01*
X383Y243D02*
X386Y243D01*
X393Y243D02*
X400Y243D01*
X0Y242D02*
X5Y242D01*
X344Y242D02*
X347Y242D01*
X351Y242D02*
X355Y242D01*
X383Y242D02*
X386Y242D01*
X393Y242D02*
X400Y242D01*
X0Y241D02*
X6Y241D01*
X343Y241D02*
X347Y241D01*
X350Y241D02*
X354Y241D01*
X383Y241D02*
X386Y241D01*
X393Y241D02*
X400Y241D01*
X0Y240D02*
X6Y240D01*
X340Y240D02*
X354Y240D01*
X383Y240D02*
X386Y240D01*
X393Y240D02*
X400Y240D01*
X0Y239D02*
X7Y239D01*
X353Y239D02*
X353Y239D01*
X383Y239D02*
X386Y239D01*
X393Y239D02*
X400Y239D01*
X0Y238D02*
X7Y238D01*
X383Y238D02*
X386Y238D01*
X393Y238D02*
X400Y238D01*
X0Y237D02*
X7Y237D01*
X384Y237D02*
X385Y237D01*
X393Y237D02*
X400Y237D01*
X0Y236D02*
X7Y236D01*
X393Y236D02*
X400Y236D01*
X0Y235D02*
X7Y235D01*
X393Y235D02*
X400Y235D01*
X0Y234D02*
X7Y234D01*
X393Y234D02*
X400Y234D01*
X0Y233D02*
X7Y233D01*
X393Y233D02*
X400Y233D01*
X0Y232D02*
X7Y232D01*
X393Y232D02*
X400Y232D01*
X0Y231D02*
X7Y231D01*
X393Y231D02*
X400Y231D01*
X0Y230D02*
X7Y230D01*
X393Y230D02*
X400Y230D01*
X0Y229D02*
X7Y229D01*
X393Y229D02*
X400Y229D01*
X0Y228D02*
X7Y228D01*
X393Y228D02*
X400Y228D01*
X0Y227D02*
X7Y227D01*
X393Y227D02*
X400Y227D01*
X0Y226D02*
X7Y226D01*
X393Y226D02*
X400Y226D01*
X0Y225D02*
X7Y225D01*
X393Y225D02*
X400Y225D01*
X0Y224D02*
X7Y224D01*
X393Y224D02*
X400Y224D01*
X0Y223D02*
X7Y223D01*
X393Y223D02*
X400Y223D01*
X0Y222D02*
X7Y222D01*
X393Y222D02*
X400Y222D01*
X0Y221D02*
X7Y221D01*
X393Y221D02*
X400Y221D01*
X0Y220D02*
X7Y220D01*
X393Y220D02*
X400Y220D01*
X0Y219D02*
X7Y219D01*
X393Y219D02*
X400Y219D01*
X0Y218D02*
X7Y218D01*
X393Y218D02*
X400Y218D01*
X0Y217D02*
X7Y217D01*
X393Y217D02*
X400Y217D01*
X0Y216D02*
X7Y216D01*
X393Y216D02*
X400Y216D01*
X0Y215D02*
X7Y215D01*
X393Y215D02*
X400Y215D01*
X0Y214D02*
X7Y214D01*
X393Y214D02*
X400Y214D01*
X0Y213D02*
X7Y213D01*
X393Y213D02*
X400Y213D01*
X0Y212D02*
X7Y212D01*
X393Y212D02*
X400Y212D01*
X0Y211D02*
X7Y211D01*
X393Y211D02*
X400Y211D01*
X0Y210D02*
X7Y210D01*
X393Y210D02*
X400Y210D01*
X0Y209D02*
X7Y209D01*
X393Y209D02*
X400Y209D01*
X0Y208D02*
X7Y208D01*
X393Y208D02*
X400Y208D01*
X0Y207D02*
X7Y207D01*
X393Y207D02*
X400Y207D01*
X0Y206D02*
X7Y206D01*
X393Y206D02*
X400Y206D01*
X0Y205D02*
X7Y205D01*
X393Y205D02*
X400Y205D01*
X0Y204D02*
X7Y204D01*
X393Y204D02*
X400Y204D01*
X0Y203D02*
X7Y203D01*
X393Y203D02*
X400Y203D01*
X0Y202D02*
X7Y202D01*
X393Y202D02*
X400Y202D01*
X0Y201D02*
X7Y201D01*
X393Y201D02*
X400Y201D01*
X0Y200D02*
X7Y200D01*
X393Y200D02*
X400Y200D01*
X0Y199D02*
X7Y199D01*
X393Y199D02*
X400Y199D01*
X0Y198D02*
X7Y198D01*
X393Y198D02*
X400Y198D01*
X0Y197D02*
X7Y197D01*
X394Y197D02*
X400Y197D01*
X0Y196D02*
X7Y196D01*
X394Y196D02*
X400Y196D01*
X0Y195D02*
X7Y195D01*
X394Y195D02*
X400Y195D01*
X0Y194D02*
X7Y194D01*
X394Y194D02*
X400Y194D01*
X0Y193D02*
X7Y193D01*
X394Y193D02*
X400Y193D01*
X0Y192D02*
X7Y192D01*
X394Y192D02*
X400Y192D01*
X0Y191D02*
X7Y191D01*
X394Y191D02*
X400Y191D01*
X0Y190D02*
X7Y190D01*
X394Y190D02*
X400Y190D01*
X0Y189D02*
X7Y189D01*
X394Y189D02*
X400Y189D01*
X0Y188D02*
X7Y188D01*
X394Y188D02*
X400Y188D01*
X0Y187D02*
X7Y187D01*
X394Y187D02*
X400Y187D01*
X0Y186D02*
X7Y186D01*
X394Y186D02*
X400Y186D01*
X0Y185D02*
X7Y185D01*
X394Y185D02*
X400Y185D01*
X0Y184D02*
X7Y184D01*
X393Y184D02*
X400Y184D01*
X0Y183D02*
X7Y183D01*
X393Y183D02*
X400Y183D01*
X0Y182D02*
X7Y182D01*
X393Y182D02*
X400Y182D01*
X0Y181D02*
X7Y181D01*
X393Y181D02*
X400Y181D01*
X0Y180D02*
X7Y180D01*
X393Y180D02*
X400Y180D01*
X0Y179D02*
X7Y179D01*
X393Y179D02*
X400Y179D01*
X0Y178D02*
X7Y178D01*
X393Y178D02*
X400Y178D01*
X0Y177D02*
X7Y177D01*
X393Y177D02*
X400Y177D01*
X0Y176D02*
X6Y176D01*
X393Y176D02*
X400Y176D01*
X0Y175D02*
X6Y175D01*
X393Y175D02*
X400Y175D01*
X0Y174D02*
X5Y174D01*
X393Y174D02*
X400Y174D01*
X0Y173D02*
X5Y173D01*
X393Y173D02*
X400Y173D01*
X0Y172D02*
X5Y172D01*
X393Y172D02*
X400Y172D01*
X0Y171D02*
X4Y171D01*
X393Y171D02*
X400Y171D01*
X0Y170D02*
X4Y170D01*
X393Y170D02*
X400Y170D01*
X0Y169D02*
X4Y169D01*
X393Y169D02*
X400Y169D01*
X0Y168D02*
X3Y168D01*
X393Y168D02*
X400Y168D01*
X0Y167D02*
X3Y167D01*
X393Y167D02*
X400Y167D01*
X0Y166D02*
X3Y166D01*
X393Y166D02*
X400Y166D01*
X0Y165D02*
X3Y165D01*
X393Y165D02*
X400Y165D01*
X0Y164D02*
X3Y164D01*
X393Y164D02*
X400Y164D01*
X0Y163D02*
X3Y163D01*
X393Y163D02*
X400Y163D01*
X0Y162D02*
X2Y162D01*
X393Y162D02*
X400Y162D01*
X0Y161D02*
X2Y161D01*
X393Y161D02*
X400Y161D01*
X0Y160D02*
X2Y160D01*
X393Y160D02*
X400Y160D01*
X0Y159D02*
X2Y159D01*
X393Y159D02*
X400Y159D01*
X0Y158D02*
X2Y158D01*
X393Y158D02*
X400Y158D01*
X0Y157D02*
X2Y157D01*
X393Y157D02*
X400Y157D01*
X0Y156D02*
X2Y156D01*
X393Y156D02*
X400Y156D01*
X0Y155D02*
X2Y155D01*
X393Y155D02*
X400Y155D01*
X0Y154D02*
X2Y154D01*
X393Y154D02*
X400Y154D01*
X0Y153D02*
X3Y153D01*
X393Y153D02*
X400Y153D01*
X0Y152D02*
X3Y152D01*
X393Y152D02*
X400Y152D01*
X0Y151D02*
X3Y151D01*
X393Y151D02*
X400Y151D01*
X0Y150D02*
X3Y150D01*
X393Y150D02*
X400Y150D01*
X0Y149D02*
X3Y149D01*
X121Y149D02*
X136Y149D01*
X201Y149D02*
X216Y149D01*
X393Y149D02*
X400Y149D01*
X0Y148D02*
X3Y148D01*
X120Y148D02*
X136Y148D01*
X201Y148D02*
X217Y148D01*
X393Y148D02*
X400Y148D01*
X0Y147D02*
X4Y147D01*
X119Y147D02*
X135Y147D01*
X201Y147D02*
X218Y147D01*
X393Y147D02*
X400Y147D01*
X0Y146D02*
X4Y146D01*
X117Y146D02*
X135Y146D01*
X202Y146D02*
X219Y146D01*
X393Y146D02*
X400Y146D01*
X0Y145D02*
X4Y145D01*
X116Y145D02*
X134Y145D01*
X202Y145D02*
X220Y145D01*
X393Y145D02*
X400Y145D01*
X0Y144D02*
X5Y144D01*
X115Y144D02*
X122Y144D01*
X215Y144D02*
X222Y144D01*
X393Y144D02*
X400Y144D01*
X0Y143D02*
X5Y143D01*
X114Y143D02*
X121Y143D01*
X216Y143D02*
X223Y143D01*
X393Y143D02*
X400Y143D01*
X0Y142D02*
X5Y142D01*
X113Y142D02*
X120Y142D01*
X217Y142D02*
X224Y142D01*
X393Y142D02*
X400Y142D01*
X0Y141D02*
X6Y141D01*
X112Y141D02*
X118Y141D01*
X218Y141D02*
X225Y141D01*
X393Y141D02*
X400Y141D01*
X0Y140D02*
X6Y140D01*
X111Y140D02*
X117Y140D01*
X219Y140D02*
X226Y140D01*
X393Y140D02*
X400Y140D01*
X0Y139D02*
X7Y139D01*
X110Y139D02*
X116Y139D01*
X220Y139D02*
X227Y139D01*
X245Y139D02*
X303Y139D01*
X393Y139D02*
X400Y139D01*
X0Y138D02*
X7Y138D01*
X109Y138D02*
X115Y138D01*
X221Y138D02*
X227Y138D01*
X245Y138D02*
X303Y138D01*
X393Y138D02*
X400Y138D01*
X0Y137D02*
X7Y137D01*
X108Y137D02*
X114Y137D01*
X222Y137D02*
X228Y137D01*
X245Y137D02*
X247Y137D01*
X300Y137D02*
X303Y137D01*
X393Y137D02*
X400Y137D01*
X0Y136D02*
X7Y136D01*
X108Y136D02*
X113Y136D01*
X223Y136D02*
X229Y136D01*
X245Y136D02*
X247Y136D01*
X301Y136D02*
X303Y136D01*
X393Y136D02*
X400Y136D01*
X0Y135D02*
X7Y135D01*
X107Y135D02*
X112Y135D01*
X224Y135D02*
X230Y135D01*
X245Y135D02*
X247Y135D01*
X301Y135D02*
X303Y135D01*
X393Y135D02*
X400Y135D01*
X0Y134D02*
X7Y134D01*
X106Y134D02*
X112Y134D01*
X225Y134D02*
X231Y134D01*
X245Y134D02*
X247Y134D01*
X301Y134D02*
X303Y134D01*
X393Y134D02*
X400Y134D01*
X0Y133D02*
X7Y133D01*
X105Y133D02*
X111Y133D01*
X226Y133D02*
X231Y133D01*
X245Y133D02*
X247Y133D01*
X301Y133D02*
X303Y133D01*
X393Y133D02*
X400Y133D01*
X0Y132D02*
X7Y132D01*
X105Y132D02*
X110Y132D01*
X227Y132D02*
X232Y132D01*
X245Y132D02*
X247Y132D01*
X301Y132D02*
X303Y132D01*
X393Y132D02*
X400Y132D01*
X0Y131D02*
X7Y131D01*
X104Y131D02*
X109Y131D01*
X228Y131D02*
X233Y131D01*
X245Y131D02*
X247Y131D01*
X301Y131D02*
X303Y131D01*
X393Y131D02*
X400Y131D01*
X0Y130D02*
X7Y130D01*
X103Y130D02*
X108Y130D01*
X228Y130D02*
X234Y130D01*
X245Y130D02*
X247Y130D01*
X301Y130D02*
X303Y130D01*
X393Y130D02*
X400Y130D01*
X0Y129D02*
X7Y129D01*
X103Y129D02*
X108Y129D01*
X229Y129D02*
X234Y129D01*
X245Y129D02*
X247Y129D01*
X301Y129D02*
X303Y129D01*
X393Y129D02*
X400Y129D01*
X0Y128D02*
X7Y128D01*
X102Y128D02*
X107Y128D01*
X230Y128D02*
X235Y128D01*
X245Y128D02*
X247Y128D01*
X301Y128D02*
X303Y128D01*
X393Y128D02*
X400Y128D01*
X0Y127D02*
X7Y127D01*
X101Y127D02*
X106Y127D01*
X231Y127D02*
X235Y127D01*
X245Y127D02*
X247Y127D01*
X301Y127D02*
X303Y127D01*
X393Y127D02*
X400Y127D01*
X0Y126D02*
X7Y126D01*
X101Y126D02*
X106Y126D01*
X231Y126D02*
X236Y126D01*
X245Y126D02*
X247Y126D01*
X301Y126D02*
X303Y126D01*
X393Y126D02*
X400Y126D01*
X0Y125D02*
X7Y125D01*
X100Y125D02*
X105Y125D01*
X232Y125D02*
X237Y125D01*
X245Y125D02*
X247Y125D01*
X301Y125D02*
X303Y125D01*
X393Y125D02*
X400Y125D01*
X0Y124D02*
X7Y124D01*
X100Y124D02*
X104Y124D01*
X233Y124D02*
X237Y124D01*
X245Y124D02*
X247Y124D01*
X301Y124D02*
X303Y124D01*
X393Y124D02*
X400Y124D01*
X0Y123D02*
X7Y123D01*
X99Y123D02*
X104Y123D01*
X233Y123D02*
X238Y123D01*
X245Y123D02*
X247Y123D01*
X301Y123D02*
X303Y123D01*
X393Y123D02*
X400Y123D01*
X0Y122D02*
X7Y122D01*
X98Y122D02*
X103Y122D01*
X234Y122D02*
X238Y122D01*
X245Y122D02*
X247Y122D01*
X301Y122D02*
X303Y122D01*
X393Y122D02*
X400Y122D01*
X0Y121D02*
X7Y121D01*
X98Y121D02*
X103Y121D01*
X234Y121D02*
X239Y121D01*
X245Y121D02*
X247Y121D01*
X301Y121D02*
X303Y121D01*
X393Y121D02*
X400Y121D01*
X0Y120D02*
X7Y120D01*
X97Y120D02*
X102Y120D01*
X235Y120D02*
X239Y120D01*
X245Y120D02*
X247Y120D01*
X301Y120D02*
X303Y120D01*
X393Y120D02*
X400Y120D01*
X0Y119D02*
X7Y119D01*
X97Y119D02*
X102Y119D01*
X235Y119D02*
X240Y119D01*
X245Y119D02*
X247Y119D01*
X301Y119D02*
X303Y119D01*
X393Y119D02*
X400Y119D01*
X0Y118D02*
X7Y118D01*
X97Y118D02*
X101Y118D01*
X236Y118D02*
X240Y118D01*
X245Y118D02*
X247Y118D01*
X301Y118D02*
X303Y118D01*
X393Y118D02*
X400Y118D01*
X0Y117D02*
X7Y117D01*
X96Y117D02*
X101Y117D01*
X236Y117D02*
X241Y117D01*
X245Y117D02*
X247Y117D01*
X301Y117D02*
X303Y117D01*
X393Y117D02*
X400Y117D01*
X0Y116D02*
X7Y116D01*
X96Y116D02*
X100Y116D01*
X237Y116D02*
X241Y116D01*
X245Y116D02*
X247Y116D01*
X301Y116D02*
X303Y116D01*
X393Y116D02*
X400Y116D01*
X0Y115D02*
X7Y115D01*
X95Y115D02*
X100Y115D01*
X237Y115D02*
X241Y115D01*
X245Y115D02*
X247Y115D01*
X301Y115D02*
X303Y115D01*
X393Y115D02*
X400Y115D01*
X0Y114D02*
X7Y114D01*
X95Y114D02*
X99Y114D01*
X238Y114D02*
X242Y114D01*
X245Y114D02*
X247Y114D01*
X301Y114D02*
X303Y114D01*
X393Y114D02*
X400Y114D01*
X0Y113D02*
X7Y113D01*
X94Y113D02*
X99Y113D01*
X238Y113D02*
X242Y113D01*
X245Y113D02*
X247Y113D01*
X301Y113D02*
X303Y113D01*
X393Y113D02*
X400Y113D01*
X0Y112D02*
X7Y112D01*
X94Y112D02*
X98Y112D01*
X238Y112D02*
X243Y112D01*
X245Y112D02*
X247Y112D01*
X301Y112D02*
X303Y112D01*
X393Y112D02*
X400Y112D01*
X0Y111D02*
X7Y111D01*
X94Y111D02*
X98Y111D01*
X239Y111D02*
X243Y111D01*
X245Y111D02*
X247Y111D01*
X301Y111D02*
X303Y111D01*
X393Y111D02*
X400Y111D01*
X0Y110D02*
X7Y110D01*
X94Y110D02*
X98Y110D01*
X239Y110D02*
X243Y110D01*
X245Y110D02*
X247Y110D01*
X301Y110D02*
X303Y110D01*
X393Y110D02*
X400Y110D01*
X0Y109D02*
X7Y109D01*
X93Y109D02*
X97Y109D01*
X240Y109D02*
X243Y109D01*
X245Y109D02*
X247Y109D01*
X301Y109D02*
X303Y109D01*
X393Y109D02*
X400Y109D01*
X0Y108D02*
X7Y108D01*
X93Y108D02*
X97Y108D01*
X240Y108D02*
X247Y108D01*
X301Y108D02*
X303Y108D01*
X393Y108D02*
X400Y108D01*
X0Y107D02*
X7Y107D01*
X93Y107D02*
X97Y107D01*
X240Y107D02*
X247Y107D01*
X301Y107D02*
X303Y107D01*
X393Y107D02*
X400Y107D01*
X0Y106D02*
X7Y106D01*
X92Y106D02*
X96Y106D01*
X240Y106D02*
X247Y106D01*
X301Y106D02*
X303Y106D01*
X393Y106D02*
X400Y106D01*
X0Y105D02*
X7Y105D01*
X92Y105D02*
X96Y105D01*
X241Y105D02*
X247Y105D01*
X301Y105D02*
X303Y105D01*
X393Y105D02*
X400Y105D01*
X0Y104D02*
X7Y104D01*
X92Y104D02*
X96Y104D01*
X241Y104D02*
X247Y104D01*
X301Y104D02*
X303Y104D01*
X393Y104D02*
X400Y104D01*
X0Y103D02*
X7Y103D01*
X92Y103D02*
X96Y103D01*
X241Y103D02*
X247Y103D01*
X301Y103D02*
X303Y103D01*
X393Y103D02*
X400Y103D01*
X0Y102D02*
X7Y102D01*
X91Y102D02*
X95Y102D01*
X241Y102D02*
X247Y102D01*
X301Y102D02*
X303Y102D01*
X393Y102D02*
X400Y102D01*
X0Y101D02*
X7Y101D01*
X91Y101D02*
X95Y101D01*
X242Y101D02*
X247Y101D01*
X301Y101D02*
X303Y101D01*
X393Y101D02*
X400Y101D01*
X0Y100D02*
X7Y100D01*
X91Y100D02*
X95Y100D01*
X242Y100D02*
X247Y100D01*
X301Y100D02*
X303Y100D01*
X393Y100D02*
X400Y100D01*
X0Y99D02*
X7Y99D01*
X91Y99D02*
X95Y99D01*
X242Y99D02*
X247Y99D01*
X301Y99D02*
X303Y99D01*
X393Y99D02*
X400Y99D01*
X0Y98D02*
X7Y98D01*
X91Y98D02*
X95Y98D01*
X242Y98D02*
X247Y98D01*
X301Y98D02*
X303Y98D01*
X393Y98D02*
X400Y98D01*
X0Y97D02*
X7Y97D01*
X91Y97D02*
X94Y97D01*
X133Y97D02*
X149Y97D01*
X193Y97D02*
X202Y97D01*
X242Y97D02*
X247Y97D01*
X301Y97D02*
X303Y97D01*
X393Y97D02*
X400Y97D01*
X0Y96D02*
X7Y96D01*
X90Y96D02*
X94Y96D01*
X132Y96D02*
X151Y96D01*
X178Y96D02*
X178Y96D01*
X192Y96D02*
X203Y96D01*
X243Y96D02*
X247Y96D01*
X301Y96D02*
X303Y96D01*
X393Y96D02*
X400Y96D01*
X0Y95D02*
X7Y95D01*
X90Y95D02*
X94Y95D01*
X131Y95D02*
X151Y95D01*
X161Y95D02*
X163Y95D01*
X174Y95D02*
X179Y95D01*
X191Y95D02*
X203Y95D01*
X243Y95D02*
X247Y95D01*
X301Y95D02*
X303Y95D01*
X393Y95D02*
X400Y95D01*
X0Y94D02*
X7Y94D01*
X90Y94D02*
X94Y94D01*
X132Y94D02*
X151Y94D01*
X161Y94D02*
X180Y94D01*
X192Y94D02*
X203Y94D01*
X243Y94D02*
X247Y94D01*
X301Y94D02*
X303Y94D01*
X393Y94D02*
X400Y94D01*
X0Y93D02*
X7Y93D01*
X90Y93D02*
X94Y93D01*
X133Y93D02*
X150Y93D01*
X161Y93D02*
X181Y93D01*
X193Y93D02*
X203Y93D01*
X243Y93D02*
X247Y93D01*
X301Y93D02*
X303Y93D01*
X393Y93D02*
X400Y93D01*
X0Y92D02*
X7Y92D01*
X90Y92D02*
X94Y92D01*
X140Y92D02*
X143Y92D01*
X161Y92D02*
X165Y92D01*
X177Y92D02*
X181Y92D01*
X200Y92D02*
X203Y92D01*
X243Y92D02*
X247Y92D01*
X301Y92D02*
X303Y92D01*
X393Y92D02*
X400Y92D01*
X0Y91D02*
X7Y91D01*
X90Y91D02*
X94Y91D01*
X140Y91D02*
X143Y91D01*
X161Y91D02*
X165Y91D01*
X178Y91D02*
X181Y91D01*
X200Y91D02*
X203Y91D01*
X243Y91D02*
X247Y91D01*
X301Y91D02*
X303Y91D01*
X393Y91D02*
X400Y91D01*
X0Y90D02*
X7Y90D01*
X90Y90D02*
X94Y90D01*
X140Y90D02*
X143Y90D01*
X161Y90D02*
X165Y90D01*
X178Y90D02*
X181Y90D01*
X200Y90D02*
X203Y90D01*
X243Y90D02*
X247Y90D01*
X301Y90D02*
X303Y90D01*
X393Y90D02*
X400Y90D01*
X0Y89D02*
X7Y89D01*
X90Y89D02*
X94Y89D01*
X140Y89D02*
X143Y89D01*
X161Y89D02*
X165Y89D01*
X178Y89D02*
X181Y89D01*
X200Y89D02*
X203Y89D01*
X243Y89D02*
X247Y89D01*
X301Y89D02*
X303Y89D01*
X393Y89D02*
X400Y89D01*
X0Y88D02*
X7Y88D01*
X90Y88D02*
X94Y88D01*
X140Y88D02*
X143Y88D01*
X161Y88D02*
X165Y88D01*
X178Y88D02*
X181Y88D01*
X200Y88D02*
X203Y88D01*
X243Y88D02*
X247Y88D01*
X301Y88D02*
X303Y88D01*
X393Y88D02*
X400Y88D01*
X0Y87D02*
X7Y87D01*
X90Y87D02*
X94Y87D01*
X140Y87D02*
X143Y87D01*
X161Y87D02*
X165Y87D01*
X177Y87D02*
X181Y87D01*
X200Y87D02*
X203Y87D01*
X243Y87D02*
X247Y87D01*
X301Y87D02*
X303Y87D01*
X393Y87D02*
X400Y87D01*
X0Y86D02*
X7Y86D01*
X90Y86D02*
X94Y86D01*
X140Y86D02*
X143Y86D01*
X161Y86D02*
X180Y86D01*
X200Y86D02*
X203Y86D01*
X243Y86D02*
X247Y86D01*
X301Y86D02*
X303Y86D01*
X393Y86D02*
X400Y86D01*
X0Y85D02*
X7Y85D01*
X90Y85D02*
X94Y85D01*
X140Y85D02*
X143Y85D01*
X161Y85D02*
X180Y85D01*
X200Y85D02*
X203Y85D01*
X243Y85D02*
X247Y85D01*
X301Y85D02*
X303Y85D01*
X393Y85D02*
X400Y85D01*
X0Y84D02*
X7Y84D01*
X90Y84D02*
X94Y84D01*
X140Y84D02*
X143Y84D01*
X161Y84D02*
X179Y84D01*
X200Y84D02*
X203Y84D01*
X243Y84D02*
X247Y84D01*
X301Y84D02*
X303Y84D01*
X393Y84D02*
X400Y84D01*
X0Y83D02*
X7Y83D01*
X90Y83D02*
X94Y83D01*
X140Y83D02*
X143Y83D01*
X161Y83D02*
X178Y83D01*
X200Y83D02*
X203Y83D01*
X243Y83D02*
X247Y83D01*
X301Y83D02*
X303Y83D01*
X393Y83D02*
X400Y83D01*
X0Y82D02*
X7Y82D01*
X90Y82D02*
X94Y82D01*
X140Y82D02*
X143Y82D01*
X161Y82D02*
X165Y82D01*
X168Y82D02*
X173Y82D01*
X200Y82D02*
X203Y82D01*
X243Y82D02*
X247Y82D01*
X301Y82D02*
X303Y82D01*
X393Y82D02*
X400Y82D01*
X0Y81D02*
X7Y81D01*
X90Y81D02*
X94Y81D01*
X140Y81D02*
X143Y81D01*
X161Y81D02*
X165Y81D01*
X169Y81D02*
X173Y81D01*
X200Y81D02*
X203Y81D01*
X243Y81D02*
X247Y81D01*
X301Y81D02*
X303Y81D01*
X393Y81D02*
X400Y81D01*
X0Y80D02*
X7Y80D01*
X90Y80D02*
X94Y80D01*
X140Y80D02*
X143Y80D01*
X161Y80D02*
X165Y80D01*
X170Y80D02*
X174Y80D01*
X200Y80D02*
X203Y80D01*
X243Y80D02*
X247Y80D01*
X301Y80D02*
X303Y80D01*
X393Y80D02*
X400Y80D01*
X0Y79D02*
X7Y79D01*
X90Y79D02*
X94Y79D01*
X140Y79D02*
X143Y79D01*
X161Y79D02*
X165Y79D01*
X170Y79D02*
X174Y79D01*
X200Y79D02*
X203Y79D01*
X209Y79D02*
X210Y79D01*
X243Y79D02*
X248Y79D01*
X300Y79D02*
X303Y79D01*
X393Y79D02*
X400Y79D01*
X0Y78D02*
X7Y78D01*
X90Y78D02*
X94Y78D01*
X140Y78D02*
X143Y78D01*
X161Y78D02*
X165Y78D01*
X171Y78D02*
X175Y78D01*
X200Y78D02*
X203Y78D01*
X208Y78D02*
X211Y78D01*
X243Y78D02*
X248Y78D01*
X300Y78D02*
X303Y78D01*
X393Y78D02*
X400Y78D01*
X0Y77D02*
X7Y77D01*
X90Y77D02*
X94Y77D01*
X140Y77D02*
X143Y77D01*
X161Y77D02*
X165Y77D01*
X171Y77D02*
X175Y77D01*
X200Y77D02*
X203Y77D01*
X208Y77D02*
X211Y77D01*
X243Y77D02*
X248Y77D01*
X300Y77D02*
X303Y77D01*
X393Y77D02*
X400Y77D01*
X0Y76D02*
X6Y76D01*
X90Y76D02*
X94Y76D01*
X140Y76D02*
X143Y76D01*
X161Y76D02*
X165Y76D01*
X172Y76D02*
X176Y76D01*
X200Y76D02*
X203Y76D01*
X208Y76D02*
X211Y76D01*
X243Y76D02*
X248Y76D01*
X300Y76D02*
X303Y76D01*
X393Y76D02*
X400Y76D01*
X0Y75D02*
X6Y75D01*
X90Y75D02*
X94Y75D01*
X140Y75D02*
X143Y75D01*
X161Y75D02*
X165Y75D01*
X173Y75D02*
X177Y75D01*
X200Y75D02*
X203Y75D01*
X208Y75D02*
X211Y75D01*
X243Y75D02*
X248Y75D01*
X300Y75D02*
X303Y75D01*
X393Y75D02*
X400Y75D01*
X0Y74D02*
X5Y74D01*
X91Y74D02*
X94Y74D01*
X140Y74D02*
X143Y74D01*
X161Y74D02*
X165Y74D01*
X173Y74D02*
X177Y74D01*
X200Y74D02*
X203Y74D01*
X208Y74D02*
X211Y74D01*
X242Y74D02*
X248Y74D01*
X300Y74D02*
X303Y74D01*
X393Y74D02*
X400Y74D01*
X0Y73D02*
X5Y73D01*
X91Y73D02*
X95Y73D01*
X140Y73D02*
X143Y73D01*
X161Y73D02*
X165Y73D01*
X174Y73D02*
X178Y73D01*
X200Y73D02*
X203Y73D01*
X208Y73D02*
X211Y73D01*
X242Y73D02*
X248Y73D01*
X300Y73D02*
X303Y73D01*
X393Y73D02*
X400Y73D01*
X0Y72D02*
X5Y72D01*
X91Y72D02*
X95Y72D01*
X140Y72D02*
X143Y72D01*
X161Y72D02*
X165Y72D01*
X174Y72D02*
X178Y72D01*
X200Y72D02*
X203Y72D01*
X208Y72D02*
X211Y72D01*
X242Y72D02*
X248Y72D01*
X300Y72D02*
X303Y72D01*
X393Y72D02*
X400Y72D01*
X0Y71D02*
X4Y71D01*
X91Y71D02*
X95Y71D01*
X140Y71D02*
X143Y71D01*
X161Y71D02*
X165Y71D01*
X175Y71D02*
X179Y71D01*
X200Y71D02*
X203Y71D01*
X208Y71D02*
X211Y71D01*
X242Y71D02*
X248Y71D01*
X300Y71D02*
X303Y71D01*
X393Y71D02*
X400Y71D01*
X0Y70D02*
X4Y70D01*
X91Y70D02*
X95Y70D01*
X140Y70D02*
X143Y70D01*
X161Y70D02*
X165Y70D01*
X176Y70D02*
X179Y70D01*
X200Y70D02*
X203Y70D01*
X208Y70D02*
X211Y70D01*
X242Y70D02*
X247Y70D01*
X301Y70D02*
X303Y70D01*
X393Y70D02*
X400Y70D01*
X0Y69D02*
X4Y69D01*
X92Y69D02*
X95Y69D01*
X208Y69D02*
X211Y69D01*
X241Y69D02*
X247Y69D01*
X301Y69D02*
X303Y69D01*
X393Y69D02*
X400Y69D01*
X0Y68D02*
X3Y68D01*
X92Y68D02*
X96Y68D01*
X205Y68D02*
X211Y68D01*
X241Y68D02*
X247Y68D01*
X301Y68D02*
X303Y68D01*
X393Y68D02*
X400Y68D01*
X0Y67D02*
X3Y67D01*
X92Y67D02*
X96Y67D01*
X131Y67D02*
X131Y67D01*
X205Y67D02*
X211Y67D01*
X241Y67D02*
X247Y67D01*
X301Y67D02*
X303Y67D01*
X393Y67D02*
X400Y67D01*
X0Y66D02*
X3Y66D01*
X92Y66D02*
X96Y66D01*
X131Y66D02*
X131Y66D01*
X205Y66D02*
X211Y66D01*
X241Y66D02*
X247Y66D01*
X301Y66D02*
X303Y66D01*
X393Y66D02*
X400Y66D01*
X0Y65D02*
X3Y65D01*
X93Y65D02*
X96Y65D01*
X205Y65D02*
X210Y65D01*
X240Y65D02*
X247Y65D01*
X301Y65D02*
X303Y65D01*
X393Y65D02*
X400Y65D01*
X0Y64D02*
X3Y64D01*
X93Y64D02*
X97Y64D01*
X240Y64D02*
X247Y64D01*
X301Y64D02*
X303Y64D01*
X393Y64D02*
X400Y64D01*
X0Y63D02*
X3Y63D01*
X93Y63D02*
X97Y63D01*
X240Y63D02*
X247Y63D01*
X301Y63D02*
X303Y63D01*
X393Y63D02*
X400Y63D01*
X0Y62D02*
X2Y62D01*
X93Y62D02*
X97Y62D01*
X239Y62D02*
X247Y62D01*
X301Y62D02*
X303Y62D01*
X393Y62D02*
X400Y62D01*
X0Y61D02*
X2Y61D01*
X94Y61D02*
X98Y61D01*
X239Y61D02*
X243Y61D01*
X245Y61D02*
X247Y61D01*
X301Y61D02*
X303Y61D01*
X393Y61D02*
X400Y61D01*
X0Y60D02*
X2Y60D01*
X94Y60D02*
X98Y60D01*
X239Y60D02*
X243Y60D01*
X245Y60D02*
X247Y60D01*
X301Y60D02*
X303Y60D01*
X393Y60D02*
X400Y60D01*
X0Y59D02*
X2Y59D01*
X94Y59D02*
X99Y59D01*
X238Y59D02*
X243Y59D01*
X245Y59D02*
X247Y59D01*
X301Y59D02*
X303Y59D01*
X393Y59D02*
X400Y59D01*
X0Y58D02*
X2Y58D01*
X95Y58D02*
X99Y58D01*
X238Y58D02*
X242Y58D01*
X245Y58D02*
X247Y58D01*
X301Y58D02*
X303Y58D01*
X393Y58D02*
X400Y58D01*
X0Y57D02*
X2Y57D01*
X95Y57D02*
X99Y57D01*
X237Y57D02*
X242Y57D01*
X245Y57D02*
X247Y57D01*
X301Y57D02*
X303Y57D01*
X393Y57D02*
X400Y57D01*
X0Y56D02*
X2Y56D01*
X96Y56D02*
X100Y56D01*
X237Y56D02*
X241Y56D01*
X245Y56D02*
X247Y56D01*
X301Y56D02*
X303Y56D01*
X393Y56D02*
X400Y56D01*
X0Y55D02*
X2Y55D01*
X96Y55D02*
X100Y55D01*
X237Y55D02*
X241Y55D01*
X245Y55D02*
X247Y55D01*
X301Y55D02*
X303Y55D01*
X393Y55D02*
X400Y55D01*
X0Y54D02*
X2Y54D01*
X96Y54D02*
X101Y54D01*
X236Y54D02*
X241Y54D01*
X245Y54D02*
X247Y54D01*
X301Y54D02*
X303Y54D01*
X393Y54D02*
X400Y54D01*
X0Y53D02*
X3Y53D01*
X97Y53D02*
X101Y53D01*
X236Y53D02*
X240Y53D01*
X245Y53D02*
X247Y53D01*
X301Y53D02*
X303Y53D01*
X393Y53D02*
X400Y53D01*
X0Y52D02*
X3Y52D01*
X97Y52D02*
X102Y52D01*
X235Y52D02*
X240Y52D01*
X245Y52D02*
X247Y52D01*
X301Y52D02*
X303Y52D01*
X393Y52D02*
X400Y52D01*
X0Y51D02*
X3Y51D01*
X98Y51D02*
X102Y51D01*
X234Y51D02*
X239Y51D01*
X245Y51D02*
X247Y51D01*
X301Y51D02*
X303Y51D01*
X393Y51D02*
X400Y51D01*
X0Y50D02*
X3Y50D01*
X98Y50D02*
X103Y50D01*
X234Y50D02*
X239Y50D01*
X245Y50D02*
X247Y50D01*
X301Y50D02*
X303Y50D01*
X393Y50D02*
X400Y50D01*
X0Y49D02*
X3Y49D01*
X99Y49D02*
X103Y49D01*
X233Y49D02*
X238Y49D01*
X245Y49D02*
X247Y49D01*
X301Y49D02*
X303Y49D01*
X393Y49D02*
X400Y49D01*
X0Y48D02*
X3Y48D01*
X99Y48D02*
X104Y48D01*
X233Y48D02*
X238Y48D01*
X245Y48D02*
X247Y48D01*
X301Y48D02*
X303Y48D01*
X393Y48D02*
X400Y48D01*
X0Y47D02*
X4Y47D01*
X100Y47D02*
X104Y47D01*
X232Y47D02*
X237Y47D01*
X245Y47D02*
X247Y47D01*
X301Y47D02*
X303Y47D01*
X393Y47D02*
X400Y47D01*
X0Y46D02*
X4Y46D01*
X100Y46D02*
X105Y46D01*
X232Y46D02*
X237Y46D01*
X245Y46D02*
X247Y46D01*
X301Y46D02*
X303Y46D01*
X393Y46D02*
X400Y46D01*
X0Y45D02*
X4Y45D01*
X101Y45D02*
X106Y45D01*
X231Y45D02*
X236Y45D01*
X245Y45D02*
X247Y45D01*
X301Y45D02*
X303Y45D01*
X393Y45D02*
X400Y45D01*
X0Y44D02*
X5Y44D01*
X102Y44D02*
X106Y44D01*
X230Y44D02*
X235Y44D01*
X245Y44D02*
X247Y44D01*
X301Y44D02*
X303Y44D01*
X312Y44D02*
X328Y44D01*
X342Y44D02*
X359Y44D01*
X393Y44D02*
X400Y44D01*
X0Y43D02*
X5Y43D01*
X102Y43D02*
X107Y43D01*
X230Y43D02*
X235Y43D01*
X245Y43D02*
X247Y43D01*
X301Y43D02*
X303Y43D01*
X312Y43D02*
X329Y43D01*
X342Y43D02*
X360Y43D01*
X393Y43D02*
X400Y43D01*
X0Y42D02*
X5Y42D01*
X103Y42D02*
X108Y42D01*
X229Y42D02*
X234Y42D01*
X245Y42D02*
X247Y42D01*
X301Y42D02*
X303Y42D01*
X312Y42D02*
X330Y42D01*
X342Y42D02*
X361Y42D01*
X393Y42D02*
X400Y42D01*
X0Y41D02*
X6Y41D01*
X103Y41D02*
X109Y41D01*
X228Y41D02*
X233Y41D01*
X245Y41D02*
X247Y41D01*
X301Y41D02*
X303Y41D01*
X312Y41D02*
X331Y41D01*
X342Y41D02*
X361Y41D01*
X393Y41D02*
X400Y41D01*
X0Y40D02*
X6Y40D01*
X104Y40D02*
X109Y40D01*
X227Y40D02*
X233Y40D01*
X245Y40D02*
X247Y40D01*
X301Y40D02*
X303Y40D01*
X312Y40D02*
X315Y40D01*
X327Y40D02*
X331Y40D01*
X358Y40D02*
X361Y40D01*
X393Y40D02*
X400Y40D01*
X0Y39D02*
X7Y39D01*
X105Y39D02*
X110Y39D01*
X227Y39D02*
X232Y39D01*
X245Y39D02*
X247Y39D01*
X301Y39D02*
X303Y39D01*
X312Y39D02*
X315Y39D01*
X328Y39D02*
X331Y39D01*
X358Y39D02*
X361Y39D01*
X393Y39D02*
X400Y39D01*
X0Y38D02*
X7Y38D01*
X106Y38D02*
X111Y38D01*
X226Y38D02*
X231Y38D01*
X245Y38D02*
X247Y38D01*
X301Y38D02*
X303Y38D01*
X312Y38D02*
X315Y38D01*
X328Y38D02*
X331Y38D01*
X358Y38D02*
X361Y38D01*
X393Y38D02*
X400Y38D01*
X0Y37D02*
X7Y37D01*
X106Y37D02*
X112Y37D01*
X225Y37D02*
X231Y37D01*
X245Y37D02*
X247Y37D01*
X301Y37D02*
X303Y37D01*
X312Y37D02*
X315Y37D01*
X328Y37D02*
X331Y37D01*
X358Y37D02*
X361Y37D01*
X393Y37D02*
X400Y37D01*
X0Y36D02*
X7Y36D01*
X107Y36D02*
X113Y36D01*
X224Y36D02*
X230Y36D01*
X245Y36D02*
X247Y36D01*
X301Y36D02*
X303Y36D01*
X312Y36D02*
X315Y36D01*
X328Y36D02*
X331Y36D01*
X358Y36D02*
X361Y36D01*
X393Y36D02*
X400Y36D01*
X0Y35D02*
X7Y35D01*
X108Y35D02*
X114Y35D01*
X223Y35D02*
X229Y35D01*
X245Y35D02*
X247Y35D01*
X301Y35D02*
X303Y35D01*
X312Y35D02*
X315Y35D01*
X328Y35D02*
X331Y35D01*
X358Y35D02*
X361Y35D01*
X393Y35D02*
X400Y35D01*
X0Y34D02*
X7Y34D01*
X109Y34D02*
X115Y34D01*
X222Y34D02*
X228Y34D01*
X245Y34D02*
X247Y34D01*
X301Y34D02*
X303Y34D01*
X312Y34D02*
X315Y34D01*
X326Y34D02*
X331Y34D01*
X358Y34D02*
X361Y34D01*
X393Y34D02*
X400Y34D01*
X0Y33D02*
X7Y33D01*
X110Y33D02*
X116Y33D01*
X221Y33D02*
X227Y33D01*
X245Y33D02*
X247Y33D01*
X301Y33D02*
X303Y33D01*
X312Y33D02*
X330Y33D01*
X358Y33D02*
X361Y33D01*
X393Y33D02*
X400Y33D01*
X0Y32D02*
X7Y32D01*
X111Y32D02*
X117Y32D01*
X220Y32D02*
X226Y32D01*
X245Y32D02*
X247Y32D01*
X301Y32D02*
X303Y32D01*
X312Y32D02*
X330Y32D01*
X358Y32D02*
X361Y32D01*
X393Y32D02*
X400Y32D01*
X0Y31D02*
X7Y31D01*
X111Y31D02*
X118Y31D01*
X219Y31D02*
X225Y31D01*
X245Y31D02*
X247Y31D01*
X301Y31D02*
X303Y31D01*
X312Y31D02*
X329Y31D01*
X358Y31D02*
X361Y31D01*
X393Y31D02*
X400Y31D01*
X0Y30D02*
X7Y30D01*
X112Y30D02*
X119Y30D01*
X218Y30D02*
X224Y30D01*
X245Y30D02*
X247Y30D01*
X301Y30D02*
X303Y30D01*
X312Y30D02*
X327Y30D01*
X344Y30D02*
X361Y30D01*
X393Y30D02*
X400Y30D01*
X0Y29D02*
X7Y29D01*
X113Y29D02*
X120Y29D01*
X217Y29D02*
X223Y29D01*
X245Y29D02*
X247Y29D01*
X301Y29D02*
X303Y29D01*
X312Y29D02*
X315Y29D01*
X319Y29D02*
X323Y29D01*
X343Y29D02*
X361Y29D01*
X393Y29D02*
X400Y29D01*
X0Y28D02*
X7Y28D01*
X114Y28D02*
X121Y28D01*
X216Y28D02*
X222Y28D01*
X245Y28D02*
X247Y28D01*
X301Y28D02*
X303Y28D01*
X312Y28D02*
X315Y28D01*
X320Y28D02*
X324Y28D01*
X342Y28D02*
X360Y28D01*
X393Y28D02*
X400Y28D01*
X0Y27D02*
X7Y27D01*
X115Y27D02*
X122Y27D01*
X214Y27D02*
X221Y27D01*
X245Y27D02*
X247Y27D01*
X301Y27D02*
X303Y27D01*
X312Y27D02*
X315Y27D01*
X320Y27D02*
X324Y27D01*
X342Y27D02*
X359Y27D01*
X393Y27D02*
X400Y27D01*
X0Y26D02*
X7Y26D01*
X117Y26D02*
X124Y26D01*
X213Y26D02*
X220Y26D01*
X245Y26D02*
X247Y26D01*
X301Y26D02*
X303Y26D01*
X312Y26D02*
X315Y26D01*
X321Y26D02*
X325Y26D01*
X342Y26D02*
X345Y26D01*
X393Y26D02*
X400Y26D01*
X0Y25D02*
X7Y25D01*
X118Y25D02*
X125Y25D01*
X212Y25D02*
X219Y25D01*
X245Y25D02*
X247Y25D01*
X301Y25D02*
X303Y25D01*
X312Y25D02*
X315Y25D01*
X322Y25D02*
X325Y25D01*
X342Y25D02*
X345Y25D01*
X393Y25D02*
X400Y25D01*
X0Y24D02*
X7Y24D01*
X119Y24D02*
X127Y24D01*
X210Y24D02*
X218Y24D01*
X245Y24D02*
X247Y24D01*
X301Y24D02*
X303Y24D01*
X312Y24D02*
X315Y24D01*
X322Y24D02*
X326Y24D01*
X342Y24D02*
X345Y24D01*
X393Y24D02*
X400Y24D01*
X0Y23D02*
X7Y23D01*
X120Y23D02*
X128Y23D01*
X209Y23D02*
X217Y23D01*
X245Y23D02*
X247Y23D01*
X301Y23D02*
X303Y23D01*
X312Y23D02*
X315Y23D01*
X323Y23D02*
X327Y23D01*
X342Y23D02*
X345Y23D01*
X393Y23D02*
X400Y23D01*
X0Y22D02*
X7Y22D01*
X122Y22D02*
X130Y22D01*
X207Y22D02*
X215Y22D01*
X245Y22D02*
X247Y22D01*
X301Y22D02*
X303Y22D01*
X312Y22D02*
X315Y22D01*
X323Y22D02*
X327Y22D01*
X342Y22D02*
X345Y22D01*
X393Y22D02*
X400Y22D01*
X0Y21D02*
X7Y21D01*
X123Y21D02*
X131Y21D01*
X206Y21D02*
X214Y21D01*
X245Y21D02*
X247Y21D01*
X301Y21D02*
X303Y21D01*
X312Y21D02*
X315Y21D01*
X324Y21D02*
X328Y21D01*
X342Y21D02*
X345Y21D01*
X393Y21D02*
X400Y21D01*
X0Y20D02*
X7Y20D01*
X124Y20D02*
X131Y20D01*
X206Y20D02*
X212Y20D01*
X245Y20D02*
X247Y20D01*
X301Y20D02*
X303Y20D01*
X312Y20D02*
X315Y20D01*
X324Y20D02*
X328Y20D01*
X342Y20D02*
X345Y20D01*
X393Y20D02*
X400Y20D01*
X0Y19D02*
X7Y19D01*
X126Y19D02*
X131Y19D01*
X206Y19D02*
X211Y19D01*
X245Y19D02*
X247Y19D01*
X301Y19D02*
X303Y19D01*
X312Y19D02*
X315Y19D01*
X325Y19D02*
X329Y19D01*
X342Y19D02*
X345Y19D01*
X393Y19D02*
X400Y19D01*
X0Y18D02*
X7Y18D01*
X127Y18D02*
X131Y18D01*
X207Y18D02*
X209Y18D01*
X245Y18D02*
X247Y18D01*
X301Y18D02*
X303Y18D01*
X312Y18D02*
X315Y18D01*
X326Y18D02*
X330Y18D01*
X342Y18D02*
X345Y18D01*
X393Y18D02*
X400Y18D01*
X0Y17D02*
X7Y17D01*
X129Y17D02*
X131Y17D01*
X245Y17D02*
X247Y17D01*
X301Y17D02*
X303Y17D01*
X312Y17D02*
X315Y17D01*
X326Y17D02*
X330Y17D01*
X342Y17D02*
X345Y17D01*
X393Y17D02*
X400Y17D01*
X0Y16D02*
X7Y16D01*
X245Y16D02*
X247Y16D01*
X301Y16D02*
X303Y16D01*
X312Y16D02*
X315Y16D01*
X327Y16D02*
X331Y16D01*
X342Y16D02*
X360Y16D01*
X393Y16D02*
X400Y16D01*
X0Y15D02*
X7Y15D01*
X245Y15D02*
X247Y15D01*
X301Y15D02*
X303Y15D01*
X312Y15D02*
X315Y15D01*
X327Y15D02*
X331Y15D01*
X342Y15D02*
X361Y15D01*
X393Y15D02*
X400Y15D01*
X0Y14D02*
X7Y14D01*
X245Y14D02*
X247Y14D01*
X301Y14D02*
X303Y14D01*
X312Y14D02*
X315Y14D01*
X328Y14D02*
X331Y14D01*
X342Y14D02*
X361Y14D01*
X393Y14D02*
X400Y14D01*
X0Y13D02*
X7Y13D01*
X245Y13D02*
X247Y13D01*
X300Y13D02*
X303Y13D01*
X312Y13D02*
X314Y13D01*
X329Y13D02*
X331Y13D01*
X342Y13D02*
X361Y13D01*
X393Y13D02*
X400Y13D01*
X0Y12D02*
X7Y12D01*
X245Y12D02*
X303Y12D01*
X393Y12D02*
X400Y12D01*
X0Y11D02*
X7Y11D01*
X245Y11D02*
X303Y11D01*
X393Y11D02*
X400Y11D01*
X0Y10D02*
X7Y10D01*
X393Y10D02*
X400Y10D01*
X0Y9D02*
X7Y9D01*
X393Y9D02*
X400Y9D01*
X0Y8D02*
X131Y8D01*
X205Y8D02*
X400Y8D01*
X0Y7D02*
X131Y7D01*
X205Y7D02*
X400Y7D01*
X0Y6D02*
X131Y6D01*
X205Y6D02*
X400Y6D01*
X0Y5D02*
X131Y5D01*
X205Y5D02*
X400Y5D01*
X0Y4D02*
X131Y4D01*
X205Y4D02*
X400Y4D01*
X0Y3D02*
X131Y3D01*
X205Y3D02*
X400Y3D01*
X0Y2D02*
X131Y2D01*
X205Y2D02*
X400Y2D01*
X0Y1D02*
X131Y1D01*
X205Y1D02*
X400Y1D01*
D02*
G04 End of Silk1*
M02*