G04 MADE WITH FRITZING*
G04 WWW.FRITZING.ORG*
G04 DOUBLE SIDED*
G04 HOLES PLATED*
G04 CONTOUR ON CENTER OF CONTOUR VECTOR*
%ASAXBY*%
%FSLAX23Y23*%
%MOIN*%
%OFA0B0*%
%SFA1.0B1.0*%
%ADD10C,0.062992*%
%ADD11C,0.039370*%
%ADD12C,0.067559*%
%ADD13C,0.075000*%
%ADD14R,0.062992X0.062992*%
%ADD15R,0.075000X0.075000*%
%ADD16C,0.032000*%
%ADD17C,0.024000*%
%ADD18C,0.016000*%
%LNCOPPER0*%
G90*
G70*
G54D10*
X150Y34D03*
X150Y133D03*
X149Y1877D03*
X149Y1976D03*
X150Y955D03*
X150Y1054D03*
G54D11*
X263Y755D03*
X262Y2598D03*
X263Y1676D03*
X116Y721D03*
X115Y2564D03*
X116Y1642D03*
X160Y200D03*
X159Y2043D03*
X160Y1121D03*
X252Y463D03*
X251Y2306D03*
X253Y1384D03*
X210Y597D03*
X209Y2440D03*
X210Y1518D03*
G54D12*
X333Y48D03*
X332Y1892D03*
X334Y970D03*
X42Y847D03*
X42Y747D03*
X42Y647D03*
X41Y2690D03*
X41Y2590D03*
X41Y2490D03*
X42Y1769D03*
X42Y1669D03*
X42Y1569D03*
X333Y669D03*
X333Y569D03*
X332Y2512D03*
X332Y2412D03*
X334Y1590D03*
X334Y1490D03*
G54D13*
X45Y547D03*
X45Y447D03*
X45Y547D03*
X45Y447D03*
X44Y2390D03*
X44Y2290D03*
X44Y2390D03*
X44Y2290D03*
X46Y1468D03*
X46Y1368D03*
X46Y1468D03*
X46Y1368D03*
G54D12*
X42Y350D03*
X42Y250D03*
X42Y150D03*
X42Y50D03*
X41Y2193D03*
X41Y2093D03*
X41Y1993D03*
X41Y1893D03*
X42Y1271D03*
X42Y1171D03*
X42Y1071D03*
X42Y971D03*
G54D14*
X150Y34D03*
X149Y1877D03*
X150Y955D03*
G54D15*
X45Y547D03*
X45Y547D03*
X44Y2390D03*
X44Y2390D03*
X46Y1468D03*
X46Y1468D03*
G54D16*
X262Y638D02*
X263Y730D01*
D02*
X261Y2481D02*
X262Y2573D01*
D02*
X263Y1559D02*
X263Y1651D01*
D02*
X312Y590D02*
X262Y638D01*
D02*
X311Y2433D02*
X261Y2481D01*
D02*
X312Y1511D02*
X263Y1559D01*
G54D17*
D02*
X116Y200D02*
X141Y200D01*
D02*
X115Y2043D02*
X140Y2043D01*
D02*
X116Y1121D02*
X141Y1121D01*
D02*
X116Y702D02*
X116Y200D01*
D02*
X115Y2545D02*
X115Y2043D01*
D02*
X116Y1623D02*
X116Y1121D01*
D02*
X89Y200D02*
X59Y232D01*
D02*
X88Y2043D02*
X58Y2075D01*
D02*
X89Y1121D02*
X59Y1153D01*
D02*
X141Y200D02*
X89Y200D01*
D02*
X140Y2043D02*
X88Y2043D01*
D02*
X141Y1121D02*
X89Y1121D01*
G54D18*
D02*
X253Y82D02*
X254Y227D01*
D02*
X252Y1925D02*
X253Y2070D01*
D02*
X253Y1003D02*
X254Y1148D01*
D02*
X254Y227D02*
X301Y283D01*
D02*
X253Y2070D02*
X300Y2126D01*
D02*
X254Y1148D02*
X301Y1204D01*
D02*
X301Y283D02*
X300Y508D01*
D02*
X300Y2126D02*
X299Y2351D01*
D02*
X301Y1204D02*
X300Y1429D01*
D02*
X300Y508D02*
X219Y587D01*
D02*
X299Y2351D02*
X218Y2430D01*
D02*
X300Y1429D02*
X219Y1508D01*
D02*
X316Y56D02*
X253Y82D01*
D02*
X315Y1899D02*
X252Y1925D01*
D02*
X316Y977D02*
X253Y1003D01*
D02*
X211Y425D02*
X242Y454D01*
D02*
X210Y2268D02*
X241Y2297D01*
D02*
X211Y1346D02*
X243Y1375D01*
D02*
X211Y84D02*
X211Y425D01*
D02*
X210Y1927D02*
X210Y2268D01*
D02*
X211Y1005D02*
X211Y1346D01*
D02*
X102Y84D02*
X211Y84D01*
D02*
X101Y1927D02*
X210Y1927D01*
D02*
X102Y1005D02*
X211Y1005D01*
D02*
X59Y59D02*
X102Y84D01*
D02*
X58Y1903D02*
X101Y1927D01*
D02*
X59Y981D02*
X102Y1005D01*
G04 End of Copper0*
M02*