G04 MADE WITH FRITZING*
G04 WWW.FRITZING.ORG*
G04 DOUBLE SIDED*
G04 HOLES PLATED*
G04 CONTOUR ON CENTER OF CONTOUR VECTOR*
%ASAXBY*%
%FSLAX23Y23*%
%MOIN*%
%OFA0B0*%
%SFA1.0B1.0*%
%ADD10C,0.062992*%
%ADD11C,0.039370*%
%ADD12C,0.067559*%
%ADD13C,0.075000*%
%ADD14R,0.043307X0.047244*%
%ADD15R,0.049208X0.078736*%
%ADD16R,0.049222X0.078736*%
%ADD17R,0.062992X0.062992*%
%ADD18R,0.032677X0.024803*%
%ADD19R,0.024000X0.087000*%
%ADD20R,0.035433X0.031496*%
%ADD21R,0.075000X0.075000*%
%ADD22C,0.024000*%
%ADD23C,0.016000*%
%ADD24C,0.032000*%
%ADD25R,0.001000X0.001000*%
%LNCOPPER1*%
G90*
G70*
G54D10*
X150Y34D03*
X150Y133D03*
X149Y1877D03*
X149Y1976D03*
X150Y955D03*
X150Y1054D03*
G54D11*
X263Y755D03*
X262Y2598D03*
X263Y1676D03*
X116Y721D03*
X115Y2564D03*
X116Y1642D03*
X160Y200D03*
X159Y2043D03*
X160Y1121D03*
X252Y463D03*
X251Y2306D03*
X253Y1384D03*
X210Y597D03*
X209Y2440D03*
X210Y1518D03*
G54D12*
X333Y48D03*
X332Y1892D03*
X334Y970D03*
X42Y847D03*
X42Y747D03*
X42Y647D03*
X41Y2690D03*
X41Y2590D03*
X41Y2490D03*
X42Y1769D03*
X42Y1669D03*
X42Y1569D03*
X333Y669D03*
X333Y569D03*
X332Y2512D03*
X332Y2412D03*
X334Y1590D03*
X334Y1490D03*
G54D13*
X45Y547D03*
X45Y447D03*
X45Y547D03*
X45Y447D03*
X44Y2390D03*
X44Y2290D03*
X44Y2390D03*
X44Y2290D03*
X46Y1468D03*
X46Y1368D03*
X46Y1468D03*
X46Y1368D03*
G54D12*
X42Y350D03*
X42Y250D03*
X42Y150D03*
X42Y50D03*
X41Y2193D03*
X41Y2093D03*
X41Y1993D03*
X41Y1893D03*
X42Y1271D03*
X42Y1171D03*
X42Y1071D03*
X42Y971D03*
G54D14*
X354Y362D03*
X354Y295D03*
X353Y2205D03*
X353Y2138D03*
X354Y1283D03*
X354Y1216D03*
X260Y101D03*
X260Y34D03*
X259Y1944D03*
X259Y1877D03*
X260Y1022D03*
X260Y955D03*
X264Y613D03*
X264Y680D03*
X263Y2456D03*
X263Y2523D03*
X264Y1534D03*
X264Y1601D03*
G54D15*
X205Y756D03*
G54D16*
X333Y756D03*
G54D15*
X204Y2599D03*
G54D16*
X332Y2599D03*
G54D15*
X205Y1677D03*
G54D16*
X333Y1677D03*
G54D17*
X150Y34D03*
X149Y1877D03*
X150Y955D03*
G54D18*
X353Y506D03*
X353Y416D03*
X352Y2349D03*
X352Y2259D03*
X353Y1427D03*
X353Y1337D03*
G54D14*
X121Y781D03*
X121Y848D03*
X120Y2624D03*
X120Y2691D03*
X121Y1702D03*
X121Y1769D03*
G54D18*
X302Y317D03*
X302Y407D03*
X301Y2160D03*
X301Y2250D03*
X302Y1238D03*
X302Y1328D03*
G54D19*
X260Y531D03*
X210Y531D03*
X160Y531D03*
X110Y531D03*
X110Y266D03*
X160Y266D03*
X210Y266D03*
X260Y266D03*
X259Y2374D03*
X209Y2374D03*
X159Y2374D03*
X109Y2374D03*
X109Y2109D03*
X159Y2109D03*
X209Y2109D03*
X259Y2109D03*
X260Y1452D03*
X210Y1452D03*
X160Y1452D03*
X110Y1452D03*
X110Y1187D03*
X160Y1187D03*
X210Y1187D03*
X260Y1187D03*
G54D15*
X332Y2690D03*
G54D16*
X205Y2690D03*
G54D15*
X334Y1768D03*
G54D16*
X206Y1768D03*
G54D20*
X116Y685D03*
X116Y610D03*
X198Y648D03*
X115Y2528D03*
X115Y2453D03*
X197Y2491D03*
X116Y1606D03*
X116Y1531D03*
X199Y1569D03*
G54D21*
X45Y547D03*
X45Y547D03*
X44Y2390D03*
X44Y2390D03*
X46Y1468D03*
X46Y1468D03*
G54D22*
X160Y219D02*
X160Y228D01*
D02*
X159Y2062D02*
X159Y2071D01*
D02*
X160Y1140D02*
X160Y1149D01*
G54D23*
D02*
X261Y320D02*
X79Y440D01*
D02*
X260Y2163D02*
X78Y2283D01*
D02*
X261Y1241D02*
X79Y1361D01*
G54D22*
D02*
X302Y310D02*
X302Y295D01*
D02*
X301Y2153D02*
X301Y2138D01*
D02*
X302Y1231D02*
X302Y1216D01*
G54D23*
D02*
X258Y409D02*
X161Y476D01*
D02*
X257Y2252D02*
X160Y2319D01*
D02*
X258Y1330D02*
X161Y1397D01*
G54D24*
D02*
X42Y678D02*
X42Y717D01*
D02*
X41Y2521D02*
X41Y2560D01*
D02*
X42Y1599D02*
X42Y1638D01*
G54D23*
D02*
X291Y408D02*
X258Y409D01*
D02*
X290Y2251D02*
X257Y2252D01*
D02*
X291Y1329D02*
X258Y1330D01*
D02*
X161Y476D02*
X160Y493D01*
D02*
X160Y2319D02*
X159Y2336D01*
D02*
X161Y1397D02*
X161Y1414D01*
G54D24*
D02*
X42Y585D02*
X42Y617D01*
D02*
X41Y2428D02*
X41Y2460D01*
D02*
X42Y1506D02*
X42Y1538D01*
G54D22*
D02*
X110Y152D02*
X67Y151D01*
D02*
X109Y1995D02*
X66Y1994D01*
D02*
X110Y1073D02*
X67Y1072D01*
D02*
X302Y506D02*
X302Y414D01*
D02*
X301Y2349D02*
X301Y2257D01*
D02*
X302Y1427D02*
X302Y1335D01*
D02*
X110Y466D02*
X261Y363D01*
D02*
X109Y2309D02*
X260Y2206D01*
D02*
X110Y1387D02*
X261Y1284D01*
D02*
X116Y695D02*
X116Y702D01*
D02*
X115Y2538D02*
X115Y2545D01*
D02*
X116Y1616D02*
X116Y1623D01*
D02*
X110Y152D02*
X110Y228D01*
D02*
X109Y1995D02*
X109Y2071D01*
D02*
X110Y1073D02*
X110Y1149D01*
D02*
X302Y295D02*
X338Y295D01*
D02*
X301Y2138D02*
X337Y2138D01*
D02*
X302Y1216D02*
X338Y1216D01*
D02*
X261Y363D02*
X338Y362D01*
D02*
X260Y2206D02*
X337Y2205D01*
D02*
X261Y1284D02*
X338Y1283D01*
G54D24*
D02*
X43Y581D02*
X42Y585D01*
D02*
X42Y2424D02*
X41Y2428D01*
D02*
X43Y1502D02*
X42Y1506D01*
G54D22*
D02*
X126Y144D02*
X110Y152D01*
D02*
X125Y1987D02*
X109Y1995D01*
D02*
X126Y1065D02*
X110Y1073D01*
D02*
X354Y380D02*
X353Y409D01*
D02*
X353Y2223D02*
X352Y2252D01*
D02*
X354Y1301D02*
X353Y1330D01*
G54D24*
D02*
X263Y779D02*
X263Y847D01*
D02*
X262Y2622D02*
X262Y2690D01*
D02*
X263Y1700D02*
X263Y1768D01*
G54D22*
D02*
X260Y487D02*
X260Y493D01*
D02*
X259Y2330D02*
X259Y2336D01*
D02*
X260Y1408D02*
X260Y1414D01*
D02*
X260Y295D02*
X260Y266D01*
D02*
X259Y2138D02*
X259Y2109D01*
D02*
X260Y1216D02*
X260Y1187D01*
G54D24*
D02*
X263Y847D02*
X314Y847D01*
D02*
X262Y2690D02*
X313Y2690D01*
D02*
X263Y1768D02*
X315Y1768D01*
G54D22*
D02*
X258Y481D02*
X260Y487D01*
D02*
X257Y2324D02*
X259Y2330D01*
D02*
X258Y1402D02*
X260Y1408D01*
G54D23*
D02*
X261Y304D02*
X261Y320D01*
D02*
X259Y2147D02*
X260Y2163D01*
D02*
X261Y1225D02*
X261Y1241D01*
D02*
X137Y781D02*
X160Y781D01*
D02*
X136Y2624D02*
X159Y2624D01*
D02*
X137Y1702D02*
X160Y1702D01*
D02*
X211Y312D02*
X211Y304D01*
D02*
X210Y2155D02*
X210Y2147D01*
D02*
X211Y1233D02*
X211Y1225D01*
D02*
X160Y781D02*
X160Y569D01*
D02*
X159Y2624D02*
X159Y2412D01*
D02*
X160Y1702D02*
X160Y1490D01*
D02*
X152Y350D02*
X211Y312D01*
D02*
X151Y2193D02*
X210Y2155D01*
D02*
X152Y1271D02*
X211Y1233D01*
G54D22*
D02*
X110Y493D02*
X110Y466D01*
D02*
X109Y2336D02*
X109Y2309D01*
D02*
X110Y1414D02*
X110Y1387D01*
G54D23*
D02*
X62Y350D02*
X152Y350D01*
D02*
X61Y2193D02*
X151Y2193D01*
D02*
X62Y1271D02*
X152Y1271D01*
G54D24*
D02*
X238Y755D02*
X224Y755D01*
D02*
X237Y2598D02*
X223Y2598D01*
D02*
X238Y1676D02*
X224Y1676D01*
D02*
X198Y680D02*
X198Y658D01*
D02*
X197Y2523D02*
X197Y2501D01*
D02*
X199Y1601D02*
X199Y1579D01*
G54D22*
D02*
X342Y506D02*
X302Y506D01*
D02*
X341Y2349D02*
X301Y2349D01*
D02*
X343Y1427D02*
X302Y1427D01*
G54D24*
D02*
X281Y603D02*
X308Y586D01*
D02*
X279Y2446D02*
X307Y2429D01*
D02*
X281Y1524D02*
X308Y1507D01*
G54D23*
D02*
X79Y440D02*
X68Y442D01*
D02*
X78Y2283D02*
X67Y2285D01*
D02*
X79Y1361D02*
X68Y1363D01*
G54D24*
D02*
X281Y677D02*
X303Y674D01*
D02*
X279Y2520D02*
X302Y2517D01*
D02*
X281Y1599D02*
X303Y1595D01*
G54D22*
D02*
X338Y295D02*
X260Y295D01*
D02*
X337Y2138D02*
X259Y2138D01*
D02*
X338Y1216D02*
X260Y1216D01*
G54D24*
D02*
X248Y680D02*
X198Y680D01*
D02*
X247Y2523D02*
X197Y2523D01*
D02*
X248Y1601D02*
X199Y1601D01*
D02*
X186Y847D02*
X137Y848D01*
D02*
X185Y2690D02*
X136Y2691D01*
D02*
X187Y1768D02*
X137Y1769D01*
G54D22*
D02*
X210Y578D02*
X210Y569D01*
D02*
X209Y2421D02*
X209Y2412D01*
D02*
X210Y1499D02*
X210Y1490D01*
D02*
X110Y610D02*
X110Y569D01*
D02*
X109Y2453D02*
X109Y2412D01*
D02*
X110Y1531D02*
X110Y1490D01*
D02*
X116Y610D02*
X110Y610D01*
D02*
X115Y2453D02*
X109Y2453D01*
D02*
X116Y1531D02*
X110Y1531D01*
G54D24*
D02*
X81Y531D02*
X77Y533D01*
D02*
X80Y2374D02*
X76Y2376D01*
D02*
X81Y1452D02*
X77Y1454D01*
D02*
X104Y531D02*
X81Y531D01*
D02*
X103Y2374D02*
X80Y2374D01*
D02*
X104Y1452D02*
X81Y1452D01*
G54D22*
D02*
X260Y119D02*
X260Y228D01*
D02*
X259Y1962D02*
X259Y2071D01*
D02*
X260Y1040D02*
X260Y1149D01*
D02*
X177Y34D02*
X243Y34D01*
D02*
X176Y1877D02*
X242Y1877D01*
D02*
X177Y955D02*
X243Y955D01*
G54D24*
D02*
X333Y722D02*
X333Y700D01*
D02*
X332Y2565D02*
X332Y2543D01*
D02*
X333Y1643D02*
X333Y1621D01*
D02*
X105Y848D02*
X73Y848D01*
D02*
X104Y2691D02*
X72Y2691D01*
D02*
X105Y1769D02*
X73Y1769D01*
G36*
X309Y808D02*
X309Y887D01*
X358Y887D01*
X358Y808D01*
X309Y808D01*
G37*
D02*
G36*
X181Y808D02*
X181Y887D01*
X230Y887D01*
X230Y808D01*
X181Y808D01*
G37*
D02*
G54D25*
X315Y1986D02*
X317Y1986D01*
X336Y1986D02*
X354Y1986D01*
X315Y1985D02*
X318Y1985D01*
X335Y1985D02*
X354Y1985D01*
X314Y1984D02*
X318Y1984D01*
X336Y1984D02*
X354Y1984D01*
X314Y1983D02*
X318Y1983D01*
X337Y1983D02*
X353Y1983D01*
X314Y1982D02*
X319Y1982D01*
X349Y1982D02*
X352Y1982D01*
X314Y1981D02*
X319Y1981D01*
X348Y1981D02*
X352Y1981D01*
X313Y1980D02*
X319Y1980D01*
X348Y1980D02*
X351Y1980D01*
X313Y1979D02*
X320Y1979D01*
X347Y1979D02*
X351Y1979D01*
X313Y1978D02*
X320Y1978D01*
X347Y1978D02*
X350Y1978D01*
X312Y1977D02*
X320Y1977D01*
X346Y1977D02*
X350Y1977D01*
X312Y1976D02*
X315Y1976D01*
X317Y1976D02*
X321Y1976D01*
X345Y1976D02*
X349Y1976D01*
X312Y1975D02*
X315Y1975D01*
X318Y1975D02*
X321Y1975D01*
X345Y1975D02*
X348Y1975D01*
X312Y1974D02*
X315Y1974D01*
X318Y1974D02*
X321Y1974D01*
X344Y1974D02*
X348Y1974D01*
X311Y1973D02*
X314Y1973D01*
X318Y1973D02*
X321Y1973D01*
X344Y1973D02*
X347Y1973D01*
X311Y1972D02*
X314Y1972D01*
X319Y1972D02*
X322Y1972D01*
X343Y1972D02*
X347Y1972D01*
X311Y1971D02*
X314Y1971D01*
X319Y1971D02*
X322Y1971D01*
X342Y1971D02*
X346Y1971D01*
X310Y1970D02*
X314Y1970D01*
X319Y1970D02*
X322Y1970D01*
X342Y1970D02*
X345Y1970D01*
X310Y1969D02*
X313Y1969D01*
X319Y1969D02*
X323Y1969D01*
X341Y1969D02*
X345Y1969D01*
X310Y1968D02*
X313Y1968D01*
X320Y1968D02*
X323Y1968D01*
X341Y1968D02*
X344Y1968D01*
X310Y1967D02*
X313Y1967D01*
X320Y1967D02*
X323Y1967D01*
X340Y1967D02*
X344Y1967D01*
X309Y1966D02*
X323Y1966D01*
X340Y1966D02*
X343Y1966D01*
X309Y1965D02*
X324Y1965D01*
X339Y1965D02*
X343Y1965D01*
X309Y1964D02*
X324Y1964D01*
X338Y1964D02*
X342Y1964D01*
X308Y1963D02*
X324Y1963D01*
X338Y1963D02*
X341Y1963D01*
X308Y1962D02*
X311Y1962D01*
X322Y1962D02*
X325Y1962D01*
X337Y1962D02*
X341Y1962D01*
X308Y1961D02*
X311Y1961D01*
X322Y1961D02*
X325Y1961D01*
X337Y1961D02*
X340Y1961D01*
X307Y1960D02*
X311Y1960D01*
X322Y1960D02*
X325Y1960D01*
X336Y1960D02*
X353Y1960D01*
X307Y1959D02*
X310Y1959D01*
X322Y1959D02*
X325Y1959D01*
X335Y1959D02*
X354Y1959D01*
X307Y1958D02*
X310Y1958D01*
X323Y1958D02*
X326Y1958D01*
X335Y1958D02*
X354Y1958D01*
X308Y1957D02*
X309Y1957D01*
X323Y1957D02*
X325Y1957D01*
X335Y1957D02*
X353Y1957D01*
X317Y1065D02*
X318Y1065D01*
X338Y1065D02*
X355Y1065D01*
X316Y1064D02*
X319Y1064D01*
X337Y1064D02*
X355Y1064D01*
X316Y1063D02*
X319Y1063D01*
X337Y1063D02*
X355Y1063D01*
X315Y1062D02*
X319Y1062D01*
X337Y1062D02*
X355Y1062D01*
X315Y1061D02*
X320Y1061D01*
X350Y1061D02*
X354Y1061D01*
X315Y1060D02*
X320Y1060D01*
X350Y1060D02*
X353Y1060D01*
X315Y1059D02*
X320Y1059D01*
X349Y1059D02*
X353Y1059D01*
X314Y1058D02*
X321Y1058D01*
X349Y1058D02*
X352Y1058D01*
X314Y1057D02*
X321Y1057D01*
X348Y1057D02*
X352Y1057D01*
X314Y1056D02*
X321Y1056D01*
X347Y1056D02*
X351Y1056D01*
X313Y1055D02*
X321Y1055D01*
X347Y1055D02*
X351Y1055D01*
X313Y1054D02*
X316Y1054D01*
X319Y1054D02*
X322Y1054D01*
X346Y1054D02*
X350Y1054D01*
X313Y1053D02*
X316Y1053D01*
X319Y1053D02*
X322Y1053D01*
X346Y1053D02*
X349Y1053D01*
X313Y1052D02*
X316Y1052D01*
X319Y1052D02*
X322Y1052D01*
X345Y1052D02*
X349Y1052D01*
X312Y1051D02*
X315Y1051D01*
X319Y1051D02*
X323Y1051D01*
X345Y1051D02*
X348Y1051D01*
X312Y1050D02*
X315Y1050D01*
X320Y1050D02*
X323Y1050D01*
X344Y1050D02*
X348Y1050D01*
X312Y1049D02*
X315Y1049D01*
X320Y1049D02*
X323Y1049D01*
X343Y1049D02*
X347Y1049D01*
X311Y1048D02*
X315Y1048D01*
X320Y1048D02*
X323Y1048D01*
X343Y1048D02*
X346Y1048D01*
X311Y1047D02*
X314Y1047D01*
X321Y1047D02*
X324Y1047D01*
X342Y1047D02*
X346Y1047D01*
X311Y1046D02*
X314Y1046D01*
X321Y1046D02*
X324Y1046D01*
X342Y1046D02*
X345Y1046D01*
X311Y1045D02*
X324Y1045D01*
X341Y1045D02*
X345Y1045D01*
X310Y1044D02*
X325Y1044D01*
X340Y1044D02*
X344Y1044D01*
X310Y1043D02*
X325Y1043D01*
X340Y1043D02*
X343Y1043D01*
X310Y1042D02*
X325Y1042D01*
X339Y1042D02*
X343Y1042D01*
X309Y1041D02*
X313Y1041D01*
X322Y1041D02*
X325Y1041D01*
X339Y1041D02*
X342Y1041D01*
X309Y1040D02*
X312Y1040D01*
X323Y1040D02*
X326Y1040D01*
X338Y1040D02*
X342Y1040D01*
X309Y1039D02*
X312Y1039D01*
X323Y1039D02*
X326Y1039D01*
X338Y1039D02*
X341Y1039D01*
X308Y1038D02*
X312Y1038D01*
X323Y1038D02*
X326Y1038D01*
X337Y1038D02*
X354Y1038D01*
X308Y1037D02*
X311Y1037D01*
X324Y1037D02*
X327Y1037D01*
X336Y1037D02*
X355Y1037D01*
X308Y1036D02*
X311Y1036D01*
X324Y1036D02*
X327Y1036D01*
X336Y1036D02*
X355Y1036D01*
X309Y1035D02*
X310Y1035D01*
X325Y1035D02*
X326Y1035D01*
X336Y1035D02*
X354Y1035D01*
X317Y144D02*
X318Y144D01*
X337Y144D02*
X355Y144D01*
X316Y143D02*
X319Y143D01*
X337Y143D02*
X355Y143D01*
X316Y142D02*
X319Y142D01*
X336Y142D02*
X355Y142D01*
X315Y141D02*
X319Y141D01*
X337Y141D02*
X354Y141D01*
X315Y140D02*
X320Y140D01*
X350Y140D02*
X354Y140D01*
X315Y139D02*
X320Y139D01*
X350Y139D02*
X353Y139D01*
X314Y138D02*
X320Y138D01*
X349Y138D02*
X353Y138D01*
X314Y137D02*
X321Y137D01*
X348Y137D02*
X352Y137D01*
X314Y136D02*
X321Y136D01*
X348Y136D02*
X352Y136D01*
X314Y135D02*
X321Y135D01*
X347Y135D02*
X351Y135D01*
X313Y134D02*
X316Y134D01*
X318Y134D02*
X321Y134D01*
X347Y134D02*
X350Y134D01*
X313Y133D02*
X316Y133D01*
X319Y133D02*
X322Y133D01*
X346Y133D02*
X350Y133D01*
X313Y132D02*
X316Y132D01*
X319Y132D02*
X322Y132D01*
X346Y132D02*
X349Y132D01*
X312Y131D02*
X316Y131D01*
X319Y131D02*
X322Y131D01*
X345Y131D02*
X349Y131D01*
X312Y130D02*
X315Y130D01*
X319Y130D02*
X323Y130D01*
X344Y130D02*
X348Y130D01*
X312Y129D02*
X315Y129D01*
X320Y129D02*
X323Y129D01*
X344Y129D02*
X347Y129D01*
X312Y128D02*
X315Y128D01*
X320Y128D02*
X323Y128D01*
X343Y128D02*
X347Y128D01*
X311Y127D02*
X314Y127D01*
X320Y127D02*
X323Y127D01*
X343Y127D02*
X346Y127D01*
X311Y126D02*
X314Y126D01*
X321Y126D02*
X324Y126D01*
X342Y126D02*
X346Y126D01*
X311Y125D02*
X314Y125D01*
X321Y125D02*
X324Y125D01*
X341Y125D02*
X345Y125D01*
X310Y124D02*
X324Y124D01*
X341Y124D02*
X344Y124D01*
X310Y123D02*
X325Y123D01*
X340Y123D02*
X344Y123D01*
X310Y122D02*
X325Y122D01*
X340Y122D02*
X343Y122D01*
X310Y121D02*
X325Y121D01*
X339Y121D02*
X343Y121D01*
X309Y120D02*
X312Y120D01*
X322Y120D02*
X325Y120D01*
X339Y120D02*
X342Y120D01*
X309Y119D02*
X312Y119D01*
X323Y119D02*
X326Y119D01*
X338Y119D02*
X342Y119D01*
X309Y118D02*
X312Y118D01*
X323Y118D02*
X326Y118D01*
X337Y118D02*
X341Y118D01*
X308Y117D02*
X312Y117D01*
X323Y117D02*
X326Y117D01*
X337Y117D02*
X354Y117D01*
X308Y116D02*
X311Y116D01*
X324Y116D02*
X327Y116D01*
X336Y116D02*
X355Y116D01*
X308Y115D02*
X311Y115D01*
X324Y115D02*
X327Y115D01*
X336Y115D02*
X355Y115D01*
X309Y114D02*
X310Y114D01*
X325Y114D02*
X326Y114D01*
X336Y114D02*
X354Y114D01*
D02*
G04 End of Copper1*
M02*