; NON-PLATED HOLES START AT T1
; THROUGH (PLATED) HOLES START AT T100
M48
INCH
T1C0.086614
T100C0.015748
T101C0.031497
T102C0.027559
T103C0.035000
%
T1
X003267Y011139
X003266Y001928
X003256Y020359
T100
X002087Y024396
X002514Y023058
X002097Y005965
X002525Y013838
X001593Y020431
X001603Y002000
X001604Y011211
X001148Y025639
X002098Y015176
X001159Y016419
X001158Y007208
X002626Y016757
X002524Y004627
X002626Y007546
X002615Y025977
T101
X001488Y019756
X001499Y009551
X001488Y018771
X001498Y000340
X001499Y010536
X001498Y001325
T102
X000412Y021930
X003334Y000484
X003324Y025122
X000422Y001499
X000413Y026904
X003324Y018915
X000424Y015685
X003334Y006692
X000422Y003499
X000423Y012710
X000424Y017685
X003324Y024122
X000413Y025904
X000413Y024904
X000412Y018930
X003335Y015903
X000423Y006474
X003334Y005692
X000423Y011710
X000424Y016685
X000423Y008474
X000412Y019930
X003335Y009696
X000423Y010710
X000423Y009710
X000423Y007474
X000422Y002499
X000422Y000499
X000412Y020930
X003335Y014903
T103
X000454Y004465
X000455Y013676
X000444Y023896
X000455Y014676
X000454Y005465
X000444Y022896
T00
M30
